%TF.GenerationSoftware,KiCad,Pcbnew,(6.0.9)*%
%TF.CreationDate,2022-12-23T11:45:30+05:30*%
%TF.ProjectId,IN-14 Panel,494e2d31-3420-4506-916e-656c2e6b6963,1.0*%
%TF.SameCoordinates,Original*%
%TF.FileFunction,Soldermask,Top*%
%TF.FilePolarity,Negative*%
%FSLAX46Y46*%
G04 Gerber Fmt 4.6, Leading zero omitted, Abs format (unit mm)*
G04 Created by KiCad (PCBNEW (6.0.9)) date 2022-12-23 11:45:30*
%MOMM*%
%LPD*%
G01*
G04 APERTURE LIST*
%ADD10C,1.600000*%
%ADD11O,1.600000X1.600000*%
%ADD12R,1.700000X1.700000*%
%ADD13O,1.700000X1.700000*%
%ADD14R,1.600000X1.600000*%
%ADD15R,1.500000X1.050000*%
%ADD16O,1.500000X1.050000*%
%ADD17R,2.000000X2.000000*%
%ADD18C,2.000000*%
%ADD19C,1.107440*%
%ADD20C,1.346200*%
G04 APERTURE END LIST*
D10*
%TO.C,R4*%
X163000000Y-112810000D03*
D11*
X163000000Y-105190000D03*
%TD*%
D12*
%TO.C,J2*%
X111000000Y-93725000D03*
D13*
X111000000Y-96265000D03*
%TD*%
D14*
%TO.C,U1*%
X118300000Y-134875000D03*
D11*
X118300000Y-132335000D03*
X118300000Y-129795000D03*
X118300000Y-127255000D03*
X118300000Y-124715000D03*
X118300000Y-122175000D03*
X118300000Y-119635000D03*
X118300000Y-117095000D03*
X110680000Y-117095000D03*
X110680000Y-119635000D03*
X110680000Y-122175000D03*
X110680000Y-124715000D03*
X110680000Y-127255000D03*
X110680000Y-129795000D03*
X110680000Y-132335000D03*
X110680000Y-134875000D03*
%TD*%
D15*
%TO.C,Q1*%
X163640000Y-93730000D03*
D16*
X163640000Y-95000000D03*
X163640000Y-96270000D03*
%TD*%
D17*
%TO.C,C1*%
X120000000Y-86632323D03*
D18*
X120000000Y-91632323D03*
%TD*%
D12*
%TO.C,J3*%
X169500000Y-75460000D03*
D13*
X169500000Y-78000000D03*
X169500000Y-80540000D03*
X169500000Y-83080000D03*
X169500000Y-85620000D03*
X169500000Y-88160000D03*
%TD*%
D10*
%TO.C,C2*%
X121500000Y-78000000D03*
X121500000Y-75500000D03*
%TD*%
%TO.C,R1*%
X159500000Y-89190000D03*
D11*
X159500000Y-96810000D03*
%TD*%
D10*
%TO.C,R2*%
X156500000Y-89190000D03*
D11*
X156500000Y-96810000D03*
%TD*%
D12*
%TO.C,J4*%
X111000000Y-75420000D03*
D13*
X111000000Y-77960000D03*
X111000000Y-80500000D03*
X111000000Y-83040000D03*
X111000000Y-85580000D03*
X111000000Y-88120000D03*
%TD*%
D12*
%TO.C,J1*%
X169500000Y-93725000D03*
D13*
X169500000Y-96265000D03*
%TD*%
D10*
%TO.C,R3*%
X111000000Y-112810000D03*
D11*
X111000000Y-105190000D03*
%TD*%
D14*
%TO.C,C3*%
X116500000Y-75544888D03*
D10*
X116500000Y-77544888D03*
%TD*%
D14*
%TO.C,M2*%
X149500000Y-124300000D03*
D11*
X152040000Y-124300000D03*
X154580000Y-124300000D03*
X157120000Y-124300000D03*
X159660000Y-124300000D03*
X162200000Y-124300000D03*
X164740000Y-124300000D03*
X167280000Y-124300000D03*
X167280000Y-116680000D03*
X164740000Y-116680000D03*
X162200000Y-116680000D03*
X159660000Y-116680000D03*
X157120000Y-116680000D03*
X154580000Y-116680000D03*
X152040000Y-116680000D03*
X149500000Y-116680000D03*
%TD*%
D14*
%TO.C,M1*%
X123625000Y-124300000D03*
D11*
X126165000Y-124300000D03*
X128705000Y-124300000D03*
X131245000Y-124300000D03*
X133785000Y-124300000D03*
X136325000Y-124300000D03*
X138865000Y-124300000D03*
X141405000Y-124300000D03*
X141405000Y-116680000D03*
X138865000Y-116680000D03*
X136325000Y-116680000D03*
X133785000Y-116680000D03*
X131245000Y-116680000D03*
X128705000Y-116680000D03*
X126165000Y-116680000D03*
X123625000Y-116680000D03*
%TD*%
D19*
%TO.C,N3*%
X171587500Y-105000000D03*
X168412500Y-105000000D03*
%TD*%
D20*
%TO.C,N1*%
X116907300Y-108515360D03*
X127092700Y-108515360D03*
X128144260Y-105744220D03*
X127786120Y-102805440D03*
X126104640Y-100367040D03*
X123480820Y-98990360D03*
X120519180Y-98990360D03*
X117895360Y-100367040D03*
X116213880Y-102805440D03*
X115855740Y-105744220D03*
X122000000Y-111187440D03*
X119124720Y-110478780D03*
X124875280Y-110478780D03*
%TD*%
%TO.C,N2*%
X142907300Y-108515360D03*
X153092700Y-108515360D03*
X154144260Y-105744220D03*
X153786120Y-102805440D03*
X152104640Y-100367040D03*
X149480820Y-98990360D03*
X146519180Y-98990360D03*
X143895360Y-100367040D03*
X142213880Y-102805440D03*
X141855740Y-105744220D03*
X148000000Y-111187440D03*
X145124720Y-110478780D03*
X150875280Y-110478780D03*
%TD*%
M02*
