M48
; DRILL file {KiCad (6.0.9)} date Fri Dec 23 11:45:32 2022
; FORMAT={-:-/ absolute / inch / decimal}
; #@! TF.CreationDate,2022-12-23T11:45:32+05:30
; #@! TF.GenerationSoftware,Kicad,Pcbnew,(6.0.9)
; #@! TF.FileFunction,Plated,1,2,PTH
FMAT,2
INCH
; #@! TA.AperFunction,Plated,PTH,ViaDrill
T1C0.0157
; #@! TA.AperFunction,Plated,PTH,ComponentDrill
T2C0.0236
; #@! TA.AperFunction,Plated,PTH,ComponentDrill
T3C0.0295
; #@! TA.AperFunction,Plated,PTH,ComponentDrill
T4C0.0315
; #@! TA.AperFunction,Plated,PTH,ComponentDrill
T5C0.0330
; #@! TA.AperFunction,Plated,PTH,ComponentDrill
T6C0.0394
%
G90
G05
T1
X6.8376Y-3.4646
T2
X6.6304Y-4.1339
X6.7554Y-4.1339
T3
X6.4425Y-3.6902
X6.4425Y-3.7402
X6.4425Y-3.7902
T4
X4.3575Y-4.61
X4.3575Y-4.71
X4.3575Y-4.81
X4.3575Y-4.91
X4.3575Y-5.01
X4.3575Y-5.11
X4.3575Y-5.21
X4.3575Y-5.31
X4.3701Y-4.1413
X4.3701Y-4.4413
X4.5866Y-2.9742
X4.5866Y-3.0529
X4.6575Y-4.61
X4.6575Y-4.71
X4.6575Y-4.81
X4.6575Y-4.91
X4.6575Y-5.01
X4.6575Y-5.11
X4.6575Y-5.21
X4.6575Y-5.31
X4.7835Y-2.9724
X4.7835Y-3.0709
X4.8671Y-4.5937
X4.8671Y-4.8937
X4.9671Y-4.5937
X4.9671Y-4.8937
X5.0671Y-4.5937
X5.0671Y-4.8937
X5.1671Y-4.5937
X5.1671Y-4.8937
X5.2671Y-4.5937
X5.2671Y-4.8937
X5.3671Y-4.5937
X5.3671Y-4.8937
X5.4671Y-4.5937
X5.4671Y-4.8937
X5.5671Y-4.5937
X5.5671Y-4.8937
X5.8858Y-4.5937
X5.8858Y-4.8937
X5.9858Y-4.5937
X5.9858Y-4.8937
X6.0858Y-4.5937
X6.0858Y-4.8937
X6.1614Y-3.5114
X6.1614Y-3.8114
X6.1858Y-4.5937
X6.1858Y-4.8937
X6.2795Y-3.5114
X6.2795Y-3.8114
X6.2858Y-4.5937
X6.2858Y-4.8937
X6.3858Y-4.5937
X6.3858Y-4.8937
X6.4173Y-4.1413
X6.4173Y-4.4413
X6.4858Y-4.5937
X6.4858Y-4.8937
X6.5858Y-4.5937
X6.5858Y-4.8937
T5
X4.5612Y-4.1632
X4.5753Y-4.0475
X4.6026Y-4.2723
X4.6415Y-3.9515
X4.6899Y-4.3496
X4.7448Y-3.8973
X4.8031Y-4.3775
X4.8614Y-3.8973
X4.9163Y-4.3496
X4.9647Y-3.9515
X5.0036Y-4.2723
X5.0309Y-4.0475
X5.045Y-4.1632
X5.5849Y-4.1632
X5.599Y-4.0475
X5.6263Y-4.2723
X5.6652Y-3.9515
X5.7136Y-4.3496
X5.7685Y-3.8973
X5.8268Y-4.3775
X5.8851Y-3.8973
X5.94Y-4.3496
X5.9884Y-3.9515
X6.0273Y-4.2723
X6.0546Y-4.0475
X6.0687Y-4.1632
T6
X4.3701Y-2.9693
X4.3701Y-3.0693
X4.3701Y-3.1693
X4.3701Y-3.2693
X4.3701Y-3.3693
X4.3701Y-3.4693
X4.3701Y-3.69
X4.3701Y-3.79
X4.7244Y-3.4107
X4.7244Y-3.6076
X6.6732Y-2.9709
X6.6732Y-3.0709
X6.6732Y-3.1709
X6.6732Y-3.2709
X6.6732Y-3.3709
X6.6732Y-3.4709
X6.6732Y-3.69
X6.6732Y-3.79
T0
M30
