%TF.GenerationSoftware,KiCad,Pcbnew,(6.0.9)*%
%TF.CreationDate,2022-12-23T11:45:30+05:30*%
%TF.ProjectId,IN-14 Panel,494e2d31-3420-4506-916e-656c2e6b6963,1.0*%
%TF.SameCoordinates,Original*%
%TF.FileFunction,Legend,Bot*%
%TF.FilePolarity,Positive*%
%FSLAX46Y46*%
G04 Gerber Fmt 4.6, Leading zero omitted, Abs format (unit mm)*
G04 Created by KiCad (PCBNEW (6.0.9)) date 2022-12-23 11:45:30*
%MOMM*%
%LPD*%
G01*
G04 APERTURE LIST*
%ADD10C,0.101600*%
%ADD11C,0.150000*%
%ADD12C,0.254000*%
G04 APERTURE END LIST*
D10*
%TO.C,N3*%
X171285119Y-109702023D02*
X171285119Y-108432023D01*
X170559404Y-109702023D01*
X170559404Y-108432023D01*
X170075595Y-108432023D02*
X169289404Y-108432023D01*
X169712738Y-108915833D01*
X169531309Y-108915833D01*
X169410357Y-108976309D01*
X169349880Y-109036785D01*
X169289404Y-109157738D01*
X169289404Y-109460119D01*
X169349880Y-109581071D01*
X169410357Y-109641547D01*
X169531309Y-109702023D01*
X169894166Y-109702023D01*
X170015119Y-109641547D01*
X170075595Y-109581071D01*
D11*
X172057258Y-101074523D02*
X172057258Y-99804523D01*
X171452496Y-101074523D02*
X171452496Y-99804523D01*
X170726782Y-101074523D01*
X170726782Y-99804523D01*
X170122020Y-100590714D02*
X169154401Y-100590714D01*
X168670591Y-99804523D02*
X167884401Y-99804523D01*
X168307734Y-100288333D01*
X168126306Y-100288333D01*
X168005353Y-100348809D01*
X167944877Y-100409285D01*
X167884401Y-100530238D01*
X167884401Y-100832619D01*
X167944877Y-100953571D01*
X168005353Y-101014047D01*
X168126306Y-101074523D01*
X168489163Y-101074523D01*
X168610115Y-101014047D01*
X168670591Y-100953571D01*
D10*
%TO.C,N1*%
X122967619Y-103574523D02*
X122967619Y-102304523D01*
X122241904Y-103574523D01*
X122241904Y-102304523D01*
X120971904Y-103574523D02*
X121697619Y-103574523D01*
X121334761Y-103574523D02*
X121334761Y-102304523D01*
X121455714Y-102485952D01*
X121576666Y-102606904D01*
X121697619Y-102667380D01*
D11*
X124660952Y-105574523D02*
X124660952Y-104304523D01*
X124056190Y-105574523D02*
X124056190Y-104304523D01*
X123330476Y-105574523D01*
X123330476Y-104304523D01*
X122725714Y-105090714D02*
X121758095Y-105090714D01*
X120488095Y-105574523D02*
X121213809Y-105574523D01*
X120850952Y-105574523D02*
X120850952Y-104304523D01*
X120971904Y-104485952D01*
X121092857Y-104606904D01*
X121213809Y-104667380D01*
X119399523Y-104727857D02*
X119399523Y-105574523D01*
X119701904Y-104244047D02*
X120004285Y-105151190D01*
X119218095Y-105151190D01*
D10*
%TO.C,N2*%
X148967619Y-104074523D02*
X148967619Y-102804523D01*
X148241904Y-104074523D01*
X148241904Y-102804523D01*
X147697619Y-102925476D02*
X147637142Y-102865000D01*
X147516190Y-102804523D01*
X147213809Y-102804523D01*
X147092857Y-102865000D01*
X147032380Y-102925476D01*
X146971904Y-103046428D01*
X146971904Y-103167380D01*
X147032380Y-103348809D01*
X147758095Y-104074523D01*
X146971904Y-104074523D01*
D11*
X150660952Y-105574523D02*
X150660952Y-104304523D01*
X150056190Y-105574523D02*
X150056190Y-104304523D01*
X149330476Y-105574523D01*
X149330476Y-104304523D01*
X148725714Y-105090714D02*
X147758095Y-105090714D01*
X146488095Y-105574523D02*
X147213809Y-105574523D01*
X146850952Y-105574523D02*
X146850952Y-104304523D01*
X146971904Y-104485952D01*
X147092857Y-104606904D01*
X147213809Y-104667380D01*
X145399523Y-104727857D02*
X145399523Y-105574523D01*
X145701904Y-104244047D02*
X146004285Y-105151190D01*
X145218095Y-105151190D01*
D12*
%TO.C,N3*%
X173809999Y-105000000D02*
G75*
G03*
X166190045Y-104997865I-3809999J-78740D01*
G01*
X172895600Y-105000000D02*
G75*
G03*
X172895600Y-105000000I-2895600J0D01*
G01*
%TO.C,N1*%
X129620000Y-105157480D02*
G75*
G03*
X114380000Y-105000000I-7620000J78740D01*
G01*
X130872220Y-105000000D02*
G75*
G03*
X130872220Y-105000000I-8872220J0D01*
G01*
%TO.C,N2*%
X155620000Y-105157480D02*
G75*
G03*
X140380000Y-105000000I-7620000J78740D01*
G01*
X156872220Y-105000000D02*
G75*
G03*
X156872220Y-105000000I-8872220J0D01*
G01*
%TD*%
M02*
