%TF.GenerationSoftware,KiCad,Pcbnew,(6.0.9)*%
%TF.CreationDate,2022-12-23T11:45:30+05:30*%
%TF.ProjectId,IN-14 Panel,494e2d31-3420-4506-916e-656c2e6b6963,1.0*%
%TF.SameCoordinates,Original*%
%TF.FileFunction,Copper,L2,Bot*%
%TF.FilePolarity,Positive*%
%FSLAX46Y46*%
G04 Gerber Fmt 4.6, Leading zero omitted, Abs format (unit mm)*
G04 Created by KiCad (PCBNEW (6.0.9)) date 2022-12-23 11:45:30*
%MOMM*%
%LPD*%
G01*
G04 APERTURE LIST*
%TA.AperFunction,ComponentPad*%
%ADD10C,1.600000*%
%TD*%
%TA.AperFunction,ComponentPad*%
%ADD11O,1.600000X1.600000*%
%TD*%
%TA.AperFunction,ComponentPad*%
%ADD12R,1.700000X1.700000*%
%TD*%
%TA.AperFunction,ComponentPad*%
%ADD13O,1.700000X1.700000*%
%TD*%
%TA.AperFunction,ComponentPad*%
%ADD14R,1.600000X1.600000*%
%TD*%
%TA.AperFunction,ComponentPad*%
%ADD15R,1.500000X1.050000*%
%TD*%
%TA.AperFunction,ComponentPad*%
%ADD16O,1.500000X1.050000*%
%TD*%
%TA.AperFunction,ComponentPad*%
%ADD17R,2.000000X2.000000*%
%TD*%
%TA.AperFunction,ComponentPad*%
%ADD18C,2.000000*%
%TD*%
%TA.AperFunction,ComponentPad*%
%ADD19C,1.107440*%
%TD*%
%TA.AperFunction,ComponentPad*%
%ADD20C,1.346200*%
%TD*%
%TA.AperFunction,ViaPad*%
%ADD21C,0.800000*%
%TD*%
%TA.AperFunction,Conductor*%
%ADD22C,0.250000*%
%TD*%
G04 APERTURE END LIST*
D10*
%TO.P,R4,1*%
%TO.N,Net-(N2-PadA)*%
X163000000Y-112810000D03*
D11*
%TO.P,R4,2*%
%TO.N,+180V*%
X163000000Y-105190000D03*
%TD*%
D12*
%TO.P,J2,1,Pin_1*%
%TO.N,+180V*%
X111000000Y-93725000D03*
D13*
%TO.P,J2,2,Pin_2*%
%TO.N,GND1*%
X111000000Y-96265000D03*
%TD*%
D14*
%TO.P,U1,1,QB*%
%TO.N,/QB*%
X118300000Y-134875000D03*
D11*
%TO.P,U1,2,QC*%
%TO.N,/QC*%
X118300000Y-132335000D03*
%TO.P,U1,3,QD*%
%TO.N,/QD*%
X118300000Y-129795000D03*
%TO.P,U1,4,QE*%
%TO.N,/QE*%
X118300000Y-127255000D03*
%TO.P,U1,5,QF*%
%TO.N,/QF*%
X118300000Y-124715000D03*
%TO.P,U1,6,QG*%
%TO.N,/QG*%
X118300000Y-122175000D03*
%TO.P,U1,7,QH*%
%TO.N,/QH*%
X118300000Y-119635000D03*
%TO.P,U1,8,GND*%
%TO.N,GND*%
X118300000Y-117095000D03*
%TO.P,U1,9,QH'*%
%TO.N,/SEROUT*%
X110680000Y-117095000D03*
%TO.P,U1,10,~{SRCLR}*%
%TO.N,VCC*%
X110680000Y-119635000D03*
%TO.P,U1,11,SRCLK*%
%TO.N,/SRCLK*%
X110680000Y-122175000D03*
%TO.P,U1,12,RCLK*%
%TO.N,/RCLK*%
X110680000Y-124715000D03*
%TO.P,U1,13,~{OE}*%
%TO.N,GND*%
X110680000Y-127255000D03*
%TO.P,U1,14,SER*%
%TO.N,/SERIN*%
X110680000Y-129795000D03*
%TO.P,U1,15,QA*%
%TO.N,/QA*%
X110680000Y-132335000D03*
%TO.P,U1,16,VCC*%
%TO.N,VCC*%
X110680000Y-134875000D03*
%TD*%
D15*
%TO.P,Q1,1,E*%
%TO.N,GND1*%
X163640000Y-93730000D03*
D16*
%TO.P,Q1,2,B*%
%TO.N,Net-(Q1-Pad2)*%
X163640000Y-95000000D03*
%TO.P,Q1,3,C*%
%TO.N,Net-(N3-PadK)*%
X163640000Y-96270000D03*
%TD*%
D17*
%TO.P,C1,1*%
%TO.N,+180V*%
X120000000Y-86632323D03*
D18*
%TO.P,C1,2*%
%TO.N,GND1*%
X120000000Y-91632323D03*
%TD*%
D12*
%TO.P,J3,1,Pin_1*%
%TO.N,VCC*%
X169500000Y-75460000D03*
D13*
%TO.P,J3,2,Pin_2*%
%TO.N,GND*%
X169500000Y-78000000D03*
%TO.P,J3,3,Pin_3*%
%TO.N,/NBLB{slash}INS1{slash}IN3*%
X169500000Y-80540000D03*
%TO.P,J3,4,Pin_4*%
%TO.N,/RCLK*%
X169500000Y-83080000D03*
%TO.P,J3,5,Pin_5*%
%TO.N,/SRCLK*%
X169500000Y-85620000D03*
%TO.P,J3,6,Pin_6*%
%TO.N,/SEROUT*%
X169500000Y-88160000D03*
%TD*%
D10*
%TO.P,C2,1*%
%TO.N,GND*%
X121500000Y-78000000D03*
%TO.P,C2,2*%
%TO.N,VCC*%
X121500000Y-75500000D03*
%TD*%
%TO.P,R1,1*%
%TO.N,/NBLB{slash}INS1{slash}IN3*%
X159500000Y-89190000D03*
D11*
%TO.P,R1,2*%
%TO.N,Net-(Q1-Pad2)*%
X159500000Y-96810000D03*
%TD*%
D10*
%TO.P,R2,1*%
%TO.N,+180V*%
X156500000Y-89190000D03*
D11*
%TO.P,R2,2*%
%TO.N,Net-(N3-PadA)*%
X156500000Y-96810000D03*
%TD*%
D12*
%TO.P,J4,1,Pin_1*%
%TO.N,VCC*%
X111000000Y-75420000D03*
D13*
%TO.P,J4,2,Pin_2*%
%TO.N,GND*%
X111000000Y-77960000D03*
%TO.P,J4,3,Pin_3*%
%TO.N,/NBLB{slash}INS1{slash}IN3*%
X111000000Y-80500000D03*
%TO.P,J4,4,Pin_4*%
%TO.N,/RCLK*%
X111000000Y-83040000D03*
%TO.P,J4,5,Pin_5*%
%TO.N,/SRCLK*%
X111000000Y-85580000D03*
%TO.P,J4,6,Pin_6*%
%TO.N,/SERIN*%
X111000000Y-88120000D03*
%TD*%
D12*
%TO.P,J1,1,Pin_1*%
%TO.N,+180V*%
X169500000Y-93725000D03*
D13*
%TO.P,J1,2,Pin_2*%
%TO.N,GND1*%
X169500000Y-96265000D03*
%TD*%
D10*
%TO.P,R3,1*%
%TO.N,Net-(N1-PadA)*%
X111000000Y-112810000D03*
D11*
%TO.P,R3,2*%
%TO.N,+180V*%
X111000000Y-105190000D03*
%TD*%
D14*
%TO.P,C3,1*%
%TO.N,VCC*%
X116500000Y-75544888D03*
D10*
%TO.P,C3,2*%
%TO.N,GND*%
X116500000Y-77544888D03*
%TD*%
D14*
%TO.P,M2,1,8*%
%TO.N,Net-(M2-Pad1)*%
X149500000Y-124300000D03*
D11*
%TO.P,M2,2,9*%
%TO.N,Net-(M2-Pad2)*%
X152040000Y-124300000D03*
%TO.P,M2,3,A*%
%TO.N,/QA*%
X154580000Y-124300000D03*
%TO.P,M2,4,D*%
%TO.N,/QD*%
X157120000Y-124300000D03*
%TO.P,M2,5,VCC*%
%TO.N,VCC*%
X159660000Y-124300000D03*
%TO.P,M2,6,B*%
%TO.N,/QB*%
X162200000Y-124300000D03*
%TO.P,M2,7,C*%
%TO.N,/QC*%
X164740000Y-124300000D03*
%TO.P,M2,8,2*%
%TO.N,Net-(M2-Pad8)*%
X167280000Y-124300000D03*
%TO.P,M2,9,3*%
%TO.N,Net-(M2-Pad9)*%
X167280000Y-116680000D03*
%TO.P,M2,10,7*%
%TO.N,Net-(M2-Pad10)*%
X164740000Y-116680000D03*
%TO.P,M2,11,6*%
%TO.N,Net-(M2-Pad11)*%
X162200000Y-116680000D03*
%TO.P,M2,12,GND*%
%TO.N,GND1*%
X159660000Y-116680000D03*
%TO.P,M2,13,4*%
%TO.N,Net-(M2-Pad13)*%
X157120000Y-116680000D03*
%TO.P,M2,14,5*%
%TO.N,Net-(M2-Pad14)*%
X154580000Y-116680000D03*
%TO.P,M2,15,1*%
%TO.N,Net-(M2-Pad15)*%
X152040000Y-116680000D03*
%TO.P,M2,16,0*%
%TO.N,Net-(M2-Pad16)*%
X149500000Y-116680000D03*
%TD*%
D14*
%TO.P,M1,1,8*%
%TO.N,Net-(M1-Pad1)*%
X123625000Y-124300000D03*
D11*
%TO.P,M1,2,9*%
%TO.N,Net-(M1-Pad2)*%
X126165000Y-124300000D03*
%TO.P,M1,3,A*%
%TO.N,/QE*%
X128705000Y-124300000D03*
%TO.P,M1,4,D*%
%TO.N,/QH*%
X131245000Y-124300000D03*
%TO.P,M1,5,VCC*%
%TO.N,VCC*%
X133785000Y-124300000D03*
%TO.P,M1,6,B*%
%TO.N,/QF*%
X136325000Y-124300000D03*
%TO.P,M1,7,C*%
%TO.N,/QG*%
X138865000Y-124300000D03*
%TO.P,M1,8,2*%
%TO.N,Net-(M1-Pad8)*%
X141405000Y-124300000D03*
%TO.P,M1,9,3*%
%TO.N,Net-(M1-Pad9)*%
X141405000Y-116680000D03*
%TO.P,M1,10,7*%
%TO.N,Net-(M1-Pad10)*%
X138865000Y-116680000D03*
%TO.P,M1,11,6*%
%TO.N,Net-(M1-Pad11)*%
X136325000Y-116680000D03*
%TO.P,M1,12,GND*%
%TO.N,GND1*%
X133785000Y-116680000D03*
%TO.P,M1,13,4*%
%TO.N,Net-(M1-Pad13)*%
X131245000Y-116680000D03*
%TO.P,M1,14,5*%
%TO.N,Net-(M1-Pad14)*%
X128705000Y-116680000D03*
%TO.P,M1,15,1*%
%TO.N,Net-(M1-Pad15)*%
X126165000Y-116680000D03*
%TO.P,M1,16,0*%
%TO.N,Net-(M1-Pad16)*%
X123625000Y-116680000D03*
%TD*%
D19*
%TO.P,N3,A,A*%
%TO.N,Net-(N3-PadA)*%
X171587500Y-105000000D03*
%TO.P,N3,K,K*%
%TO.N,Net-(N3-PadK)*%
X168412500Y-105000000D03*
%TD*%
D20*
%TO.P,N1,0,0*%
%TO.N,Net-(M1-Pad16)*%
X116907300Y-108515360D03*
%TO.P,N1,1,1*%
%TO.N,Net-(M1-Pad15)*%
X127092700Y-108515360D03*
%TO.P,N1,2,2*%
%TO.N,Net-(M1-Pad8)*%
X128144260Y-105744220D03*
%TO.P,N1,3,3*%
%TO.N,Net-(M1-Pad9)*%
X127786120Y-102805440D03*
%TO.P,N1,4,4*%
%TO.N,Net-(M1-Pad13)*%
X126104640Y-100367040D03*
%TO.P,N1,5,5*%
%TO.N,Net-(M1-Pad14)*%
X123480820Y-98990360D03*
%TO.P,N1,6,6*%
%TO.N,Net-(M1-Pad11)*%
X120519180Y-98990360D03*
%TO.P,N1,7,7*%
%TO.N,Net-(M1-Pad10)*%
X117895360Y-100367040D03*
%TO.P,N1,8,8*%
%TO.N,Net-(M1-Pad1)*%
X116213880Y-102805440D03*
%TO.P,N1,9,9*%
%TO.N,Net-(M1-Pad2)*%
X115855740Y-105744220D03*
%TO.P,N1,A,A*%
%TO.N,Net-(N1-PadA)*%
X122000000Y-111187440D03*
%TO.P,N1,LHDP,LHDP*%
%TO.N,unconnected-(N1-PadLHDP)*%
X119124720Y-110478780D03*
%TO.P,N1,RHDP,RHDP*%
%TO.N,unconnected-(N1-PadRHDP)*%
X124875280Y-110478780D03*
%TD*%
%TO.P,N2,0,0*%
%TO.N,Net-(M2-Pad16)*%
X142907300Y-108515360D03*
%TO.P,N2,1,1*%
%TO.N,Net-(M2-Pad15)*%
X153092700Y-108515360D03*
%TO.P,N2,2,2*%
%TO.N,Net-(M2-Pad8)*%
X154144260Y-105744220D03*
%TO.P,N2,3,3*%
%TO.N,Net-(M2-Pad9)*%
X153786120Y-102805440D03*
%TO.P,N2,4,4*%
%TO.N,Net-(M2-Pad13)*%
X152104640Y-100367040D03*
%TO.P,N2,5,5*%
%TO.N,Net-(M2-Pad14)*%
X149480820Y-98990360D03*
%TO.P,N2,6,6*%
%TO.N,Net-(M2-Pad11)*%
X146519180Y-98990360D03*
%TO.P,N2,7,7*%
%TO.N,Net-(M2-Pad10)*%
X143895360Y-100367040D03*
%TO.P,N2,8,8*%
%TO.N,Net-(M2-Pad1)*%
X142213880Y-102805440D03*
%TO.P,N2,9,9*%
%TO.N,Net-(M2-Pad2)*%
X141855740Y-105744220D03*
%TO.P,N2,A,A*%
%TO.N,Net-(N2-PadA)*%
X148000000Y-111187440D03*
%TO.P,N2,LHDP,LHDP*%
%TO.N,unconnected-(N2-PadLHDP)*%
X145124720Y-110478780D03*
%TO.P,N2,RHDP,RHDP*%
%TO.N,unconnected-(N2-PadRHDP)*%
X150875280Y-110478780D03*
%TD*%
D21*
%TO.N,/SEROUT*%
X173674500Y-88000000D03*
%TD*%
D22*
%TO.N,+180V*%
X171840199Y-105989999D02*
X172466220Y-105363978D01*
X163799999Y-105989999D02*
X171840199Y-105989999D01*
X172466220Y-105363978D02*
X172466220Y-96691220D01*
X172466220Y-96691220D02*
X169500000Y-93725000D01*
X169275000Y-93725000D02*
X169500000Y-93725000D01*
X112175000Y-94900000D02*
X111000000Y-93725000D01*
X111000000Y-105190000D02*
X112175000Y-104015000D01*
X112175000Y-104015000D02*
X112175000Y-94900000D01*
X163000000Y-105190000D02*
X163799999Y-105989999D01*
%TO.N,/RCLK*%
X109105000Y-123140000D02*
X110680000Y-124715000D01*
X111000000Y-83040000D02*
X109105000Y-84935000D01*
X109105000Y-84935000D02*
X109105000Y-123140000D01*
%TO.N,/SRCLK*%
X109555000Y-121050000D02*
X110680000Y-122175000D01*
X109555000Y-87025000D02*
X109555000Y-121050000D01*
X111000000Y-85580000D02*
X109555000Y-87025000D01*
%TO.N,/SEROUT*%
X173514500Y-88160000D02*
X169500000Y-88160000D01*
X173674500Y-88000000D02*
X173514500Y-88160000D01*
%TO.N,Net-(M1-Pad1)*%
X116213880Y-102805440D02*
X121000000Y-107591560D01*
X121000000Y-121675000D02*
X123625000Y-124300000D01*
X121000000Y-107591560D02*
X121000000Y-121675000D01*
%TO.N,Net-(M1-Pad2)*%
X115215780Y-102392013D02*
X115215780Y-105104260D01*
X126165000Y-124300000D02*
X122413427Y-120548427D01*
X122413427Y-120548427D02*
X122413427Y-112185540D01*
X122413427Y-112185540D02*
X122998100Y-111600867D01*
X122998100Y-107998100D02*
X116807340Y-101807340D01*
X122998100Y-111600867D02*
X122998100Y-107998100D01*
X115215780Y-105104260D02*
X115855740Y-105744220D01*
X116807340Y-101807340D02*
X115800453Y-101807340D01*
X115800453Y-101807340D02*
X115215780Y-102392013D01*
%TO.N,/QF*%
X135110001Y-125514999D02*
X136325000Y-124300000D01*
X118300000Y-124715000D02*
X119099999Y-125514999D01*
X119099999Y-125514999D02*
X135110001Y-125514999D01*
%TO.N,Net-(M1-Pad8)*%
X141405000Y-124300000D02*
X137450000Y-120345000D01*
X137450000Y-115049960D02*
X128144260Y-105744220D01*
X137450000Y-120345000D02*
X137450000Y-115049960D01*
%TO.N,Net-(M1-Pad9)*%
X141405000Y-116680000D02*
X127786120Y-103061120D01*
X127786120Y-103061120D02*
X127786120Y-102805440D01*
%TO.N,Net-(M1-Pad11)*%
X136325000Y-115336487D02*
X120519180Y-99530667D01*
X120519180Y-99530667D02*
X120519180Y-98990360D01*
X136325000Y-116680000D02*
X136325000Y-115336487D01*
%TO.N,Net-(M2-Pad1)*%
X149500000Y-122396396D02*
X140857640Y-113754036D01*
X149500000Y-124300000D02*
X149500000Y-122396396D01*
X140857640Y-113754036D02*
X140857640Y-104161680D01*
X140857640Y-104161680D02*
X142213880Y-102805440D01*
%TO.N,Net-(M2-Pad2)*%
X152040000Y-124300000D02*
X141855740Y-114115740D01*
X141855740Y-114115740D02*
X141855740Y-105744220D01*
%TO.N,/QA*%
X147670000Y-131210000D02*
X154580000Y-124300000D01*
X111805000Y-131210000D02*
X147670000Y-131210000D01*
X110680000Y-132335000D02*
X111805000Y-131210000D01*
%TO.N,/QB*%
X163325000Y-123175000D02*
X162200000Y-124300000D01*
X165865000Y-123834009D02*
X165205991Y-123175000D01*
X118300000Y-134875000D02*
X156786701Y-134875000D01*
X156786701Y-134875000D02*
X165865000Y-125796701D01*
X165205991Y-123175000D02*
X163325000Y-123175000D01*
X165865000Y-125796701D02*
X165865000Y-123834009D01*
%TO.N,/QC*%
X118300000Y-132335000D02*
X158690305Y-132335000D01*
X164740000Y-126285305D02*
X164740000Y-124300000D01*
X158690305Y-132335000D02*
X164740000Y-126285305D01*
%TO.N,Net-(M2-Pad8)*%
X163325000Y-120345000D02*
X167280000Y-124300000D01*
X154144260Y-105744220D02*
X163325000Y-114924960D01*
X163325000Y-114924960D02*
X163325000Y-120345000D01*
%TO.N,Net-(M2-Pad13)*%
X152104640Y-100367040D02*
X152104640Y-105116127D01*
X152104640Y-105116127D02*
X157120000Y-110131487D01*
X157120000Y-110131487D02*
X157120000Y-116680000D01*
%TO.N,Net-(M2-Pad14)*%
X154580000Y-108227883D02*
X149480820Y-103128703D01*
X154580000Y-116680000D02*
X154580000Y-108227883D01*
X149480820Y-103128703D02*
X149480820Y-98990360D01*
%TO.N,Net-(M2-Pad15)*%
X153092700Y-115627300D02*
X152040000Y-116680000D01*
X153092700Y-108515360D02*
X153092700Y-115627300D01*
%TO.N,Net-(M2-Pad16)*%
X142907300Y-110087300D02*
X142907300Y-108515360D01*
X149500000Y-116680000D02*
X142907300Y-110087300D01*
%TO.N,Net-(N3-PadA)*%
X171587500Y-105000000D02*
X164522500Y-97935000D01*
X164522500Y-97935000D02*
X157625000Y-97935000D01*
X157625000Y-97935000D02*
X156500000Y-96810000D01*
%TD*%
%TA.AperFunction,Conductor*%
%TO.N,GND*%
G36*
X172168175Y-70528502D02*
G01*
X172214668Y-70582158D01*
X172224772Y-70652432D01*
X172195278Y-70717012D01*
X172165890Y-70741933D01*
X172110584Y-70775824D01*
X171930031Y-70930031D01*
X171775824Y-71110584D01*
X171773245Y-71114792D01*
X171773241Y-71114798D01*
X171654346Y-71308817D01*
X171651760Y-71313037D01*
X171560895Y-71532406D01*
X171559740Y-71537218D01*
X171513420Y-71730155D01*
X171505465Y-71763289D01*
X171487308Y-71993995D01*
X171486835Y-72000000D01*
X171505465Y-72236711D01*
X171506619Y-72241518D01*
X171506620Y-72241524D01*
X171536601Y-72366401D01*
X171560895Y-72467594D01*
X171651760Y-72686963D01*
X171654346Y-72691183D01*
X171773241Y-72885202D01*
X171773245Y-72885208D01*
X171775824Y-72889416D01*
X171930031Y-73069969D01*
X172110584Y-73224176D01*
X172114792Y-73226755D01*
X172114798Y-73226759D01*
X172308817Y-73345654D01*
X172313037Y-73348240D01*
X172317607Y-73350133D01*
X172317611Y-73350135D01*
X172527833Y-73437211D01*
X172532406Y-73439105D01*
X172612609Y-73458360D01*
X172758476Y-73493380D01*
X172758482Y-73493381D01*
X172763289Y-73494535D01*
X173000000Y-73513165D01*
X173236711Y-73494535D01*
X173241518Y-73493381D01*
X173241524Y-73493380D01*
X173387391Y-73458360D01*
X173467594Y-73439105D01*
X173472167Y-73437211D01*
X173682389Y-73350135D01*
X173682393Y-73350133D01*
X173686963Y-73348240D01*
X173691183Y-73345654D01*
X173885202Y-73226759D01*
X173885208Y-73226755D01*
X173889416Y-73224176D01*
X174069969Y-73069969D01*
X174224176Y-72889416D01*
X174258067Y-72834111D01*
X174310715Y-72786480D01*
X174380756Y-72774873D01*
X174445954Y-72802976D01*
X174485608Y-72861867D01*
X174491500Y-72899946D01*
X174491500Y-87224318D01*
X174471498Y-87292439D01*
X174417842Y-87338932D01*
X174347568Y-87349036D01*
X174286319Y-87320355D01*
X174285753Y-87321134D01*
X174281711Y-87318197D01*
X174281710Y-87318196D01*
X174131252Y-87208882D01*
X174125224Y-87206198D01*
X174125222Y-87206197D01*
X173962819Y-87133891D01*
X173962818Y-87133891D01*
X173956788Y-87131206D01*
X173863388Y-87111353D01*
X173776444Y-87092872D01*
X173776439Y-87092872D01*
X173769987Y-87091500D01*
X173579013Y-87091500D01*
X173572561Y-87092872D01*
X173572556Y-87092872D01*
X173485612Y-87111353D01*
X173392212Y-87131206D01*
X173386182Y-87133891D01*
X173386181Y-87133891D01*
X173223778Y-87206197D01*
X173223776Y-87206198D01*
X173217748Y-87208882D01*
X173063247Y-87321134D01*
X172935460Y-87463056D01*
X172932156Y-87468778D01*
X172928275Y-87474120D01*
X172925893Y-87472389D01*
X172883776Y-87512516D01*
X172826084Y-87526500D01*
X170776805Y-87526500D01*
X170708684Y-87506498D01*
X170671013Y-87468940D01*
X170582822Y-87332617D01*
X170582820Y-87332614D01*
X170580014Y-87328277D01*
X170429670Y-87163051D01*
X170425619Y-87159852D01*
X170425615Y-87159848D01*
X170258414Y-87027800D01*
X170258410Y-87027798D01*
X170254359Y-87024598D01*
X170213053Y-87001796D01*
X170163084Y-86951364D01*
X170148312Y-86881921D01*
X170173428Y-86815516D01*
X170200780Y-86788909D01*
X170256858Y-86748909D01*
X170379860Y-86661173D01*
X170538096Y-86503489D01*
X170564218Y-86467137D01*
X170665435Y-86326277D01*
X170668453Y-86322077D01*
X170686147Y-86286277D01*
X170765136Y-86126453D01*
X170765137Y-86126451D01*
X170767430Y-86121811D01*
X170832370Y-85908069D01*
X170861529Y-85686590D01*
X170862425Y-85649908D01*
X170863074Y-85623365D01*
X170863074Y-85623361D01*
X170863156Y-85620000D01*
X170844852Y-85397361D01*
X170790431Y-85180702D01*
X170701354Y-84975840D01*
X170618191Y-84847289D01*
X170582822Y-84792617D01*
X170582820Y-84792614D01*
X170580014Y-84788277D01*
X170429670Y-84623051D01*
X170425619Y-84619852D01*
X170425615Y-84619848D01*
X170258414Y-84487800D01*
X170258410Y-84487798D01*
X170254359Y-84484598D01*
X170213053Y-84461796D01*
X170163084Y-84411364D01*
X170148312Y-84341921D01*
X170173428Y-84275516D01*
X170200780Y-84248909D01*
X170256858Y-84208909D01*
X170379860Y-84121173D01*
X170538096Y-83963489D01*
X170564218Y-83927137D01*
X170665435Y-83786277D01*
X170668453Y-83782077D01*
X170686147Y-83746277D01*
X170765136Y-83586453D01*
X170765137Y-83586451D01*
X170767430Y-83581811D01*
X170832370Y-83368069D01*
X170861529Y-83146590D01*
X170862425Y-83109908D01*
X170863074Y-83083365D01*
X170863074Y-83083361D01*
X170863156Y-83080000D01*
X170844852Y-82857361D01*
X170790431Y-82640702D01*
X170701354Y-82435840D01*
X170580014Y-82248277D01*
X170429670Y-82083051D01*
X170425619Y-82079852D01*
X170425615Y-82079848D01*
X170258414Y-81947800D01*
X170258410Y-81947798D01*
X170254359Y-81944598D01*
X170213053Y-81921796D01*
X170163084Y-81871364D01*
X170148312Y-81801921D01*
X170173428Y-81735516D01*
X170200780Y-81708909D01*
X170256858Y-81668909D01*
X170379860Y-81581173D01*
X170538096Y-81423489D01*
X170564218Y-81387137D01*
X170665435Y-81246277D01*
X170668453Y-81242077D01*
X170686147Y-81206277D01*
X170765136Y-81046453D01*
X170765137Y-81046451D01*
X170767430Y-81041811D01*
X170832370Y-80828069D01*
X170861529Y-80606590D01*
X170862425Y-80569908D01*
X170863074Y-80543365D01*
X170863074Y-80543361D01*
X170863156Y-80540000D01*
X170844852Y-80317361D01*
X170790431Y-80100702D01*
X170701354Y-79895840D01*
X170580014Y-79708277D01*
X170429670Y-79543051D01*
X170425619Y-79539852D01*
X170425615Y-79539848D01*
X170258414Y-79407800D01*
X170258410Y-79407798D01*
X170254359Y-79404598D01*
X170212569Y-79381529D01*
X170162598Y-79331097D01*
X170147826Y-79261654D01*
X170172942Y-79195248D01*
X170200294Y-79168641D01*
X170375328Y-79043792D01*
X170383200Y-79037139D01*
X170534052Y-78886812D01*
X170540730Y-78878965D01*
X170665003Y-78706020D01*
X170670313Y-78697183D01*
X170764670Y-78506267D01*
X170768469Y-78496672D01*
X170830377Y-78292910D01*
X170832555Y-78282837D01*
X170833986Y-78271962D01*
X170831775Y-78257778D01*
X170818617Y-78254000D01*
X168183225Y-78254000D01*
X168169694Y-78257973D01*
X168168257Y-78267966D01*
X168198565Y-78402446D01*
X168201645Y-78412275D01*
X168281770Y-78609603D01*
X168286413Y-78618794D01*
X168397694Y-78800388D01*
X168403777Y-78808699D01*
X168543213Y-78969667D01*
X168550580Y-78976883D01*
X168714434Y-79112916D01*
X168722881Y-79118831D01*
X168791969Y-79159203D01*
X168840693Y-79210842D01*
X168853764Y-79280625D01*
X168827033Y-79346396D01*
X168786584Y-79379752D01*
X168773607Y-79386507D01*
X168769474Y-79389610D01*
X168769471Y-79389612D01*
X168613298Y-79506870D01*
X168594965Y-79520635D01*
X168591393Y-79524373D01*
X168474771Y-79646411D01*
X168440629Y-79682138D01*
X168314743Y-79866680D01*
X168299003Y-79900590D01*
X168241435Y-80024610D01*
X168220688Y-80069305D01*
X168160989Y-80284570D01*
X168137251Y-80506695D01*
X168137548Y-80511848D01*
X168137548Y-80511851D01*
X168143011Y-80606590D01*
X168150110Y-80729715D01*
X168151247Y-80734761D01*
X168151248Y-80734767D01*
X168163261Y-80788069D01*
X168199222Y-80947639D01*
X168283266Y-81154616D01*
X168399987Y-81345088D01*
X168546250Y-81513938D01*
X168718126Y-81656632D01*
X168722993Y-81659476D01*
X168791445Y-81699476D01*
X168840169Y-81751114D01*
X168853240Y-81820897D01*
X168826509Y-81886669D01*
X168786055Y-81920027D01*
X168773607Y-81926507D01*
X168769474Y-81929610D01*
X168769471Y-81929612D01*
X168613298Y-82046870D01*
X168594965Y-82060635D01*
X168591393Y-82064373D01*
X168474771Y-82186411D01*
X168440629Y-82222138D01*
X168314743Y-82406680D01*
X168299003Y-82440590D01*
X168241435Y-82564610D01*
X168220688Y-82609305D01*
X168160989Y-82824570D01*
X168137251Y-83046695D01*
X168137548Y-83051848D01*
X168137548Y-83051851D01*
X168143011Y-83146590D01*
X168150110Y-83269715D01*
X168151247Y-83274761D01*
X168151248Y-83274767D01*
X168163261Y-83328069D01*
X168199222Y-83487639D01*
X168283266Y-83694616D01*
X168399987Y-83885088D01*
X168546250Y-84053938D01*
X168718126Y-84196632D01*
X168739136Y-84208909D01*
X168791445Y-84239476D01*
X168840169Y-84291114D01*
X168853240Y-84360897D01*
X168826509Y-84426669D01*
X168786055Y-84460027D01*
X168773607Y-84466507D01*
X168769474Y-84469610D01*
X168769471Y-84469612D01*
X168599100Y-84597530D01*
X168594965Y-84600635D01*
X168542067Y-84655989D01*
X168445678Y-84756855D01*
X168440629Y-84762138D01*
X168437715Y-84766410D01*
X168437714Y-84766411D01*
X168363487Y-84875224D01*
X168314743Y-84946680D01*
X168299003Y-84980590D01*
X168229381Y-85130578D01*
X168220688Y-85149305D01*
X168160989Y-85364570D01*
X168137251Y-85586695D01*
X168137548Y-85591848D01*
X168137548Y-85591851D01*
X168143011Y-85686590D01*
X168150110Y-85809715D01*
X168151247Y-85814761D01*
X168151248Y-85814767D01*
X168163261Y-85868069D01*
X168199222Y-86027639D01*
X168283266Y-86234616D01*
X168399987Y-86425088D01*
X168546250Y-86593938D01*
X168718126Y-86736632D01*
X168739136Y-86748909D01*
X168791445Y-86779476D01*
X168840169Y-86831114D01*
X168853240Y-86900897D01*
X168826509Y-86966669D01*
X168786055Y-87000027D01*
X168773607Y-87006507D01*
X168769474Y-87009610D01*
X168769471Y-87009612D01*
X168607523Y-87131206D01*
X168594965Y-87140635D01*
X168591393Y-87144373D01*
X168449898Y-87292439D01*
X168440629Y-87302138D01*
X168437715Y-87306410D01*
X168437714Y-87306411D01*
X168429841Y-87317952D01*
X168314743Y-87486680D01*
X168220688Y-87689305D01*
X168160989Y-87904570D01*
X168137251Y-88126695D01*
X168137548Y-88131848D01*
X168137548Y-88131851D01*
X168140704Y-88186590D01*
X168150110Y-88349715D01*
X168151247Y-88354761D01*
X168151248Y-88354767D01*
X168163261Y-88408069D01*
X168199222Y-88567639D01*
X168221219Y-88621811D01*
X168271674Y-88746067D01*
X168283266Y-88774616D01*
X168399987Y-88965088D01*
X168546250Y-89133938D01*
X168718126Y-89276632D01*
X168911000Y-89389338D01*
X169119692Y-89469030D01*
X169124760Y-89470061D01*
X169124763Y-89470062D01*
X169181298Y-89481564D01*
X169338597Y-89513567D01*
X169343772Y-89513757D01*
X169343774Y-89513757D01*
X169556673Y-89521564D01*
X169556677Y-89521564D01*
X169561837Y-89521753D01*
X169566957Y-89521097D01*
X169566959Y-89521097D01*
X169778288Y-89494025D01*
X169778289Y-89494025D01*
X169783416Y-89493368D01*
X169788366Y-89491883D01*
X169992429Y-89430661D01*
X169992434Y-89430659D01*
X169997384Y-89429174D01*
X170197994Y-89330896D01*
X170379860Y-89201173D01*
X170538096Y-89043489D01*
X170564218Y-89007137D01*
X170665435Y-88866277D01*
X170668453Y-88862077D01*
X170670746Y-88857437D01*
X170672446Y-88854608D01*
X170724674Y-88806518D01*
X170780451Y-88793500D01*
X173196315Y-88793500D01*
X173247564Y-88804393D01*
X173360350Y-88854608D01*
X173392212Y-88868794D01*
X173485612Y-88888647D01*
X173572556Y-88907128D01*
X173572561Y-88907128D01*
X173579013Y-88908500D01*
X173769987Y-88908500D01*
X173776439Y-88907128D01*
X173776444Y-88907128D01*
X173863388Y-88888647D01*
X173956788Y-88868794D01*
X173971875Y-88862077D01*
X174125222Y-88793803D01*
X174125224Y-88793802D01*
X174131252Y-88791118D01*
X174147904Y-88779020D01*
X174249023Y-88705552D01*
X174285753Y-88678866D01*
X174286287Y-88679600D01*
X174345193Y-88651329D01*
X174415647Y-88660091D01*
X174470180Y-88705552D01*
X174491500Y-88775682D01*
X174491500Y-137100054D01*
X174471498Y-137168175D01*
X174417842Y-137214668D01*
X174347568Y-137224772D01*
X174282988Y-137195278D01*
X174258067Y-137165889D01*
X174226758Y-137114798D01*
X174224176Y-137110584D01*
X174069969Y-136930031D01*
X173889416Y-136775824D01*
X173885208Y-136773245D01*
X173885202Y-136773241D01*
X173691183Y-136654346D01*
X173686963Y-136651760D01*
X173682393Y-136649867D01*
X173682389Y-136649865D01*
X173472167Y-136562789D01*
X173472165Y-136562788D01*
X173467594Y-136560895D01*
X173387391Y-136541640D01*
X173241524Y-136506620D01*
X173241518Y-136506619D01*
X173236711Y-136505465D01*
X173000000Y-136486835D01*
X172763289Y-136505465D01*
X172758482Y-136506619D01*
X172758476Y-136506620D01*
X172612609Y-136541640D01*
X172532406Y-136560895D01*
X172527835Y-136562788D01*
X172527833Y-136562789D01*
X172317611Y-136649865D01*
X172317607Y-136649867D01*
X172313037Y-136651760D01*
X172308817Y-136654346D01*
X172114798Y-136773241D01*
X172114792Y-136773245D01*
X172110584Y-136775824D01*
X171930031Y-136930031D01*
X171775824Y-137110584D01*
X171773245Y-137114792D01*
X171773241Y-137114798D01*
X171654346Y-137308817D01*
X171651760Y-137313037D01*
X171560895Y-137532406D01*
X171559740Y-137537218D01*
X171513420Y-137730155D01*
X171505465Y-137763289D01*
X171487308Y-137993995D01*
X171486835Y-138000000D01*
X171505465Y-138236711D01*
X171506619Y-138241518D01*
X171506620Y-138241524D01*
X171536601Y-138366401D01*
X171560895Y-138467594D01*
X171651760Y-138686963D01*
X171654346Y-138691183D01*
X171773241Y-138885202D01*
X171773245Y-138885208D01*
X171775824Y-138889416D01*
X171930031Y-139069969D01*
X172110584Y-139224176D01*
X172165889Y-139258067D01*
X172213520Y-139310715D01*
X172225127Y-139380756D01*
X172197024Y-139445954D01*
X172138133Y-139485608D01*
X172100054Y-139491500D01*
X107899946Y-139491500D01*
X107831825Y-139471498D01*
X107785332Y-139417842D01*
X107775228Y-139347568D01*
X107804722Y-139282988D01*
X107834111Y-139258067D01*
X107889416Y-139224176D01*
X108069969Y-139069969D01*
X108224176Y-138889416D01*
X108226755Y-138885208D01*
X108226759Y-138885202D01*
X108345654Y-138691183D01*
X108348240Y-138686963D01*
X108439105Y-138467594D01*
X108463399Y-138366401D01*
X108493380Y-138241524D01*
X108493381Y-138241518D01*
X108494535Y-138236711D01*
X108513165Y-138000000D01*
X108494535Y-137763289D01*
X108486581Y-137730155D01*
X108440260Y-137537218D01*
X108439105Y-137532406D01*
X108348240Y-137313037D01*
X108345654Y-137308817D01*
X108226759Y-137114798D01*
X108226755Y-137114792D01*
X108224176Y-137110584D01*
X108069969Y-136930031D01*
X107889416Y-136775824D01*
X107885208Y-136773245D01*
X107885202Y-136773241D01*
X107691183Y-136654346D01*
X107686963Y-136651760D01*
X107682393Y-136649867D01*
X107682389Y-136649865D01*
X107472167Y-136562789D01*
X107472165Y-136562788D01*
X107467594Y-136560895D01*
X107387391Y-136541640D01*
X107241524Y-136506620D01*
X107241518Y-136506619D01*
X107236711Y-136505465D01*
X107000000Y-136486835D01*
X106763289Y-136505465D01*
X106758482Y-136506619D01*
X106758476Y-136506620D01*
X106612609Y-136541640D01*
X106532406Y-136560895D01*
X106527835Y-136562788D01*
X106527833Y-136562789D01*
X106317611Y-136649865D01*
X106317607Y-136649867D01*
X106313037Y-136651760D01*
X106308817Y-136654346D01*
X106114798Y-136773241D01*
X106114792Y-136773245D01*
X106110584Y-136775824D01*
X105930031Y-136930031D01*
X105775824Y-137110584D01*
X105773242Y-137114798D01*
X105741933Y-137165889D01*
X105689285Y-137213520D01*
X105619244Y-137225127D01*
X105554046Y-137197024D01*
X105514392Y-137138133D01*
X105508500Y-137100054D01*
X105508500Y-134875000D01*
X109366502Y-134875000D01*
X109386457Y-135103087D01*
X109387881Y-135108400D01*
X109387881Y-135108402D01*
X109440934Y-135306395D01*
X109445716Y-135324243D01*
X109448039Y-135329224D01*
X109448039Y-135329225D01*
X109540151Y-135526762D01*
X109540154Y-135526767D01*
X109542477Y-135531749D01*
X109673802Y-135719300D01*
X109835700Y-135881198D01*
X109840208Y-135884355D01*
X109840211Y-135884357D01*
X109881542Y-135913297D01*
X110023251Y-136012523D01*
X110028233Y-136014846D01*
X110028238Y-136014849D01*
X110225775Y-136106961D01*
X110230757Y-136109284D01*
X110236065Y-136110706D01*
X110236067Y-136110707D01*
X110446598Y-136167119D01*
X110446600Y-136167119D01*
X110451913Y-136168543D01*
X110680000Y-136188498D01*
X110908087Y-136168543D01*
X110913400Y-136167119D01*
X110913402Y-136167119D01*
X111123933Y-136110707D01*
X111123935Y-136110706D01*
X111129243Y-136109284D01*
X111134225Y-136106961D01*
X111331762Y-136014849D01*
X111331767Y-136014846D01*
X111336749Y-136012523D01*
X111478458Y-135913297D01*
X111519789Y-135884357D01*
X111519792Y-135884355D01*
X111524300Y-135881198D01*
X111686198Y-135719300D01*
X111817523Y-135531749D01*
X111819846Y-135526767D01*
X111819849Y-135526762D01*
X111911961Y-135329225D01*
X111911961Y-135329224D01*
X111914284Y-135324243D01*
X111919067Y-135306395D01*
X111972119Y-135108402D01*
X111972119Y-135108400D01*
X111973543Y-135103087D01*
X111993498Y-134875000D01*
X111973543Y-134646913D01*
X111914284Y-134425757D01*
X111911961Y-134420775D01*
X111819849Y-134223238D01*
X111819846Y-134223233D01*
X111817523Y-134218251D01*
X111686198Y-134030700D01*
X111524300Y-133868802D01*
X111519792Y-133865645D01*
X111519789Y-133865643D01*
X111441611Y-133810902D01*
X111336749Y-133737477D01*
X111331767Y-133735154D01*
X111331762Y-133735151D01*
X111297543Y-133719195D01*
X111244258Y-133672278D01*
X111224797Y-133604001D01*
X111245339Y-133536041D01*
X111297543Y-133490805D01*
X111331762Y-133474849D01*
X111331767Y-133474846D01*
X111336749Y-133472523D01*
X111505289Y-133354510D01*
X111519789Y-133344357D01*
X111519792Y-133344355D01*
X111524300Y-133341198D01*
X111686198Y-133179300D01*
X111817523Y-132991749D01*
X111819846Y-132986767D01*
X111819849Y-132986762D01*
X111911961Y-132789225D01*
X111911961Y-132789224D01*
X111914284Y-132784243D01*
X111973543Y-132563087D01*
X111993498Y-132335000D01*
X111973543Y-132106913D01*
X111972119Y-132101598D01*
X111972118Y-132101591D01*
X111956541Y-132043459D01*
X111958230Y-131972483D01*
X111989152Y-131921752D01*
X112030499Y-131880405D01*
X112092811Y-131846379D01*
X112119594Y-131843500D01*
X116912832Y-131843500D01*
X116980953Y-131863502D01*
X117027446Y-131917158D01*
X117037550Y-131987432D01*
X117034540Y-132002105D01*
X117006457Y-132106913D01*
X116986502Y-132335000D01*
X117006457Y-132563087D01*
X117065716Y-132784243D01*
X117068039Y-132789224D01*
X117068039Y-132789225D01*
X117160151Y-132986762D01*
X117160154Y-132986767D01*
X117162477Y-132991749D01*
X117293802Y-133179300D01*
X117455700Y-133341198D01*
X117460211Y-133344357D01*
X117464424Y-133347892D01*
X117463473Y-133349026D01*
X117503471Y-133399071D01*
X117510776Y-133469690D01*
X117478742Y-133533049D01*
X117417538Y-133569030D01*
X117400483Y-133572082D01*
X117389684Y-133573255D01*
X117253295Y-133624385D01*
X117136739Y-133711739D01*
X117049385Y-133828295D01*
X116998255Y-133964684D01*
X116991500Y-134026866D01*
X116991500Y-135723134D01*
X116998255Y-135785316D01*
X117049385Y-135921705D01*
X117136739Y-136038261D01*
X117253295Y-136125615D01*
X117389684Y-136176745D01*
X117451866Y-136183500D01*
X119148134Y-136183500D01*
X119210316Y-136176745D01*
X119346705Y-136125615D01*
X119463261Y-136038261D01*
X119550615Y-135921705D01*
X119601745Y-135785316D01*
X119608500Y-135723134D01*
X119608500Y-135634500D01*
X119628502Y-135566379D01*
X119682158Y-135519886D01*
X119734500Y-135508500D01*
X156707934Y-135508500D01*
X156719117Y-135509027D01*
X156726610Y-135510702D01*
X156734536Y-135510453D01*
X156734537Y-135510453D01*
X156794687Y-135508562D01*
X156798646Y-135508500D01*
X156826557Y-135508500D01*
X156830492Y-135508003D01*
X156830557Y-135507995D01*
X156842394Y-135507062D01*
X156874652Y-135506048D01*
X156878671Y-135505922D01*
X156886590Y-135505673D01*
X156906044Y-135500021D01*
X156925401Y-135496013D01*
X156937631Y-135494468D01*
X156937632Y-135494468D01*
X156945498Y-135493474D01*
X156952869Y-135490555D01*
X156952871Y-135490555D01*
X156986613Y-135477196D01*
X156997843Y-135473351D01*
X157032684Y-135463229D01*
X157032685Y-135463229D01*
X157040294Y-135461018D01*
X157047113Y-135456985D01*
X157047118Y-135456983D01*
X157057729Y-135450707D01*
X157075477Y-135442012D01*
X157094318Y-135434552D01*
X157130088Y-135408564D01*
X157140008Y-135402048D01*
X157171236Y-135383580D01*
X157171239Y-135383578D01*
X157178063Y-135379542D01*
X157192384Y-135365221D01*
X157207418Y-135352380D01*
X157217395Y-135345131D01*
X157223808Y-135340472D01*
X157251999Y-135306395D01*
X157259989Y-135297616D01*
X166257247Y-126300358D01*
X166265537Y-126292814D01*
X166272018Y-126288701D01*
X166318659Y-126239033D01*
X166321413Y-126236192D01*
X166341135Y-126216470D01*
X166343612Y-126213277D01*
X166351317Y-126204256D01*
X166376159Y-126177801D01*
X166381586Y-126172022D01*
X166385407Y-126165072D01*
X166391346Y-126154269D01*
X166402202Y-126137742D01*
X166409757Y-126128003D01*
X166409758Y-126128001D01*
X166414614Y-126121741D01*
X166432174Y-126081161D01*
X166437391Y-126070513D01*
X166454875Y-126038710D01*
X166454876Y-126038708D01*
X166458695Y-126031761D01*
X166463733Y-126012138D01*
X166470137Y-125993435D01*
X166475033Y-125982121D01*
X166475033Y-125982120D01*
X166478181Y-125974846D01*
X166479420Y-125967023D01*
X166479423Y-125967013D01*
X166485099Y-125931177D01*
X166487505Y-125919557D01*
X166496528Y-125884412D01*
X166496528Y-125884411D01*
X166498500Y-125876731D01*
X166498500Y-125856477D01*
X166500051Y-125836766D01*
X166501980Y-125824587D01*
X166503220Y-125816758D01*
X166499059Y-125772739D01*
X166498500Y-125760882D01*
X166498500Y-125577131D01*
X166518502Y-125509010D01*
X166572158Y-125462517D01*
X166642432Y-125452413D01*
X166677749Y-125462936D01*
X166830757Y-125534284D01*
X166836065Y-125535706D01*
X166836067Y-125535707D01*
X167046598Y-125592119D01*
X167046600Y-125592119D01*
X167051913Y-125593543D01*
X167280000Y-125613498D01*
X167508087Y-125593543D01*
X167513400Y-125592119D01*
X167513402Y-125592119D01*
X167723933Y-125535707D01*
X167723935Y-125535706D01*
X167729243Y-125534284D01*
X167783444Y-125509010D01*
X167931762Y-125439849D01*
X167931767Y-125439846D01*
X167936749Y-125437523D01*
X168078458Y-125338297D01*
X168119789Y-125309357D01*
X168119792Y-125309355D01*
X168124300Y-125306198D01*
X168286198Y-125144300D01*
X168417523Y-124956749D01*
X168419846Y-124951767D01*
X168419849Y-124951762D01*
X168511961Y-124754225D01*
X168511961Y-124754224D01*
X168514284Y-124749243D01*
X168521993Y-124720475D01*
X168572119Y-124533402D01*
X168572119Y-124533400D01*
X168573543Y-124528087D01*
X168593498Y-124300000D01*
X168573543Y-124071913D01*
X168537712Y-123938192D01*
X168515707Y-123856067D01*
X168515706Y-123856065D01*
X168514284Y-123850757D01*
X168435805Y-123682457D01*
X168419849Y-123648238D01*
X168419846Y-123648233D01*
X168417523Y-123643251D01*
X168326992Y-123513959D01*
X168289357Y-123460211D01*
X168289355Y-123460208D01*
X168286198Y-123455700D01*
X168124300Y-123293802D01*
X168119792Y-123290645D01*
X168119789Y-123290643D01*
X168035995Y-123231970D01*
X167936749Y-123162477D01*
X167931767Y-123160154D01*
X167931762Y-123160151D01*
X167734225Y-123068039D01*
X167734224Y-123068039D01*
X167729243Y-123065716D01*
X167723935Y-123064294D01*
X167723933Y-123064293D01*
X167513402Y-123007881D01*
X167513400Y-123007881D01*
X167508087Y-123006457D01*
X167280000Y-122986502D01*
X167051913Y-123006457D01*
X167046602Y-123007880D01*
X167046591Y-123007882D01*
X166988459Y-123023459D01*
X166917483Y-123021770D01*
X166866752Y-122990848D01*
X163995405Y-120119500D01*
X163961379Y-120057188D01*
X163958500Y-120030405D01*
X163958500Y-117957131D01*
X163978502Y-117889010D01*
X164032158Y-117842517D01*
X164102432Y-117832413D01*
X164137749Y-117842936D01*
X164290757Y-117914284D01*
X164296065Y-117915706D01*
X164296067Y-117915707D01*
X164506598Y-117972119D01*
X164506600Y-117972119D01*
X164511913Y-117973543D01*
X164740000Y-117993498D01*
X164968087Y-117973543D01*
X164973400Y-117972119D01*
X164973402Y-117972119D01*
X165183933Y-117915707D01*
X165183935Y-117915706D01*
X165189243Y-117914284D01*
X165243444Y-117889010D01*
X165391762Y-117819849D01*
X165391767Y-117819846D01*
X165396749Y-117817523D01*
X165521500Y-117730171D01*
X165579789Y-117689357D01*
X165579792Y-117689355D01*
X165584300Y-117686198D01*
X165746198Y-117524300D01*
X165877523Y-117336749D01*
X165879846Y-117331767D01*
X165879849Y-117331762D01*
X165895805Y-117297543D01*
X165942722Y-117244258D01*
X166010999Y-117224797D01*
X166078959Y-117245339D01*
X166124195Y-117297543D01*
X166140151Y-117331762D01*
X166140154Y-117331767D01*
X166142477Y-117336749D01*
X166273802Y-117524300D01*
X166435700Y-117686198D01*
X166440208Y-117689355D01*
X166440211Y-117689357D01*
X166498500Y-117730171D01*
X166623251Y-117817523D01*
X166628233Y-117819846D01*
X166628238Y-117819849D01*
X166776556Y-117889010D01*
X166830757Y-117914284D01*
X166836065Y-117915706D01*
X166836067Y-117915707D01*
X167046598Y-117972119D01*
X167046600Y-117972119D01*
X167051913Y-117973543D01*
X167280000Y-117993498D01*
X167508087Y-117973543D01*
X167513400Y-117972119D01*
X167513402Y-117972119D01*
X167723933Y-117915707D01*
X167723935Y-117915706D01*
X167729243Y-117914284D01*
X167783444Y-117889010D01*
X167931762Y-117819849D01*
X167931767Y-117819846D01*
X167936749Y-117817523D01*
X168061500Y-117730171D01*
X168119789Y-117689357D01*
X168119792Y-117689355D01*
X168124300Y-117686198D01*
X168286198Y-117524300D01*
X168417523Y-117336749D01*
X168419846Y-117331767D01*
X168419849Y-117331762D01*
X168511961Y-117134225D01*
X168511961Y-117134224D01*
X168514284Y-117129243D01*
X168521993Y-117100475D01*
X168572119Y-116913402D01*
X168572119Y-116913400D01*
X168573543Y-116908087D01*
X168593498Y-116680000D01*
X168573543Y-116451913D01*
X168568674Y-116433743D01*
X168515707Y-116236067D01*
X168515706Y-116236065D01*
X168514284Y-116230757D01*
X168460148Y-116114661D01*
X168419849Y-116028238D01*
X168419846Y-116028233D01*
X168417523Y-116023251D01*
X168305341Y-115863039D01*
X168289357Y-115840211D01*
X168289355Y-115840208D01*
X168286198Y-115835700D01*
X168124300Y-115673802D01*
X168119792Y-115670645D01*
X168119789Y-115670643D01*
X168041611Y-115615902D01*
X167936749Y-115542477D01*
X167931767Y-115540154D01*
X167931762Y-115540151D01*
X167734225Y-115448039D01*
X167734224Y-115448039D01*
X167729243Y-115445716D01*
X167723935Y-115444294D01*
X167723933Y-115444293D01*
X167513402Y-115387881D01*
X167513400Y-115387881D01*
X167508087Y-115386457D01*
X167280000Y-115366502D01*
X167051913Y-115386457D01*
X167046600Y-115387881D01*
X167046598Y-115387881D01*
X166836067Y-115444293D01*
X166836065Y-115444294D01*
X166830757Y-115445716D01*
X166825776Y-115448039D01*
X166825775Y-115448039D01*
X166628238Y-115540151D01*
X166628233Y-115540154D01*
X166623251Y-115542477D01*
X166518389Y-115615902D01*
X166440211Y-115670643D01*
X166440208Y-115670645D01*
X166435700Y-115673802D01*
X166273802Y-115835700D01*
X166270645Y-115840208D01*
X166270643Y-115840211D01*
X166254659Y-115863039D01*
X166142477Y-116023251D01*
X166140154Y-116028233D01*
X166140151Y-116028238D01*
X166124195Y-116062457D01*
X166077278Y-116115742D01*
X166009001Y-116135203D01*
X165941041Y-116114661D01*
X165895805Y-116062457D01*
X165879849Y-116028238D01*
X165879846Y-116028233D01*
X165877523Y-116023251D01*
X165765341Y-115863039D01*
X165749357Y-115840211D01*
X165749355Y-115840208D01*
X165746198Y-115835700D01*
X165584300Y-115673802D01*
X165579792Y-115670645D01*
X165579789Y-115670643D01*
X165501611Y-115615902D01*
X165396749Y-115542477D01*
X165391767Y-115540154D01*
X165391762Y-115540151D01*
X165194225Y-115448039D01*
X165194224Y-115448039D01*
X165189243Y-115445716D01*
X165183935Y-115444294D01*
X165183933Y-115444293D01*
X164973402Y-115387881D01*
X164973400Y-115387881D01*
X164968087Y-115386457D01*
X164740000Y-115366502D01*
X164511913Y-115386457D01*
X164506600Y-115387881D01*
X164506598Y-115387881D01*
X164296067Y-115444293D01*
X164296065Y-115444294D01*
X164290757Y-115445716D01*
X164156412Y-115508362D01*
X164137750Y-115517064D01*
X164067558Y-115527725D01*
X164002745Y-115498745D01*
X163963889Y-115439325D01*
X163958500Y-115402869D01*
X163958500Y-115003727D01*
X163959027Y-114992544D01*
X163960702Y-114985051D01*
X163959603Y-114950071D01*
X163958562Y-114916974D01*
X163958500Y-114913015D01*
X163958500Y-114885104D01*
X163957995Y-114881104D01*
X163957062Y-114869261D01*
X163955922Y-114832990D01*
X163955673Y-114825071D01*
X163950021Y-114805617D01*
X163946013Y-114786260D01*
X163944468Y-114774030D01*
X163944468Y-114774029D01*
X163943474Y-114766163D01*
X163940555Y-114758790D01*
X163927196Y-114725048D01*
X163923351Y-114713818D01*
X163913229Y-114678977D01*
X163913229Y-114678976D01*
X163911018Y-114671367D01*
X163906985Y-114664548D01*
X163906983Y-114664543D01*
X163900707Y-114653932D01*
X163892012Y-114636184D01*
X163884552Y-114617343D01*
X163858564Y-114581573D01*
X163852048Y-114571653D01*
X163833580Y-114540425D01*
X163833578Y-114540422D01*
X163829542Y-114533598D01*
X163815221Y-114519277D01*
X163802380Y-114504243D01*
X163795131Y-114494266D01*
X163790472Y-114487853D01*
X163756395Y-114459662D01*
X163747616Y-114451672D01*
X163502138Y-114206194D01*
X163468112Y-114143882D01*
X163473177Y-114073067D01*
X163515724Y-114016231D01*
X163537983Y-114002904D01*
X163618887Y-113965178D01*
X163656749Y-113947523D01*
X163779555Y-113861533D01*
X163839789Y-113819357D01*
X163839792Y-113819355D01*
X163844300Y-113816198D01*
X164006198Y-113654300D01*
X164137523Y-113466749D01*
X164139846Y-113461767D01*
X164139849Y-113461762D01*
X164231961Y-113264225D01*
X164231961Y-113264224D01*
X164234284Y-113259243D01*
X164293543Y-113038087D01*
X164313498Y-112810000D01*
X164293543Y-112581913D01*
X164234284Y-112360757D01*
X164231961Y-112355775D01*
X164139849Y-112158238D01*
X164139846Y-112158233D01*
X164137523Y-112153251D01*
X164048797Y-112026537D01*
X164009357Y-111970211D01*
X164009355Y-111970208D01*
X164006198Y-111965700D01*
X163844300Y-111803802D01*
X163839792Y-111800645D01*
X163839789Y-111800643D01*
X163729941Y-111723727D01*
X163656749Y-111672477D01*
X163651767Y-111670154D01*
X163651762Y-111670151D01*
X163454225Y-111578039D01*
X163454224Y-111578039D01*
X163449243Y-111575716D01*
X163443935Y-111574294D01*
X163443933Y-111574293D01*
X163233402Y-111517881D01*
X163233400Y-111517881D01*
X163228087Y-111516457D01*
X163000000Y-111496502D01*
X162771913Y-111516457D01*
X162766600Y-111517881D01*
X162766598Y-111517881D01*
X162556067Y-111574293D01*
X162556065Y-111574294D01*
X162550757Y-111575716D01*
X162545776Y-111578039D01*
X162545775Y-111578039D01*
X162348238Y-111670151D01*
X162348233Y-111670154D01*
X162343251Y-111672477D01*
X162270059Y-111723727D01*
X162160211Y-111800643D01*
X162160208Y-111800645D01*
X162155700Y-111803802D01*
X161993802Y-111965700D01*
X161990645Y-111970208D01*
X161990643Y-111970211D01*
X161951203Y-112026537D01*
X161862477Y-112153251D01*
X161828046Y-112227089D01*
X161807096Y-112272017D01*
X161760179Y-112325302D01*
X161691902Y-112344763D01*
X161623942Y-112324221D01*
X161603806Y-112307862D01*
X158487884Y-109191939D01*
X155345212Y-106049267D01*
X155311186Y-105986955D01*
X155309611Y-105942092D01*
X155328763Y-105809999D01*
X155329296Y-105806325D01*
X155330922Y-105744220D01*
X155318220Y-105605983D01*
X155311580Y-105533722D01*
X155311579Y-105533719D01*
X155311051Y-105527968D01*
X155289754Y-105452452D01*
X155253672Y-105324517D01*
X155253671Y-105324515D01*
X155252104Y-105318958D01*
X155247535Y-105309691D01*
X155158611Y-105129372D01*
X155156056Y-105124191D01*
X155034878Y-104961913D01*
X155029575Y-104954812D01*
X155029574Y-104954811D01*
X155026122Y-104950188D01*
X154961689Y-104890627D01*
X154870895Y-104806698D01*
X154870893Y-104806696D01*
X154866654Y-104802778D01*
X154827515Y-104778083D01*
X154687873Y-104689975D01*
X154687872Y-104689975D01*
X154682993Y-104686896D01*
X154481290Y-104606425D01*
X154475630Y-104605299D01*
X154475626Y-104605298D01*
X154273968Y-104565186D01*
X154273963Y-104565186D01*
X154268300Y-104564059D01*
X154262525Y-104563983D01*
X154262521Y-104563983D01*
X154153375Y-104562554D01*
X154051156Y-104561216D01*
X154045459Y-104562195D01*
X154045458Y-104562195D01*
X153842819Y-104597015D01*
X153842816Y-104597016D01*
X153837129Y-104597993D01*
X153633389Y-104673156D01*
X153605119Y-104689975D01*
X153451726Y-104781234D01*
X153451723Y-104781236D01*
X153446758Y-104784190D01*
X153442418Y-104787996D01*
X153442414Y-104787999D01*
X153396583Y-104828192D01*
X153283486Y-104927376D01*
X153279911Y-104931911D01*
X153279910Y-104931912D01*
X153163337Y-105079785D01*
X153105456Y-105120898D01*
X153034536Y-105124192D01*
X152975292Y-105090874D01*
X152775045Y-104890627D01*
X152741019Y-104828315D01*
X152738140Y-104801532D01*
X152738140Y-103732892D01*
X152758142Y-103664771D01*
X152811798Y-103618278D01*
X152882072Y-103608174D01*
X152946652Y-103637668D01*
X152952062Y-103642638D01*
X152985756Y-103675461D01*
X153039329Y-103727650D01*
X153044125Y-103730855D01*
X153044128Y-103730857D01*
X153178489Y-103820633D01*
X153219894Y-103848299D01*
X153225197Y-103850577D01*
X153225200Y-103850579D01*
X153414114Y-103931743D01*
X153419421Y-103934023D01*
X153494392Y-103950987D01*
X153625593Y-103980675D01*
X153625598Y-103980676D01*
X153631230Y-103981950D01*
X153637001Y-103982177D01*
X153637003Y-103982177D01*
X153702353Y-103984745D01*
X153848225Y-103990476D01*
X153962821Y-103973860D01*
X154057427Y-103960143D01*
X154057432Y-103960142D01*
X154063141Y-103959314D01*
X154068605Y-103957459D01*
X154068610Y-103957458D01*
X154263307Y-103891368D01*
X154263312Y-103891366D01*
X154268779Y-103889510D01*
X154273822Y-103886686D01*
X154453206Y-103786226D01*
X154453210Y-103786223D01*
X154458253Y-103783399D01*
X154625217Y-103644537D01*
X154764079Y-103477573D01*
X154766903Y-103472530D01*
X154766906Y-103472526D01*
X154867366Y-103293142D01*
X154867367Y-103293140D01*
X154870190Y-103288099D01*
X154872046Y-103282632D01*
X154872048Y-103282627D01*
X154938138Y-103087930D01*
X154938139Y-103087925D01*
X154939994Y-103082461D01*
X154942003Y-103068612D01*
X154970623Y-102871219D01*
X154971156Y-102867545D01*
X154972782Y-102805440D01*
X154952911Y-102589188D01*
X154945937Y-102564458D01*
X154895532Y-102385737D01*
X154895531Y-102385735D01*
X154893964Y-102380178D01*
X154889910Y-102371956D01*
X154800471Y-102190592D01*
X154797916Y-102185411D01*
X154782398Y-102164629D01*
X154671435Y-102016032D01*
X154671434Y-102016031D01*
X154667982Y-102011408D01*
X154634149Y-101980133D01*
X154512755Y-101867918D01*
X154512753Y-101867916D01*
X154508514Y-101863998D01*
X154474369Y-101842454D01*
X154329733Y-101751195D01*
X154329732Y-101751195D01*
X154324853Y-101748116D01*
X154123150Y-101667645D01*
X154117490Y-101666519D01*
X154117486Y-101666518D01*
X153915828Y-101626406D01*
X153915823Y-101626406D01*
X153910160Y-101625279D01*
X153904385Y-101625203D01*
X153904381Y-101625203D01*
X153795235Y-101623774D01*
X153693016Y-101622436D01*
X153687319Y-101623415D01*
X153687318Y-101623415D01*
X153484679Y-101658235D01*
X153484676Y-101658236D01*
X153478989Y-101659213D01*
X153275249Y-101734376D01*
X153185303Y-101787888D01*
X153093586Y-101842454D01*
X153093583Y-101842456D01*
X153088618Y-101845410D01*
X153084278Y-101849216D01*
X153084274Y-101849219D01*
X153039642Y-101888361D01*
X152976845Y-101943433D01*
X152947218Y-101969415D01*
X152882814Y-101999292D01*
X152812481Y-101989606D01*
X152758549Y-101943433D01*
X152738140Y-101874683D01*
X152738140Y-101436219D01*
X152758142Y-101368098D01*
X152783571Y-101339345D01*
X152794851Y-101329964D01*
X152943737Y-101206137D01*
X153082599Y-101039173D01*
X153085423Y-101034130D01*
X153085426Y-101034126D01*
X153185886Y-100854742D01*
X153185887Y-100854740D01*
X153188710Y-100849699D01*
X153190566Y-100844232D01*
X153190568Y-100844227D01*
X153256658Y-100649530D01*
X153256659Y-100649525D01*
X153258514Y-100644061D01*
X153270953Y-100558277D01*
X153289143Y-100432819D01*
X153289676Y-100429145D01*
X153291302Y-100367040D01*
X153273692Y-100175396D01*
X153271960Y-100156542D01*
X153271959Y-100156539D01*
X153271431Y-100150788D01*
X153269817Y-100145063D01*
X153214052Y-99947337D01*
X153214051Y-99947335D01*
X153212484Y-99941778D01*
X153200980Y-99918449D01*
X153118991Y-99752192D01*
X153116436Y-99747011D01*
X153056644Y-99666939D01*
X152989955Y-99577632D01*
X152989954Y-99577631D01*
X152986502Y-99573008D01*
X152982266Y-99569092D01*
X152831275Y-99429518D01*
X152831273Y-99429516D01*
X152827034Y-99425598D01*
X152643373Y-99309716D01*
X152441670Y-99229245D01*
X152436010Y-99228119D01*
X152436006Y-99228118D01*
X152234348Y-99188006D01*
X152234343Y-99188006D01*
X152228680Y-99186879D01*
X152222905Y-99186803D01*
X152222901Y-99186803D01*
X152113755Y-99185374D01*
X152011536Y-99184036D01*
X152005839Y-99185015D01*
X152005838Y-99185015D01*
X151803199Y-99219835D01*
X151803196Y-99219836D01*
X151797509Y-99220813D01*
X151593769Y-99295976D01*
X151565499Y-99312795D01*
X151412106Y-99404054D01*
X151412103Y-99404056D01*
X151407138Y-99407010D01*
X151402798Y-99410816D01*
X151402794Y-99410819D01*
X151338109Y-99467547D01*
X151243866Y-99550196D01*
X151240291Y-99554731D01*
X151240290Y-99554732D01*
X151222237Y-99577632D01*
X151109422Y-99720738D01*
X151106733Y-99725849D01*
X151106731Y-99725852D01*
X151010999Y-99907806D01*
X151010996Y-99907813D01*
X151008307Y-99912924D01*
X150943909Y-100120319D01*
X150918385Y-100335977D01*
X150932588Y-100552675D01*
X150986043Y-100763156D01*
X151076961Y-100960371D01*
X151202295Y-101137715D01*
X151357849Y-101289250D01*
X151362655Y-101292461D01*
X151415141Y-101327531D01*
X151460669Y-101382007D01*
X151471140Y-101432296D01*
X151471140Y-103918928D01*
X151451138Y-103987049D01*
X151397482Y-104033542D01*
X151327208Y-104043646D01*
X151262628Y-104014152D01*
X151256045Y-104008023D01*
X150151225Y-102903203D01*
X150117199Y-102840891D01*
X150114320Y-102814108D01*
X150114320Y-100059539D01*
X150134322Y-99991418D01*
X150159751Y-99962665D01*
X150315479Y-99833148D01*
X150319917Y-99829457D01*
X150458779Y-99662493D01*
X150461603Y-99657450D01*
X150461606Y-99657446D01*
X150562066Y-99478062D01*
X150562067Y-99478060D01*
X150564890Y-99473019D01*
X150566746Y-99467552D01*
X150566748Y-99467547D01*
X150632838Y-99272850D01*
X150632839Y-99272845D01*
X150634694Y-99267381D01*
X150639914Y-99231385D01*
X150665323Y-99056139D01*
X150665856Y-99052465D01*
X150667482Y-98990360D01*
X150647611Y-98774108D01*
X150640637Y-98749378D01*
X150590232Y-98570657D01*
X150590231Y-98570655D01*
X150588664Y-98565098D01*
X150583734Y-98555099D01*
X150495171Y-98375512D01*
X150492616Y-98370331D01*
X150362682Y-98196328D01*
X150283895Y-98123498D01*
X150207455Y-98052838D01*
X150207453Y-98052836D01*
X150203214Y-98048918D01*
X150019553Y-97933036D01*
X149817850Y-97852565D01*
X149812190Y-97851439D01*
X149812186Y-97851438D01*
X149610528Y-97811326D01*
X149610523Y-97811326D01*
X149604860Y-97810199D01*
X149599085Y-97810123D01*
X149599081Y-97810123D01*
X149489935Y-97808694D01*
X149387716Y-97807356D01*
X149382019Y-97808335D01*
X149382018Y-97808335D01*
X149179379Y-97843155D01*
X149179376Y-97843156D01*
X149173689Y-97844133D01*
X148969949Y-97919296D01*
X148922504Y-97947523D01*
X148788286Y-98027374D01*
X148788283Y-98027376D01*
X148783318Y-98030330D01*
X148778978Y-98034136D01*
X148778974Y-98034139D01*
X148677080Y-98123498D01*
X148620046Y-98173516D01*
X148616471Y-98178051D01*
X148616470Y-98178052D01*
X148598417Y-98200952D01*
X148485602Y-98344058D01*
X148482913Y-98349169D01*
X148482911Y-98349172D01*
X148387179Y-98531126D01*
X148387176Y-98531133D01*
X148384487Y-98536244D01*
X148320089Y-98743639D01*
X148294565Y-98959297D01*
X148308768Y-99175995D01*
X148362223Y-99386476D01*
X148453141Y-99583691D01*
X148578475Y-99761035D01*
X148734029Y-99912570D01*
X148738835Y-99915781D01*
X148791321Y-99950851D01*
X148836849Y-100005327D01*
X148847320Y-100055616D01*
X148847320Y-103049936D01*
X148846793Y-103061119D01*
X148845118Y-103068612D01*
X148845367Y-103076538D01*
X148845367Y-103076539D01*
X148847258Y-103136689D01*
X148847320Y-103140648D01*
X148847320Y-103168559D01*
X148847817Y-103172493D01*
X148847817Y-103172494D01*
X148847825Y-103172559D01*
X148848758Y-103184396D01*
X148850147Y-103228592D01*
X148855798Y-103248042D01*
X148859807Y-103267403D01*
X148862346Y-103287500D01*
X148865265Y-103294871D01*
X148865265Y-103294873D01*
X148878624Y-103328615D01*
X148882469Y-103339845D01*
X148894802Y-103382296D01*
X148898835Y-103389115D01*
X148898837Y-103389120D01*
X148905113Y-103399731D01*
X148913808Y-103417479D01*
X148921268Y-103436320D01*
X148925930Y-103442736D01*
X148925930Y-103442737D01*
X148947256Y-103472090D01*
X148953772Y-103482010D01*
X148976278Y-103520065D01*
X148990599Y-103534386D01*
X149003439Y-103549419D01*
X149015348Y-103565810D01*
X149049425Y-103594001D01*
X149058204Y-103601991D01*
X152675446Y-107219233D01*
X152709472Y-107281545D01*
X152704407Y-107352360D01*
X152661860Y-107409196D01*
X152629967Y-107426537D01*
X152581829Y-107444296D01*
X152553559Y-107461115D01*
X152400166Y-107552374D01*
X152400163Y-107552376D01*
X152395198Y-107555330D01*
X152390858Y-107559136D01*
X152390854Y-107559139D01*
X152274132Y-107661502D01*
X152231926Y-107698516D01*
X152228351Y-107703051D01*
X152228350Y-107703052D01*
X152210297Y-107725952D01*
X152097482Y-107869058D01*
X152094793Y-107874169D01*
X152094791Y-107874172D01*
X151999059Y-108056126D01*
X151999056Y-108056133D01*
X151996367Y-108061244D01*
X151931969Y-108268639D01*
X151906445Y-108484297D01*
X151920648Y-108700995D01*
X151974103Y-108911476D01*
X152065021Y-109108691D01*
X152190355Y-109286035D01*
X152246762Y-109340985D01*
X152318295Y-109410669D01*
X152345909Y-109437570D01*
X152350715Y-109440781D01*
X152403201Y-109475851D01*
X152448729Y-109530327D01*
X152459200Y-109580616D01*
X152459200Y-115273459D01*
X152439198Y-115341580D01*
X152385542Y-115388073D01*
X152315268Y-115398177D01*
X152300587Y-115395165D01*
X152273406Y-115387881D01*
X152273392Y-115387879D01*
X152268087Y-115386457D01*
X152040000Y-115366502D01*
X151811913Y-115386457D01*
X151806600Y-115387881D01*
X151806598Y-115387881D01*
X151596067Y-115444293D01*
X151596065Y-115444294D01*
X151590757Y-115445716D01*
X151585776Y-115448039D01*
X151585775Y-115448039D01*
X151388238Y-115540151D01*
X151388233Y-115540154D01*
X151383251Y-115542477D01*
X151278389Y-115615902D01*
X151200211Y-115670643D01*
X151200208Y-115670645D01*
X151195700Y-115673802D01*
X151033802Y-115835700D01*
X151030645Y-115840208D01*
X151030643Y-115840211D01*
X151014659Y-115863039D01*
X150902477Y-116023251D01*
X150900154Y-116028233D01*
X150900151Y-116028238D01*
X150884195Y-116062457D01*
X150837278Y-116115742D01*
X150769001Y-116135203D01*
X150701041Y-116114661D01*
X150655805Y-116062457D01*
X150639849Y-116028238D01*
X150639846Y-116028233D01*
X150637523Y-116023251D01*
X150525341Y-115863039D01*
X150509357Y-115840211D01*
X150509355Y-115840208D01*
X150506198Y-115835700D01*
X150344300Y-115673802D01*
X150339792Y-115670645D01*
X150339789Y-115670643D01*
X150261611Y-115615902D01*
X150156749Y-115542477D01*
X150151767Y-115540154D01*
X150151762Y-115540151D01*
X149954225Y-115448039D01*
X149954224Y-115448039D01*
X149949243Y-115445716D01*
X149943935Y-115444294D01*
X149943933Y-115444293D01*
X149733402Y-115387881D01*
X149733400Y-115387881D01*
X149728087Y-115386457D01*
X149500000Y-115366502D01*
X149271913Y-115386457D01*
X149266602Y-115387880D01*
X149266591Y-115387882D01*
X149208459Y-115403459D01*
X149137483Y-115401770D01*
X149086752Y-115370848D01*
X145505313Y-111789409D01*
X145471287Y-111727097D01*
X145476352Y-111656282D01*
X145518899Y-111599446D01*
X145553907Y-111581001D01*
X145562633Y-111578039D01*
X145607379Y-111562850D01*
X145635935Y-111546858D01*
X145791806Y-111459566D01*
X145791810Y-111459563D01*
X145796853Y-111456739D01*
X145963817Y-111317877D01*
X146098135Y-111156377D01*
X146813745Y-111156377D01*
X146827948Y-111373075D01*
X146881403Y-111583556D01*
X146972321Y-111780771D01*
X147097655Y-111958115D01*
X147253209Y-112109650D01*
X147258005Y-112112855D01*
X147258008Y-112112857D01*
X147399906Y-112207669D01*
X147433774Y-112230299D01*
X147439077Y-112232577D01*
X147439080Y-112232579D01*
X147534019Y-112273368D01*
X147633301Y-112316023D01*
X147674309Y-112325302D01*
X147839473Y-112362675D01*
X147839478Y-112362676D01*
X147845110Y-112363950D01*
X147850881Y-112364177D01*
X147850883Y-112364177D01*
X147916233Y-112366745D01*
X148062105Y-112372476D01*
X148169563Y-112356895D01*
X148271307Y-112342143D01*
X148271312Y-112342142D01*
X148277021Y-112341314D01*
X148282485Y-112339459D01*
X148282490Y-112339458D01*
X148477187Y-112273368D01*
X148477192Y-112273366D01*
X148482659Y-112271510D01*
X148487702Y-112268686D01*
X148667086Y-112168226D01*
X148667090Y-112168223D01*
X148672133Y-112165399D01*
X148839097Y-112026537D01*
X148977959Y-111859573D01*
X148980783Y-111854530D01*
X148980786Y-111854526D01*
X149081246Y-111675142D01*
X149081247Y-111675140D01*
X149084070Y-111670099D01*
X149085926Y-111664632D01*
X149085928Y-111664627D01*
X149152018Y-111469930D01*
X149152019Y-111469925D01*
X149153874Y-111464461D01*
X149166313Y-111378677D01*
X149184503Y-111253219D01*
X149185036Y-111249545D01*
X149186662Y-111187440D01*
X149166791Y-110971188D01*
X149164042Y-110961439D01*
X149109412Y-110767737D01*
X149109411Y-110767735D01*
X149107844Y-110762178D01*
X149104700Y-110755801D01*
X149014351Y-110572592D01*
X149011796Y-110567411D01*
X148989219Y-110537176D01*
X148922417Y-110447717D01*
X149689025Y-110447717D01*
X149703228Y-110664415D01*
X149756683Y-110874896D01*
X149847601Y-111072111D01*
X149972935Y-111249455D01*
X150128489Y-111400990D01*
X150133285Y-111404195D01*
X150133288Y-111404197D01*
X150271434Y-111496502D01*
X150309054Y-111521639D01*
X150314357Y-111523917D01*
X150314360Y-111523919D01*
X150453169Y-111583556D01*
X150508581Y-111607363D01*
X150568513Y-111620924D01*
X150714753Y-111654015D01*
X150714758Y-111654016D01*
X150720390Y-111655290D01*
X150726161Y-111655517D01*
X150726163Y-111655517D01*
X150791513Y-111658085D01*
X150937385Y-111663816D01*
X151044843Y-111648235D01*
X151146587Y-111633483D01*
X151146592Y-111633482D01*
X151152301Y-111632654D01*
X151157765Y-111630799D01*
X151157770Y-111630798D01*
X151352467Y-111564708D01*
X151352472Y-111564706D01*
X151357939Y-111562850D01*
X151386495Y-111546858D01*
X151542366Y-111459566D01*
X151542370Y-111459563D01*
X151547413Y-111456739D01*
X151714377Y-111317877D01*
X151853239Y-111150913D01*
X151856063Y-111145870D01*
X151856066Y-111145866D01*
X151956526Y-110966482D01*
X151956527Y-110966480D01*
X151959350Y-110961439D01*
X151961206Y-110955972D01*
X151961208Y-110955967D01*
X152027298Y-110761270D01*
X152027299Y-110761265D01*
X152029154Y-110755801D01*
X152032414Y-110733324D01*
X152048874Y-110619800D01*
X152060316Y-110540885D01*
X152061942Y-110478780D01*
X152042071Y-110262528D01*
X152038359Y-110249364D01*
X151984692Y-110059077D01*
X151984691Y-110059075D01*
X151983124Y-110053518D01*
X151971620Y-110030189D01*
X151889631Y-109863932D01*
X151887076Y-109858751D01*
X151757142Y-109684748D01*
X151728346Y-109658129D01*
X151601915Y-109541258D01*
X151601913Y-109541256D01*
X151597674Y-109537338D01*
X151532389Y-109496146D01*
X151418893Y-109424535D01*
X151418892Y-109424535D01*
X151414013Y-109421456D01*
X151212310Y-109340985D01*
X151206650Y-109339859D01*
X151206646Y-109339858D01*
X151004988Y-109299746D01*
X151004983Y-109299746D01*
X150999320Y-109298619D01*
X150993545Y-109298543D01*
X150993541Y-109298543D01*
X150884395Y-109297114D01*
X150782176Y-109295776D01*
X150776479Y-109296755D01*
X150776478Y-109296755D01*
X150573839Y-109331575D01*
X150573836Y-109331576D01*
X150568149Y-109332553D01*
X150364409Y-109407716D01*
X150321003Y-109433540D01*
X150182746Y-109515794D01*
X150182743Y-109515796D01*
X150177778Y-109518750D01*
X150173438Y-109522556D01*
X150173434Y-109522559D01*
X150037623Y-109641663D01*
X150014506Y-109661936D01*
X150010931Y-109666471D01*
X150010930Y-109666472D01*
X149992877Y-109689372D01*
X149880062Y-109832478D01*
X149877373Y-109837589D01*
X149877371Y-109837592D01*
X149781639Y-110019546D01*
X149781636Y-110019553D01*
X149778947Y-110024664D01*
X149714549Y-110232059D01*
X149689025Y-110447717D01*
X148922417Y-110447717D01*
X148885315Y-110398032D01*
X148885314Y-110398031D01*
X148881862Y-110393408D01*
X148740276Y-110262528D01*
X148726635Y-110249918D01*
X148726633Y-110249916D01*
X148722394Y-110245998D01*
X148538733Y-110130116D01*
X148337030Y-110049645D01*
X148331370Y-110048519D01*
X148331366Y-110048518D01*
X148129708Y-110008406D01*
X148129703Y-110008406D01*
X148124040Y-110007279D01*
X148118265Y-110007203D01*
X148118261Y-110007203D01*
X148009115Y-110005774D01*
X147906896Y-110004436D01*
X147901199Y-110005415D01*
X147901198Y-110005415D01*
X147698559Y-110040235D01*
X147698556Y-110040236D01*
X147692869Y-110041213D01*
X147489129Y-110116376D01*
X147460859Y-110133195D01*
X147307466Y-110224454D01*
X147307463Y-110224456D01*
X147302498Y-110227410D01*
X147298158Y-110231216D01*
X147298154Y-110231219D01*
X147154744Y-110356987D01*
X147139226Y-110370596D01*
X147135651Y-110375131D01*
X147135650Y-110375132D01*
X147120861Y-110393892D01*
X147004782Y-110541138D01*
X147002093Y-110546249D01*
X147002091Y-110546252D01*
X146906359Y-110728206D01*
X146906356Y-110728213D01*
X146903667Y-110733324D01*
X146839269Y-110940719D01*
X146813745Y-111156377D01*
X146098135Y-111156377D01*
X146102679Y-111150913D01*
X146105503Y-111145870D01*
X146105506Y-111145866D01*
X146205966Y-110966482D01*
X146205967Y-110966480D01*
X146208790Y-110961439D01*
X146210646Y-110955972D01*
X146210648Y-110955967D01*
X146276738Y-110761270D01*
X146276739Y-110761265D01*
X146278594Y-110755801D01*
X146281854Y-110733324D01*
X146298314Y-110619800D01*
X146309756Y-110540885D01*
X146311382Y-110478780D01*
X146291511Y-110262528D01*
X146287799Y-110249364D01*
X146234132Y-110059077D01*
X146234131Y-110059075D01*
X146232564Y-110053518D01*
X146221060Y-110030189D01*
X146139071Y-109863932D01*
X146136516Y-109858751D01*
X146006582Y-109684748D01*
X145977786Y-109658129D01*
X145851355Y-109541258D01*
X145851353Y-109541256D01*
X145847114Y-109537338D01*
X145781829Y-109496146D01*
X145668333Y-109424535D01*
X145668332Y-109424535D01*
X145663453Y-109421456D01*
X145461750Y-109340985D01*
X145456090Y-109339859D01*
X145456086Y-109339858D01*
X145254428Y-109299746D01*
X145254423Y-109299746D01*
X145248760Y-109298619D01*
X145242985Y-109298543D01*
X145242981Y-109298543D01*
X145133835Y-109297114D01*
X145031616Y-109295776D01*
X145025919Y-109296755D01*
X145025918Y-109296755D01*
X144823279Y-109331575D01*
X144823276Y-109331576D01*
X144817589Y-109332553D01*
X144613849Y-109407716D01*
X144570443Y-109433540D01*
X144432186Y-109515794D01*
X144432183Y-109515796D01*
X144427218Y-109518750D01*
X144422878Y-109522556D01*
X144422874Y-109522559D01*
X144287063Y-109641663D01*
X144263946Y-109661936D01*
X144260371Y-109666471D01*
X144260370Y-109666472D01*
X144242317Y-109689372D01*
X144129502Y-109832478D01*
X144126813Y-109837589D01*
X144126811Y-109837592D01*
X144031079Y-110019546D01*
X144031076Y-110019553D01*
X144028387Y-110024664D01*
X144022628Y-110043212D01*
X144022070Y-110045009D01*
X143982766Y-110104134D01*
X143917736Y-110132623D01*
X143847627Y-110121432D01*
X143812643Y-110096738D01*
X143577705Y-109861800D01*
X143543679Y-109799488D01*
X143540800Y-109772705D01*
X143540800Y-109584539D01*
X143560802Y-109516418D01*
X143586231Y-109487665D01*
X143741959Y-109358148D01*
X143746397Y-109354457D01*
X143885259Y-109187493D01*
X143888083Y-109182450D01*
X143888086Y-109182446D01*
X143988546Y-109003062D01*
X143988547Y-109003060D01*
X143991370Y-108998019D01*
X143993226Y-108992552D01*
X143993228Y-108992547D01*
X144059318Y-108797850D01*
X144059319Y-108797845D01*
X144061174Y-108792381D01*
X144073613Y-108706597D01*
X144091803Y-108581139D01*
X144092336Y-108577465D01*
X144093962Y-108515360D01*
X144079982Y-108363221D01*
X144074620Y-108304862D01*
X144074619Y-108304859D01*
X144074091Y-108299108D01*
X144070370Y-108285912D01*
X144016712Y-108095657D01*
X144016711Y-108095655D01*
X144015144Y-108090098D01*
X144003640Y-108066769D01*
X143921651Y-107900512D01*
X143919096Y-107895331D01*
X143899609Y-107869234D01*
X143792615Y-107725952D01*
X143792614Y-107725951D01*
X143789162Y-107721328D01*
X143784926Y-107717412D01*
X143633935Y-107577838D01*
X143633933Y-107577836D01*
X143629694Y-107573918D01*
X143446033Y-107458036D01*
X143244330Y-107377565D01*
X143238670Y-107376439D01*
X143238666Y-107376438D01*
X143037008Y-107336326D01*
X143037003Y-107336326D01*
X143031340Y-107335199D01*
X143025565Y-107335123D01*
X143025561Y-107335123D01*
X142916415Y-107333694D01*
X142814196Y-107332356D01*
X142808499Y-107333335D01*
X142808498Y-107333335D01*
X142791092Y-107336326D01*
X142636577Y-107362877D01*
X142566054Y-107354700D01*
X142511146Y-107309693D01*
X142489240Y-107238697D01*
X142489240Y-106813399D01*
X142509242Y-106745278D01*
X142534671Y-106716525D01*
X142659745Y-106612503D01*
X142694837Y-106583317D01*
X142833699Y-106416353D01*
X142836523Y-106411310D01*
X142836526Y-106411306D01*
X142936986Y-106231922D01*
X142936987Y-106231920D01*
X142939810Y-106226879D01*
X142941666Y-106221412D01*
X142941668Y-106221407D01*
X143007758Y-106026710D01*
X143007759Y-106026705D01*
X143009614Y-106021241D01*
X143014586Y-105986955D01*
X143033045Y-105859646D01*
X143040776Y-105806325D01*
X143042402Y-105744220D01*
X143029700Y-105605983D01*
X143023060Y-105533722D01*
X143023059Y-105533719D01*
X143022531Y-105527968D01*
X143001234Y-105452452D01*
X142965152Y-105324517D01*
X142965151Y-105324515D01*
X142963584Y-105318958D01*
X142959015Y-105309691D01*
X142870091Y-105129372D01*
X142867536Y-105124191D01*
X142746358Y-104961913D01*
X142741055Y-104954812D01*
X142741054Y-104954811D01*
X142737602Y-104950188D01*
X142673169Y-104890627D01*
X142582375Y-104806698D01*
X142582373Y-104806696D01*
X142578134Y-104802778D01*
X142538995Y-104778083D01*
X142399353Y-104689975D01*
X142399352Y-104689975D01*
X142394473Y-104686896D01*
X142192770Y-104606425D01*
X142187110Y-104605299D01*
X142187106Y-104605298D01*
X141985448Y-104565186D01*
X141985443Y-104565186D01*
X141979780Y-104564059D01*
X141974005Y-104563983D01*
X141974001Y-104563983D01*
X141864855Y-104562554D01*
X141762636Y-104561216D01*
X141660097Y-104578836D01*
X141589575Y-104570659D01*
X141534666Y-104525653D01*
X141512807Y-104458105D01*
X141530937Y-104389462D01*
X141549665Y-104365561D01*
X141907340Y-104007886D01*
X141969652Y-103973860D01*
X142024240Y-103974087D01*
X142058990Y-103981950D01*
X142064764Y-103982177D01*
X142064765Y-103982177D01*
X142106251Y-103983807D01*
X142275985Y-103990476D01*
X142390581Y-103973860D01*
X142485187Y-103960143D01*
X142485192Y-103960142D01*
X142490901Y-103959314D01*
X142496365Y-103957459D01*
X142496370Y-103957458D01*
X142691067Y-103891368D01*
X142691072Y-103891366D01*
X142696539Y-103889510D01*
X142701582Y-103886686D01*
X142880966Y-103786226D01*
X142880970Y-103786223D01*
X142886013Y-103783399D01*
X143052977Y-103644537D01*
X143191839Y-103477573D01*
X143194663Y-103472530D01*
X143194666Y-103472526D01*
X143295126Y-103293142D01*
X143295127Y-103293140D01*
X143297950Y-103288099D01*
X143299806Y-103282632D01*
X143299808Y-103282627D01*
X143365898Y-103087930D01*
X143365899Y-103087925D01*
X143367754Y-103082461D01*
X143369763Y-103068612D01*
X143398383Y-102871219D01*
X143398916Y-102867545D01*
X143400542Y-102805440D01*
X143380671Y-102589188D01*
X143373697Y-102564458D01*
X143323292Y-102385737D01*
X143323291Y-102385735D01*
X143321724Y-102380178D01*
X143317670Y-102371956D01*
X143228231Y-102190592D01*
X143225676Y-102185411D01*
X143210158Y-102164629D01*
X143099195Y-102016032D01*
X143099194Y-102016031D01*
X143095742Y-102011408D01*
X143061909Y-101980133D01*
X142940515Y-101867918D01*
X142940513Y-101867916D01*
X142936274Y-101863998D01*
X142902129Y-101842454D01*
X142757493Y-101751195D01*
X142757492Y-101751195D01*
X142752613Y-101748116D01*
X142550910Y-101667645D01*
X142545250Y-101666519D01*
X142545246Y-101666518D01*
X142343588Y-101626406D01*
X142343583Y-101626406D01*
X142337920Y-101625279D01*
X142332145Y-101625203D01*
X142332141Y-101625203D01*
X142222995Y-101623774D01*
X142120776Y-101622436D01*
X142115079Y-101623415D01*
X142115078Y-101623415D01*
X141912439Y-101658235D01*
X141912436Y-101658236D01*
X141906749Y-101659213D01*
X141703009Y-101734376D01*
X141613063Y-101787888D01*
X141521346Y-101842454D01*
X141521343Y-101842456D01*
X141516378Y-101845410D01*
X141512038Y-101849216D01*
X141512034Y-101849219D01*
X141374978Y-101969415D01*
X141353106Y-101988596D01*
X141349531Y-101993131D01*
X141349530Y-101993132D01*
X141331477Y-102016032D01*
X141218662Y-102159138D01*
X141215973Y-102164249D01*
X141215971Y-102164252D01*
X141120239Y-102346206D01*
X141120236Y-102346213D01*
X141117547Y-102351324D01*
X141053149Y-102558719D01*
X141027625Y-102774377D01*
X141041828Y-102991075D01*
X141043250Y-102996675D01*
X141044154Y-103002381D01*
X141042198Y-103002691D01*
X141039899Y-103064772D01*
X141009494Y-103113920D01*
X140465382Y-103658032D01*
X140457102Y-103665567D01*
X140450622Y-103669680D01*
X140421769Y-103700406D01*
X140403997Y-103719331D01*
X140401242Y-103722173D01*
X140381505Y-103741910D01*
X140379025Y-103745107D01*
X140371322Y-103754127D01*
X140341054Y-103786359D01*
X140337235Y-103793305D01*
X140337233Y-103793308D01*
X140331292Y-103804114D01*
X140320441Y-103820633D01*
X140308026Y-103836639D01*
X140304881Y-103843908D01*
X140304878Y-103843912D01*
X140290466Y-103877217D01*
X140285249Y-103887867D01*
X140263945Y-103926620D01*
X140261974Y-103934295D01*
X140261974Y-103934296D01*
X140258907Y-103946242D01*
X140252503Y-103964946D01*
X140250619Y-103969301D01*
X140244459Y-103983535D01*
X140243220Y-103991358D01*
X140243217Y-103991368D01*
X140237541Y-104027204D01*
X140235135Y-104038824D01*
X140228451Y-104064858D01*
X140224140Y-104081650D01*
X140224140Y-104101904D01*
X140222589Y-104121614D01*
X140219420Y-104141623D01*
X140220166Y-104149515D01*
X140223581Y-104185641D01*
X140224140Y-104197499D01*
X140224140Y-113675269D01*
X140223613Y-113686452D01*
X140221938Y-113693945D01*
X140222187Y-113701871D01*
X140222187Y-113701872D01*
X140224078Y-113762022D01*
X140224140Y-113765981D01*
X140224140Y-113793892D01*
X140224637Y-113797826D01*
X140224637Y-113797827D01*
X140224645Y-113797892D01*
X140225578Y-113809729D01*
X140226967Y-113853925D01*
X140232618Y-113873375D01*
X140236627Y-113892736D01*
X140239166Y-113912833D01*
X140242085Y-113920204D01*
X140242085Y-113920206D01*
X140255444Y-113953948D01*
X140259289Y-113965178D01*
X140271622Y-114007629D01*
X140275655Y-114014448D01*
X140275657Y-114014453D01*
X140281933Y-114025064D01*
X140290628Y-114042812D01*
X140298088Y-114061653D01*
X140302750Y-114068069D01*
X140302750Y-114068070D01*
X140324076Y-114097423D01*
X140330592Y-114107343D01*
X140353098Y-114145398D01*
X140367419Y-114159719D01*
X140380259Y-114174752D01*
X140392168Y-114191143D01*
X140426245Y-114219334D01*
X140435014Y-114227314D01*
X141369525Y-115161826D01*
X141403549Y-115224136D01*
X141398484Y-115294952D01*
X141355937Y-115351787D01*
X141291409Y-115376440D01*
X141176913Y-115386457D01*
X141171602Y-115387880D01*
X141171591Y-115387882D01*
X141113459Y-115403459D01*
X141042483Y-115401770D01*
X140991752Y-115370848D01*
X128935429Y-103314524D01*
X128901403Y-103252212D01*
X128905211Y-103184927D01*
X128905390Y-103184402D01*
X128939994Y-103082461D01*
X128942003Y-103068612D01*
X128970623Y-102871219D01*
X128971156Y-102867545D01*
X128972782Y-102805440D01*
X128952911Y-102589188D01*
X128945937Y-102564458D01*
X128895532Y-102385737D01*
X128895531Y-102385735D01*
X128893964Y-102380178D01*
X128889910Y-102371956D01*
X128800471Y-102190592D01*
X128797916Y-102185411D01*
X128782398Y-102164629D01*
X128671435Y-102016032D01*
X128671434Y-102016031D01*
X128667982Y-102011408D01*
X128634149Y-101980133D01*
X128512755Y-101867918D01*
X128512753Y-101867916D01*
X128508514Y-101863998D01*
X128474369Y-101842454D01*
X128329733Y-101751195D01*
X128329732Y-101751195D01*
X128324853Y-101748116D01*
X128123150Y-101667645D01*
X128117490Y-101666519D01*
X128117486Y-101666518D01*
X127915828Y-101626406D01*
X127915823Y-101626406D01*
X127910160Y-101625279D01*
X127904385Y-101625203D01*
X127904381Y-101625203D01*
X127795235Y-101623774D01*
X127693016Y-101622436D01*
X127687319Y-101623415D01*
X127687318Y-101623415D01*
X127484679Y-101658235D01*
X127484676Y-101658236D01*
X127478989Y-101659213D01*
X127275249Y-101734376D01*
X127185303Y-101787888D01*
X127093586Y-101842454D01*
X127093583Y-101842456D01*
X127088618Y-101845410D01*
X127084278Y-101849216D01*
X127084274Y-101849219D01*
X126947218Y-101969415D01*
X126925346Y-101988596D01*
X126921771Y-101993131D01*
X126921770Y-101993132D01*
X126903717Y-102016032D01*
X126790902Y-102159138D01*
X126788213Y-102164249D01*
X126788211Y-102164252D01*
X126692479Y-102346206D01*
X126692476Y-102346213D01*
X126689787Y-102351324D01*
X126625389Y-102558719D01*
X126599865Y-102774377D01*
X126614068Y-102991075D01*
X126667523Y-103201556D01*
X126758441Y-103398771D01*
X126883775Y-103576115D01*
X127039329Y-103727650D01*
X127044125Y-103730855D01*
X127044128Y-103730857D01*
X127178489Y-103820633D01*
X127219894Y-103848299D01*
X127225197Y-103850577D01*
X127225200Y-103850579D01*
X127414114Y-103931743D01*
X127419421Y-103934023D01*
X127494392Y-103950987D01*
X127625593Y-103980675D01*
X127625598Y-103980676D01*
X127631230Y-103981950D01*
X127637001Y-103982177D01*
X127637003Y-103982177D01*
X127769123Y-103987368D01*
X127836406Y-104010029D01*
X127853271Y-104024176D01*
X128175669Y-104346574D01*
X128209695Y-104408886D01*
X128204630Y-104479701D01*
X128162083Y-104536537D01*
X128095563Y-104561348D01*
X128084925Y-104561658D01*
X128076288Y-104561545D01*
X128051156Y-104561216D01*
X128045459Y-104562195D01*
X128045458Y-104562195D01*
X127842819Y-104597015D01*
X127842816Y-104597016D01*
X127837129Y-104597993D01*
X127633389Y-104673156D01*
X127605119Y-104689975D01*
X127451726Y-104781234D01*
X127451723Y-104781236D01*
X127446758Y-104784190D01*
X127442418Y-104787996D01*
X127442414Y-104787999D01*
X127396583Y-104828192D01*
X127283486Y-104927376D01*
X127279911Y-104931911D01*
X127279910Y-104931912D01*
X127163336Y-105079785D01*
X127105455Y-105120898D01*
X127034534Y-105124192D01*
X126975291Y-105090874D01*
X124300392Y-102415974D01*
X122220395Y-100335977D01*
X124918385Y-100335977D01*
X124932588Y-100552675D01*
X124986043Y-100763156D01*
X125076961Y-100960371D01*
X125202295Y-101137715D01*
X125357849Y-101289250D01*
X125362645Y-101292455D01*
X125362648Y-101292457D01*
X125496670Y-101382007D01*
X125538414Y-101409899D01*
X125543717Y-101412177D01*
X125543720Y-101412179D01*
X125638659Y-101452968D01*
X125737941Y-101495623D01*
X125815261Y-101513119D01*
X125944113Y-101542275D01*
X125944118Y-101542276D01*
X125949750Y-101543550D01*
X125955521Y-101543777D01*
X125955523Y-101543777D01*
X126020873Y-101546345D01*
X126166745Y-101552076D01*
X126274203Y-101536495D01*
X126375947Y-101521743D01*
X126375952Y-101521742D01*
X126381661Y-101520914D01*
X126387125Y-101519059D01*
X126387130Y-101519058D01*
X126581827Y-101452968D01*
X126581832Y-101452966D01*
X126587299Y-101451110D01*
X126620894Y-101432296D01*
X126771726Y-101347826D01*
X126771730Y-101347823D01*
X126776773Y-101344999D01*
X126943737Y-101206137D01*
X127082599Y-101039173D01*
X127085423Y-101034130D01*
X127085426Y-101034126D01*
X127185886Y-100854742D01*
X127185887Y-100854740D01*
X127188710Y-100849699D01*
X127190566Y-100844232D01*
X127190568Y-100844227D01*
X127256658Y-100649530D01*
X127256659Y-100649525D01*
X127258514Y-100644061D01*
X127270953Y-100558277D01*
X127289143Y-100432819D01*
X127289676Y-100429145D01*
X127291302Y-100367040D01*
X127288448Y-100335977D01*
X142709105Y-100335977D01*
X142723308Y-100552675D01*
X142776763Y-100763156D01*
X142867681Y-100960371D01*
X142993015Y-101137715D01*
X143148569Y-101289250D01*
X143153365Y-101292455D01*
X143153368Y-101292457D01*
X143287390Y-101382007D01*
X143329134Y-101409899D01*
X143334437Y-101412177D01*
X143334440Y-101412179D01*
X143429379Y-101452968D01*
X143528661Y-101495623D01*
X143605981Y-101513119D01*
X143734833Y-101542275D01*
X143734838Y-101542276D01*
X143740470Y-101543550D01*
X143746241Y-101543777D01*
X143746243Y-101543777D01*
X143811593Y-101546345D01*
X143957465Y-101552076D01*
X144064923Y-101536495D01*
X144166667Y-101521743D01*
X144166672Y-101521742D01*
X144172381Y-101520914D01*
X144177845Y-101519059D01*
X144177850Y-101519058D01*
X144372547Y-101452968D01*
X144372552Y-101452966D01*
X144378019Y-101451110D01*
X144411614Y-101432296D01*
X144562446Y-101347826D01*
X144562450Y-101347823D01*
X144567493Y-101344999D01*
X144734457Y-101206137D01*
X144873319Y-101039173D01*
X144876143Y-101034130D01*
X144876146Y-101034126D01*
X144976606Y-100854742D01*
X144976607Y-100854740D01*
X144979430Y-100849699D01*
X144981286Y-100844232D01*
X144981288Y-100844227D01*
X145047378Y-100649530D01*
X145047379Y-100649525D01*
X145049234Y-100644061D01*
X145061673Y-100558277D01*
X145079863Y-100432819D01*
X145080396Y-100429145D01*
X145082022Y-100367040D01*
X145064412Y-100175396D01*
X145062680Y-100156542D01*
X145062679Y-100156539D01*
X145062151Y-100150788D01*
X145060537Y-100145063D01*
X145004772Y-99947337D01*
X145004771Y-99947335D01*
X145003204Y-99941778D01*
X144991700Y-99918449D01*
X144909711Y-99752192D01*
X144907156Y-99747011D01*
X144847364Y-99666939D01*
X144780675Y-99577632D01*
X144780674Y-99577631D01*
X144777222Y-99573008D01*
X144772986Y-99569092D01*
X144621995Y-99429518D01*
X144621993Y-99429516D01*
X144617754Y-99425598D01*
X144434093Y-99309716D01*
X144232390Y-99229245D01*
X144226730Y-99228119D01*
X144226726Y-99228118D01*
X144025068Y-99188006D01*
X144025063Y-99188006D01*
X144019400Y-99186879D01*
X144013625Y-99186803D01*
X144013621Y-99186803D01*
X143904475Y-99185374D01*
X143802256Y-99184036D01*
X143796559Y-99185015D01*
X143796558Y-99185015D01*
X143593919Y-99219835D01*
X143593916Y-99219836D01*
X143588229Y-99220813D01*
X143384489Y-99295976D01*
X143356219Y-99312795D01*
X143202826Y-99404054D01*
X143202823Y-99404056D01*
X143197858Y-99407010D01*
X143193518Y-99410816D01*
X143193514Y-99410819D01*
X143128829Y-99467547D01*
X143034586Y-99550196D01*
X143031011Y-99554731D01*
X143031010Y-99554732D01*
X143012957Y-99577632D01*
X142900142Y-99720738D01*
X142897453Y-99725849D01*
X142897451Y-99725852D01*
X142801719Y-99907806D01*
X142801716Y-99907813D01*
X142799027Y-99912924D01*
X142734629Y-100120319D01*
X142709105Y-100335977D01*
X127288448Y-100335977D01*
X127273692Y-100175396D01*
X127271960Y-100156542D01*
X127271959Y-100156539D01*
X127271431Y-100150788D01*
X127269817Y-100145063D01*
X127214052Y-99947337D01*
X127214051Y-99947335D01*
X127212484Y-99941778D01*
X127200980Y-99918449D01*
X127118991Y-99752192D01*
X127116436Y-99747011D01*
X127056644Y-99666939D01*
X126989955Y-99577632D01*
X126989954Y-99577631D01*
X126986502Y-99573008D01*
X126982266Y-99569092D01*
X126831275Y-99429518D01*
X126831273Y-99429516D01*
X126827034Y-99425598D01*
X126643373Y-99309716D01*
X126441670Y-99229245D01*
X126436010Y-99228119D01*
X126436006Y-99228118D01*
X126234348Y-99188006D01*
X126234343Y-99188006D01*
X126228680Y-99186879D01*
X126222905Y-99186803D01*
X126222901Y-99186803D01*
X126113755Y-99185374D01*
X126011536Y-99184036D01*
X126005839Y-99185015D01*
X126005838Y-99185015D01*
X125803199Y-99219835D01*
X125803196Y-99219836D01*
X125797509Y-99220813D01*
X125593769Y-99295976D01*
X125565499Y-99312795D01*
X125412106Y-99404054D01*
X125412103Y-99404056D01*
X125407138Y-99407010D01*
X125402798Y-99410816D01*
X125402794Y-99410819D01*
X125338109Y-99467547D01*
X125243866Y-99550196D01*
X125240291Y-99554731D01*
X125240290Y-99554732D01*
X125222237Y-99577632D01*
X125109422Y-99720738D01*
X125106733Y-99725849D01*
X125106731Y-99725852D01*
X125010999Y-99907806D01*
X125010996Y-99907813D01*
X125008307Y-99912924D01*
X124943909Y-100120319D01*
X124918385Y-100335977D01*
X122220395Y-100335977D01*
X121582450Y-99698032D01*
X121548424Y-99635720D01*
X121553489Y-99564905D01*
X121561611Y-99547370D01*
X121600427Y-99478060D01*
X121600428Y-99478059D01*
X121603250Y-99473019D01*
X121605106Y-99467552D01*
X121605108Y-99467547D01*
X121671198Y-99272850D01*
X121671199Y-99272845D01*
X121673054Y-99267381D01*
X121678274Y-99231385D01*
X121703683Y-99056139D01*
X121704216Y-99052465D01*
X121705842Y-98990360D01*
X121702988Y-98959297D01*
X122294565Y-98959297D01*
X122308768Y-99175995D01*
X122362223Y-99386476D01*
X122453141Y-99583691D01*
X122578475Y-99761035D01*
X122734029Y-99912570D01*
X122738825Y-99915775D01*
X122738828Y-99915777D01*
X122847320Y-99988268D01*
X122914594Y-100033219D01*
X122919897Y-100035497D01*
X122919900Y-100035499D01*
X123108814Y-100116663D01*
X123114121Y-100118943D01*
X123154939Y-100128179D01*
X123320293Y-100165595D01*
X123320298Y-100165596D01*
X123325930Y-100166870D01*
X123331701Y-100167097D01*
X123331703Y-100167097D01*
X123397053Y-100169665D01*
X123542925Y-100175396D01*
X123650383Y-100159815D01*
X123752127Y-100145063D01*
X123752132Y-100145062D01*
X123757841Y-100144234D01*
X123763305Y-100142379D01*
X123763310Y-100142378D01*
X123958007Y-100076288D01*
X123958012Y-100076286D01*
X123963479Y-100074430D01*
X123997074Y-100055616D01*
X124147906Y-99971146D01*
X124147910Y-99971143D01*
X124152953Y-99968319D01*
X124319917Y-99829457D01*
X124458779Y-99662493D01*
X124461603Y-99657450D01*
X124461606Y-99657446D01*
X124562066Y-99478062D01*
X124562067Y-99478060D01*
X124564890Y-99473019D01*
X124566746Y-99467552D01*
X124566748Y-99467547D01*
X124632838Y-99272850D01*
X124632839Y-99272845D01*
X124634694Y-99267381D01*
X124639914Y-99231385D01*
X124665323Y-99056139D01*
X124665856Y-99052465D01*
X124667482Y-98990360D01*
X124664628Y-98959297D01*
X145332925Y-98959297D01*
X145347128Y-99175995D01*
X145400583Y-99386476D01*
X145491501Y-99583691D01*
X145616835Y-99761035D01*
X145772389Y-99912570D01*
X145777185Y-99915775D01*
X145777188Y-99915777D01*
X145885680Y-99988268D01*
X145952954Y-100033219D01*
X145958257Y-100035497D01*
X145958260Y-100035499D01*
X146147174Y-100116663D01*
X146152481Y-100118943D01*
X146193299Y-100128179D01*
X146358653Y-100165595D01*
X146358658Y-100165596D01*
X146364290Y-100166870D01*
X146370061Y-100167097D01*
X146370063Y-100167097D01*
X146435413Y-100169665D01*
X146581285Y-100175396D01*
X146688743Y-100159815D01*
X146790487Y-100145063D01*
X146790492Y-100145062D01*
X146796201Y-100144234D01*
X146801665Y-100142379D01*
X146801670Y-100142378D01*
X146996367Y-100076288D01*
X146996372Y-100076286D01*
X147001839Y-100074430D01*
X147035434Y-100055616D01*
X147186266Y-99971146D01*
X147186270Y-99971143D01*
X147191313Y-99968319D01*
X147358277Y-99829457D01*
X147497139Y-99662493D01*
X147499963Y-99657450D01*
X147499966Y-99657446D01*
X147600426Y-99478062D01*
X147600427Y-99478060D01*
X147603250Y-99473019D01*
X147605106Y-99467552D01*
X147605108Y-99467547D01*
X147671198Y-99272850D01*
X147671199Y-99272845D01*
X147673054Y-99267381D01*
X147678274Y-99231385D01*
X147703683Y-99056139D01*
X147704216Y-99052465D01*
X147705842Y-98990360D01*
X147685971Y-98774108D01*
X147678997Y-98749378D01*
X147628592Y-98570657D01*
X147628591Y-98570655D01*
X147627024Y-98565098D01*
X147622094Y-98555099D01*
X147533531Y-98375512D01*
X147530976Y-98370331D01*
X147401042Y-98196328D01*
X147322255Y-98123498D01*
X147245815Y-98052838D01*
X147245813Y-98052836D01*
X147241574Y-98048918D01*
X147057913Y-97933036D01*
X146856210Y-97852565D01*
X146850550Y-97851439D01*
X146850546Y-97851438D01*
X146648888Y-97811326D01*
X146648883Y-97811326D01*
X146643220Y-97810199D01*
X146637445Y-97810123D01*
X146637441Y-97810123D01*
X146528295Y-97808694D01*
X146426076Y-97807356D01*
X146420379Y-97808335D01*
X146420378Y-97808335D01*
X146217739Y-97843155D01*
X146217736Y-97843156D01*
X146212049Y-97844133D01*
X146008309Y-97919296D01*
X145960864Y-97947523D01*
X145826646Y-98027374D01*
X145826643Y-98027376D01*
X145821678Y-98030330D01*
X145817338Y-98034136D01*
X145817334Y-98034139D01*
X145715440Y-98123498D01*
X145658406Y-98173516D01*
X145654831Y-98178051D01*
X145654830Y-98178052D01*
X145636777Y-98200952D01*
X145523962Y-98344058D01*
X145521273Y-98349169D01*
X145521271Y-98349172D01*
X145425539Y-98531126D01*
X145425536Y-98531133D01*
X145422847Y-98536244D01*
X145358449Y-98743639D01*
X145332925Y-98959297D01*
X124664628Y-98959297D01*
X124647611Y-98774108D01*
X124640637Y-98749378D01*
X124590232Y-98570657D01*
X124590231Y-98570655D01*
X124588664Y-98565098D01*
X124583734Y-98555099D01*
X124495171Y-98375512D01*
X124492616Y-98370331D01*
X124362682Y-98196328D01*
X124283895Y-98123498D01*
X124207455Y-98052838D01*
X124207453Y-98052836D01*
X124203214Y-98048918D01*
X124019553Y-97933036D01*
X123817850Y-97852565D01*
X123812190Y-97851439D01*
X123812186Y-97851438D01*
X123610528Y-97811326D01*
X123610523Y-97811326D01*
X123604860Y-97810199D01*
X123599085Y-97810123D01*
X123599081Y-97810123D01*
X123489935Y-97808694D01*
X123387716Y-97807356D01*
X123382019Y-97808335D01*
X123382018Y-97808335D01*
X123179379Y-97843155D01*
X123179376Y-97843156D01*
X123173689Y-97844133D01*
X122969949Y-97919296D01*
X122922504Y-97947523D01*
X122788286Y-98027374D01*
X122788283Y-98027376D01*
X122783318Y-98030330D01*
X122778978Y-98034136D01*
X122778974Y-98034139D01*
X122677080Y-98123498D01*
X122620046Y-98173516D01*
X122616471Y-98178051D01*
X122616470Y-98178052D01*
X122598417Y-98200952D01*
X122485602Y-98344058D01*
X122482913Y-98349169D01*
X122482911Y-98349172D01*
X122387179Y-98531126D01*
X122387176Y-98531133D01*
X122384487Y-98536244D01*
X122320089Y-98743639D01*
X122294565Y-98959297D01*
X121702988Y-98959297D01*
X121685971Y-98774108D01*
X121678997Y-98749378D01*
X121628592Y-98570657D01*
X121628591Y-98570655D01*
X121627024Y-98565098D01*
X121622094Y-98555099D01*
X121533531Y-98375512D01*
X121530976Y-98370331D01*
X121401042Y-98196328D01*
X121322255Y-98123498D01*
X121245815Y-98052838D01*
X121245813Y-98052836D01*
X121241574Y-98048918D01*
X121057913Y-97933036D01*
X120856210Y-97852565D01*
X120850550Y-97851439D01*
X120850546Y-97851438D01*
X120648888Y-97811326D01*
X120648883Y-97811326D01*
X120643220Y-97810199D01*
X120637445Y-97810123D01*
X120637441Y-97810123D01*
X120528295Y-97808694D01*
X120426076Y-97807356D01*
X120420379Y-97808335D01*
X120420378Y-97808335D01*
X120217739Y-97843155D01*
X120217736Y-97843156D01*
X120212049Y-97844133D01*
X120008309Y-97919296D01*
X119960864Y-97947523D01*
X119826646Y-98027374D01*
X119826643Y-98027376D01*
X119821678Y-98030330D01*
X119817338Y-98034136D01*
X119817334Y-98034139D01*
X119715440Y-98123498D01*
X119658406Y-98173516D01*
X119654831Y-98178051D01*
X119654830Y-98178052D01*
X119636777Y-98200952D01*
X119523962Y-98344058D01*
X119521273Y-98349169D01*
X119521271Y-98349172D01*
X119425539Y-98531126D01*
X119425536Y-98531133D01*
X119422847Y-98536244D01*
X119358449Y-98743639D01*
X119332925Y-98959297D01*
X119347128Y-99175995D01*
X119400583Y-99386476D01*
X119491501Y-99583691D01*
X119616835Y-99761035D01*
X119772389Y-99912570D01*
X119777185Y-99915775D01*
X119777188Y-99915777D01*
X119885680Y-99988268D01*
X119952954Y-100033219D01*
X119958257Y-100035497D01*
X119958260Y-100035499D01*
X120005084Y-100055616D01*
X120152481Y-100118943D01*
X120158107Y-100120216D01*
X120158110Y-100120217D01*
X120193299Y-100128179D01*
X120254586Y-100161977D01*
X127211467Y-107118858D01*
X127245493Y-107181170D01*
X127240428Y-107251985D01*
X127197881Y-107308821D01*
X127131361Y-107333632D01*
X127120725Y-107333942D01*
X126999596Y-107332356D01*
X126993899Y-107333335D01*
X126993898Y-107333335D01*
X126791259Y-107368155D01*
X126791256Y-107368156D01*
X126785569Y-107369133D01*
X126581829Y-107444296D01*
X126553559Y-107461115D01*
X126400166Y-107552374D01*
X126400163Y-107552376D01*
X126395198Y-107555330D01*
X126390858Y-107559136D01*
X126390854Y-107559139D01*
X126274132Y-107661502D01*
X126231926Y-107698516D01*
X126228351Y-107703051D01*
X126228350Y-107703052D01*
X126210297Y-107725952D01*
X126097482Y-107869058D01*
X126094793Y-107874169D01*
X126094791Y-107874172D01*
X125999059Y-108056126D01*
X125999056Y-108056133D01*
X125996367Y-108061244D01*
X125931969Y-108268639D01*
X125906445Y-108484297D01*
X125920648Y-108700995D01*
X125974103Y-108911476D01*
X126065021Y-109108691D01*
X126190355Y-109286035D01*
X126345909Y-109437570D01*
X126350705Y-109440775D01*
X126350708Y-109440777D01*
X126459200Y-109513268D01*
X126526474Y-109558219D01*
X126531777Y-109560497D01*
X126531780Y-109560499D01*
X126626719Y-109601288D01*
X126726001Y-109643943D01*
X126788695Y-109658129D01*
X126932173Y-109690595D01*
X126932178Y-109690596D01*
X126937810Y-109691870D01*
X126943581Y-109692097D01*
X126943583Y-109692097D01*
X127008933Y-109694665D01*
X127154805Y-109700396D01*
X127262725Y-109684748D01*
X127364007Y-109670063D01*
X127364012Y-109670062D01*
X127369721Y-109669234D01*
X127375185Y-109667379D01*
X127375190Y-109667378D01*
X127569887Y-109601288D01*
X127569892Y-109601286D01*
X127575359Y-109599430D01*
X127608954Y-109580616D01*
X127759786Y-109496146D01*
X127759790Y-109496143D01*
X127764833Y-109493319D01*
X127931797Y-109354457D01*
X128070659Y-109187493D01*
X128073483Y-109182450D01*
X128073486Y-109182446D01*
X128173946Y-109003062D01*
X128173947Y-109003060D01*
X128176770Y-108998019D01*
X128178626Y-108992552D01*
X128178628Y-108992547D01*
X128244718Y-108797850D01*
X128244719Y-108797845D01*
X128246574Y-108792381D01*
X128259013Y-108706597D01*
X128277203Y-108581139D01*
X128277736Y-108577465D01*
X128279362Y-108515360D01*
X128278004Y-108500586D01*
X128291687Y-108430923D01*
X128340862Y-108379714D01*
X128409916Y-108363221D01*
X128476926Y-108386679D01*
X128492570Y-108399961D01*
X132018516Y-111925908D01*
X135542564Y-115449956D01*
X135576590Y-115512268D01*
X135571525Y-115583083D01*
X135525741Y-115642263D01*
X135485214Y-115670641D01*
X135480700Y-115673802D01*
X135318802Y-115835700D01*
X135315645Y-115840208D01*
X135315643Y-115840211D01*
X135299659Y-115863039D01*
X135187477Y-116023251D01*
X135185154Y-116028233D01*
X135185151Y-116028238D01*
X135169195Y-116062457D01*
X135122278Y-116115742D01*
X135054001Y-116135203D01*
X134986041Y-116114661D01*
X134940805Y-116062457D01*
X134924849Y-116028238D01*
X134924846Y-116028233D01*
X134922523Y-116023251D01*
X134810341Y-115863039D01*
X134794357Y-115840211D01*
X134794355Y-115840208D01*
X134791198Y-115835700D01*
X134629300Y-115673802D01*
X134624792Y-115670645D01*
X134624789Y-115670643D01*
X134546611Y-115615902D01*
X134441749Y-115542477D01*
X134436767Y-115540154D01*
X134436762Y-115540151D01*
X134239225Y-115448039D01*
X134239224Y-115448039D01*
X134234243Y-115445716D01*
X134228935Y-115444294D01*
X134228933Y-115444293D01*
X134018402Y-115387881D01*
X134018400Y-115387881D01*
X134013087Y-115386457D01*
X133785000Y-115366502D01*
X133556913Y-115386457D01*
X133551600Y-115387881D01*
X133551598Y-115387881D01*
X133341067Y-115444293D01*
X133341065Y-115444294D01*
X133335757Y-115445716D01*
X133330776Y-115448039D01*
X133330775Y-115448039D01*
X133133238Y-115540151D01*
X133133233Y-115540154D01*
X133128251Y-115542477D01*
X133023389Y-115615902D01*
X132945211Y-115670643D01*
X132945208Y-115670645D01*
X132940700Y-115673802D01*
X132778802Y-115835700D01*
X132775645Y-115840208D01*
X132775643Y-115840211D01*
X132759659Y-115863039D01*
X132647477Y-116023251D01*
X132645154Y-116028233D01*
X132645151Y-116028238D01*
X132629195Y-116062457D01*
X132582278Y-116115742D01*
X132514001Y-116135203D01*
X132446041Y-116114661D01*
X132400805Y-116062457D01*
X132384849Y-116028238D01*
X132384846Y-116028233D01*
X132382523Y-116023251D01*
X132270341Y-115863039D01*
X132254357Y-115840211D01*
X132254355Y-115840208D01*
X132251198Y-115835700D01*
X132089300Y-115673802D01*
X132084792Y-115670645D01*
X132084789Y-115670643D01*
X132006611Y-115615902D01*
X131901749Y-115542477D01*
X131896767Y-115540154D01*
X131896762Y-115540151D01*
X131699225Y-115448039D01*
X131699224Y-115448039D01*
X131694243Y-115445716D01*
X131688935Y-115444294D01*
X131688933Y-115444293D01*
X131478402Y-115387881D01*
X131478400Y-115387881D01*
X131473087Y-115386457D01*
X131245000Y-115366502D01*
X131016913Y-115386457D01*
X131011600Y-115387881D01*
X131011598Y-115387881D01*
X130801067Y-115444293D01*
X130801065Y-115444294D01*
X130795757Y-115445716D01*
X130790776Y-115448039D01*
X130790775Y-115448039D01*
X130593238Y-115540151D01*
X130593233Y-115540154D01*
X130588251Y-115542477D01*
X130483389Y-115615902D01*
X130405211Y-115670643D01*
X130405208Y-115670645D01*
X130400700Y-115673802D01*
X130238802Y-115835700D01*
X130235645Y-115840208D01*
X130235643Y-115840211D01*
X130219659Y-115863039D01*
X130107477Y-116023251D01*
X130105154Y-116028233D01*
X130105151Y-116028238D01*
X130089195Y-116062457D01*
X130042278Y-116115742D01*
X129974001Y-116135203D01*
X129906041Y-116114661D01*
X129860805Y-116062457D01*
X129844849Y-116028238D01*
X129844846Y-116028233D01*
X129842523Y-116023251D01*
X129730341Y-115863039D01*
X129714357Y-115840211D01*
X129714355Y-115840208D01*
X129711198Y-115835700D01*
X129549300Y-115673802D01*
X129544792Y-115670645D01*
X129544789Y-115670643D01*
X129466611Y-115615902D01*
X129361749Y-115542477D01*
X129356767Y-115540154D01*
X129356762Y-115540151D01*
X129159225Y-115448039D01*
X129159224Y-115448039D01*
X129154243Y-115445716D01*
X129148935Y-115444294D01*
X129148933Y-115444293D01*
X128938402Y-115387881D01*
X128938400Y-115387881D01*
X128933087Y-115386457D01*
X128705000Y-115366502D01*
X128476913Y-115386457D01*
X128471600Y-115387881D01*
X128471598Y-115387881D01*
X128261067Y-115444293D01*
X128261065Y-115444294D01*
X128255757Y-115445716D01*
X128250776Y-115448039D01*
X128250775Y-115448039D01*
X128053238Y-115540151D01*
X128053233Y-115540154D01*
X128048251Y-115542477D01*
X127943389Y-115615902D01*
X127865211Y-115670643D01*
X127865208Y-115670645D01*
X127860700Y-115673802D01*
X127698802Y-115835700D01*
X127695645Y-115840208D01*
X127695643Y-115840211D01*
X127679659Y-115863039D01*
X127567477Y-116023251D01*
X127565154Y-116028233D01*
X127565151Y-116028238D01*
X127549195Y-116062457D01*
X127502278Y-116115742D01*
X127434001Y-116135203D01*
X127366041Y-116114661D01*
X127320805Y-116062457D01*
X127304849Y-116028238D01*
X127304846Y-116028233D01*
X127302523Y-116023251D01*
X127190341Y-115863039D01*
X127174357Y-115840211D01*
X127174355Y-115840208D01*
X127171198Y-115835700D01*
X127009300Y-115673802D01*
X127004792Y-115670645D01*
X127004789Y-115670643D01*
X126926611Y-115615902D01*
X126821749Y-115542477D01*
X126816767Y-115540154D01*
X126816762Y-115540151D01*
X126619225Y-115448039D01*
X126619224Y-115448039D01*
X126614243Y-115445716D01*
X126608935Y-115444294D01*
X126608933Y-115444293D01*
X126398402Y-115387881D01*
X126398400Y-115387881D01*
X126393087Y-115386457D01*
X126165000Y-115366502D01*
X125936913Y-115386457D01*
X125931600Y-115387881D01*
X125931598Y-115387881D01*
X125721067Y-115444293D01*
X125721065Y-115444294D01*
X125715757Y-115445716D01*
X125710776Y-115448039D01*
X125710775Y-115448039D01*
X125513238Y-115540151D01*
X125513233Y-115540154D01*
X125508251Y-115542477D01*
X125403389Y-115615902D01*
X125325211Y-115670643D01*
X125325208Y-115670645D01*
X125320700Y-115673802D01*
X125158802Y-115835700D01*
X125155645Y-115840208D01*
X125155643Y-115840211D01*
X125139659Y-115863039D01*
X125027477Y-116023251D01*
X125025154Y-116028233D01*
X125025151Y-116028238D01*
X125009195Y-116062457D01*
X124962278Y-116115742D01*
X124894001Y-116135203D01*
X124826041Y-116114661D01*
X124780805Y-116062457D01*
X124764849Y-116028238D01*
X124764846Y-116028233D01*
X124762523Y-116023251D01*
X124650341Y-115863039D01*
X124634357Y-115840211D01*
X124634355Y-115840208D01*
X124631198Y-115835700D01*
X124469300Y-115673802D01*
X124464792Y-115670645D01*
X124464789Y-115670643D01*
X124386611Y-115615902D01*
X124281749Y-115542477D01*
X124276767Y-115540154D01*
X124276762Y-115540151D01*
X124079225Y-115448039D01*
X124079224Y-115448039D01*
X124074243Y-115445716D01*
X124068935Y-115444294D01*
X124068933Y-115444293D01*
X123858402Y-115387881D01*
X123858400Y-115387881D01*
X123853087Y-115386457D01*
X123625000Y-115366502D01*
X123396913Y-115386457D01*
X123391600Y-115387881D01*
X123391598Y-115387881D01*
X123205538Y-115437736D01*
X123134562Y-115436046D01*
X123075766Y-115396252D01*
X123047818Y-115330988D01*
X123046927Y-115316029D01*
X123046927Y-112500134D01*
X123066929Y-112432013D01*
X123083832Y-112411039D01*
X123390347Y-112104524D01*
X123398637Y-112096980D01*
X123405118Y-112092867D01*
X123451759Y-112043199D01*
X123454513Y-112040358D01*
X123474234Y-112020637D01*
X123476712Y-112017442D01*
X123484418Y-112008420D01*
X123509258Y-111981968D01*
X123514686Y-111976188D01*
X123524446Y-111958435D01*
X123535299Y-111941912D01*
X123542853Y-111932173D01*
X123547713Y-111925908D01*
X123565276Y-111885324D01*
X123570483Y-111874694D01*
X123591795Y-111835927D01*
X123593766Y-111828250D01*
X123593768Y-111828245D01*
X123596832Y-111816309D01*
X123603238Y-111797597D01*
X123608134Y-111786284D01*
X123611281Y-111779012D01*
X123618197Y-111735348D01*
X123620604Y-111723727D01*
X123629628Y-111688578D01*
X123629628Y-111688577D01*
X123631600Y-111680897D01*
X123631600Y-111660636D01*
X123633151Y-111640925D01*
X123635079Y-111628752D01*
X123636319Y-111620924D01*
X123632159Y-111576913D01*
X123631600Y-111565056D01*
X123631600Y-111163078D01*
X123651602Y-111094957D01*
X123705258Y-111048464D01*
X123775532Y-111038360D01*
X123840112Y-111067854D01*
X123860495Y-111090356D01*
X123972935Y-111249455D01*
X124128489Y-111400990D01*
X124133285Y-111404195D01*
X124133288Y-111404197D01*
X124271434Y-111496502D01*
X124309054Y-111521639D01*
X124314357Y-111523917D01*
X124314360Y-111523919D01*
X124453169Y-111583556D01*
X124508581Y-111607363D01*
X124568513Y-111620924D01*
X124714753Y-111654015D01*
X124714758Y-111654016D01*
X124720390Y-111655290D01*
X124726161Y-111655517D01*
X124726163Y-111655517D01*
X124791513Y-111658085D01*
X124937385Y-111663816D01*
X125044843Y-111648235D01*
X125146587Y-111633483D01*
X125146592Y-111633482D01*
X125152301Y-111632654D01*
X125157765Y-111630799D01*
X125157770Y-111630798D01*
X125352467Y-111564708D01*
X125352472Y-111564706D01*
X125357939Y-111562850D01*
X125386495Y-111546858D01*
X125542366Y-111459566D01*
X125542370Y-111459563D01*
X125547413Y-111456739D01*
X125714377Y-111317877D01*
X125853239Y-111150913D01*
X125856063Y-111145870D01*
X125856066Y-111145866D01*
X125956526Y-110966482D01*
X125956527Y-110966480D01*
X125959350Y-110961439D01*
X125961206Y-110955972D01*
X125961208Y-110955967D01*
X126027298Y-110761270D01*
X126027299Y-110761265D01*
X126029154Y-110755801D01*
X126032414Y-110733324D01*
X126048874Y-110619800D01*
X126060316Y-110540885D01*
X126061942Y-110478780D01*
X126042071Y-110262528D01*
X126038359Y-110249364D01*
X125984692Y-110059077D01*
X125984691Y-110059075D01*
X125983124Y-110053518D01*
X125971620Y-110030189D01*
X125889631Y-109863932D01*
X125887076Y-109858751D01*
X125757142Y-109684748D01*
X125728346Y-109658129D01*
X125601915Y-109541258D01*
X125601913Y-109541256D01*
X125597674Y-109537338D01*
X125532389Y-109496146D01*
X125418893Y-109424535D01*
X125418892Y-109424535D01*
X125414013Y-109421456D01*
X125212310Y-109340985D01*
X125206650Y-109339859D01*
X125206646Y-109339858D01*
X125004988Y-109299746D01*
X125004983Y-109299746D01*
X124999320Y-109298619D01*
X124993545Y-109298543D01*
X124993541Y-109298543D01*
X124884395Y-109297114D01*
X124782176Y-109295776D01*
X124776479Y-109296755D01*
X124776478Y-109296755D01*
X124573839Y-109331575D01*
X124573836Y-109331576D01*
X124568149Y-109332553D01*
X124364409Y-109407716D01*
X124321003Y-109433540D01*
X124182746Y-109515794D01*
X124182743Y-109515796D01*
X124177778Y-109518750D01*
X124173438Y-109522556D01*
X124173434Y-109522559D01*
X124037623Y-109641663D01*
X124014506Y-109661936D01*
X124010931Y-109666471D01*
X124010930Y-109666472D01*
X123992877Y-109689372D01*
X123880062Y-109832478D01*
X123877373Y-109837589D01*
X123877371Y-109837592D01*
X123869108Y-109853298D01*
X123819689Y-109904270D01*
X123750556Y-109920433D01*
X123683660Y-109896654D01*
X123640239Y-109840483D01*
X123631600Y-109794630D01*
X123631600Y-108076868D01*
X123632127Y-108065685D01*
X123633802Y-108058192D01*
X123631662Y-107990101D01*
X123631600Y-107986144D01*
X123631600Y-107958244D01*
X123631096Y-107954253D01*
X123630163Y-107942411D01*
X123629023Y-107906136D01*
X123628774Y-107898211D01*
X123626562Y-107890597D01*
X123626561Y-107890592D01*
X123623123Y-107878759D01*
X123619112Y-107859395D01*
X123617567Y-107847164D01*
X123616574Y-107839303D01*
X123613657Y-107831936D01*
X123613656Y-107831931D01*
X123600298Y-107798192D01*
X123596454Y-107786965D01*
X123586330Y-107752122D01*
X123584118Y-107744507D01*
X123573807Y-107727072D01*
X123565112Y-107709324D01*
X123557652Y-107690483D01*
X123531664Y-107654713D01*
X123525148Y-107644793D01*
X123506680Y-107613565D01*
X123506678Y-107613562D01*
X123502642Y-107606738D01*
X123488321Y-107592417D01*
X123475480Y-107577383D01*
X123463572Y-107560993D01*
X123429495Y-107532802D01*
X123420716Y-107524812D01*
X117654781Y-101758876D01*
X117620755Y-101696564D01*
X117625820Y-101625749D01*
X117668367Y-101568913D01*
X117734887Y-101544102D01*
X117748819Y-101543878D01*
X117957465Y-101552076D01*
X118064923Y-101536495D01*
X118166667Y-101521743D01*
X118166672Y-101521742D01*
X118172381Y-101520914D01*
X118177845Y-101519059D01*
X118177850Y-101519058D01*
X118372547Y-101452968D01*
X118372552Y-101452966D01*
X118378019Y-101451110D01*
X118411614Y-101432296D01*
X118562446Y-101347826D01*
X118562450Y-101347823D01*
X118567493Y-101344999D01*
X118734457Y-101206137D01*
X118873319Y-101039173D01*
X118876143Y-101034130D01*
X118876146Y-101034126D01*
X118976606Y-100854742D01*
X118976607Y-100854740D01*
X118979430Y-100849699D01*
X118981286Y-100844232D01*
X118981288Y-100844227D01*
X119047378Y-100649530D01*
X119047379Y-100649525D01*
X119049234Y-100644061D01*
X119061673Y-100558277D01*
X119079863Y-100432819D01*
X119080396Y-100429145D01*
X119082022Y-100367040D01*
X119064412Y-100175396D01*
X119062680Y-100156542D01*
X119062679Y-100156539D01*
X119062151Y-100150788D01*
X119060537Y-100145063D01*
X119004772Y-99947337D01*
X119004771Y-99947335D01*
X119003204Y-99941778D01*
X118991700Y-99918449D01*
X118909711Y-99752192D01*
X118907156Y-99747011D01*
X118847364Y-99666939D01*
X118780675Y-99577632D01*
X118780674Y-99577631D01*
X118777222Y-99573008D01*
X118772986Y-99569092D01*
X118621995Y-99429518D01*
X118621993Y-99429516D01*
X118617754Y-99425598D01*
X118434093Y-99309716D01*
X118232390Y-99229245D01*
X118226730Y-99228119D01*
X118226726Y-99228118D01*
X118025068Y-99188006D01*
X118025063Y-99188006D01*
X118019400Y-99186879D01*
X118013625Y-99186803D01*
X118013621Y-99186803D01*
X117904475Y-99185374D01*
X117802256Y-99184036D01*
X117796559Y-99185015D01*
X117796558Y-99185015D01*
X117593919Y-99219835D01*
X117593916Y-99219836D01*
X117588229Y-99220813D01*
X117384489Y-99295976D01*
X117356219Y-99312795D01*
X117202826Y-99404054D01*
X117202823Y-99404056D01*
X117197858Y-99407010D01*
X117193518Y-99410816D01*
X117193514Y-99410819D01*
X117128829Y-99467547D01*
X117034586Y-99550196D01*
X117031011Y-99554731D01*
X117031010Y-99554732D01*
X117012957Y-99577632D01*
X116900142Y-99720738D01*
X116897453Y-99725849D01*
X116897451Y-99725852D01*
X116801719Y-99907806D01*
X116801716Y-99907813D01*
X116799027Y-99912924D01*
X116734629Y-100120319D01*
X116709105Y-100335977D01*
X116723308Y-100552675D01*
X116776763Y-100763156D01*
X116867681Y-100960371D01*
X116877873Y-100974792D01*
X116900855Y-101041964D01*
X116883872Y-101110899D01*
X116832316Y-101159710D01*
X116786846Y-101172953D01*
X116784303Y-101173194D01*
X116783388Y-101173280D01*
X116771521Y-101173840D01*
X115879216Y-101173840D01*
X115868032Y-101173313D01*
X115860544Y-101171639D01*
X115852621Y-101171888D01*
X115792486Y-101173778D01*
X115788528Y-101173840D01*
X115760597Y-101173840D01*
X115756682Y-101174335D01*
X115756678Y-101174335D01*
X115756620Y-101174343D01*
X115756591Y-101174346D01*
X115744749Y-101175279D01*
X115700563Y-101176667D01*
X115683197Y-101181712D01*
X115681111Y-101182318D01*
X115661759Y-101186326D01*
X115649521Y-101187872D01*
X115649519Y-101187873D01*
X115641656Y-101188866D01*
X115600539Y-101205146D01*
X115589338Y-101208981D01*
X115546859Y-101221322D01*
X115540040Y-101225355D01*
X115540035Y-101225357D01*
X115529424Y-101231633D01*
X115511674Y-101240330D01*
X115492836Y-101247788D01*
X115486420Y-101252449D01*
X115486419Y-101252450D01*
X115457078Y-101273768D01*
X115447154Y-101280287D01*
X115415913Y-101298762D01*
X115415908Y-101298766D01*
X115409090Y-101302798D01*
X115394766Y-101317122D01*
X115379734Y-101329961D01*
X115363346Y-101341868D01*
X115344616Y-101364509D01*
X115335165Y-101375933D01*
X115327175Y-101384713D01*
X114823527Y-101888361D01*
X114815241Y-101895901D01*
X114808762Y-101900013D01*
X114803337Y-101905790D01*
X114762137Y-101949664D01*
X114759382Y-101952506D01*
X114739645Y-101972243D01*
X114737165Y-101975440D01*
X114729462Y-101984460D01*
X114699194Y-102016692D01*
X114695375Y-102023638D01*
X114695373Y-102023641D01*
X114689432Y-102034447D01*
X114678581Y-102050966D01*
X114666166Y-102066972D01*
X114663021Y-102074241D01*
X114663018Y-102074245D01*
X114648606Y-102107550D01*
X114643389Y-102118200D01*
X114622085Y-102156953D01*
X114620114Y-102164628D01*
X114620114Y-102164629D01*
X114617047Y-102176575D01*
X114610643Y-102195279D01*
X114602599Y-102213868D01*
X114601360Y-102221691D01*
X114601357Y-102221701D01*
X114595681Y-102257537D01*
X114593275Y-102269157D01*
X114582280Y-102311983D01*
X114582280Y-102332237D01*
X114580729Y-102351947D01*
X114577560Y-102371956D01*
X114578306Y-102379848D01*
X114581721Y-102415974D01*
X114582280Y-102427832D01*
X114582280Y-105025493D01*
X114581753Y-105036676D01*
X114580078Y-105044169D01*
X114580327Y-105052095D01*
X114580327Y-105052096D01*
X114582218Y-105112246D01*
X114582280Y-105116205D01*
X114582280Y-105144116D01*
X114582777Y-105148050D01*
X114582777Y-105148051D01*
X114582785Y-105148116D01*
X114583718Y-105159953D01*
X114585107Y-105204149D01*
X114590758Y-105223599D01*
X114594767Y-105242960D01*
X114597306Y-105263057D01*
X114600225Y-105270428D01*
X114600225Y-105270430D01*
X114613584Y-105304172D01*
X114617429Y-105315402D01*
X114622864Y-105334110D01*
X114629762Y-105357853D01*
X114633795Y-105364672D01*
X114633797Y-105364677D01*
X114640073Y-105375288D01*
X114648768Y-105393036D01*
X114656228Y-105411877D01*
X114660889Y-105418293D01*
X114660891Y-105418296D01*
X114669304Y-105429875D01*
X114693163Y-105496743D01*
X114692495Y-105518738D01*
X114669485Y-105713157D01*
X114683688Y-105929855D01*
X114737143Y-106140336D01*
X114828061Y-106337551D01*
X114953395Y-106514895D01*
X115108949Y-106666430D01*
X115113745Y-106669635D01*
X115113748Y-106669637D01*
X115224764Y-106743815D01*
X115289514Y-106787079D01*
X115294817Y-106789357D01*
X115294820Y-106789359D01*
X115389759Y-106830148D01*
X115489041Y-106872803D01*
X115566361Y-106890299D01*
X115695213Y-106919455D01*
X115695218Y-106919456D01*
X115700850Y-106920730D01*
X115706621Y-106920957D01*
X115706623Y-106920957D01*
X115771973Y-106923525D01*
X115917845Y-106929256D01*
X116025303Y-106913675D01*
X116127047Y-106898923D01*
X116127052Y-106898922D01*
X116132761Y-106898094D01*
X116138225Y-106896239D01*
X116138230Y-106896238D01*
X116332927Y-106830148D01*
X116332932Y-106830146D01*
X116338399Y-106828290D01*
X116364989Y-106813399D01*
X116522826Y-106725006D01*
X116522830Y-106725003D01*
X116527873Y-106722179D01*
X116694837Y-106583317D01*
X116833699Y-106416353D01*
X116836523Y-106411310D01*
X116836526Y-106411306D01*
X116936986Y-106231922D01*
X116936987Y-106231920D01*
X116939810Y-106226879D01*
X116941666Y-106221412D01*
X116941668Y-106221407D01*
X117007758Y-106026710D01*
X117007759Y-106026705D01*
X117009614Y-106021241D01*
X117014586Y-105986955D01*
X117033045Y-105859646D01*
X117040776Y-105806325D01*
X117042402Y-105744220D01*
X117029700Y-105605983D01*
X117023060Y-105533722D01*
X117023059Y-105533719D01*
X117022531Y-105527968D01*
X117001234Y-105452452D01*
X116965152Y-105324517D01*
X116965151Y-105324515D01*
X116963584Y-105318958D01*
X116959015Y-105309691D01*
X116870091Y-105129372D01*
X116867536Y-105124191D01*
X116746358Y-104961913D01*
X116741055Y-104954812D01*
X116741054Y-104954811D01*
X116737602Y-104950188D01*
X116673169Y-104890627D01*
X116582375Y-104806698D01*
X116582373Y-104806696D01*
X116578134Y-104802778D01*
X116538995Y-104778083D01*
X116399353Y-104689975D01*
X116399352Y-104689975D01*
X116394473Y-104686896D01*
X116192770Y-104606425D01*
X116187110Y-104605299D01*
X116187106Y-104605298D01*
X115985448Y-104565186D01*
X115985443Y-104565186D01*
X115979780Y-104564059D01*
X115974000Y-104563983D01*
X115973997Y-104563983D01*
X115973621Y-104563978D01*
X115973451Y-104563926D01*
X115968260Y-104563380D01*
X115968367Y-104562360D01*
X115905769Y-104543081D01*
X115859987Y-104488817D01*
X115849280Y-104437989D01*
X115849280Y-104092194D01*
X115869282Y-104024073D01*
X115922938Y-103977580D01*
X115993212Y-103967476D01*
X116003087Y-103969301D01*
X116039677Y-103977580D01*
X116058990Y-103981950D01*
X116064761Y-103982177D01*
X116064763Y-103982177D01*
X116130113Y-103984745D01*
X116275985Y-103990476D01*
X116364927Y-103977580D01*
X116411752Y-103970791D01*
X116482038Y-103980811D01*
X116518927Y-104006392D01*
X120329595Y-107817060D01*
X120363621Y-107879372D01*
X120366500Y-107906155D01*
X120366500Y-109788300D01*
X120346498Y-109856421D01*
X120292842Y-109902914D01*
X120222568Y-109913018D01*
X120157988Y-109883524D01*
X120136801Y-109858538D01*
X120136516Y-109858751D01*
X120133084Y-109854155D01*
X120006582Y-109684748D01*
X119977786Y-109658129D01*
X119851355Y-109541258D01*
X119851353Y-109541256D01*
X119847114Y-109537338D01*
X119781829Y-109496146D01*
X119668333Y-109424535D01*
X119668332Y-109424535D01*
X119663453Y-109421456D01*
X119461750Y-109340985D01*
X119456090Y-109339859D01*
X119456086Y-109339858D01*
X119254428Y-109299746D01*
X119254423Y-109299746D01*
X119248760Y-109298619D01*
X119242985Y-109298543D01*
X119242981Y-109298543D01*
X119133835Y-109297114D01*
X119031616Y-109295776D01*
X119025919Y-109296755D01*
X119025918Y-109296755D01*
X118823279Y-109331575D01*
X118823276Y-109331576D01*
X118817589Y-109332553D01*
X118613849Y-109407716D01*
X118570443Y-109433540D01*
X118432186Y-109515794D01*
X118432183Y-109515796D01*
X118427218Y-109518750D01*
X118422878Y-109522556D01*
X118422874Y-109522559D01*
X118287063Y-109641663D01*
X118263946Y-109661936D01*
X118260371Y-109666471D01*
X118260370Y-109666472D01*
X118242317Y-109689372D01*
X118129502Y-109832478D01*
X118126813Y-109837589D01*
X118126811Y-109837592D01*
X118031079Y-110019546D01*
X118031076Y-110019553D01*
X118028387Y-110024664D01*
X117963989Y-110232059D01*
X117938465Y-110447717D01*
X117952668Y-110664415D01*
X118006123Y-110874896D01*
X118097041Y-111072111D01*
X118222375Y-111249455D01*
X118377929Y-111400990D01*
X118382725Y-111404195D01*
X118382728Y-111404197D01*
X118520874Y-111496502D01*
X118558494Y-111521639D01*
X118563797Y-111523917D01*
X118563800Y-111523919D01*
X118702609Y-111583556D01*
X118758021Y-111607363D01*
X118817953Y-111620924D01*
X118964193Y-111654015D01*
X118964198Y-111654016D01*
X118969830Y-111655290D01*
X118975601Y-111655517D01*
X118975603Y-111655517D01*
X119040953Y-111658085D01*
X119186825Y-111663816D01*
X119294283Y-111648235D01*
X119396027Y-111633483D01*
X119396032Y-111633482D01*
X119401741Y-111632654D01*
X119407205Y-111630799D01*
X119407210Y-111630798D01*
X119601907Y-111564708D01*
X119601912Y-111564706D01*
X119607379Y-111562850D01*
X119635935Y-111546858D01*
X119791806Y-111459566D01*
X119791810Y-111459563D01*
X119796853Y-111456739D01*
X119963817Y-111317877D01*
X120102679Y-111150913D01*
X120130568Y-111101114D01*
X120181302Y-111051455D01*
X120250834Y-111037107D01*
X120317085Y-111062629D01*
X120359020Y-111119917D01*
X120366500Y-111162683D01*
X120366500Y-121596233D01*
X120365973Y-121607416D01*
X120364298Y-121614909D01*
X120364547Y-121622835D01*
X120364547Y-121622836D01*
X120366438Y-121682986D01*
X120366500Y-121686945D01*
X120366500Y-121714856D01*
X120366997Y-121718790D01*
X120366997Y-121718791D01*
X120367005Y-121718856D01*
X120367938Y-121730693D01*
X120369327Y-121774889D01*
X120374978Y-121794339D01*
X120378987Y-121813700D01*
X120381526Y-121833797D01*
X120384445Y-121841168D01*
X120384445Y-121841170D01*
X120397804Y-121874912D01*
X120401649Y-121886142D01*
X120413982Y-121928593D01*
X120418015Y-121935412D01*
X120418017Y-121935417D01*
X120424293Y-121946028D01*
X120432988Y-121963776D01*
X120440448Y-121982617D01*
X120445110Y-121989033D01*
X120445110Y-121989034D01*
X120466436Y-122018387D01*
X120472952Y-122028307D01*
X120495458Y-122066362D01*
X120509779Y-122080683D01*
X120522619Y-122095716D01*
X120534528Y-122112107D01*
X120540634Y-122117158D01*
X120568605Y-122140298D01*
X120577384Y-122148288D01*
X122279595Y-123850499D01*
X122313621Y-123912811D01*
X122316500Y-123939594D01*
X122316500Y-124755499D01*
X122296498Y-124823620D01*
X122242842Y-124870113D01*
X122190500Y-124881499D01*
X119736437Y-124881499D01*
X119668316Y-124861497D01*
X119621823Y-124807841D01*
X119610916Y-124744519D01*
X119613019Y-124720478D01*
X119613019Y-124720475D01*
X119613498Y-124715000D01*
X119593543Y-124486913D01*
X119592117Y-124481591D01*
X119535707Y-124271067D01*
X119535706Y-124271065D01*
X119534284Y-124265757D01*
X119531961Y-124260775D01*
X119439849Y-124063238D01*
X119439846Y-124063233D01*
X119437523Y-124058251D01*
X119329950Y-123904621D01*
X119309357Y-123875211D01*
X119309355Y-123875208D01*
X119306198Y-123870700D01*
X119144300Y-123708802D01*
X119139792Y-123705645D01*
X119139789Y-123705643D01*
X118963434Y-123582158D01*
X118956749Y-123577477D01*
X118951767Y-123575154D01*
X118951762Y-123575151D01*
X118917543Y-123559195D01*
X118864258Y-123512278D01*
X118844797Y-123444001D01*
X118865339Y-123376041D01*
X118917543Y-123330805D01*
X118951762Y-123314849D01*
X118951767Y-123314846D01*
X118956749Y-123312523D01*
X119071790Y-123231970D01*
X119139789Y-123184357D01*
X119139792Y-123184355D01*
X119144300Y-123181198D01*
X119306198Y-123019300D01*
X119315527Y-123005978D01*
X119366191Y-122933621D01*
X119437523Y-122831749D01*
X119439846Y-122826767D01*
X119439849Y-122826762D01*
X119531961Y-122629225D01*
X119531961Y-122629224D01*
X119534284Y-122624243D01*
X119544325Y-122586772D01*
X119592119Y-122408402D01*
X119592119Y-122408400D01*
X119593543Y-122403087D01*
X119613498Y-122175000D01*
X119593543Y-121946913D01*
X119586595Y-121920983D01*
X119535707Y-121731067D01*
X119535706Y-121731065D01*
X119534284Y-121725757D01*
X119529201Y-121714856D01*
X119439849Y-121523238D01*
X119439846Y-121523233D01*
X119437523Y-121518251D01*
X119363542Y-121412595D01*
X119309357Y-121335211D01*
X119309355Y-121335208D01*
X119306198Y-121330700D01*
X119144300Y-121168802D01*
X119139792Y-121165645D01*
X119139789Y-121165643D01*
X119061611Y-121110902D01*
X118956749Y-121037477D01*
X118951767Y-121035154D01*
X118951762Y-121035151D01*
X118917543Y-121019195D01*
X118864258Y-120972278D01*
X118844797Y-120904001D01*
X118865339Y-120836041D01*
X118917543Y-120790805D01*
X118951762Y-120774849D01*
X118951767Y-120774846D01*
X118956749Y-120772523D01*
X119127992Y-120652617D01*
X119139789Y-120644357D01*
X119139792Y-120644355D01*
X119144300Y-120641198D01*
X119306198Y-120479300D01*
X119310007Y-120473861D01*
X119434366Y-120296257D01*
X119437523Y-120291749D01*
X119439846Y-120286767D01*
X119439849Y-120286762D01*
X119531961Y-120089225D01*
X119531961Y-120089224D01*
X119534284Y-120084243D01*
X119541534Y-120057188D01*
X119592119Y-119868402D01*
X119592119Y-119868400D01*
X119593543Y-119863087D01*
X119613498Y-119635000D01*
X119593543Y-119406913D01*
X119534284Y-119185757D01*
X119531961Y-119180775D01*
X119439849Y-118983238D01*
X119439846Y-118983233D01*
X119437523Y-118978251D01*
X119306198Y-118790700D01*
X119144300Y-118628802D01*
X119139792Y-118625645D01*
X119139789Y-118625643D01*
X119061611Y-118570902D01*
X118956749Y-118497477D01*
X118951767Y-118495154D01*
X118951762Y-118495151D01*
X118916951Y-118478919D01*
X118863666Y-118432002D01*
X118844205Y-118363725D01*
X118864747Y-118295765D01*
X118916951Y-118250529D01*
X118951511Y-118234414D01*
X118961007Y-118228931D01*
X119139467Y-118103972D01*
X119147875Y-118096916D01*
X119301916Y-117942875D01*
X119308972Y-117934467D01*
X119433931Y-117756007D01*
X119439414Y-117746511D01*
X119531490Y-117549053D01*
X119535236Y-117538761D01*
X119581394Y-117366497D01*
X119581058Y-117352401D01*
X119573116Y-117349000D01*
X117032033Y-117349000D01*
X117018502Y-117352973D01*
X117017273Y-117361522D01*
X117064764Y-117538761D01*
X117068510Y-117549053D01*
X117160586Y-117746511D01*
X117166069Y-117756007D01*
X117291028Y-117934467D01*
X117298084Y-117942875D01*
X117452125Y-118096916D01*
X117460533Y-118103972D01*
X117638993Y-118228931D01*
X117648489Y-118234414D01*
X117683049Y-118250529D01*
X117736334Y-118297446D01*
X117755795Y-118365723D01*
X117735253Y-118433683D01*
X117683049Y-118478919D01*
X117648238Y-118495151D01*
X117648233Y-118495154D01*
X117643251Y-118497477D01*
X117538389Y-118570902D01*
X117460211Y-118625643D01*
X117460208Y-118625645D01*
X117455700Y-118628802D01*
X117293802Y-118790700D01*
X117162477Y-118978251D01*
X117160154Y-118983233D01*
X117160151Y-118983238D01*
X117068039Y-119180775D01*
X117065716Y-119185757D01*
X117006457Y-119406913D01*
X116986502Y-119635000D01*
X117006457Y-119863087D01*
X117007881Y-119868400D01*
X117007881Y-119868402D01*
X117058467Y-120057188D01*
X117065716Y-120084243D01*
X117068039Y-120089224D01*
X117068039Y-120089225D01*
X117160151Y-120286762D01*
X117160154Y-120286767D01*
X117162477Y-120291749D01*
X117165634Y-120296257D01*
X117289994Y-120473861D01*
X117293802Y-120479300D01*
X117455700Y-120641198D01*
X117460208Y-120644355D01*
X117460211Y-120644357D01*
X117472008Y-120652617D01*
X117643251Y-120772523D01*
X117648233Y-120774846D01*
X117648238Y-120774849D01*
X117682457Y-120790805D01*
X117735742Y-120837722D01*
X117755203Y-120905999D01*
X117734661Y-120973959D01*
X117682457Y-121019195D01*
X117648238Y-121035151D01*
X117648233Y-121035154D01*
X117643251Y-121037477D01*
X117538389Y-121110902D01*
X117460211Y-121165643D01*
X117460208Y-121165645D01*
X117455700Y-121168802D01*
X117293802Y-121330700D01*
X117290645Y-121335208D01*
X117290643Y-121335211D01*
X117236458Y-121412595D01*
X117162477Y-121518251D01*
X117160154Y-121523233D01*
X117160151Y-121523238D01*
X117070799Y-121714856D01*
X117065716Y-121725757D01*
X117064294Y-121731065D01*
X117064293Y-121731067D01*
X117013405Y-121920983D01*
X117006457Y-121946913D01*
X116986502Y-122175000D01*
X117006457Y-122403087D01*
X117007881Y-122408400D01*
X117007881Y-122408402D01*
X117055676Y-122586772D01*
X117065716Y-122624243D01*
X117068039Y-122629224D01*
X117068039Y-122629225D01*
X117160151Y-122826762D01*
X117160154Y-122826767D01*
X117162477Y-122831749D01*
X117233809Y-122933621D01*
X117284474Y-123005978D01*
X117293802Y-123019300D01*
X117455700Y-123181198D01*
X117460208Y-123184355D01*
X117460211Y-123184357D01*
X117528210Y-123231970D01*
X117643251Y-123312523D01*
X117648233Y-123314846D01*
X117648238Y-123314849D01*
X117682457Y-123330805D01*
X117735742Y-123377722D01*
X117755203Y-123445999D01*
X117734661Y-123513959D01*
X117682457Y-123559195D01*
X117648238Y-123575151D01*
X117648233Y-123575154D01*
X117643251Y-123577477D01*
X117636566Y-123582158D01*
X117460211Y-123705643D01*
X117460208Y-123705645D01*
X117455700Y-123708802D01*
X117293802Y-123870700D01*
X117290645Y-123875208D01*
X117290643Y-123875211D01*
X117270050Y-123904621D01*
X117162477Y-124058251D01*
X117160154Y-124063233D01*
X117160151Y-124063238D01*
X117068039Y-124260775D01*
X117065716Y-124265757D01*
X117064294Y-124271065D01*
X117064293Y-124271067D01*
X117007883Y-124481591D01*
X117006457Y-124486913D01*
X116986502Y-124715000D01*
X117006457Y-124943087D01*
X117007881Y-124948400D01*
X117007881Y-124948402D01*
X117061400Y-125148134D01*
X117065716Y-125164243D01*
X117068039Y-125169224D01*
X117068039Y-125169225D01*
X117160151Y-125366762D01*
X117160154Y-125366767D01*
X117162477Y-125371749D01*
X117165634Y-125376257D01*
X117289928Y-125553767D01*
X117293802Y-125559300D01*
X117455700Y-125721198D01*
X117460208Y-125724355D01*
X117460211Y-125724357D01*
X117488960Y-125744487D01*
X117643251Y-125852523D01*
X117648233Y-125854846D01*
X117648238Y-125854849D01*
X117682457Y-125870805D01*
X117735742Y-125917722D01*
X117755203Y-125985999D01*
X117734661Y-126053959D01*
X117682457Y-126099195D01*
X117648238Y-126115151D01*
X117648233Y-126115154D01*
X117643251Y-126117477D01*
X117565353Y-126172022D01*
X117460211Y-126245643D01*
X117460208Y-126245645D01*
X117455700Y-126248802D01*
X117293802Y-126410700D01*
X117162477Y-126598251D01*
X117160154Y-126603233D01*
X117160151Y-126603238D01*
X117160034Y-126603489D01*
X117065716Y-126805757D01*
X117006457Y-127026913D01*
X116986502Y-127255000D01*
X117006457Y-127483087D01*
X117065716Y-127704243D01*
X117068039Y-127709224D01*
X117068039Y-127709225D01*
X117160151Y-127906762D01*
X117160154Y-127906767D01*
X117162477Y-127911749D01*
X117293802Y-128099300D01*
X117455700Y-128261198D01*
X117460208Y-128264355D01*
X117460211Y-128264357D01*
X117538389Y-128319098D01*
X117643251Y-128392523D01*
X117648233Y-128394846D01*
X117648238Y-128394849D01*
X117682457Y-128410805D01*
X117735742Y-128457722D01*
X117755203Y-128525999D01*
X117734661Y-128593959D01*
X117682457Y-128639195D01*
X117648238Y-128655151D01*
X117648233Y-128655154D01*
X117643251Y-128657477D01*
X117538389Y-128730902D01*
X117460211Y-128785643D01*
X117460208Y-128785645D01*
X117455700Y-128788802D01*
X117293802Y-128950700D01*
X117162477Y-129138251D01*
X117160154Y-129143233D01*
X117160151Y-129143238D01*
X117068039Y-129340775D01*
X117065716Y-129345757D01*
X117006457Y-129566913D01*
X116986502Y-129795000D01*
X117006457Y-130023087D01*
X117065716Y-130244243D01*
X117068039Y-130249224D01*
X117068039Y-130249225D01*
X117137064Y-130397250D01*
X117147725Y-130467442D01*
X117118745Y-130532255D01*
X117059325Y-130571111D01*
X117022869Y-130576500D01*
X111957131Y-130576500D01*
X111889010Y-130556498D01*
X111842517Y-130502842D01*
X111832413Y-130432568D01*
X111842936Y-130397250D01*
X111911961Y-130249225D01*
X111911961Y-130249224D01*
X111914284Y-130244243D01*
X111973543Y-130023087D01*
X111993498Y-129795000D01*
X111973543Y-129566913D01*
X111914284Y-129345757D01*
X111911961Y-129340775D01*
X111819849Y-129143238D01*
X111819846Y-129143233D01*
X111817523Y-129138251D01*
X111686198Y-128950700D01*
X111524300Y-128788802D01*
X111519792Y-128785645D01*
X111519789Y-128785643D01*
X111441611Y-128730902D01*
X111336749Y-128657477D01*
X111331767Y-128655154D01*
X111331762Y-128655151D01*
X111296951Y-128638919D01*
X111243666Y-128592002D01*
X111224205Y-128523725D01*
X111244747Y-128455765D01*
X111296951Y-128410529D01*
X111331511Y-128394414D01*
X111341007Y-128388931D01*
X111519467Y-128263972D01*
X111527875Y-128256916D01*
X111681916Y-128102875D01*
X111688972Y-128094467D01*
X111813931Y-127916007D01*
X111819414Y-127906511D01*
X111911490Y-127709053D01*
X111915236Y-127698761D01*
X111961394Y-127526497D01*
X111961058Y-127512401D01*
X111953116Y-127509000D01*
X109412033Y-127509000D01*
X109398502Y-127512973D01*
X109397273Y-127521522D01*
X109444764Y-127698761D01*
X109448510Y-127709053D01*
X109540586Y-127906511D01*
X109546069Y-127916007D01*
X109671028Y-128094467D01*
X109678084Y-128102875D01*
X109832125Y-128256916D01*
X109840533Y-128263972D01*
X110018993Y-128388931D01*
X110028489Y-128394414D01*
X110063049Y-128410529D01*
X110116334Y-128457446D01*
X110135795Y-128525723D01*
X110115253Y-128593683D01*
X110063049Y-128638919D01*
X110028238Y-128655151D01*
X110028233Y-128655154D01*
X110023251Y-128657477D01*
X109918389Y-128730902D01*
X109840211Y-128785643D01*
X109840208Y-128785645D01*
X109835700Y-128788802D01*
X109673802Y-128950700D01*
X109542477Y-129138251D01*
X109540154Y-129143233D01*
X109540151Y-129143238D01*
X109448039Y-129340775D01*
X109445716Y-129345757D01*
X109386457Y-129566913D01*
X109366502Y-129795000D01*
X109386457Y-130023087D01*
X109445716Y-130244243D01*
X109448039Y-130249224D01*
X109448039Y-130249225D01*
X109540151Y-130446762D01*
X109540154Y-130446767D01*
X109542477Y-130451749D01*
X109673802Y-130639300D01*
X109835700Y-130801198D01*
X109840208Y-130804355D01*
X109840211Y-130804357D01*
X109918389Y-130859098D01*
X110023251Y-130932523D01*
X110028233Y-130934846D01*
X110028238Y-130934849D01*
X110062457Y-130950805D01*
X110115742Y-130997722D01*
X110135203Y-131065999D01*
X110114661Y-131133959D01*
X110062457Y-131179195D01*
X110028238Y-131195151D01*
X110028233Y-131195154D01*
X110023251Y-131197477D01*
X109918389Y-131270902D01*
X109840211Y-131325643D01*
X109840208Y-131325645D01*
X109835700Y-131328802D01*
X109673802Y-131490700D01*
X109542477Y-131678251D01*
X109540154Y-131683233D01*
X109540151Y-131683238D01*
X109448212Y-131880405D01*
X109445716Y-131885757D01*
X109444294Y-131891065D01*
X109444293Y-131891067D01*
X109387883Y-132101591D01*
X109386457Y-132106913D01*
X109366502Y-132335000D01*
X109386457Y-132563087D01*
X109445716Y-132784243D01*
X109448039Y-132789224D01*
X109448039Y-132789225D01*
X109540151Y-132986762D01*
X109540154Y-132986767D01*
X109542477Y-132991749D01*
X109673802Y-133179300D01*
X109835700Y-133341198D01*
X109840208Y-133344355D01*
X109840211Y-133344357D01*
X109854711Y-133354510D01*
X110023251Y-133472523D01*
X110028233Y-133474846D01*
X110028238Y-133474849D01*
X110062457Y-133490805D01*
X110115742Y-133537722D01*
X110135203Y-133605999D01*
X110114661Y-133673959D01*
X110062457Y-133719195D01*
X110028238Y-133735151D01*
X110028233Y-133735154D01*
X110023251Y-133737477D01*
X109918389Y-133810902D01*
X109840211Y-133865643D01*
X109840208Y-133865645D01*
X109835700Y-133868802D01*
X109673802Y-134030700D01*
X109542477Y-134218251D01*
X109540154Y-134223233D01*
X109540151Y-134223238D01*
X109448039Y-134420775D01*
X109445716Y-134425757D01*
X109386457Y-134646913D01*
X109366502Y-134875000D01*
X105508500Y-134875000D01*
X105508500Y-84914943D01*
X108466780Y-84914943D01*
X108467526Y-84922835D01*
X108470941Y-84958961D01*
X108471500Y-84970819D01*
X108471500Y-123061233D01*
X108470973Y-123072416D01*
X108469298Y-123079909D01*
X108469547Y-123087835D01*
X108469547Y-123087836D01*
X108471438Y-123147986D01*
X108471500Y-123151945D01*
X108471500Y-123179856D01*
X108471997Y-123183790D01*
X108471997Y-123183791D01*
X108472005Y-123183856D01*
X108472938Y-123195693D01*
X108474327Y-123239889D01*
X108478222Y-123253295D01*
X108479978Y-123259339D01*
X108483987Y-123278700D01*
X108486526Y-123298797D01*
X108489445Y-123306168D01*
X108489445Y-123306170D01*
X108502804Y-123339912D01*
X108506649Y-123351142D01*
X108518982Y-123393593D01*
X108523015Y-123400412D01*
X108523017Y-123400417D01*
X108529293Y-123411028D01*
X108537988Y-123428776D01*
X108545448Y-123447617D01*
X108550110Y-123454033D01*
X108550110Y-123454034D01*
X108571436Y-123483387D01*
X108577952Y-123493307D01*
X108590166Y-123513959D01*
X108600458Y-123531362D01*
X108614779Y-123545683D01*
X108627619Y-123560716D01*
X108639528Y-123577107D01*
X108645634Y-123582158D01*
X108673605Y-123605298D01*
X108682384Y-123613288D01*
X109370848Y-124301752D01*
X109404874Y-124364064D01*
X109403459Y-124423459D01*
X109387882Y-124481591D01*
X109387881Y-124481598D01*
X109386457Y-124486913D01*
X109366502Y-124715000D01*
X109386457Y-124943087D01*
X109387881Y-124948400D01*
X109387881Y-124948402D01*
X109441400Y-125148134D01*
X109445716Y-125164243D01*
X109448039Y-125169224D01*
X109448039Y-125169225D01*
X109540151Y-125366762D01*
X109540154Y-125366767D01*
X109542477Y-125371749D01*
X109545634Y-125376257D01*
X109669928Y-125553767D01*
X109673802Y-125559300D01*
X109835700Y-125721198D01*
X109840208Y-125724355D01*
X109840211Y-125724357D01*
X109868960Y-125744487D01*
X110023251Y-125852523D01*
X110028233Y-125854846D01*
X110028238Y-125854849D01*
X110063049Y-125871081D01*
X110116334Y-125917998D01*
X110135795Y-125986275D01*
X110115253Y-126054235D01*
X110063049Y-126099471D01*
X110028489Y-126115586D01*
X110018993Y-126121069D01*
X109840533Y-126246028D01*
X109832125Y-126253084D01*
X109678084Y-126407125D01*
X109671028Y-126415533D01*
X109546069Y-126593993D01*
X109540586Y-126603489D01*
X109448510Y-126800947D01*
X109444764Y-126811239D01*
X109398606Y-126983503D01*
X109398942Y-126997599D01*
X109406884Y-127001000D01*
X111947967Y-127001000D01*
X111961498Y-126997027D01*
X111962727Y-126988478D01*
X111915236Y-126811239D01*
X111911490Y-126800947D01*
X111819414Y-126603489D01*
X111813931Y-126593993D01*
X111688972Y-126415533D01*
X111681916Y-126407125D01*
X111527875Y-126253084D01*
X111519467Y-126246028D01*
X111341007Y-126121069D01*
X111331511Y-126115586D01*
X111296951Y-126099471D01*
X111243666Y-126052554D01*
X111224205Y-125984277D01*
X111244747Y-125916317D01*
X111296951Y-125871081D01*
X111331762Y-125854849D01*
X111331767Y-125854846D01*
X111336749Y-125852523D01*
X111491040Y-125744487D01*
X111519789Y-125724357D01*
X111519792Y-125724355D01*
X111524300Y-125721198D01*
X111686198Y-125559300D01*
X111690073Y-125553767D01*
X111814366Y-125376257D01*
X111817523Y-125371749D01*
X111819846Y-125366767D01*
X111819849Y-125366762D01*
X111911961Y-125169225D01*
X111911961Y-125169224D01*
X111914284Y-125164243D01*
X111918601Y-125148134D01*
X111972119Y-124948402D01*
X111972119Y-124948400D01*
X111973543Y-124943087D01*
X111993498Y-124715000D01*
X111973543Y-124486913D01*
X111972117Y-124481591D01*
X111915707Y-124271067D01*
X111915706Y-124271065D01*
X111914284Y-124265757D01*
X111911961Y-124260775D01*
X111819849Y-124063238D01*
X111819846Y-124063233D01*
X111817523Y-124058251D01*
X111709950Y-123904621D01*
X111689357Y-123875211D01*
X111689355Y-123875208D01*
X111686198Y-123870700D01*
X111524300Y-123708802D01*
X111519792Y-123705645D01*
X111519789Y-123705643D01*
X111343434Y-123582158D01*
X111336749Y-123577477D01*
X111331767Y-123575154D01*
X111331762Y-123575151D01*
X111297543Y-123559195D01*
X111244258Y-123512278D01*
X111224797Y-123444001D01*
X111245339Y-123376041D01*
X111297543Y-123330805D01*
X111331762Y-123314849D01*
X111331767Y-123314846D01*
X111336749Y-123312523D01*
X111451790Y-123231970D01*
X111519789Y-123184357D01*
X111519792Y-123184355D01*
X111524300Y-123181198D01*
X111686198Y-123019300D01*
X111695527Y-123005978D01*
X111746191Y-122933621D01*
X111817523Y-122831749D01*
X111819846Y-122826767D01*
X111819849Y-122826762D01*
X111911961Y-122629225D01*
X111911961Y-122629224D01*
X111914284Y-122624243D01*
X111924325Y-122586772D01*
X111972119Y-122408402D01*
X111972119Y-122408400D01*
X111973543Y-122403087D01*
X111993498Y-122175000D01*
X111973543Y-121946913D01*
X111966595Y-121920983D01*
X111915707Y-121731067D01*
X111915706Y-121731065D01*
X111914284Y-121725757D01*
X111909201Y-121714856D01*
X111819849Y-121523238D01*
X111819846Y-121523233D01*
X111817523Y-121518251D01*
X111743542Y-121412595D01*
X111689357Y-121335211D01*
X111689355Y-121335208D01*
X111686198Y-121330700D01*
X111524300Y-121168802D01*
X111519792Y-121165645D01*
X111519789Y-121165643D01*
X111441611Y-121110902D01*
X111336749Y-121037477D01*
X111331767Y-121035154D01*
X111331762Y-121035151D01*
X111297543Y-121019195D01*
X111244258Y-120972278D01*
X111224797Y-120904001D01*
X111245339Y-120836041D01*
X111297543Y-120790805D01*
X111331762Y-120774849D01*
X111331767Y-120774846D01*
X111336749Y-120772523D01*
X111507992Y-120652617D01*
X111519789Y-120644357D01*
X111519792Y-120644355D01*
X111524300Y-120641198D01*
X111686198Y-120479300D01*
X111690007Y-120473861D01*
X111814366Y-120296257D01*
X111817523Y-120291749D01*
X111819846Y-120286767D01*
X111819849Y-120286762D01*
X111911961Y-120089225D01*
X111911961Y-120089224D01*
X111914284Y-120084243D01*
X111921534Y-120057188D01*
X111972119Y-119868402D01*
X111972119Y-119868400D01*
X111973543Y-119863087D01*
X111993498Y-119635000D01*
X111973543Y-119406913D01*
X111914284Y-119185757D01*
X111911961Y-119180775D01*
X111819849Y-118983238D01*
X111819846Y-118983233D01*
X111817523Y-118978251D01*
X111686198Y-118790700D01*
X111524300Y-118628802D01*
X111519792Y-118625645D01*
X111519789Y-118625643D01*
X111441611Y-118570902D01*
X111336749Y-118497477D01*
X111331767Y-118495154D01*
X111331762Y-118495151D01*
X111297543Y-118479195D01*
X111244258Y-118432278D01*
X111224797Y-118364001D01*
X111245339Y-118296041D01*
X111297543Y-118250805D01*
X111331762Y-118234849D01*
X111331767Y-118234846D01*
X111336749Y-118232523D01*
X111441611Y-118159098D01*
X111519789Y-118104357D01*
X111519792Y-118104355D01*
X111524300Y-118101198D01*
X111686198Y-117939300D01*
X111693161Y-117929357D01*
X111814366Y-117756257D01*
X111817523Y-117751749D01*
X111819846Y-117746767D01*
X111819849Y-117746762D01*
X111911961Y-117549225D01*
X111911961Y-117549224D01*
X111914284Y-117544243D01*
X111920837Y-117519789D01*
X111972119Y-117328402D01*
X111972119Y-117328400D01*
X111973543Y-117323087D01*
X111993498Y-117095000D01*
X111973543Y-116866913D01*
X111963244Y-116828478D01*
X111961911Y-116823503D01*
X117018606Y-116823503D01*
X117018942Y-116837599D01*
X117026884Y-116841000D01*
X118027885Y-116841000D01*
X118043124Y-116836525D01*
X118044329Y-116835135D01*
X118046000Y-116827452D01*
X118046000Y-116822885D01*
X118554000Y-116822885D01*
X118558475Y-116838124D01*
X118559865Y-116839329D01*
X118567548Y-116841000D01*
X119567967Y-116841000D01*
X119581498Y-116837027D01*
X119582727Y-116828478D01*
X119535236Y-116651239D01*
X119531490Y-116640947D01*
X119439414Y-116443489D01*
X119433931Y-116433993D01*
X119308972Y-116255533D01*
X119301916Y-116247125D01*
X119147875Y-116093084D01*
X119139467Y-116086028D01*
X118961007Y-115961069D01*
X118951511Y-115955586D01*
X118754053Y-115863510D01*
X118743761Y-115859764D01*
X118571497Y-115813606D01*
X118557401Y-115813942D01*
X118554000Y-115821884D01*
X118554000Y-116822885D01*
X118046000Y-116822885D01*
X118046000Y-115827033D01*
X118042027Y-115813502D01*
X118033478Y-115812273D01*
X117856239Y-115859764D01*
X117845947Y-115863510D01*
X117648489Y-115955586D01*
X117638993Y-115961069D01*
X117460533Y-116086028D01*
X117452125Y-116093084D01*
X117298084Y-116247125D01*
X117291028Y-116255533D01*
X117166069Y-116433993D01*
X117160586Y-116443489D01*
X117068510Y-116640947D01*
X117064764Y-116651239D01*
X117018606Y-116823503D01*
X111961911Y-116823503D01*
X111915707Y-116651067D01*
X111915706Y-116651065D01*
X111914284Y-116645757D01*
X111843788Y-116494576D01*
X111819849Y-116443238D01*
X111819846Y-116443233D01*
X111817523Y-116438251D01*
X111686198Y-116250700D01*
X111524300Y-116088802D01*
X111519792Y-116085645D01*
X111519789Y-116085643D01*
X111424246Y-116018743D01*
X111336749Y-115957477D01*
X111331767Y-115955154D01*
X111331762Y-115955151D01*
X111134225Y-115863039D01*
X111134224Y-115863039D01*
X111129243Y-115860716D01*
X111123935Y-115859294D01*
X111123933Y-115859293D01*
X110913402Y-115802881D01*
X110913400Y-115802881D01*
X110908087Y-115801457D01*
X110680000Y-115781502D01*
X110451913Y-115801457D01*
X110347110Y-115829539D01*
X110276135Y-115827849D01*
X110217339Y-115788055D01*
X110189391Y-115722791D01*
X110188500Y-115707832D01*
X110188500Y-114073142D01*
X110208502Y-114005021D01*
X110262158Y-113958528D01*
X110332432Y-113948424D01*
X110367750Y-113958947D01*
X110472150Y-114007629D01*
X110550757Y-114044284D01*
X110556065Y-114045706D01*
X110556067Y-114045707D01*
X110766598Y-114102119D01*
X110766600Y-114102119D01*
X110771913Y-114103543D01*
X111000000Y-114123498D01*
X111228087Y-114103543D01*
X111233400Y-114102119D01*
X111233402Y-114102119D01*
X111443933Y-114045707D01*
X111443935Y-114045706D01*
X111449243Y-114044284D01*
X111454225Y-114041961D01*
X111651762Y-113949849D01*
X111651767Y-113949846D01*
X111656749Y-113947523D01*
X111779555Y-113861533D01*
X111839789Y-113819357D01*
X111839792Y-113819355D01*
X111844300Y-113816198D01*
X112006198Y-113654300D01*
X112137523Y-113466749D01*
X112139846Y-113461767D01*
X112139849Y-113461762D01*
X112231961Y-113264225D01*
X112231961Y-113264224D01*
X112234284Y-113259243D01*
X112293543Y-113038087D01*
X112313498Y-112810000D01*
X112293543Y-112581913D01*
X112234284Y-112360757D01*
X112231961Y-112355775D01*
X112139849Y-112158238D01*
X112139846Y-112158233D01*
X112137523Y-112153251D01*
X112048797Y-112026537D01*
X112009357Y-111970211D01*
X112009355Y-111970208D01*
X112006198Y-111965700D01*
X111844300Y-111803802D01*
X111839792Y-111800645D01*
X111839789Y-111800643D01*
X111729941Y-111723727D01*
X111656749Y-111672477D01*
X111651767Y-111670154D01*
X111651762Y-111670151D01*
X111454225Y-111578039D01*
X111454224Y-111578039D01*
X111449243Y-111575716D01*
X111443935Y-111574294D01*
X111443933Y-111574293D01*
X111233402Y-111517881D01*
X111233400Y-111517881D01*
X111228087Y-111516457D01*
X111000000Y-111496502D01*
X110771913Y-111516457D01*
X110766600Y-111517881D01*
X110766598Y-111517881D01*
X110556067Y-111574293D01*
X110556065Y-111574294D01*
X110550757Y-111575716D01*
X110545776Y-111578039D01*
X110545775Y-111578039D01*
X110367750Y-111661053D01*
X110297558Y-111671714D01*
X110232745Y-111642734D01*
X110193889Y-111583314D01*
X110188500Y-111546858D01*
X110188500Y-108484297D01*
X115721045Y-108484297D01*
X115735248Y-108700995D01*
X115788703Y-108911476D01*
X115879621Y-109108691D01*
X116004955Y-109286035D01*
X116160509Y-109437570D01*
X116165305Y-109440775D01*
X116165308Y-109440777D01*
X116273800Y-109513268D01*
X116341074Y-109558219D01*
X116346377Y-109560497D01*
X116346380Y-109560499D01*
X116441319Y-109601288D01*
X116540601Y-109643943D01*
X116603295Y-109658129D01*
X116746773Y-109690595D01*
X116746778Y-109690596D01*
X116752410Y-109691870D01*
X116758181Y-109692097D01*
X116758183Y-109692097D01*
X116823533Y-109694665D01*
X116969405Y-109700396D01*
X117077325Y-109684748D01*
X117178607Y-109670063D01*
X117178612Y-109670062D01*
X117184321Y-109669234D01*
X117189785Y-109667379D01*
X117189790Y-109667378D01*
X117384487Y-109601288D01*
X117384492Y-109601286D01*
X117389959Y-109599430D01*
X117423554Y-109580616D01*
X117574386Y-109496146D01*
X117574390Y-109496143D01*
X117579433Y-109493319D01*
X117746397Y-109354457D01*
X117885259Y-109187493D01*
X117888083Y-109182450D01*
X117888086Y-109182446D01*
X117988546Y-109003062D01*
X117988547Y-109003060D01*
X117991370Y-108998019D01*
X117993226Y-108992552D01*
X117993228Y-108992547D01*
X118059318Y-108797850D01*
X118059319Y-108797845D01*
X118061174Y-108792381D01*
X118073613Y-108706597D01*
X118091803Y-108581139D01*
X118092336Y-108577465D01*
X118093962Y-108515360D01*
X118079982Y-108363221D01*
X118074620Y-108304862D01*
X118074619Y-108304859D01*
X118074091Y-108299108D01*
X118070370Y-108285912D01*
X118016712Y-108095657D01*
X118016711Y-108095655D01*
X118015144Y-108090098D01*
X118003640Y-108066769D01*
X117921651Y-107900512D01*
X117919096Y-107895331D01*
X117899609Y-107869234D01*
X117792615Y-107725952D01*
X117792614Y-107725951D01*
X117789162Y-107721328D01*
X117784926Y-107717412D01*
X117633935Y-107577838D01*
X117633933Y-107577836D01*
X117629694Y-107573918D01*
X117446033Y-107458036D01*
X117244330Y-107377565D01*
X117238670Y-107376439D01*
X117238666Y-107376438D01*
X117037008Y-107336326D01*
X117037003Y-107336326D01*
X117031340Y-107335199D01*
X117025565Y-107335123D01*
X117025561Y-107335123D01*
X116916415Y-107333694D01*
X116814196Y-107332356D01*
X116808499Y-107333335D01*
X116808498Y-107333335D01*
X116605859Y-107368155D01*
X116605856Y-107368156D01*
X116600169Y-107369133D01*
X116396429Y-107444296D01*
X116368159Y-107461115D01*
X116214766Y-107552374D01*
X116214763Y-107552376D01*
X116209798Y-107555330D01*
X116205458Y-107559136D01*
X116205454Y-107559139D01*
X116088732Y-107661502D01*
X116046526Y-107698516D01*
X116042951Y-107703051D01*
X116042950Y-107703052D01*
X116024897Y-107725952D01*
X115912082Y-107869058D01*
X115909393Y-107874169D01*
X115909391Y-107874172D01*
X115813659Y-108056126D01*
X115813656Y-108056133D01*
X115810967Y-108061244D01*
X115746569Y-108268639D01*
X115721045Y-108484297D01*
X110188500Y-108484297D01*
X110188500Y-106453142D01*
X110208502Y-106385021D01*
X110262158Y-106338528D01*
X110332432Y-106328424D01*
X110367750Y-106338947D01*
X110525733Y-106412615D01*
X110550757Y-106424284D01*
X110556065Y-106425706D01*
X110556067Y-106425707D01*
X110766598Y-106482119D01*
X110766600Y-106482119D01*
X110771913Y-106483543D01*
X111000000Y-106503498D01*
X111228087Y-106483543D01*
X111233400Y-106482119D01*
X111233402Y-106482119D01*
X111443933Y-106425707D01*
X111443935Y-106425706D01*
X111449243Y-106424284D01*
X111465237Y-106416826D01*
X111651762Y-106329849D01*
X111651767Y-106329846D01*
X111656749Y-106327523D01*
X111811500Y-106219165D01*
X111839789Y-106199357D01*
X111839792Y-106199355D01*
X111844300Y-106196198D01*
X112006198Y-106034300D01*
X112039350Y-105986955D01*
X112128492Y-105859646D01*
X112137523Y-105846749D01*
X112139846Y-105841767D01*
X112139849Y-105841762D01*
X112231961Y-105644225D01*
X112231961Y-105644224D01*
X112234284Y-105639243D01*
X112247116Y-105591356D01*
X112292119Y-105423402D01*
X112292119Y-105423400D01*
X112293543Y-105418087D01*
X112313498Y-105190000D01*
X112293543Y-104961913D01*
X112292121Y-104956608D01*
X112292119Y-104956594D01*
X112276541Y-104898461D01*
X112278229Y-104827484D01*
X112309152Y-104776752D01*
X112567258Y-104518647D01*
X112575537Y-104511113D01*
X112582018Y-104507000D01*
X112628644Y-104457348D01*
X112631398Y-104454507D01*
X112651135Y-104434770D01*
X112653615Y-104431573D01*
X112661320Y-104422551D01*
X112668624Y-104414773D01*
X112691586Y-104390321D01*
X112695405Y-104383375D01*
X112695407Y-104383372D01*
X112701348Y-104372566D01*
X112712199Y-104356047D01*
X112712559Y-104355583D01*
X112724614Y-104340041D01*
X112727759Y-104332772D01*
X112727762Y-104332768D01*
X112742174Y-104299463D01*
X112747391Y-104288813D01*
X112768695Y-104250060D01*
X112773733Y-104230437D01*
X112780137Y-104211734D01*
X112785033Y-104200420D01*
X112785033Y-104200419D01*
X112788181Y-104193145D01*
X112789420Y-104185322D01*
X112789423Y-104185312D01*
X112795099Y-104149476D01*
X112797505Y-104137856D01*
X112806528Y-104102711D01*
X112806528Y-104102710D01*
X112808500Y-104095030D01*
X112808500Y-104074776D01*
X112810051Y-104055065D01*
X112811980Y-104042886D01*
X112813220Y-104035057D01*
X112809059Y-103991038D01*
X112808500Y-103979181D01*
X112808500Y-96810000D01*
X155186502Y-96810000D01*
X155206457Y-97038087D01*
X155207880Y-97043398D01*
X155207881Y-97043402D01*
X155234539Y-97142888D01*
X155265716Y-97259243D01*
X155268039Y-97264224D01*
X155268039Y-97264225D01*
X155360151Y-97461762D01*
X155360154Y-97461767D01*
X155362477Y-97466749D01*
X155493802Y-97654300D01*
X155655700Y-97816198D01*
X155660208Y-97819355D01*
X155660211Y-97819357D01*
X155738389Y-97874098D01*
X155843251Y-97947523D01*
X155848233Y-97949846D01*
X155848238Y-97949849D01*
X156045775Y-98041961D01*
X156050757Y-98044284D01*
X156056065Y-98045706D01*
X156056067Y-98045707D01*
X156266598Y-98102119D01*
X156266600Y-98102119D01*
X156271913Y-98103543D01*
X156500000Y-98123498D01*
X156728087Y-98103543D01*
X156733398Y-98102120D01*
X156733409Y-98102118D01*
X156791541Y-98086541D01*
X156862517Y-98088230D01*
X156913248Y-98119152D01*
X157121343Y-98327247D01*
X157128887Y-98335537D01*
X157133000Y-98342018D01*
X157138777Y-98347443D01*
X157182667Y-98388658D01*
X157185509Y-98391413D01*
X157205230Y-98411134D01*
X157208425Y-98413612D01*
X157217447Y-98421318D01*
X157249679Y-98451586D01*
X157256628Y-98455406D01*
X157267432Y-98461346D01*
X157283956Y-98472199D01*
X157299959Y-98484613D01*
X157340543Y-98502176D01*
X157351173Y-98507383D01*
X157389940Y-98528695D01*
X157397617Y-98530666D01*
X157397622Y-98530668D01*
X157409558Y-98533732D01*
X157428266Y-98540137D01*
X157446855Y-98548181D01*
X157454683Y-98549421D01*
X157454690Y-98549423D01*
X157490524Y-98555099D01*
X157502144Y-98557505D01*
X157537289Y-98566528D01*
X157544970Y-98568500D01*
X157565224Y-98568500D01*
X157584934Y-98570051D01*
X157604943Y-98573220D01*
X157612835Y-98572474D01*
X157648961Y-98569059D01*
X157660819Y-98568500D01*
X164207906Y-98568500D01*
X164276027Y-98588502D01*
X164297001Y-98605405D01*
X170493143Y-104801548D01*
X170527169Y-104863860D01*
X170529263Y-104904687D01*
X170523441Y-104956598D01*
X170520244Y-104985097D01*
X170520760Y-104991241D01*
X170534429Y-105154020D01*
X170537675Y-105192679D01*
X170539372Y-105198598D01*
X170540486Y-105204666D01*
X170538500Y-105205030D01*
X170538113Y-105266755D01*
X170499355Y-105326239D01*
X170434591Y-105355327D01*
X170417442Y-105356499D01*
X169581091Y-105356499D01*
X169512970Y-105336497D01*
X169466477Y-105282841D01*
X169456085Y-105214707D01*
X169471729Y-105090874D01*
X169479444Y-105029802D01*
X169479860Y-105000000D01*
X169459532Y-104792682D01*
X169454723Y-104776752D01*
X169422841Y-104671157D01*
X169399323Y-104593261D01*
X169301527Y-104409332D01*
X169297632Y-104404556D01*
X169173762Y-104252677D01*
X169173759Y-104252674D01*
X169169867Y-104247902D01*
X169157173Y-104237400D01*
X169014109Y-104119047D01*
X169009360Y-104115118D01*
X168826119Y-104016040D01*
X168715991Y-103981950D01*
X168633010Y-103956263D01*
X168633007Y-103956262D01*
X168627123Y-103954441D01*
X168620998Y-103953797D01*
X168620997Y-103953797D01*
X168426080Y-103933310D01*
X168426079Y-103933310D01*
X168419952Y-103932666D01*
X168333416Y-103940541D01*
X168218636Y-103950987D01*
X168218633Y-103950988D01*
X168212497Y-103951546D01*
X168206591Y-103953284D01*
X168206587Y-103953285D01*
X168078311Y-103991039D01*
X168012660Y-104010361D01*
X167828053Y-104106871D01*
X167665707Y-104237400D01*
X167531807Y-104396977D01*
X167528843Y-104402369D01*
X167528840Y-104402373D01*
X167474499Y-104501219D01*
X167431452Y-104579522D01*
X167429591Y-104585389D01*
X167429590Y-104585391D01*
X167425222Y-104599161D01*
X167368464Y-104778083D01*
X167345244Y-104985097D01*
X167345760Y-104991241D01*
X167359429Y-105154020D01*
X167362675Y-105192679D01*
X167364372Y-105198598D01*
X167365486Y-105204666D01*
X167363500Y-105205030D01*
X167363113Y-105266755D01*
X167324355Y-105326239D01*
X167259591Y-105355327D01*
X167242442Y-105356499D01*
X164436437Y-105356499D01*
X164368316Y-105336497D01*
X164321823Y-105282841D01*
X164310916Y-105219519D01*
X164313019Y-105195478D01*
X164313019Y-105195475D01*
X164313498Y-105190000D01*
X164293543Y-104961913D01*
X164264553Y-104853722D01*
X164235707Y-104746067D01*
X164235706Y-104746065D01*
X164234284Y-104740757D01*
X164210604Y-104689975D01*
X164139849Y-104538238D01*
X164139846Y-104538233D01*
X164137523Y-104533251D01*
X164050754Y-104409332D01*
X164009357Y-104350211D01*
X164009355Y-104350208D01*
X164006198Y-104345700D01*
X163844300Y-104183802D01*
X163839792Y-104180645D01*
X163839789Y-104180643D01*
X163755488Y-104121615D01*
X163656749Y-104052477D01*
X163651767Y-104050154D01*
X163651762Y-104050151D01*
X163454225Y-103958039D01*
X163454224Y-103958039D01*
X163449243Y-103955716D01*
X163443935Y-103954294D01*
X163443933Y-103954293D01*
X163233402Y-103897881D01*
X163233400Y-103897881D01*
X163228087Y-103896457D01*
X163000000Y-103876502D01*
X162771913Y-103896457D01*
X162766600Y-103897881D01*
X162766598Y-103897881D01*
X162556067Y-103954293D01*
X162556065Y-103954294D01*
X162550757Y-103955716D01*
X162545776Y-103958039D01*
X162545775Y-103958039D01*
X162348238Y-104050151D01*
X162348233Y-104050154D01*
X162343251Y-104052477D01*
X162244512Y-104121615D01*
X162160211Y-104180643D01*
X162160208Y-104180645D01*
X162155700Y-104183802D01*
X161993802Y-104345700D01*
X161990645Y-104350208D01*
X161990643Y-104350211D01*
X161949246Y-104409332D01*
X161862477Y-104533251D01*
X161860154Y-104538233D01*
X161860151Y-104538238D01*
X161789396Y-104689975D01*
X161765716Y-104740757D01*
X161764294Y-104746065D01*
X161764293Y-104746067D01*
X161735447Y-104853722D01*
X161706457Y-104961913D01*
X161686502Y-105190000D01*
X161706457Y-105418087D01*
X161707881Y-105423400D01*
X161707881Y-105423402D01*
X161752885Y-105591356D01*
X161765716Y-105639243D01*
X161768039Y-105644224D01*
X161768039Y-105644225D01*
X161860151Y-105841762D01*
X161860154Y-105841767D01*
X161862477Y-105846749D01*
X161871508Y-105859646D01*
X161960651Y-105986955D01*
X161993802Y-106034300D01*
X162155700Y-106196198D01*
X162160208Y-106199355D01*
X162160211Y-106199357D01*
X162188500Y-106219165D01*
X162343251Y-106327523D01*
X162348233Y-106329846D01*
X162348238Y-106329849D01*
X162534763Y-106416826D01*
X162550757Y-106424284D01*
X162556065Y-106425706D01*
X162556067Y-106425707D01*
X162766598Y-106482119D01*
X162766600Y-106482119D01*
X162771913Y-106483543D01*
X163000000Y-106503498D01*
X163228087Y-106483543D01*
X163242473Y-106479688D01*
X163294205Y-106465827D01*
X163365181Y-106467517D01*
X163413067Y-106495682D01*
X163418897Y-106501157D01*
X163418901Y-106501160D01*
X163424678Y-106506585D01*
X163431627Y-106510405D01*
X163442431Y-106516345D01*
X163458955Y-106527198D01*
X163474958Y-106539612D01*
X163515542Y-106557175D01*
X163526172Y-106562382D01*
X163564939Y-106583694D01*
X163572616Y-106585665D01*
X163572621Y-106585667D01*
X163584557Y-106588731D01*
X163603265Y-106595136D01*
X163621854Y-106603180D01*
X163629679Y-106604419D01*
X163629681Y-106604420D01*
X163665518Y-106610096D01*
X163677139Y-106612503D01*
X163708958Y-106620672D01*
X163719969Y-106623499D01*
X163740230Y-106623499D01*
X163759939Y-106625050D01*
X163779942Y-106628218D01*
X163787834Y-106627472D01*
X163793061Y-106626978D01*
X163823953Y-106624058D01*
X163835810Y-106623499D01*
X171761432Y-106623499D01*
X171772615Y-106624026D01*
X171780108Y-106625701D01*
X171788034Y-106625452D01*
X171788035Y-106625452D01*
X171848185Y-106623561D01*
X171852144Y-106623499D01*
X171880055Y-106623499D01*
X171883990Y-106623002D01*
X171884055Y-106622994D01*
X171895892Y-106622061D01*
X171928150Y-106621047D01*
X171932169Y-106620921D01*
X171940088Y-106620672D01*
X171959542Y-106615020D01*
X171978899Y-106611012D01*
X171991129Y-106609467D01*
X171991130Y-106609467D01*
X171998996Y-106608473D01*
X172006367Y-106605554D01*
X172006369Y-106605554D01*
X172040111Y-106592195D01*
X172051341Y-106588350D01*
X172086182Y-106578228D01*
X172086183Y-106578228D01*
X172093792Y-106576017D01*
X172100611Y-106571984D01*
X172100616Y-106571982D01*
X172111227Y-106565706D01*
X172128975Y-106557011D01*
X172147816Y-106549551D01*
X172168186Y-106534752D01*
X172183586Y-106523563D01*
X172193506Y-106517047D01*
X172224734Y-106498579D01*
X172224737Y-106498577D01*
X172231561Y-106494541D01*
X172245882Y-106480220D01*
X172260916Y-106467379D01*
X172270893Y-106460130D01*
X172277306Y-106455471D01*
X172305497Y-106421394D01*
X172313487Y-106412615D01*
X172858467Y-105867635D01*
X172866757Y-105860091D01*
X172873238Y-105855978D01*
X172919879Y-105806310D01*
X172922633Y-105803469D01*
X172942354Y-105783748D01*
X172944832Y-105780553D01*
X172952538Y-105771531D01*
X172954995Y-105768915D01*
X172982806Y-105739299D01*
X172992566Y-105721546D01*
X173003419Y-105705023D01*
X173010973Y-105695284D01*
X173015833Y-105689019D01*
X173033396Y-105648435D01*
X173038603Y-105637805D01*
X173059915Y-105599038D01*
X173061886Y-105591361D01*
X173061888Y-105591356D01*
X173064952Y-105579420D01*
X173071358Y-105560708D01*
X173076254Y-105549395D01*
X173079401Y-105542123D01*
X173086317Y-105498459D01*
X173088724Y-105486838D01*
X173097748Y-105451689D01*
X173097748Y-105451688D01*
X173099720Y-105444008D01*
X173099720Y-105423747D01*
X173101271Y-105404036D01*
X173103012Y-105393047D01*
X173104439Y-105384035D01*
X173100279Y-105340024D01*
X173099720Y-105328167D01*
X173099720Y-96769988D01*
X173100247Y-96758805D01*
X173101922Y-96751312D01*
X173099782Y-96683221D01*
X173099720Y-96679264D01*
X173099720Y-96651364D01*
X173099216Y-96647373D01*
X173098283Y-96635531D01*
X173097143Y-96599256D01*
X173096894Y-96591331D01*
X173091241Y-96571872D01*
X173087232Y-96552513D01*
X173086654Y-96547939D01*
X173084694Y-96532423D01*
X173081778Y-96525057D01*
X173081776Y-96525051D01*
X173068420Y-96491318D01*
X173064575Y-96480088D01*
X173054450Y-96445237D01*
X173054450Y-96445236D01*
X173052239Y-96437627D01*
X173041925Y-96420186D01*
X173033228Y-96402433D01*
X173028692Y-96390978D01*
X173025772Y-96383603D01*
X172999783Y-96347832D01*
X172993267Y-96337912D01*
X172970762Y-96299858D01*
X172956441Y-96285537D01*
X172943600Y-96270503D01*
X172936351Y-96260526D01*
X172931692Y-96254113D01*
X172897615Y-96225922D01*
X172888836Y-96217932D01*
X170895405Y-94224500D01*
X170861379Y-94162188D01*
X170858500Y-94135405D01*
X170858500Y-92826866D01*
X170851745Y-92764684D01*
X170800615Y-92628295D01*
X170713261Y-92511739D01*
X170596705Y-92424385D01*
X170460316Y-92373255D01*
X170398134Y-92366500D01*
X168601866Y-92366500D01*
X168539684Y-92373255D01*
X168403295Y-92424385D01*
X168286739Y-92511739D01*
X168199385Y-92628295D01*
X168148255Y-92764684D01*
X168141500Y-92826866D01*
X168141500Y-94623134D01*
X168148255Y-94685316D01*
X168199385Y-94821705D01*
X168286739Y-94938261D01*
X168403295Y-95025615D01*
X168411704Y-95028767D01*
X168411705Y-95028768D01*
X168520451Y-95069535D01*
X168577216Y-95112176D01*
X168601916Y-95178738D01*
X168586709Y-95248087D01*
X168567316Y-95274568D01*
X168440629Y-95407138D01*
X168314743Y-95591680D01*
X168275773Y-95675634D01*
X168262833Y-95703512D01*
X168220688Y-95794305D01*
X168160989Y-96009570D01*
X168137251Y-96231695D01*
X168137548Y-96236848D01*
X168137548Y-96236851D01*
X168149812Y-96449547D01*
X168150110Y-96454715D01*
X168151247Y-96459761D01*
X168151248Y-96459767D01*
X168169395Y-96540288D01*
X168199222Y-96672639D01*
X168237461Y-96766811D01*
X168266630Y-96838645D01*
X168283266Y-96879616D01*
X168285965Y-96884020D01*
X168377019Y-97032607D01*
X168399987Y-97070088D01*
X168546250Y-97238938D01*
X168718126Y-97381632D01*
X168911000Y-97494338D01*
X169119692Y-97574030D01*
X169124760Y-97575061D01*
X169124763Y-97575062D01*
X169232012Y-97596882D01*
X169338597Y-97618567D01*
X169343772Y-97618757D01*
X169343774Y-97618757D01*
X169556673Y-97626564D01*
X169556677Y-97626564D01*
X169561837Y-97626753D01*
X169566957Y-97626097D01*
X169566959Y-97626097D01*
X169778288Y-97599025D01*
X169778289Y-97599025D01*
X169783416Y-97598368D01*
X169831697Y-97583883D01*
X169992429Y-97535661D01*
X169992434Y-97535659D01*
X169997384Y-97534174D01*
X170197994Y-97435896D01*
X170379860Y-97306173D01*
X170384550Y-97301500D01*
X170534435Y-97152137D01*
X170538096Y-97148489D01*
X170588045Y-97078978D01*
X170665435Y-96971277D01*
X170668453Y-96967077D01*
X170693342Y-96916719D01*
X170765136Y-96771453D01*
X170765137Y-96771451D01*
X170767430Y-96766811D01*
X170823060Y-96583713D01*
X170830865Y-96558023D01*
X170830865Y-96558021D01*
X170832370Y-96553069D01*
X170861529Y-96331590D01*
X170862304Y-96299858D01*
X170862676Y-96284654D01*
X170884336Y-96217042D01*
X170939111Y-96171874D01*
X171009611Y-96163490D01*
X171077733Y-96198637D01*
X171795815Y-96916719D01*
X171829841Y-96979031D01*
X171832720Y-97005814D01*
X171832720Y-103817719D01*
X171812718Y-103885840D01*
X171759062Y-103932333D01*
X171693549Y-103943029D01*
X171601080Y-103933310D01*
X171601079Y-103933310D01*
X171594952Y-103932666D01*
X171580042Y-103934023D01*
X171489770Y-103942238D01*
X171420117Y-103928493D01*
X171389256Y-103905852D01*
X165026152Y-97542747D01*
X165018612Y-97534461D01*
X165014500Y-97527982D01*
X164978673Y-97494338D01*
X164964849Y-97481357D01*
X164962007Y-97478602D01*
X164942270Y-97458865D01*
X164939073Y-97456385D01*
X164930051Y-97448680D01*
X164918862Y-97438173D01*
X164897821Y-97418414D01*
X164890875Y-97414595D01*
X164890872Y-97414593D01*
X164880066Y-97408652D01*
X164863547Y-97397801D01*
X164863083Y-97397441D01*
X164847541Y-97385386D01*
X164840272Y-97382241D01*
X164840268Y-97382238D01*
X164806963Y-97367826D01*
X164796313Y-97362609D01*
X164757560Y-97341305D01*
X164737937Y-97336267D01*
X164719234Y-97329863D01*
X164707920Y-97324967D01*
X164707919Y-97324967D01*
X164700645Y-97321819D01*
X164692822Y-97320580D01*
X164692812Y-97320577D01*
X164656976Y-97314901D01*
X164645356Y-97312495D01*
X164610211Y-97303472D01*
X164610210Y-97303472D01*
X164602530Y-97301500D01*
X164589385Y-97301500D01*
X164521264Y-97281498D01*
X164474771Y-97227842D01*
X164464667Y-97157568D01*
X164494161Y-97092988D01*
X164509749Y-97077857D01*
X164514491Y-97073990D01*
X164565231Y-97032607D01*
X164591988Y-97010785D01*
X164591991Y-97010782D01*
X164596763Y-97006890D01*
X164633537Y-96962438D01*
X164722027Y-96855472D01*
X164722029Y-96855469D01*
X164725956Y-96850722D01*
X164822356Y-96672435D01*
X164860894Y-96547939D01*
X164880468Y-96484707D01*
X164880469Y-96484704D01*
X164882290Y-96478820D01*
X164896058Y-96347832D01*
X164902832Y-96283378D01*
X164902832Y-96283377D01*
X164903476Y-96277250D01*
X164885106Y-96075404D01*
X164827881Y-95880971D01*
X164823951Y-95873452D01*
X164736835Y-95706815D01*
X164733981Y-95701355D01*
X164734016Y-95701337D01*
X164714111Y-95635559D01*
X164729271Y-95574591D01*
X164771494Y-95496502D01*
X164822356Y-95402435D01*
X164882290Y-95208820D01*
X164903476Y-95007250D01*
X164886590Y-94821705D01*
X164885665Y-94811543D01*
X164885664Y-94811540D01*
X164885106Y-94805404D01*
X164879188Y-94785294D01*
X164829620Y-94616879D01*
X164829619Y-94616877D01*
X164827881Y-94610971D01*
X164828740Y-94610718D01*
X164822286Y-94545338D01*
X164835452Y-94508594D01*
X164840615Y-94501705D01*
X164843768Y-94493296D01*
X164888971Y-94372715D01*
X164891745Y-94365316D01*
X164898500Y-94303134D01*
X164898500Y-93156866D01*
X164891745Y-93094684D01*
X164840615Y-92958295D01*
X164753261Y-92841739D01*
X164636705Y-92754385D01*
X164500316Y-92703255D01*
X164438134Y-92696500D01*
X162841866Y-92696500D01*
X162779684Y-92703255D01*
X162643295Y-92754385D01*
X162526739Y-92841739D01*
X162439385Y-92958295D01*
X162388255Y-93094684D01*
X162381500Y-93156866D01*
X162381500Y-94303134D01*
X162388255Y-94365316D01*
X162391029Y-94372715D01*
X162436232Y-94493296D01*
X162436234Y-94493299D01*
X162439385Y-94501705D01*
X162444773Y-94508894D01*
X162444906Y-94509137D01*
X162460076Y-94578494D01*
X162454752Y-94606907D01*
X162397710Y-94791180D01*
X162397066Y-94797305D01*
X162397066Y-94797306D01*
X162387113Y-94892001D01*
X162376524Y-94992750D01*
X162379025Y-95020229D01*
X162393451Y-95178738D01*
X162394894Y-95194596D01*
X162396632Y-95200502D01*
X162396633Y-95200506D01*
X162410637Y-95248087D01*
X162452119Y-95389029D01*
X162454972Y-95394486D01*
X162454973Y-95394489D01*
X162459127Y-95402435D01*
X162545923Y-95568460D01*
X162545923Y-95568462D01*
X162546019Y-95568645D01*
X162545984Y-95568663D01*
X162565889Y-95634441D01*
X162550729Y-95695409D01*
X162457644Y-95867565D01*
X162397710Y-96061180D01*
X162397066Y-96067305D01*
X162397066Y-96067306D01*
X162379788Y-96231695D01*
X162376524Y-96262750D01*
X162383830Y-96343030D01*
X162393995Y-96454715D01*
X162394894Y-96464596D01*
X162396632Y-96470502D01*
X162396633Y-96470506D01*
X162426467Y-96571872D01*
X162452119Y-96659029D01*
X162454972Y-96664486D01*
X162454973Y-96664489D01*
X162496219Y-96743385D01*
X162546019Y-96838645D01*
X162549879Y-96843445D01*
X162549879Y-96843446D01*
X162555729Y-96850722D01*
X162673019Y-96996601D01*
X162677736Y-97000559D01*
X162677738Y-97000561D01*
X162771192Y-97078978D01*
X162810519Y-97138088D01*
X162811645Y-97209076D01*
X162774214Y-97269403D01*
X162710109Y-97299917D01*
X162690201Y-97301500D01*
X160887168Y-97301500D01*
X160819047Y-97281498D01*
X160772554Y-97227842D01*
X160762450Y-97157568D01*
X160765461Y-97142888D01*
X160793543Y-97038087D01*
X160813498Y-96810000D01*
X160793543Y-96581913D01*
X160764278Y-96472694D01*
X160735707Y-96366067D01*
X160735706Y-96366065D01*
X160734284Y-96360757D01*
X160723631Y-96337912D01*
X160639849Y-96158238D01*
X160639846Y-96158233D01*
X160637523Y-96153251D01*
X160506198Y-95965700D01*
X160344300Y-95803802D01*
X160339792Y-95800645D01*
X160339789Y-95800643D01*
X160261611Y-95745902D01*
X160156749Y-95672477D01*
X160151767Y-95670154D01*
X160151762Y-95670151D01*
X159954225Y-95578039D01*
X159954224Y-95578039D01*
X159949243Y-95575716D01*
X159943935Y-95574294D01*
X159943933Y-95574293D01*
X159733402Y-95517881D01*
X159733400Y-95517881D01*
X159728087Y-95516457D01*
X159500000Y-95496502D01*
X159271913Y-95516457D01*
X159266600Y-95517881D01*
X159266598Y-95517881D01*
X159056067Y-95574293D01*
X159056065Y-95574294D01*
X159050757Y-95575716D01*
X159045776Y-95578039D01*
X159045775Y-95578039D01*
X158848238Y-95670151D01*
X158848233Y-95670154D01*
X158843251Y-95672477D01*
X158738389Y-95745902D01*
X158660211Y-95800643D01*
X158660208Y-95800645D01*
X158655700Y-95803802D01*
X158493802Y-95965700D01*
X158362477Y-96153251D01*
X158360154Y-96158233D01*
X158360151Y-96158238D01*
X158276369Y-96337912D01*
X158265716Y-96360757D01*
X158264294Y-96366065D01*
X158264293Y-96366067D01*
X158235722Y-96472694D01*
X158206457Y-96581913D01*
X158186502Y-96810000D01*
X158206457Y-97038087D01*
X158234539Y-97142888D01*
X158232849Y-97213865D01*
X158193055Y-97272661D01*
X158127791Y-97300609D01*
X158112832Y-97301500D01*
X157939595Y-97301500D01*
X157871474Y-97281498D01*
X157850500Y-97264595D01*
X157809152Y-97223247D01*
X157775126Y-97160935D01*
X157776540Y-97101541D01*
X157782886Y-97077857D01*
X157793543Y-97038087D01*
X157813498Y-96810000D01*
X157793543Y-96581913D01*
X157764278Y-96472694D01*
X157735707Y-96366067D01*
X157735706Y-96366065D01*
X157734284Y-96360757D01*
X157723631Y-96337912D01*
X157639849Y-96158238D01*
X157639846Y-96158233D01*
X157637523Y-96153251D01*
X157506198Y-95965700D01*
X157344300Y-95803802D01*
X157339792Y-95800645D01*
X157339789Y-95800643D01*
X157261611Y-95745902D01*
X157156749Y-95672477D01*
X157151767Y-95670154D01*
X157151762Y-95670151D01*
X156954225Y-95578039D01*
X156954224Y-95578039D01*
X156949243Y-95575716D01*
X156943935Y-95574294D01*
X156943933Y-95574293D01*
X156733402Y-95517881D01*
X156733400Y-95517881D01*
X156728087Y-95516457D01*
X156500000Y-95496502D01*
X156271913Y-95516457D01*
X156266600Y-95517881D01*
X156266598Y-95517881D01*
X156056067Y-95574293D01*
X156056065Y-95574294D01*
X156050757Y-95575716D01*
X156045776Y-95578039D01*
X156045775Y-95578039D01*
X155848238Y-95670151D01*
X155848233Y-95670154D01*
X155843251Y-95672477D01*
X155738389Y-95745902D01*
X155660211Y-95800643D01*
X155660208Y-95800645D01*
X155655700Y-95803802D01*
X155493802Y-95965700D01*
X155362477Y-96153251D01*
X155360154Y-96158233D01*
X155360151Y-96158238D01*
X155276369Y-96337912D01*
X155265716Y-96360757D01*
X155264294Y-96366065D01*
X155264293Y-96366067D01*
X155235722Y-96472694D01*
X155206457Y-96581913D01*
X155186502Y-96810000D01*
X112808500Y-96810000D01*
X112808500Y-94978767D01*
X112809027Y-94967584D01*
X112810702Y-94960091D01*
X112808562Y-94892000D01*
X112808500Y-94888043D01*
X112808500Y-94860144D01*
X112807996Y-94856153D01*
X112807063Y-94844311D01*
X112806579Y-94828891D01*
X112805674Y-94800111D01*
X112803462Y-94792497D01*
X112803461Y-94792492D01*
X112800023Y-94780659D01*
X112796012Y-94761295D01*
X112794467Y-94749064D01*
X112793474Y-94741203D01*
X112790557Y-94733836D01*
X112790556Y-94733831D01*
X112777198Y-94700092D01*
X112773354Y-94688865D01*
X112763230Y-94654022D01*
X112761018Y-94646407D01*
X112750707Y-94628972D01*
X112742012Y-94611224D01*
X112734552Y-94592383D01*
X112708564Y-94556613D01*
X112702048Y-94546693D01*
X112683580Y-94515465D01*
X112683578Y-94515462D01*
X112679542Y-94508638D01*
X112665221Y-94494317D01*
X112652380Y-94479283D01*
X112645131Y-94469306D01*
X112640472Y-94462893D01*
X112606395Y-94434702D01*
X112597616Y-94426712D01*
X112395405Y-94224501D01*
X112361379Y-94162189D01*
X112358500Y-94135406D01*
X112358500Y-92826866D01*
X112351745Y-92764684D01*
X112300615Y-92628295D01*
X112213261Y-92511739D01*
X112096705Y-92424385D01*
X111960316Y-92373255D01*
X111898134Y-92366500D01*
X110314500Y-92366500D01*
X110246379Y-92346498D01*
X110199886Y-92292842D01*
X110188500Y-92240500D01*
X110188500Y-91632323D01*
X118486835Y-91632323D01*
X118505465Y-91869034D01*
X118560895Y-92099917D01*
X118562788Y-92104488D01*
X118562789Y-92104490D01*
X118640807Y-92292842D01*
X118651760Y-92319286D01*
X118654346Y-92323506D01*
X118773241Y-92517525D01*
X118773245Y-92517531D01*
X118775824Y-92521739D01*
X118930031Y-92702292D01*
X119110584Y-92856499D01*
X119114792Y-92859078D01*
X119114798Y-92859082D01*
X119276699Y-92958295D01*
X119313037Y-92980563D01*
X119317607Y-92982456D01*
X119317611Y-92982458D01*
X119527833Y-93069534D01*
X119532406Y-93071428D01*
X119598455Y-93087285D01*
X119758476Y-93125703D01*
X119758482Y-93125704D01*
X119763289Y-93126858D01*
X120000000Y-93145488D01*
X120236711Y-93126858D01*
X120241518Y-93125704D01*
X120241524Y-93125703D01*
X120401545Y-93087285D01*
X120467594Y-93071428D01*
X120472167Y-93069534D01*
X120682389Y-92982458D01*
X120682393Y-92982456D01*
X120686963Y-92980563D01*
X120723301Y-92958295D01*
X120885202Y-92859082D01*
X120885208Y-92859078D01*
X120889416Y-92856499D01*
X121069969Y-92702292D01*
X121224176Y-92521739D01*
X121226755Y-92517531D01*
X121226759Y-92517525D01*
X121345654Y-92323506D01*
X121348240Y-92319286D01*
X121359194Y-92292842D01*
X121437211Y-92104490D01*
X121437212Y-92104488D01*
X121439105Y-92099917D01*
X121494535Y-91869034D01*
X121513165Y-91632323D01*
X121494535Y-91395612D01*
X121439105Y-91164729D01*
X121348240Y-90945360D01*
X121345654Y-90941140D01*
X121226759Y-90747121D01*
X121226755Y-90747115D01*
X121224176Y-90742907D01*
X121069969Y-90562354D01*
X120889416Y-90408147D01*
X120885208Y-90405568D01*
X120885202Y-90405564D01*
X120691183Y-90286669D01*
X120686963Y-90284083D01*
X120682393Y-90282190D01*
X120682389Y-90282188D01*
X120472167Y-90195112D01*
X120472165Y-90195111D01*
X120467594Y-90193218D01*
X120387391Y-90173963D01*
X120241524Y-90138943D01*
X120241518Y-90138942D01*
X120236711Y-90137788D01*
X120000000Y-90119158D01*
X119763289Y-90137788D01*
X119758482Y-90138942D01*
X119758476Y-90138943D01*
X119612609Y-90173963D01*
X119532406Y-90193218D01*
X119527835Y-90195111D01*
X119527833Y-90195112D01*
X119317611Y-90282188D01*
X119317607Y-90282190D01*
X119313037Y-90284083D01*
X119308817Y-90286669D01*
X119114798Y-90405564D01*
X119114792Y-90405568D01*
X119110584Y-90408147D01*
X118930031Y-90562354D01*
X118775824Y-90742907D01*
X118773245Y-90747115D01*
X118773241Y-90747121D01*
X118654346Y-90941140D01*
X118651760Y-90945360D01*
X118560895Y-91164729D01*
X118505465Y-91395612D01*
X118486835Y-91632323D01*
X110188500Y-91632323D01*
X110188500Y-89438883D01*
X110208502Y-89370762D01*
X110262158Y-89324269D01*
X110332432Y-89314165D01*
X110378071Y-89330096D01*
X110411000Y-89349338D01*
X110619692Y-89429030D01*
X110624760Y-89430061D01*
X110624763Y-89430062D01*
X110732017Y-89451883D01*
X110838597Y-89473567D01*
X110843772Y-89473757D01*
X110843774Y-89473757D01*
X111056673Y-89481564D01*
X111056677Y-89481564D01*
X111061837Y-89481753D01*
X111066957Y-89481097D01*
X111066959Y-89481097D01*
X111278288Y-89454025D01*
X111278289Y-89454025D01*
X111283416Y-89453368D01*
X111359102Y-89430661D01*
X111492429Y-89390661D01*
X111492434Y-89390659D01*
X111497384Y-89389174D01*
X111697994Y-89290896D01*
X111839446Y-89190000D01*
X155186502Y-89190000D01*
X155206457Y-89418087D01*
X155207881Y-89423400D01*
X155207881Y-89423402D01*
X155234059Y-89521097D01*
X155265716Y-89639243D01*
X155268039Y-89644224D01*
X155268039Y-89644225D01*
X155360151Y-89841762D01*
X155360154Y-89841767D01*
X155362477Y-89846749D01*
X155493802Y-90034300D01*
X155655700Y-90196198D01*
X155660208Y-90199355D01*
X155660211Y-90199357D01*
X155738389Y-90254098D01*
X155843251Y-90327523D01*
X155848233Y-90329846D01*
X155848238Y-90329849D01*
X156023037Y-90411358D01*
X156050757Y-90424284D01*
X156056065Y-90425706D01*
X156056067Y-90425707D01*
X156266598Y-90482119D01*
X156266600Y-90482119D01*
X156271913Y-90483543D01*
X156500000Y-90503498D01*
X156728087Y-90483543D01*
X156733400Y-90482119D01*
X156733402Y-90482119D01*
X156943933Y-90425707D01*
X156943935Y-90425706D01*
X156949243Y-90424284D01*
X156976963Y-90411358D01*
X157151762Y-90329849D01*
X157151767Y-90329846D01*
X157156749Y-90327523D01*
X157261611Y-90254098D01*
X157339789Y-90199357D01*
X157339792Y-90199355D01*
X157344300Y-90196198D01*
X157506198Y-90034300D01*
X157637523Y-89846749D01*
X157639846Y-89841767D01*
X157639849Y-89841762D01*
X157731961Y-89644225D01*
X157731961Y-89644224D01*
X157734284Y-89639243D01*
X157765942Y-89521097D01*
X157792119Y-89423402D01*
X157792119Y-89423400D01*
X157793543Y-89418087D01*
X157813498Y-89190000D01*
X158186502Y-89190000D01*
X158206457Y-89418087D01*
X158207881Y-89423400D01*
X158207881Y-89423402D01*
X158234059Y-89521097D01*
X158265716Y-89639243D01*
X158268039Y-89644224D01*
X158268039Y-89644225D01*
X158360151Y-89841762D01*
X158360154Y-89841767D01*
X158362477Y-89846749D01*
X158493802Y-90034300D01*
X158655700Y-90196198D01*
X158660208Y-90199355D01*
X158660211Y-90199357D01*
X158738389Y-90254098D01*
X158843251Y-90327523D01*
X158848233Y-90329846D01*
X158848238Y-90329849D01*
X159023037Y-90411358D01*
X159050757Y-90424284D01*
X159056065Y-90425706D01*
X159056067Y-90425707D01*
X159266598Y-90482119D01*
X159266600Y-90482119D01*
X159271913Y-90483543D01*
X159500000Y-90503498D01*
X159728087Y-90483543D01*
X159733400Y-90482119D01*
X159733402Y-90482119D01*
X159943933Y-90425707D01*
X159943935Y-90425706D01*
X159949243Y-90424284D01*
X159976963Y-90411358D01*
X160151762Y-90329849D01*
X160151767Y-90329846D01*
X160156749Y-90327523D01*
X160261611Y-90254098D01*
X160339789Y-90199357D01*
X160339792Y-90199355D01*
X160344300Y-90196198D01*
X160506198Y-90034300D01*
X160637523Y-89846749D01*
X160639846Y-89841767D01*
X160639849Y-89841762D01*
X160731961Y-89644225D01*
X160731961Y-89644224D01*
X160734284Y-89639243D01*
X160765942Y-89521097D01*
X160792119Y-89423402D01*
X160792119Y-89423400D01*
X160793543Y-89418087D01*
X160813498Y-89190000D01*
X160793543Y-88961913D01*
X160751905Y-88806518D01*
X160735707Y-88746067D01*
X160735706Y-88746065D01*
X160734284Y-88740757D01*
X160696669Y-88660091D01*
X160639849Y-88538238D01*
X160639846Y-88538233D01*
X160637523Y-88533251D01*
X160506198Y-88345700D01*
X160344300Y-88183802D01*
X160339792Y-88180645D01*
X160339789Y-88180643D01*
X160253182Y-88120000D01*
X160156749Y-88052477D01*
X160151767Y-88050154D01*
X160151762Y-88050151D01*
X159954225Y-87958039D01*
X159954224Y-87958039D01*
X159949243Y-87955716D01*
X159943935Y-87954294D01*
X159943933Y-87954293D01*
X159733402Y-87897881D01*
X159733400Y-87897881D01*
X159728087Y-87896457D01*
X159500000Y-87876502D01*
X159271913Y-87896457D01*
X159266600Y-87897881D01*
X159266598Y-87897881D01*
X159056067Y-87954293D01*
X159056065Y-87954294D01*
X159050757Y-87955716D01*
X159045776Y-87958039D01*
X159045775Y-87958039D01*
X158848238Y-88050151D01*
X158848233Y-88050154D01*
X158843251Y-88052477D01*
X158746818Y-88120000D01*
X158660211Y-88180643D01*
X158660208Y-88180645D01*
X158655700Y-88183802D01*
X158493802Y-88345700D01*
X158362477Y-88533251D01*
X158360154Y-88538233D01*
X158360151Y-88538238D01*
X158303331Y-88660091D01*
X158265716Y-88740757D01*
X158264294Y-88746065D01*
X158264293Y-88746067D01*
X158248095Y-88806518D01*
X158206457Y-88961913D01*
X158186502Y-89190000D01*
X157813498Y-89190000D01*
X157793543Y-88961913D01*
X157751905Y-88806518D01*
X157735707Y-88746067D01*
X157735706Y-88746065D01*
X157734284Y-88740757D01*
X157696669Y-88660091D01*
X157639849Y-88538238D01*
X157639846Y-88538233D01*
X157637523Y-88533251D01*
X157506198Y-88345700D01*
X157344300Y-88183802D01*
X157339792Y-88180645D01*
X157339789Y-88180643D01*
X157253182Y-88120000D01*
X157156749Y-88052477D01*
X157151767Y-88050154D01*
X157151762Y-88050151D01*
X156954225Y-87958039D01*
X156954224Y-87958039D01*
X156949243Y-87955716D01*
X156943935Y-87954294D01*
X156943933Y-87954293D01*
X156733402Y-87897881D01*
X156733400Y-87897881D01*
X156728087Y-87896457D01*
X156500000Y-87876502D01*
X156271913Y-87896457D01*
X156266600Y-87897881D01*
X156266598Y-87897881D01*
X156056067Y-87954293D01*
X156056065Y-87954294D01*
X156050757Y-87955716D01*
X156045776Y-87958039D01*
X156045775Y-87958039D01*
X155848238Y-88050151D01*
X155848233Y-88050154D01*
X155843251Y-88052477D01*
X155746818Y-88120000D01*
X155660211Y-88180643D01*
X155660208Y-88180645D01*
X155655700Y-88183802D01*
X155493802Y-88345700D01*
X155362477Y-88533251D01*
X155360154Y-88538233D01*
X155360151Y-88538238D01*
X155303331Y-88660091D01*
X155265716Y-88740757D01*
X155264294Y-88746065D01*
X155264293Y-88746067D01*
X155248095Y-88806518D01*
X155206457Y-88961913D01*
X155186502Y-89190000D01*
X111839446Y-89190000D01*
X111879860Y-89161173D01*
X111907191Y-89133938D01*
X112034435Y-89007137D01*
X112038096Y-89003489D01*
X112064034Y-88967393D01*
X112165435Y-88826277D01*
X112168453Y-88822077D01*
X112194276Y-88769829D01*
X112265136Y-88626453D01*
X112265137Y-88626451D01*
X112267430Y-88621811D01*
X112332370Y-88408069D01*
X112361529Y-88186590D01*
X112362656Y-88140454D01*
X112363074Y-88123365D01*
X112363074Y-88123361D01*
X112363156Y-88120000D01*
X112344852Y-87897361D01*
X112290431Y-87680702D01*
X112290324Y-87680457D01*
X118491500Y-87680457D01*
X118498255Y-87742639D01*
X118549385Y-87879028D01*
X118636739Y-87995584D01*
X118753295Y-88082938D01*
X118889684Y-88134068D01*
X118951866Y-88140823D01*
X121048134Y-88140823D01*
X121110316Y-88134068D01*
X121246705Y-88082938D01*
X121363261Y-87995584D01*
X121450615Y-87879028D01*
X121501745Y-87742639D01*
X121508500Y-87680457D01*
X121508500Y-85584189D01*
X121501745Y-85522007D01*
X121450615Y-85385618D01*
X121363261Y-85269062D01*
X121246705Y-85181708D01*
X121110316Y-85130578D01*
X121048134Y-85123823D01*
X118951866Y-85123823D01*
X118889684Y-85130578D01*
X118753295Y-85181708D01*
X118636739Y-85269062D01*
X118549385Y-85385618D01*
X118498255Y-85522007D01*
X118491500Y-85584189D01*
X118491500Y-87680457D01*
X112290324Y-87680457D01*
X112201354Y-87475840D01*
X112098758Y-87317251D01*
X112082822Y-87292617D01*
X112082820Y-87292614D01*
X112080014Y-87288277D01*
X111929670Y-87123051D01*
X111925619Y-87119852D01*
X111925615Y-87119848D01*
X111758414Y-86987800D01*
X111758410Y-86987798D01*
X111754359Y-86984598D01*
X111713053Y-86961796D01*
X111663084Y-86911364D01*
X111648312Y-86841921D01*
X111673428Y-86775516D01*
X111700780Y-86748909D01*
X111744603Y-86717650D01*
X111879860Y-86621173D01*
X111907191Y-86593938D01*
X112034435Y-86467137D01*
X112038096Y-86463489D01*
X112168453Y-86282077D01*
X112194276Y-86229829D01*
X112265136Y-86086453D01*
X112265137Y-86086451D01*
X112267430Y-86081811D01*
X112332370Y-85868069D01*
X112361529Y-85646590D01*
X112361611Y-85643240D01*
X112363074Y-85583365D01*
X112363074Y-85583361D01*
X112363156Y-85580000D01*
X112344852Y-85357361D01*
X112290431Y-85140702D01*
X112201354Y-84935840D01*
X112144068Y-84847289D01*
X112082822Y-84752617D01*
X112082820Y-84752614D01*
X112080014Y-84748277D01*
X111929670Y-84583051D01*
X111925619Y-84579852D01*
X111925615Y-84579848D01*
X111758414Y-84447800D01*
X111758410Y-84447798D01*
X111754359Y-84444598D01*
X111713053Y-84421796D01*
X111663084Y-84371364D01*
X111648312Y-84301921D01*
X111673428Y-84235516D01*
X111700780Y-84208909D01*
X111744603Y-84177650D01*
X111879860Y-84081173D01*
X111907191Y-84053938D01*
X112034435Y-83927137D01*
X112038096Y-83923489D01*
X112168453Y-83742077D01*
X112194276Y-83689829D01*
X112265136Y-83546453D01*
X112265137Y-83546451D01*
X112267430Y-83541811D01*
X112332370Y-83328069D01*
X112361529Y-83106590D01*
X112361611Y-83103240D01*
X112363074Y-83043365D01*
X112363074Y-83043361D01*
X112363156Y-83040000D01*
X112344852Y-82817361D01*
X112290431Y-82600702D01*
X112201354Y-82395840D01*
X112103420Y-82244457D01*
X112082822Y-82212617D01*
X112082820Y-82212614D01*
X112080014Y-82208277D01*
X111929670Y-82043051D01*
X111925619Y-82039852D01*
X111925615Y-82039848D01*
X111758414Y-81907800D01*
X111758410Y-81907798D01*
X111754359Y-81904598D01*
X111713053Y-81881796D01*
X111663084Y-81831364D01*
X111648312Y-81761921D01*
X111673428Y-81695516D01*
X111700780Y-81668909D01*
X111744603Y-81637650D01*
X111879860Y-81541173D01*
X111907191Y-81513938D01*
X112034435Y-81387137D01*
X112038096Y-81383489D01*
X112097594Y-81300689D01*
X112165435Y-81206277D01*
X112168453Y-81202077D01*
X112194276Y-81149829D01*
X112265136Y-81006453D01*
X112265137Y-81006451D01*
X112267430Y-81001811D01*
X112332370Y-80788069D01*
X112361529Y-80566590D01*
X112361611Y-80563240D01*
X112363074Y-80503365D01*
X112363074Y-80503361D01*
X112363156Y-80500000D01*
X112344852Y-80277361D01*
X112290431Y-80060702D01*
X112201354Y-79855840D01*
X112103420Y-79704457D01*
X112082822Y-79672617D01*
X112082820Y-79672614D01*
X112080014Y-79668277D01*
X111929670Y-79503051D01*
X111925619Y-79499852D01*
X111925615Y-79499848D01*
X111758414Y-79367800D01*
X111758410Y-79367798D01*
X111754359Y-79364598D01*
X111712569Y-79341529D01*
X111662598Y-79291097D01*
X111647826Y-79221654D01*
X111672942Y-79155248D01*
X111700294Y-79128641D01*
X111759988Y-79086062D01*
X120778493Y-79086062D01*
X120787789Y-79098077D01*
X120838994Y-79133931D01*
X120848489Y-79139414D01*
X121045947Y-79231490D01*
X121056239Y-79235236D01*
X121266688Y-79291625D01*
X121277481Y-79293528D01*
X121494525Y-79312517D01*
X121505475Y-79312517D01*
X121722519Y-79293528D01*
X121733312Y-79291625D01*
X121943761Y-79235236D01*
X121954053Y-79231490D01*
X122151511Y-79139414D01*
X122161006Y-79133931D01*
X122213048Y-79097491D01*
X122221424Y-79087012D01*
X122214356Y-79073566D01*
X121512812Y-78372022D01*
X121498868Y-78364408D01*
X121497035Y-78364539D01*
X121490420Y-78368790D01*
X120784923Y-79074287D01*
X120778493Y-79086062D01*
X111759988Y-79086062D01*
X111875328Y-79003792D01*
X111883200Y-78997139D01*
X112034052Y-78846812D01*
X112040730Y-78838965D01*
X112165003Y-78666020D01*
X112170313Y-78657183D01*
X112183278Y-78630950D01*
X115778493Y-78630950D01*
X115787789Y-78642965D01*
X115838994Y-78678819D01*
X115848489Y-78684302D01*
X116045947Y-78776378D01*
X116056239Y-78780124D01*
X116266688Y-78836513D01*
X116277481Y-78838416D01*
X116494525Y-78857405D01*
X116505475Y-78857405D01*
X116722519Y-78838416D01*
X116733312Y-78836513D01*
X116943761Y-78780124D01*
X116954053Y-78776378D01*
X117151511Y-78684302D01*
X117161006Y-78678819D01*
X117213048Y-78642379D01*
X117221424Y-78631900D01*
X117214356Y-78618454D01*
X116512812Y-77916910D01*
X116498868Y-77909296D01*
X116497035Y-77909427D01*
X116490420Y-77913678D01*
X115784923Y-78619175D01*
X115778493Y-78630950D01*
X112183278Y-78630950D01*
X112264670Y-78466267D01*
X112268469Y-78456672D01*
X112330377Y-78252910D01*
X112332555Y-78242837D01*
X112333986Y-78231962D01*
X112331775Y-78217778D01*
X112318617Y-78214000D01*
X109683225Y-78214000D01*
X109669694Y-78217973D01*
X109668257Y-78227966D01*
X109698565Y-78362446D01*
X109701645Y-78372275D01*
X109781770Y-78569603D01*
X109786413Y-78578794D01*
X109897694Y-78760388D01*
X109903777Y-78768699D01*
X110043213Y-78929667D01*
X110050580Y-78936883D01*
X110214434Y-79072916D01*
X110222881Y-79078831D01*
X110291969Y-79119203D01*
X110340693Y-79170842D01*
X110353764Y-79240625D01*
X110327033Y-79306396D01*
X110286584Y-79339752D01*
X110273607Y-79346507D01*
X110269474Y-79349610D01*
X110269471Y-79349612D01*
X110191972Y-79407800D01*
X110094965Y-79480635D01*
X109940629Y-79642138D01*
X109814743Y-79826680D01*
X109720688Y-80029305D01*
X109660989Y-80244570D01*
X109637251Y-80466695D01*
X109637548Y-80471848D01*
X109637548Y-80471851D01*
X109643011Y-80566590D01*
X109650110Y-80689715D01*
X109651247Y-80694761D01*
X109651248Y-80694767D01*
X109660263Y-80734767D01*
X109699222Y-80907639D01*
X109783266Y-81114616D01*
X109899987Y-81305088D01*
X110046250Y-81473938D01*
X110218126Y-81616632D01*
X110280922Y-81653327D01*
X110291445Y-81659476D01*
X110340169Y-81711114D01*
X110353240Y-81780897D01*
X110326509Y-81846669D01*
X110286055Y-81880027D01*
X110273607Y-81886507D01*
X110269474Y-81889610D01*
X110269471Y-81889612D01*
X110191972Y-81947800D01*
X110094965Y-82020635D01*
X109940629Y-82182138D01*
X109814743Y-82366680D01*
X109720688Y-82569305D01*
X109660989Y-82784570D01*
X109637251Y-83006695D01*
X109637548Y-83011848D01*
X109637548Y-83011851D01*
X109643011Y-83106590D01*
X109650110Y-83229715D01*
X109651247Y-83234761D01*
X109651248Y-83234767D01*
X109683453Y-83377668D01*
X109678917Y-83448520D01*
X109649631Y-83494464D01*
X108712747Y-84431348D01*
X108704461Y-84438888D01*
X108697982Y-84443000D01*
X108692557Y-84448777D01*
X108651357Y-84492651D01*
X108648602Y-84495493D01*
X108628865Y-84515230D01*
X108626385Y-84518427D01*
X108618682Y-84527447D01*
X108588414Y-84559679D01*
X108584595Y-84566625D01*
X108584593Y-84566628D01*
X108578652Y-84577434D01*
X108567801Y-84593953D01*
X108555386Y-84609959D01*
X108552241Y-84617228D01*
X108552238Y-84617232D01*
X108537826Y-84650537D01*
X108532609Y-84661187D01*
X108511305Y-84699940D01*
X108509334Y-84707615D01*
X108509334Y-84707616D01*
X108506267Y-84719562D01*
X108499863Y-84738266D01*
X108491819Y-84756855D01*
X108490580Y-84764678D01*
X108490577Y-84764688D01*
X108484901Y-84800524D01*
X108482495Y-84812144D01*
X108471500Y-84854970D01*
X108471500Y-84875224D01*
X108469949Y-84894934D01*
X108466780Y-84914943D01*
X105508500Y-84914943D01*
X105508500Y-76318134D01*
X109641500Y-76318134D01*
X109648255Y-76380316D01*
X109699385Y-76516705D01*
X109786739Y-76633261D01*
X109903295Y-76720615D01*
X109911704Y-76723767D01*
X109911705Y-76723768D01*
X110020960Y-76764726D01*
X110077725Y-76807367D01*
X110102425Y-76873929D01*
X110087218Y-76943278D01*
X110067825Y-76969759D01*
X109944590Y-77098717D01*
X109938104Y-77106727D01*
X109818098Y-77282649D01*
X109813000Y-77291623D01*
X109723338Y-77484783D01*
X109719775Y-77494470D01*
X109664389Y-77694183D01*
X109665912Y-77702607D01*
X109678292Y-77706000D01*
X112318344Y-77706000D01*
X112331875Y-77702027D01*
X112333180Y-77692947D01*
X112297365Y-77550363D01*
X115187483Y-77550363D01*
X115206472Y-77767407D01*
X115208375Y-77778200D01*
X115264764Y-77988649D01*
X115268510Y-77998941D01*
X115360586Y-78196399D01*
X115366069Y-78205894D01*
X115402509Y-78257936D01*
X115412988Y-78266312D01*
X115426434Y-78259244D01*
X116410905Y-77274773D01*
X116473217Y-77240747D01*
X116544032Y-77245812D01*
X116589095Y-77274773D01*
X117574287Y-78259965D01*
X117586062Y-78266395D01*
X117598077Y-78257099D01*
X117633931Y-78205894D01*
X117639414Y-78196399D01*
X117728443Y-78005475D01*
X120187483Y-78005475D01*
X120206472Y-78222519D01*
X120208375Y-78233312D01*
X120264764Y-78443761D01*
X120268510Y-78454053D01*
X120360586Y-78651511D01*
X120366069Y-78661006D01*
X120402509Y-78713048D01*
X120412988Y-78721424D01*
X120426434Y-78714356D01*
X121127978Y-78012812D01*
X121134356Y-78001132D01*
X121864408Y-78001132D01*
X121864539Y-78002965D01*
X121868790Y-78009580D01*
X122574287Y-78715077D01*
X122586062Y-78721507D01*
X122598077Y-78712211D01*
X122633931Y-78661006D01*
X122639414Y-78651511D01*
X122731490Y-78454053D01*
X122735236Y-78443761D01*
X122791625Y-78233312D01*
X122793528Y-78222519D01*
X122812517Y-78005475D01*
X122812517Y-77994525D01*
X122793528Y-77777481D01*
X122791625Y-77766688D01*
X122735236Y-77556239D01*
X122731490Y-77545947D01*
X122639414Y-77348489D01*
X122633931Y-77338994D01*
X122597491Y-77286952D01*
X122587012Y-77278576D01*
X122573566Y-77285644D01*
X121872022Y-77987188D01*
X121864408Y-78001132D01*
X121134356Y-78001132D01*
X121135592Y-77998868D01*
X121135461Y-77997035D01*
X121131210Y-77990420D01*
X120425713Y-77284923D01*
X120413938Y-77278493D01*
X120401923Y-77287789D01*
X120366069Y-77338994D01*
X120360586Y-77348489D01*
X120268510Y-77545947D01*
X120264764Y-77556239D01*
X120208375Y-77766688D01*
X120206472Y-77777481D01*
X120187483Y-77994525D01*
X120187483Y-78005475D01*
X117728443Y-78005475D01*
X117731490Y-77998941D01*
X117735236Y-77988649D01*
X117791625Y-77778200D01*
X117793528Y-77767407D01*
X117812517Y-77550363D01*
X117812517Y-77539413D01*
X117793528Y-77322369D01*
X117791625Y-77311576D01*
X117735236Y-77101127D01*
X117731490Y-77090835D01*
X117639414Y-76893377D01*
X117633929Y-76883877D01*
X117633299Y-76882978D01*
X117633144Y-76882518D01*
X117631182Y-76879120D01*
X117631865Y-76878726D01*
X117610612Y-76815704D01*
X117627898Y-76746844D01*
X117650934Y-76721085D01*
X117649730Y-76719881D01*
X117656081Y-76713530D01*
X117663261Y-76708149D01*
X117668642Y-76700969D01*
X117668645Y-76700966D01*
X117718556Y-76634369D01*
X117750615Y-76591593D01*
X117801745Y-76455204D01*
X117808500Y-76393022D01*
X117808500Y-75500000D01*
X120186502Y-75500000D01*
X120206457Y-75728087D01*
X120265716Y-75949243D01*
X120268039Y-75954224D01*
X120268039Y-75954225D01*
X120360151Y-76151762D01*
X120360154Y-76151767D01*
X120362477Y-76156749D01*
X120365634Y-76161257D01*
X120473088Y-76314717D01*
X120493802Y-76344300D01*
X120655700Y-76506198D01*
X120660208Y-76509355D01*
X120660211Y-76509357D01*
X120680968Y-76523891D01*
X120843251Y-76637523D01*
X120848235Y-76639847D01*
X120850528Y-76641171D01*
X120899521Y-76692553D01*
X120912957Y-76762267D01*
X120886571Y-76828178D01*
X120850528Y-76859409D01*
X120838998Y-76866066D01*
X120786952Y-76902509D01*
X120778576Y-76912988D01*
X120785644Y-76926434D01*
X121487188Y-77627978D01*
X121501132Y-77635592D01*
X121502965Y-77635461D01*
X121509580Y-77631210D01*
X122215077Y-76925713D01*
X122221507Y-76913938D01*
X122212211Y-76901923D01*
X122161002Y-76866066D01*
X122149472Y-76859409D01*
X122100479Y-76808027D01*
X122087042Y-76738313D01*
X122113429Y-76672402D01*
X122149472Y-76641171D01*
X122151765Y-76639847D01*
X122156749Y-76637523D01*
X122319032Y-76523891D01*
X122339789Y-76509357D01*
X122339792Y-76509355D01*
X122344300Y-76506198D01*
X122492364Y-76358134D01*
X168141500Y-76358134D01*
X168148255Y-76420316D01*
X168199385Y-76556705D01*
X168286739Y-76673261D01*
X168403295Y-76760615D01*
X168411704Y-76763767D01*
X168411705Y-76763768D01*
X168520960Y-76804726D01*
X168577725Y-76847367D01*
X168602425Y-76913929D01*
X168587218Y-76983278D01*
X168567825Y-77009759D01*
X168444590Y-77138717D01*
X168438104Y-77146727D01*
X168318098Y-77322649D01*
X168313000Y-77331623D01*
X168223338Y-77524783D01*
X168219775Y-77534470D01*
X168164389Y-77734183D01*
X168165912Y-77742607D01*
X168178292Y-77746000D01*
X170818344Y-77746000D01*
X170831875Y-77742027D01*
X170833180Y-77732947D01*
X170791214Y-77565875D01*
X170787894Y-77556124D01*
X170702972Y-77360814D01*
X170698105Y-77351739D01*
X170582426Y-77172926D01*
X170576136Y-77164757D01*
X170432293Y-77006677D01*
X170401241Y-76942831D01*
X170409635Y-76872333D01*
X170454812Y-76817564D01*
X170481256Y-76803895D01*
X170588297Y-76763767D01*
X170596705Y-76760615D01*
X170713261Y-76673261D01*
X170800615Y-76556705D01*
X170851745Y-76420316D01*
X170858500Y-76358134D01*
X170858500Y-74561866D01*
X170851745Y-74499684D01*
X170800615Y-74363295D01*
X170713261Y-74246739D01*
X170596705Y-74159385D01*
X170460316Y-74108255D01*
X170398134Y-74101500D01*
X168601866Y-74101500D01*
X168539684Y-74108255D01*
X168403295Y-74159385D01*
X168286739Y-74246739D01*
X168199385Y-74363295D01*
X168148255Y-74499684D01*
X168141500Y-74561866D01*
X168141500Y-76358134D01*
X122492364Y-76358134D01*
X122506198Y-76344300D01*
X122526913Y-76314717D01*
X122634366Y-76161257D01*
X122637523Y-76156749D01*
X122639846Y-76151767D01*
X122639849Y-76151762D01*
X122731961Y-75954225D01*
X122731961Y-75954224D01*
X122734284Y-75949243D01*
X122793543Y-75728087D01*
X122813498Y-75500000D01*
X122793543Y-75271913D01*
X122734284Y-75050757D01*
X122731961Y-75045775D01*
X122639849Y-74848238D01*
X122639846Y-74848233D01*
X122637523Y-74843251D01*
X122537337Y-74700171D01*
X122509357Y-74660211D01*
X122509355Y-74660208D01*
X122506198Y-74655700D01*
X122344300Y-74493802D01*
X122339792Y-74490645D01*
X122339789Y-74490643D01*
X122194352Y-74388807D01*
X122156749Y-74362477D01*
X122151767Y-74360154D01*
X122151762Y-74360151D01*
X121954225Y-74268039D01*
X121954224Y-74268039D01*
X121949243Y-74265716D01*
X121943935Y-74264294D01*
X121943933Y-74264293D01*
X121733402Y-74207881D01*
X121733400Y-74207881D01*
X121728087Y-74206457D01*
X121500000Y-74186502D01*
X121271913Y-74206457D01*
X121266600Y-74207881D01*
X121266598Y-74207881D01*
X121056067Y-74264293D01*
X121056065Y-74264294D01*
X121050757Y-74265716D01*
X121045776Y-74268039D01*
X121045775Y-74268039D01*
X120848238Y-74360151D01*
X120848233Y-74360154D01*
X120843251Y-74362477D01*
X120805648Y-74388807D01*
X120660211Y-74490643D01*
X120660208Y-74490645D01*
X120655700Y-74493802D01*
X120493802Y-74655700D01*
X120490645Y-74660208D01*
X120490643Y-74660211D01*
X120462663Y-74700171D01*
X120362477Y-74843251D01*
X120360154Y-74848233D01*
X120360151Y-74848238D01*
X120268039Y-75045775D01*
X120265716Y-75050757D01*
X120206457Y-75271913D01*
X120186502Y-75500000D01*
X117808500Y-75500000D01*
X117808500Y-74696754D01*
X117801745Y-74634572D01*
X117750615Y-74498183D01*
X117663261Y-74381627D01*
X117546705Y-74294273D01*
X117410316Y-74243143D01*
X117348134Y-74236388D01*
X115651866Y-74236388D01*
X115589684Y-74243143D01*
X115453295Y-74294273D01*
X115336739Y-74381627D01*
X115249385Y-74498183D01*
X115198255Y-74634572D01*
X115191500Y-74696754D01*
X115191500Y-76393022D01*
X115198255Y-76455204D01*
X115249385Y-76591593D01*
X115281444Y-76634369D01*
X115331355Y-76700966D01*
X115331358Y-76700969D01*
X115336739Y-76708149D01*
X115343919Y-76713530D01*
X115350270Y-76719881D01*
X115348128Y-76722023D01*
X115381564Y-76766734D01*
X115386594Y-76837552D01*
X115368477Y-76878923D01*
X115368818Y-76879120D01*
X115367048Y-76882186D01*
X115366701Y-76882978D01*
X115366071Y-76883877D01*
X115360586Y-76893377D01*
X115268510Y-77090835D01*
X115264764Y-77101127D01*
X115208375Y-77311576D01*
X115206472Y-77322369D01*
X115187483Y-77539413D01*
X115187483Y-77550363D01*
X112297365Y-77550363D01*
X112291214Y-77525875D01*
X112287894Y-77516124D01*
X112202972Y-77320814D01*
X112198105Y-77311739D01*
X112082426Y-77132926D01*
X112076136Y-77124757D01*
X111932293Y-76966677D01*
X111901241Y-76902831D01*
X111909635Y-76832333D01*
X111954812Y-76777564D01*
X111981256Y-76763895D01*
X112088297Y-76723767D01*
X112096705Y-76720615D01*
X112213261Y-76633261D01*
X112300615Y-76516705D01*
X112351745Y-76380316D01*
X112358500Y-76318134D01*
X112358500Y-74521866D01*
X112351745Y-74459684D01*
X112300615Y-74323295D01*
X112213261Y-74206739D01*
X112096705Y-74119385D01*
X111960316Y-74068255D01*
X111898134Y-74061500D01*
X110101866Y-74061500D01*
X110039684Y-74068255D01*
X109903295Y-74119385D01*
X109786739Y-74206739D01*
X109699385Y-74323295D01*
X109648255Y-74459684D01*
X109641500Y-74521866D01*
X109641500Y-76318134D01*
X105508500Y-76318134D01*
X105508500Y-72899946D01*
X105528502Y-72831825D01*
X105582158Y-72785332D01*
X105652432Y-72775228D01*
X105717012Y-72804722D01*
X105741933Y-72834110D01*
X105775824Y-72889416D01*
X105930031Y-73069969D01*
X106110584Y-73224176D01*
X106114792Y-73226755D01*
X106114798Y-73226759D01*
X106308817Y-73345654D01*
X106313037Y-73348240D01*
X106317607Y-73350133D01*
X106317611Y-73350135D01*
X106527833Y-73437211D01*
X106532406Y-73439105D01*
X106612609Y-73458360D01*
X106758476Y-73493380D01*
X106758482Y-73493381D01*
X106763289Y-73494535D01*
X107000000Y-73513165D01*
X107236711Y-73494535D01*
X107241518Y-73493381D01*
X107241524Y-73493380D01*
X107387391Y-73458360D01*
X107467594Y-73439105D01*
X107472167Y-73437211D01*
X107682389Y-73350135D01*
X107682393Y-73350133D01*
X107686963Y-73348240D01*
X107691183Y-73345654D01*
X107885202Y-73226759D01*
X107885208Y-73226755D01*
X107889416Y-73224176D01*
X108069969Y-73069969D01*
X108224176Y-72889416D01*
X108226755Y-72885208D01*
X108226759Y-72885202D01*
X108345654Y-72691183D01*
X108348240Y-72686963D01*
X108439105Y-72467594D01*
X108463399Y-72366401D01*
X108493380Y-72241524D01*
X108493381Y-72241518D01*
X108494535Y-72236711D01*
X108513165Y-72000000D01*
X108494535Y-71763289D01*
X108486581Y-71730155D01*
X108440260Y-71537218D01*
X108439105Y-71532406D01*
X108348240Y-71313037D01*
X108345654Y-71308817D01*
X108226759Y-71114798D01*
X108226755Y-71114792D01*
X108224176Y-71110584D01*
X108069969Y-70930031D01*
X107889416Y-70775824D01*
X107834111Y-70741933D01*
X107786480Y-70689285D01*
X107774873Y-70619244D01*
X107802976Y-70554046D01*
X107861867Y-70514392D01*
X107899946Y-70508500D01*
X172100054Y-70508500D01*
X172168175Y-70528502D01*
G37*
%TD.AperFunction*%
%TD*%
M02*
