%TF.GenerationSoftware,KiCad,Pcbnew,(6.0.9)*%
%TF.CreationDate,2022-12-23T11:45:30+05:30*%
%TF.ProjectId,IN-14 Panel,494e2d31-3420-4506-916e-656c2e6b6963,1.0*%
%TF.SameCoordinates,Original*%
%TF.FileFunction,Copper,L1,Top*%
%TF.FilePolarity,Positive*%
%FSLAX46Y46*%
G04 Gerber Fmt 4.6, Leading zero omitted, Abs format (unit mm)*
G04 Created by KiCad (PCBNEW (6.0.9)) date 2022-12-23 11:45:30*
%MOMM*%
%LPD*%
G01*
G04 APERTURE LIST*
%ADD10C,0.300000*%
%TA.AperFunction,NonConductor*%
%ADD11C,0.300000*%
%TD*%
%TA.AperFunction,ComponentPad*%
%ADD12C,1.600000*%
%TD*%
%TA.AperFunction,ComponentPad*%
%ADD13O,1.600000X1.600000*%
%TD*%
%TA.AperFunction,ComponentPad*%
%ADD14R,1.700000X1.700000*%
%TD*%
%TA.AperFunction,ComponentPad*%
%ADD15O,1.700000X1.700000*%
%TD*%
%TA.AperFunction,ComponentPad*%
%ADD16R,1.600000X1.600000*%
%TD*%
%TA.AperFunction,ComponentPad*%
%ADD17R,1.500000X1.050000*%
%TD*%
%TA.AperFunction,ComponentPad*%
%ADD18O,1.500000X1.050000*%
%TD*%
%TA.AperFunction,ComponentPad*%
%ADD19R,2.000000X2.000000*%
%TD*%
%TA.AperFunction,ComponentPad*%
%ADD20C,2.000000*%
%TD*%
%TA.AperFunction,ComponentPad*%
%ADD21C,1.107440*%
%TD*%
%TA.AperFunction,ComponentPad*%
%ADD22C,1.346200*%
%TD*%
%TA.AperFunction,ViaPad*%
%ADD23C,0.800000*%
%TD*%
%TA.AperFunction,Conductor*%
%ADD24C,0.250000*%
%TD*%
G04 APERTURE END LIST*
D10*
D11*
X165357142Y-132471071D02*
X165357142Y-130971071D01*
X166071428Y-132471071D02*
X166071428Y-130971071D01*
X166928571Y-132471071D01*
X166928571Y-130971071D01*
X167642857Y-131899642D02*
X168785714Y-131899642D01*
X170285714Y-132471071D02*
X169428571Y-132471071D01*
X169857142Y-132471071D02*
X169857142Y-130971071D01*
X169714285Y-131185357D01*
X169571428Y-131328214D01*
X169428571Y-131399642D01*
X171571428Y-131471071D02*
X171571428Y-132471071D01*
X171214285Y-130899642D02*
X170857142Y-131971071D01*
X171785714Y-131971071D01*
X166357142Y-133886071D02*
X166714285Y-134886071D01*
X167071428Y-133886071D01*
X168428571Y-134886071D02*
X167571428Y-134886071D01*
X168000000Y-134886071D02*
X168000000Y-133386071D01*
X167857142Y-133600357D01*
X167714285Y-133743214D01*
X167571428Y-133814642D01*
X169071428Y-134743214D02*
X169142857Y-134814642D01*
X169071428Y-134886071D01*
X169000000Y-134814642D01*
X169071428Y-134743214D01*
X169071428Y-134886071D01*
X170071428Y-133386071D02*
X170214285Y-133386071D01*
X170357142Y-133457500D01*
X170428571Y-133528928D01*
X170500000Y-133671785D01*
X170571428Y-133957500D01*
X170571428Y-134314642D01*
X170500000Y-134600357D01*
X170428571Y-134743214D01*
X170357142Y-134814642D01*
X170214285Y-134886071D01*
X170071428Y-134886071D01*
X169928571Y-134814642D01*
X169857142Y-134743214D01*
X169785714Y-134600357D01*
X169714285Y-134314642D01*
X169714285Y-133957500D01*
X169785714Y-133671785D01*
X169857142Y-133528928D01*
X169928571Y-133457500D01*
X170071428Y-133386071D01*
D12*
%TO.P,R4,1*%
%TO.N,Net-(N2-PadA)*%
X163000000Y-112810000D03*
D13*
%TO.P,R4,2*%
%TO.N,+180V*%
X163000000Y-105190000D03*
%TD*%
D14*
%TO.P,J2,1,Pin_1*%
%TO.N,+180V*%
X111000000Y-93725000D03*
D15*
%TO.P,J2,2,Pin_2*%
%TO.N,GND1*%
X111000000Y-96265000D03*
%TD*%
D16*
%TO.P,U1,1,QB*%
%TO.N,/QB*%
X118300000Y-134875000D03*
D13*
%TO.P,U1,2,QC*%
%TO.N,/QC*%
X118300000Y-132335000D03*
%TO.P,U1,3,QD*%
%TO.N,/QD*%
X118300000Y-129795000D03*
%TO.P,U1,4,QE*%
%TO.N,/QE*%
X118300000Y-127255000D03*
%TO.P,U1,5,QF*%
%TO.N,/QF*%
X118300000Y-124715000D03*
%TO.P,U1,6,QG*%
%TO.N,/QG*%
X118300000Y-122175000D03*
%TO.P,U1,7,QH*%
%TO.N,/QH*%
X118300000Y-119635000D03*
%TO.P,U1,8,GND*%
%TO.N,GND*%
X118300000Y-117095000D03*
%TO.P,U1,9,QH'*%
%TO.N,/SEROUT*%
X110680000Y-117095000D03*
%TO.P,U1,10,~{SRCLR}*%
%TO.N,VCC*%
X110680000Y-119635000D03*
%TO.P,U1,11,SRCLK*%
%TO.N,/SRCLK*%
X110680000Y-122175000D03*
%TO.P,U1,12,RCLK*%
%TO.N,/RCLK*%
X110680000Y-124715000D03*
%TO.P,U1,13,~{OE}*%
%TO.N,GND*%
X110680000Y-127255000D03*
%TO.P,U1,14,SER*%
%TO.N,/SERIN*%
X110680000Y-129795000D03*
%TO.P,U1,15,QA*%
%TO.N,/QA*%
X110680000Y-132335000D03*
%TO.P,U1,16,VCC*%
%TO.N,VCC*%
X110680000Y-134875000D03*
%TD*%
D17*
%TO.P,Q1,1,E*%
%TO.N,GND1*%
X163640000Y-93730000D03*
D18*
%TO.P,Q1,2,B*%
%TO.N,Net-(Q1-Pad2)*%
X163640000Y-95000000D03*
%TO.P,Q1,3,C*%
%TO.N,Net-(N3-PadK)*%
X163640000Y-96270000D03*
%TD*%
D19*
%TO.P,C1,1*%
%TO.N,+180V*%
X120000000Y-86632323D03*
D20*
%TO.P,C1,2*%
%TO.N,GND1*%
X120000000Y-91632323D03*
%TD*%
D14*
%TO.P,J3,1,Pin_1*%
%TO.N,VCC*%
X169500000Y-75460000D03*
D15*
%TO.P,J3,2,Pin_2*%
%TO.N,GND*%
X169500000Y-78000000D03*
%TO.P,J3,3,Pin_3*%
%TO.N,/NBLB{slash}INS1{slash}IN3*%
X169500000Y-80540000D03*
%TO.P,J3,4,Pin_4*%
%TO.N,/RCLK*%
X169500000Y-83080000D03*
%TO.P,J3,5,Pin_5*%
%TO.N,/SRCLK*%
X169500000Y-85620000D03*
%TO.P,J3,6,Pin_6*%
%TO.N,/SEROUT*%
X169500000Y-88160000D03*
%TD*%
D12*
%TO.P,C2,1*%
%TO.N,GND*%
X121500000Y-78000000D03*
%TO.P,C2,2*%
%TO.N,VCC*%
X121500000Y-75500000D03*
%TD*%
%TO.P,R1,1*%
%TO.N,/NBLB{slash}INS1{slash}IN3*%
X159500000Y-89190000D03*
D13*
%TO.P,R1,2*%
%TO.N,Net-(Q1-Pad2)*%
X159500000Y-96810000D03*
%TD*%
D12*
%TO.P,R2,1*%
%TO.N,+180V*%
X156500000Y-89190000D03*
D13*
%TO.P,R2,2*%
%TO.N,Net-(N3-PadA)*%
X156500000Y-96810000D03*
%TD*%
D14*
%TO.P,J4,1,Pin_1*%
%TO.N,VCC*%
X111000000Y-75420000D03*
D15*
%TO.P,J4,2,Pin_2*%
%TO.N,GND*%
X111000000Y-77960000D03*
%TO.P,J4,3,Pin_3*%
%TO.N,/NBLB{slash}INS1{slash}IN3*%
X111000000Y-80500000D03*
%TO.P,J4,4,Pin_4*%
%TO.N,/RCLK*%
X111000000Y-83040000D03*
%TO.P,J4,5,Pin_5*%
%TO.N,/SRCLK*%
X111000000Y-85580000D03*
%TO.P,J4,6,Pin_6*%
%TO.N,/SERIN*%
X111000000Y-88120000D03*
%TD*%
D14*
%TO.P,J1,1,Pin_1*%
%TO.N,+180V*%
X169500000Y-93725000D03*
D15*
%TO.P,J1,2,Pin_2*%
%TO.N,GND1*%
X169500000Y-96265000D03*
%TD*%
D12*
%TO.P,R3,1*%
%TO.N,Net-(N1-PadA)*%
X111000000Y-112810000D03*
D13*
%TO.P,R3,2*%
%TO.N,+180V*%
X111000000Y-105190000D03*
%TD*%
D16*
%TO.P,C3,1*%
%TO.N,VCC*%
X116500000Y-75544888D03*
D12*
%TO.P,C3,2*%
%TO.N,GND*%
X116500000Y-77544888D03*
%TD*%
D16*
%TO.P,M2,1,8*%
%TO.N,Net-(M2-Pad1)*%
X149500000Y-124300000D03*
D13*
%TO.P,M2,2,9*%
%TO.N,Net-(M2-Pad2)*%
X152040000Y-124300000D03*
%TO.P,M2,3,A*%
%TO.N,/QA*%
X154580000Y-124300000D03*
%TO.P,M2,4,D*%
%TO.N,/QD*%
X157120000Y-124300000D03*
%TO.P,M2,5,VCC*%
%TO.N,VCC*%
X159660000Y-124300000D03*
%TO.P,M2,6,B*%
%TO.N,/QB*%
X162200000Y-124300000D03*
%TO.P,M2,7,C*%
%TO.N,/QC*%
X164740000Y-124300000D03*
%TO.P,M2,8,2*%
%TO.N,Net-(M2-Pad8)*%
X167280000Y-124300000D03*
%TO.P,M2,9,3*%
%TO.N,Net-(M2-Pad9)*%
X167280000Y-116680000D03*
%TO.P,M2,10,7*%
%TO.N,Net-(M2-Pad10)*%
X164740000Y-116680000D03*
%TO.P,M2,11,6*%
%TO.N,Net-(M2-Pad11)*%
X162200000Y-116680000D03*
%TO.P,M2,12,GND*%
%TO.N,GND1*%
X159660000Y-116680000D03*
%TO.P,M2,13,4*%
%TO.N,Net-(M2-Pad13)*%
X157120000Y-116680000D03*
%TO.P,M2,14,5*%
%TO.N,Net-(M2-Pad14)*%
X154580000Y-116680000D03*
%TO.P,M2,15,1*%
%TO.N,Net-(M2-Pad15)*%
X152040000Y-116680000D03*
%TO.P,M2,16,0*%
%TO.N,Net-(M2-Pad16)*%
X149500000Y-116680000D03*
%TD*%
D16*
%TO.P,M1,1,8*%
%TO.N,Net-(M1-Pad1)*%
X123625000Y-124300000D03*
D13*
%TO.P,M1,2,9*%
%TO.N,Net-(M1-Pad2)*%
X126165000Y-124300000D03*
%TO.P,M1,3,A*%
%TO.N,/QE*%
X128705000Y-124300000D03*
%TO.P,M1,4,D*%
%TO.N,/QH*%
X131245000Y-124300000D03*
%TO.P,M1,5,VCC*%
%TO.N,VCC*%
X133785000Y-124300000D03*
%TO.P,M1,6,B*%
%TO.N,/QF*%
X136325000Y-124300000D03*
%TO.P,M1,7,C*%
%TO.N,/QG*%
X138865000Y-124300000D03*
%TO.P,M1,8,2*%
%TO.N,Net-(M1-Pad8)*%
X141405000Y-124300000D03*
%TO.P,M1,9,3*%
%TO.N,Net-(M1-Pad9)*%
X141405000Y-116680000D03*
%TO.P,M1,10,7*%
%TO.N,Net-(M1-Pad10)*%
X138865000Y-116680000D03*
%TO.P,M1,11,6*%
%TO.N,Net-(M1-Pad11)*%
X136325000Y-116680000D03*
%TO.P,M1,12,GND*%
%TO.N,GND1*%
X133785000Y-116680000D03*
%TO.P,M1,13,4*%
%TO.N,Net-(M1-Pad13)*%
X131245000Y-116680000D03*
%TO.P,M1,14,5*%
%TO.N,Net-(M1-Pad14)*%
X128705000Y-116680000D03*
%TO.P,M1,15,1*%
%TO.N,Net-(M1-Pad15)*%
X126165000Y-116680000D03*
%TO.P,M1,16,0*%
%TO.N,Net-(M1-Pad16)*%
X123625000Y-116680000D03*
%TD*%
D21*
%TO.P,N3,A,A*%
%TO.N,Net-(N3-PadA)*%
X171587500Y-105000000D03*
%TO.P,N3,K,K*%
%TO.N,Net-(N3-PadK)*%
X168412500Y-105000000D03*
%TD*%
D22*
%TO.P,N1,0,0*%
%TO.N,Net-(M1-Pad16)*%
X116907300Y-108515360D03*
%TO.P,N1,1,1*%
%TO.N,Net-(M1-Pad15)*%
X127092700Y-108515360D03*
%TO.P,N1,2,2*%
%TO.N,Net-(M1-Pad8)*%
X128144260Y-105744220D03*
%TO.P,N1,3,3*%
%TO.N,Net-(M1-Pad9)*%
X127786120Y-102805440D03*
%TO.P,N1,4,4*%
%TO.N,Net-(M1-Pad13)*%
X126104640Y-100367040D03*
%TO.P,N1,5,5*%
%TO.N,Net-(M1-Pad14)*%
X123480820Y-98990360D03*
%TO.P,N1,6,6*%
%TO.N,Net-(M1-Pad11)*%
X120519180Y-98990360D03*
%TO.P,N1,7,7*%
%TO.N,Net-(M1-Pad10)*%
X117895360Y-100367040D03*
%TO.P,N1,8,8*%
%TO.N,Net-(M1-Pad1)*%
X116213880Y-102805440D03*
%TO.P,N1,9,9*%
%TO.N,Net-(M1-Pad2)*%
X115855740Y-105744220D03*
%TO.P,N1,A,A*%
%TO.N,Net-(N1-PadA)*%
X122000000Y-111187440D03*
%TO.P,N1,LHDP,LHDP*%
%TO.N,unconnected-(N1-PadLHDP)*%
X119124720Y-110478780D03*
%TO.P,N1,RHDP,RHDP*%
%TO.N,unconnected-(N1-PadRHDP)*%
X124875280Y-110478780D03*
%TD*%
%TO.P,N2,0,0*%
%TO.N,Net-(M2-Pad16)*%
X142907300Y-108515360D03*
%TO.P,N2,1,1*%
%TO.N,Net-(M2-Pad15)*%
X153092700Y-108515360D03*
%TO.P,N2,2,2*%
%TO.N,Net-(M2-Pad8)*%
X154144260Y-105744220D03*
%TO.P,N2,3,3*%
%TO.N,Net-(M2-Pad9)*%
X153786120Y-102805440D03*
%TO.P,N2,4,4*%
%TO.N,Net-(M2-Pad13)*%
X152104640Y-100367040D03*
%TO.P,N2,5,5*%
%TO.N,Net-(M2-Pad14)*%
X149480820Y-98990360D03*
%TO.P,N2,6,6*%
%TO.N,Net-(M2-Pad11)*%
X146519180Y-98990360D03*
%TO.P,N2,7,7*%
%TO.N,Net-(M2-Pad10)*%
X143895360Y-100367040D03*
%TO.P,N2,8,8*%
%TO.N,Net-(M2-Pad1)*%
X142213880Y-102805440D03*
%TO.P,N2,9,9*%
%TO.N,Net-(M2-Pad2)*%
X141855740Y-105744220D03*
%TO.P,N2,A,A*%
%TO.N,Net-(N2-PadA)*%
X148000000Y-111187440D03*
%TO.P,N2,LHDP,LHDP*%
%TO.N,unconnected-(N2-PadLHDP)*%
X145124720Y-110478780D03*
%TO.P,N2,RHDP,RHDP*%
%TO.N,unconnected-(N2-PadRHDP)*%
X150875280Y-110478780D03*
%TD*%
D23*
%TO.N,/SEROUT*%
X173674500Y-88000000D03*
%TD*%
D24*
%TO.N,+180V*%
X153942323Y-86632323D02*
X156500000Y-89190000D01*
X120000000Y-86632323D02*
X153942323Y-86632323D01*
X111000000Y-93725000D02*
X112907323Y-93725000D01*
X168655000Y-92880000D02*
X169500000Y-93725000D01*
X156500000Y-89190000D02*
X160190000Y-92880000D01*
X112907323Y-93725000D02*
X120000000Y-86632323D01*
X160190000Y-92880000D02*
X168655000Y-92880000D01*
%TO.N,GND1*%
X158535000Y-115555000D02*
X134910000Y-115555000D01*
X120000000Y-91632323D02*
X122097677Y-93730000D01*
X172500000Y-113050991D02*
X167745991Y-117805000D01*
X134910000Y-115555000D02*
X133785000Y-116680000D01*
X122097677Y-93730000D02*
X163640000Y-93730000D01*
X111000000Y-96265000D02*
X115367323Y-96265000D01*
X115367323Y-96265000D02*
X120000000Y-91632323D01*
X167745991Y-117805000D02*
X160785000Y-117805000D01*
X160785000Y-117805000D02*
X159660000Y-116680000D01*
X159660000Y-116680000D02*
X158535000Y-115555000D01*
X163640000Y-93730000D02*
X166965000Y-93730000D01*
X169500000Y-96265000D02*
X172500000Y-99265000D01*
X172500000Y-99265000D02*
X172500000Y-113050991D01*
X166965000Y-93730000D02*
X169500000Y-96265000D01*
%TO.N,VCC*%
X168325000Y-78486701D02*
X169203299Y-79365000D01*
X160860000Y-125500000D02*
X159660000Y-124300000D01*
X111000000Y-75420000D02*
X109105000Y-77315000D01*
X169203299Y-79365000D02*
X169986701Y-79365000D01*
X169986701Y-79365000D02*
X172950000Y-82328299D01*
X169460000Y-75420000D02*
X169500000Y-75460000D01*
X111805000Y-120760000D02*
X110680000Y-119635000D01*
X134910000Y-123175000D02*
X133785000Y-124300000D01*
X168325000Y-76635000D02*
X168325000Y-78486701D01*
X159660000Y-124300000D02*
X158535000Y-123175000D01*
X111805000Y-133750000D02*
X111805000Y-120760000D01*
X169500000Y-75460000D02*
X168325000Y-76635000D01*
X109105000Y-77315000D02*
X109105000Y-133300000D01*
X109105000Y-133300000D02*
X110680000Y-134875000D01*
X172950000Y-82328299D02*
X172950000Y-120220991D01*
X111000000Y-75420000D02*
X169460000Y-75420000D01*
X172950000Y-120220991D02*
X167670991Y-125500000D01*
X110680000Y-134875000D02*
X111805000Y-133750000D01*
X158535000Y-123175000D02*
X134910000Y-123175000D01*
X167670991Y-125500000D02*
X160860000Y-125500000D01*
%TO.N,/NBLB{slash}INS1{slash}IN3*%
X169460000Y-80500000D02*
X169500000Y-80540000D01*
X171000000Y-85781701D02*
X171000000Y-82040000D01*
X161705000Y-86985000D02*
X169796701Y-86985000D01*
X171000000Y-82040000D02*
X169500000Y-80540000D01*
X169796701Y-86985000D02*
X171000000Y-85781701D01*
X159500000Y-89190000D02*
X161705000Y-86985000D01*
X111000000Y-80500000D02*
X169460000Y-80500000D01*
%TO.N,/RCLK*%
X169460000Y-83040000D02*
X169500000Y-83080000D01*
X111000000Y-83040000D02*
X169460000Y-83040000D01*
%TO.N,/SRCLK*%
X111850000Y-84730000D02*
X168610000Y-84730000D01*
X168610000Y-84730000D02*
X169500000Y-85620000D01*
X111000000Y-85580000D02*
X111850000Y-84730000D01*
%TO.N,/SEROUT*%
X112500000Y-118915000D02*
X112500000Y-137000000D01*
X110680000Y-117095000D02*
X112500000Y-118915000D01*
X157000000Y-137000000D02*
X173000000Y-121000000D01*
X173674500Y-120325500D02*
X173674500Y-88000000D01*
X173000000Y-121000000D02*
X173674500Y-120325500D01*
X112500000Y-137000000D02*
X157000000Y-137000000D01*
%TO.N,/SERIN*%
X109555000Y-89565000D02*
X109555000Y-128670000D01*
X109555000Y-128670000D02*
X110680000Y-129795000D01*
X111000000Y-88120000D02*
X109555000Y-89565000D01*
%TO.N,/QE*%
X125750000Y-127255000D02*
X128705000Y-124300000D01*
X118300000Y-127255000D02*
X125750000Y-127255000D01*
%TO.N,/QH*%
X126580000Y-119635000D02*
X131245000Y-124300000D01*
X118300000Y-119635000D02*
X126580000Y-119635000D01*
%TO.N,/QG*%
X130120000Y-124765991D02*
X130779009Y-125425000D01*
X130120000Y-124120000D02*
X130120000Y-124765991D01*
X130779009Y-125425000D02*
X137740000Y-125425000D01*
X118300000Y-122175000D02*
X128175000Y-122175000D01*
X128175000Y-122175000D02*
X130120000Y-124120000D01*
X137740000Y-125425000D02*
X138865000Y-124300000D01*
%TO.N,Net-(M1-Pad10)*%
X132500000Y-105350873D02*
X124649127Y-97500000D01*
X133319009Y-117805000D02*
X132500000Y-116985991D01*
X137740000Y-117805000D02*
X133319009Y-117805000D01*
X124649127Y-97500000D02*
X119810493Y-97500000D01*
X117895360Y-99415133D02*
X117895360Y-100367040D01*
X138865000Y-116680000D02*
X137740000Y-117805000D01*
X132500000Y-116985991D02*
X132500000Y-105350873D01*
X119810493Y-97500000D02*
X117895360Y-99415133D01*
%TO.N,Net-(M1-Pad13)*%
X131245000Y-116680000D02*
X131245000Y-110256487D01*
X126104640Y-105116127D02*
X126104640Y-100367040D01*
X131245000Y-110256487D02*
X126104640Y-105116127D01*
%TO.N,Net-(M1-Pad14)*%
X128705000Y-116680000D02*
X127580000Y-117805000D01*
X124976880Y-117226880D02*
X124976880Y-112116397D01*
X125555000Y-117805000D02*
X124976880Y-117226880D01*
X127580000Y-117805000D02*
X125555000Y-117805000D01*
X122500000Y-109639517D02*
X122500000Y-99971180D01*
X124976880Y-112116397D02*
X122500000Y-109639517D01*
X122500000Y-99971180D02*
X123480820Y-98990360D01*
%TO.N,Net-(M1-Pad15)*%
X126165000Y-109443060D02*
X127092700Y-108515360D01*
X126165000Y-116680000D02*
X126165000Y-109443060D01*
%TO.N,Net-(M1-Pad16)*%
X120739447Y-108515360D02*
X116907300Y-108515360D01*
X123625000Y-111400913D02*
X120739447Y-108515360D01*
X123625000Y-116680000D02*
X123625000Y-111400913D01*
%TO.N,/QD*%
X118300000Y-129795000D02*
X151625000Y-129795000D01*
X151625000Y-129795000D02*
X157120000Y-124300000D01*
%TO.N,Net-(M2-Pad9)*%
X167280000Y-115499009D02*
X154586431Y-102805440D01*
X154586431Y-102805440D02*
X153786120Y-102805440D01*
X167280000Y-116680000D02*
X167280000Y-115499009D01*
%TO.N,Net-(M2-Pad10)*%
X146122820Y-110721787D02*
X146122820Y-102594500D01*
X146122820Y-102594500D02*
X143895360Y-100367040D01*
X161320000Y-113260000D02*
X148661033Y-113260000D01*
X148661033Y-113260000D02*
X146122820Y-110721787D01*
X164740000Y-116680000D02*
X161320000Y-113260000D01*
%TO.N,Net-(M2-Pad11)*%
X142897260Y-100780467D02*
X142897260Y-99602740D01*
X143509640Y-98990360D02*
X146519180Y-98990360D01*
X159230000Y-113710000D02*
X146944413Y-113710000D01*
X142897260Y-99602740D02*
X143509640Y-98990360D01*
X162200000Y-116680000D02*
X159230000Y-113710000D01*
X146944413Y-113710000D02*
X144126620Y-110892207D01*
X144126620Y-102009827D02*
X142897260Y-100780467D01*
X144126620Y-110892207D02*
X144126620Y-102009827D01*
%TO.N,Net-(N1-PadA)*%
X111000000Y-112810000D02*
X120377440Y-112810000D01*
X120377440Y-112810000D02*
X122000000Y-111187440D01*
%TO.N,Net-(N2-PadA)*%
X149622560Y-112810000D02*
X163000000Y-112810000D01*
X148000000Y-111187440D02*
X149622560Y-112810000D01*
%TO.N,Net-(N3-PadK)*%
X163640000Y-100227500D02*
X168412500Y-105000000D01*
X163640000Y-96270000D02*
X163640000Y-100227500D01*
%TO.N,Net-(Q1-Pad2)*%
X161310000Y-95000000D02*
X163640000Y-95000000D01*
X159500000Y-96810000D02*
X161310000Y-95000000D01*
%TD*%
%TA.AperFunction,Conductor*%
%TO.N,GND*%
G36*
X172168175Y-70528502D02*
G01*
X172214668Y-70582158D01*
X172224772Y-70652432D01*
X172195278Y-70717012D01*
X172165890Y-70741933D01*
X172110584Y-70775824D01*
X171930031Y-70930031D01*
X171775824Y-71110584D01*
X171773245Y-71114792D01*
X171773241Y-71114798D01*
X171654346Y-71308817D01*
X171651760Y-71313037D01*
X171560895Y-71532406D01*
X171559740Y-71537218D01*
X171513420Y-71730155D01*
X171505465Y-71763289D01*
X171487308Y-71993995D01*
X171486835Y-72000000D01*
X171505465Y-72236711D01*
X171506619Y-72241518D01*
X171506620Y-72241524D01*
X171536601Y-72366401D01*
X171560895Y-72467594D01*
X171651760Y-72686963D01*
X171654346Y-72691183D01*
X171773241Y-72885202D01*
X171773245Y-72885208D01*
X171775824Y-72889416D01*
X171930031Y-73069969D01*
X172110584Y-73224176D01*
X172114792Y-73226755D01*
X172114798Y-73226759D01*
X172308817Y-73345654D01*
X172313037Y-73348240D01*
X172317607Y-73350133D01*
X172317611Y-73350135D01*
X172527833Y-73437211D01*
X172532406Y-73439105D01*
X172612609Y-73458360D01*
X172758476Y-73493380D01*
X172758482Y-73493381D01*
X172763289Y-73494535D01*
X173000000Y-73513165D01*
X173236711Y-73494535D01*
X173241518Y-73493381D01*
X173241524Y-73493380D01*
X173387391Y-73458360D01*
X173467594Y-73439105D01*
X173472167Y-73437211D01*
X173682389Y-73350135D01*
X173682393Y-73350133D01*
X173686963Y-73348240D01*
X173691183Y-73345654D01*
X173885202Y-73226759D01*
X173885208Y-73226755D01*
X173889416Y-73224176D01*
X174069969Y-73069969D01*
X174224176Y-72889416D01*
X174258067Y-72834111D01*
X174310715Y-72786480D01*
X174380756Y-72774873D01*
X174445954Y-72802976D01*
X174485608Y-72861867D01*
X174491500Y-72899946D01*
X174491500Y-87224318D01*
X174471498Y-87292439D01*
X174417842Y-87338932D01*
X174347568Y-87349036D01*
X174286319Y-87320355D01*
X174285753Y-87321134D01*
X174281711Y-87318197D01*
X174281710Y-87318196D01*
X174182998Y-87246478D01*
X174136594Y-87212763D01*
X174136593Y-87212762D01*
X174131252Y-87208882D01*
X174125224Y-87206198D01*
X174125222Y-87206197D01*
X173962819Y-87133891D01*
X173962818Y-87133891D01*
X173956788Y-87131206D01*
X173863388Y-87111353D01*
X173776444Y-87092872D01*
X173776439Y-87092872D01*
X173769987Y-87091500D01*
X173709500Y-87091500D01*
X173641379Y-87071498D01*
X173594886Y-87017842D01*
X173583500Y-86965500D01*
X173583500Y-82407067D01*
X173584027Y-82395884D01*
X173585702Y-82388391D01*
X173583562Y-82320300D01*
X173583500Y-82316343D01*
X173583500Y-82288443D01*
X173582996Y-82284452D01*
X173582063Y-82272610D01*
X173580923Y-82236335D01*
X173580674Y-82228410D01*
X173576086Y-82212617D01*
X173575021Y-82208951D01*
X173571012Y-82189592D01*
X173570070Y-82182138D01*
X173568474Y-82169502D01*
X173565558Y-82162136D01*
X173565556Y-82162130D01*
X173552200Y-82128397D01*
X173548355Y-82117167D01*
X173538230Y-82082316D01*
X173538230Y-82082315D01*
X173536019Y-82074706D01*
X173525705Y-82057265D01*
X173517008Y-82039512D01*
X173512472Y-82028057D01*
X173509552Y-82020682D01*
X173483563Y-81984911D01*
X173477047Y-81974991D01*
X173458578Y-81943762D01*
X173454542Y-81936937D01*
X173440221Y-81922616D01*
X173427380Y-81907582D01*
X173420131Y-81897605D01*
X173415472Y-81891192D01*
X173381395Y-81863001D01*
X173372616Y-81855011D01*
X170556146Y-79038540D01*
X170522120Y-78976228D01*
X170527185Y-78905412D01*
X170542918Y-78875919D01*
X170665008Y-78706011D01*
X170670313Y-78697183D01*
X170764670Y-78506267D01*
X170768469Y-78496672D01*
X170830377Y-78292910D01*
X170832555Y-78282837D01*
X170833986Y-78271962D01*
X170831775Y-78257778D01*
X170818617Y-78254000D01*
X169372000Y-78254000D01*
X169303879Y-78233998D01*
X169257386Y-78180342D01*
X169246000Y-78128000D01*
X169246000Y-77872000D01*
X169266002Y-77803879D01*
X169319658Y-77757386D01*
X169372000Y-77746000D01*
X170818344Y-77746000D01*
X170831875Y-77742027D01*
X170833180Y-77732947D01*
X170791214Y-77565875D01*
X170787894Y-77556124D01*
X170702972Y-77360814D01*
X170698105Y-77351739D01*
X170582426Y-77172926D01*
X170576136Y-77164757D01*
X170432293Y-77006677D01*
X170401241Y-76942831D01*
X170409635Y-76872333D01*
X170454812Y-76817564D01*
X170481256Y-76803895D01*
X170588297Y-76763767D01*
X170596705Y-76760615D01*
X170713261Y-76673261D01*
X170800615Y-76556705D01*
X170851745Y-76420316D01*
X170858500Y-76358134D01*
X170858500Y-74561866D01*
X170851745Y-74499684D01*
X170800615Y-74363295D01*
X170713261Y-74246739D01*
X170596705Y-74159385D01*
X170460316Y-74108255D01*
X170398134Y-74101500D01*
X168601866Y-74101500D01*
X168539684Y-74108255D01*
X168403295Y-74159385D01*
X168286739Y-74246739D01*
X168199385Y-74363295D01*
X168148255Y-74499684D01*
X168141500Y-74561866D01*
X168141500Y-74660500D01*
X168121498Y-74728621D01*
X168067842Y-74775114D01*
X168015500Y-74786500D01*
X122663377Y-74786500D01*
X122595256Y-74766498D01*
X122560164Y-74732771D01*
X122509357Y-74660211D01*
X122509355Y-74660208D01*
X122506198Y-74655700D01*
X122344300Y-74493802D01*
X122339792Y-74490645D01*
X122339789Y-74490643D01*
X122194352Y-74388807D01*
X122156749Y-74362477D01*
X122151767Y-74360154D01*
X122151762Y-74360151D01*
X121954225Y-74268039D01*
X121954224Y-74268039D01*
X121949243Y-74265716D01*
X121943935Y-74264294D01*
X121943933Y-74264293D01*
X121733402Y-74207881D01*
X121733400Y-74207881D01*
X121728087Y-74206457D01*
X121500000Y-74186502D01*
X121271913Y-74206457D01*
X121266600Y-74207881D01*
X121266598Y-74207881D01*
X121056067Y-74264293D01*
X121056065Y-74264294D01*
X121050757Y-74265716D01*
X121045776Y-74268039D01*
X121045775Y-74268039D01*
X120848238Y-74360151D01*
X120848233Y-74360154D01*
X120843251Y-74362477D01*
X120805648Y-74388807D01*
X120660211Y-74490643D01*
X120660208Y-74490645D01*
X120655700Y-74493802D01*
X120493802Y-74655700D01*
X120490645Y-74660208D01*
X120490643Y-74660211D01*
X120439836Y-74732771D01*
X120384379Y-74777099D01*
X120336623Y-74786500D01*
X117931303Y-74786500D01*
X117863182Y-74766498D01*
X117816689Y-74712842D01*
X117806040Y-74674108D01*
X117802598Y-74642428D01*
X117801745Y-74634572D01*
X117750615Y-74498183D01*
X117663261Y-74381627D01*
X117546705Y-74294273D01*
X117410316Y-74243143D01*
X117348134Y-74236388D01*
X115651866Y-74236388D01*
X115589684Y-74243143D01*
X115453295Y-74294273D01*
X115336739Y-74381627D01*
X115249385Y-74498183D01*
X115198255Y-74634572D01*
X115197402Y-74642428D01*
X115193960Y-74674108D01*
X115166718Y-74739670D01*
X115108355Y-74780096D01*
X115068697Y-74786500D01*
X112484500Y-74786500D01*
X112416379Y-74766498D01*
X112369886Y-74712842D01*
X112358500Y-74660500D01*
X112358500Y-74521866D01*
X112351745Y-74459684D01*
X112300615Y-74323295D01*
X112213261Y-74206739D01*
X112096705Y-74119385D01*
X111960316Y-74068255D01*
X111898134Y-74061500D01*
X110101866Y-74061500D01*
X110039684Y-74068255D01*
X109903295Y-74119385D01*
X109786739Y-74206739D01*
X109699385Y-74323295D01*
X109648255Y-74459684D01*
X109641500Y-74521866D01*
X109641500Y-75830405D01*
X109621498Y-75898526D01*
X109604595Y-75919501D01*
X109151635Y-76372460D01*
X108712742Y-76811353D01*
X108704463Y-76818887D01*
X108697982Y-76823000D01*
X108669446Y-76853388D01*
X108651357Y-76872651D01*
X108648602Y-76875493D01*
X108628865Y-76895230D01*
X108626385Y-76898427D01*
X108618682Y-76907447D01*
X108588414Y-76939679D01*
X108584595Y-76946625D01*
X108584593Y-76946628D01*
X108578652Y-76957434D01*
X108567801Y-76973953D01*
X108555386Y-76989959D01*
X108552241Y-76997228D01*
X108552238Y-76997232D01*
X108537826Y-77030537D01*
X108532609Y-77041187D01*
X108511305Y-77079940D01*
X108509334Y-77087615D01*
X108509334Y-77087616D01*
X108506267Y-77099562D01*
X108499863Y-77118266D01*
X108491819Y-77136855D01*
X108490580Y-77144678D01*
X108490577Y-77144688D01*
X108484901Y-77180524D01*
X108482495Y-77192144D01*
X108471500Y-77234970D01*
X108471500Y-77255224D01*
X108469949Y-77274934D01*
X108466780Y-77294943D01*
X108467526Y-77302835D01*
X108470941Y-77338961D01*
X108471500Y-77350819D01*
X108471500Y-133221233D01*
X108470973Y-133232416D01*
X108469298Y-133239909D01*
X108469547Y-133247835D01*
X108469547Y-133247836D01*
X108471438Y-133307986D01*
X108471500Y-133311945D01*
X108471500Y-133339856D01*
X108471997Y-133343790D01*
X108471997Y-133343791D01*
X108472005Y-133343856D01*
X108472938Y-133355693D01*
X108474327Y-133399889D01*
X108478871Y-133415529D01*
X108479978Y-133419339D01*
X108483987Y-133438700D01*
X108486526Y-133458797D01*
X108489445Y-133466168D01*
X108489445Y-133466170D01*
X108502804Y-133499912D01*
X108506649Y-133511142D01*
X108516771Y-133545983D01*
X108518982Y-133553593D01*
X108523015Y-133560412D01*
X108523017Y-133560417D01*
X108529293Y-133571028D01*
X108537988Y-133588776D01*
X108545448Y-133607617D01*
X108550110Y-133614033D01*
X108550110Y-133614034D01*
X108571436Y-133643387D01*
X108577952Y-133653307D01*
X108600458Y-133691362D01*
X108614779Y-133705683D01*
X108627619Y-133720716D01*
X108639528Y-133737107D01*
X108645634Y-133742158D01*
X108673605Y-133765298D01*
X108682384Y-133773288D01*
X109370848Y-134461752D01*
X109404874Y-134524064D01*
X109403459Y-134583459D01*
X109387882Y-134641591D01*
X109387880Y-134641602D01*
X109386457Y-134646913D01*
X109366502Y-134875000D01*
X109386457Y-135103087D01*
X109445716Y-135324243D01*
X109448039Y-135329224D01*
X109448039Y-135329225D01*
X109540151Y-135526762D01*
X109540154Y-135526767D01*
X109542477Y-135531749D01*
X109673802Y-135719300D01*
X109835700Y-135881198D01*
X109840208Y-135884355D01*
X109840211Y-135884357D01*
X109881542Y-135913297D01*
X110023251Y-136012523D01*
X110028233Y-136014846D01*
X110028238Y-136014849D01*
X110225775Y-136106961D01*
X110230757Y-136109284D01*
X110236065Y-136110706D01*
X110236067Y-136110707D01*
X110446598Y-136167119D01*
X110446600Y-136167119D01*
X110451913Y-136168543D01*
X110680000Y-136188498D01*
X110908087Y-136168543D01*
X110913400Y-136167119D01*
X110913402Y-136167119D01*
X111123933Y-136110707D01*
X111123935Y-136110706D01*
X111129243Y-136109284D01*
X111134225Y-136106961D01*
X111331762Y-136014849D01*
X111331767Y-136014846D01*
X111336749Y-136012523D01*
X111478458Y-135913297D01*
X111519789Y-135884357D01*
X111519792Y-135884355D01*
X111524300Y-135881198D01*
X111651405Y-135754093D01*
X111713717Y-135720067D01*
X111784532Y-135725132D01*
X111841368Y-135767679D01*
X111866179Y-135834199D01*
X111866500Y-135843188D01*
X111866500Y-136928207D01*
X111864268Y-136951816D01*
X111862725Y-136959906D01*
X111863223Y-136967817D01*
X111866251Y-137015951D01*
X111866500Y-137023862D01*
X111866500Y-137039856D01*
X111868506Y-137055730D01*
X111869249Y-137063598D01*
X111872205Y-137110584D01*
X111872775Y-137119650D01*
X111875225Y-137127191D01*
X111875321Y-137127487D01*
X111880494Y-137150631D01*
X111880532Y-137150935D01*
X111880533Y-137150940D01*
X111881526Y-137158797D01*
X111884442Y-137166162D01*
X111884443Y-137166166D01*
X111902199Y-137211011D01*
X111904871Y-137218430D01*
X111922236Y-137271875D01*
X111926486Y-137278571D01*
X111926486Y-137278572D01*
X111926650Y-137278831D01*
X111937415Y-137299958D01*
X111937529Y-137300246D01*
X111937532Y-137300251D01*
X111940448Y-137307617D01*
X111945104Y-137314025D01*
X111945107Y-137314031D01*
X111973458Y-137353052D01*
X111977901Y-137359589D01*
X112008000Y-137407018D01*
X112013778Y-137412444D01*
X112013779Y-137412445D01*
X112014007Y-137412659D01*
X112029688Y-137430446D01*
X112034528Y-137437107D01*
X112040637Y-137442161D01*
X112040638Y-137442162D01*
X112077796Y-137472903D01*
X112083730Y-137478134D01*
X112118898Y-137511158D01*
X112118901Y-137511160D01*
X112124679Y-137516586D01*
X112131903Y-137520558D01*
X112151506Y-137533881D01*
X112151746Y-137534080D01*
X112151753Y-137534084D01*
X112157856Y-137539133D01*
X112183802Y-137551342D01*
X112208676Y-137563047D01*
X112215708Y-137566629D01*
X112264940Y-137593695D01*
X112272615Y-137595665D01*
X112272621Y-137595668D01*
X112272919Y-137595744D01*
X112295228Y-137603776D01*
X112295503Y-137603906D01*
X112295511Y-137603909D01*
X112302682Y-137607283D01*
X112357849Y-137617806D01*
X112365558Y-137619529D01*
X112399551Y-137628257D01*
X112412293Y-137631529D01*
X112412294Y-137631529D01*
X112419970Y-137633500D01*
X112428207Y-137633500D01*
X112451816Y-137635732D01*
X112452119Y-137635790D01*
X112452123Y-137635790D01*
X112459906Y-137637275D01*
X112515951Y-137633749D01*
X112523862Y-137633500D01*
X156921233Y-137633500D01*
X156932416Y-137634027D01*
X156939909Y-137635702D01*
X156947835Y-137635453D01*
X156947836Y-137635453D01*
X157007986Y-137633562D01*
X157011945Y-137633500D01*
X157039856Y-137633500D01*
X157043791Y-137633003D01*
X157043856Y-137632995D01*
X157055693Y-137632062D01*
X157087951Y-137631048D01*
X157091970Y-137630922D01*
X157099889Y-137630673D01*
X157119343Y-137625021D01*
X157138700Y-137621013D01*
X157150930Y-137619468D01*
X157150931Y-137619468D01*
X157158797Y-137618474D01*
X157166168Y-137615555D01*
X157166170Y-137615555D01*
X157199912Y-137602196D01*
X157211142Y-137598351D01*
X157245983Y-137588229D01*
X157245984Y-137588229D01*
X157253593Y-137586018D01*
X157260412Y-137581985D01*
X157260417Y-137581983D01*
X157271028Y-137575707D01*
X157288776Y-137567012D01*
X157307617Y-137559552D01*
X157343387Y-137533564D01*
X157353307Y-137527048D01*
X157384535Y-137508580D01*
X157384538Y-137508578D01*
X157391362Y-137504542D01*
X157405683Y-137490221D01*
X157420717Y-137477380D01*
X157430694Y-137470131D01*
X157437107Y-137465472D01*
X157465298Y-137431395D01*
X157473288Y-137422616D01*
X164126405Y-130769499D01*
X164188717Y-130735473D01*
X164259532Y-130740538D01*
X164316368Y-130783085D01*
X164341179Y-130849605D01*
X164341500Y-130858594D01*
X164341500Y-136148500D01*
X172658500Y-136148500D01*
X172658500Y-129851500D01*
X165348594Y-129851500D01*
X165280473Y-129831498D01*
X165233980Y-129777842D01*
X165223876Y-129707568D01*
X165253370Y-129642988D01*
X165259499Y-129636405D01*
X169269943Y-125625962D01*
X173476138Y-121419767D01*
X174066758Y-120829148D01*
X174075038Y-120821613D01*
X174081518Y-120817500D01*
X174128144Y-120767848D01*
X174130898Y-120765007D01*
X174150635Y-120745270D01*
X174153115Y-120742073D01*
X174160820Y-120733051D01*
X174185659Y-120706600D01*
X174191086Y-120700821D01*
X174194905Y-120693875D01*
X174194907Y-120693872D01*
X174200848Y-120683066D01*
X174211699Y-120666547D01*
X174219258Y-120656801D01*
X174224114Y-120650541D01*
X174227259Y-120643272D01*
X174227262Y-120643268D01*
X174241674Y-120609963D01*
X174246896Y-120599303D01*
X174255085Y-120584407D01*
X174305430Y-120534348D01*
X174374847Y-120519454D01*
X174441296Y-120544454D01*
X174483681Y-120601411D01*
X174491500Y-120645107D01*
X174491500Y-137100054D01*
X174471498Y-137168175D01*
X174417842Y-137214668D01*
X174347568Y-137224772D01*
X174282988Y-137195278D01*
X174258067Y-137165889D01*
X174234353Y-137127191D01*
X174224176Y-137110584D01*
X174069969Y-136930031D01*
X173889416Y-136775824D01*
X173885208Y-136773245D01*
X173885202Y-136773241D01*
X173691183Y-136654346D01*
X173686963Y-136651760D01*
X173682393Y-136649867D01*
X173682389Y-136649865D01*
X173472167Y-136562789D01*
X173472165Y-136562788D01*
X173467594Y-136560895D01*
X173387391Y-136541640D01*
X173241524Y-136506620D01*
X173241518Y-136506619D01*
X173236711Y-136505465D01*
X173000000Y-136486835D01*
X172763289Y-136505465D01*
X172758482Y-136506619D01*
X172758476Y-136506620D01*
X172612609Y-136541640D01*
X172532406Y-136560895D01*
X172527835Y-136562788D01*
X172527833Y-136562789D01*
X172317611Y-136649865D01*
X172317607Y-136649867D01*
X172313037Y-136651760D01*
X172308817Y-136654346D01*
X172114798Y-136773241D01*
X172114792Y-136773245D01*
X172110584Y-136775824D01*
X171930031Y-136930031D01*
X171775824Y-137110584D01*
X171773245Y-137114792D01*
X171773241Y-137114798D01*
X171666559Y-137288888D01*
X171651760Y-137313037D01*
X171649867Y-137317607D01*
X171649865Y-137317611D01*
X171570764Y-137508580D01*
X171560895Y-137532406D01*
X171546181Y-137593695D01*
X171513420Y-137730155D01*
X171505465Y-137763289D01*
X171487308Y-137993995D01*
X171486835Y-138000000D01*
X171505465Y-138236711D01*
X171506619Y-138241518D01*
X171506620Y-138241524D01*
X171536601Y-138366401D01*
X171560895Y-138467594D01*
X171651760Y-138686963D01*
X171654346Y-138691183D01*
X171773241Y-138885202D01*
X171773245Y-138885208D01*
X171775824Y-138889416D01*
X171930031Y-139069969D01*
X172110584Y-139224176D01*
X172165889Y-139258067D01*
X172213520Y-139310715D01*
X172225127Y-139380756D01*
X172197024Y-139445954D01*
X172138133Y-139485608D01*
X172100054Y-139491500D01*
X107899946Y-139491500D01*
X107831825Y-139471498D01*
X107785332Y-139417842D01*
X107775228Y-139347568D01*
X107804722Y-139282988D01*
X107834111Y-139258067D01*
X107889416Y-139224176D01*
X108069969Y-139069969D01*
X108224176Y-138889416D01*
X108226755Y-138885208D01*
X108226759Y-138885202D01*
X108345654Y-138691183D01*
X108348240Y-138686963D01*
X108439105Y-138467594D01*
X108463399Y-138366401D01*
X108493380Y-138241524D01*
X108493381Y-138241518D01*
X108494535Y-138236711D01*
X108513165Y-138000000D01*
X108494535Y-137763289D01*
X108486581Y-137730155D01*
X108453819Y-137593695D01*
X108439105Y-137532406D01*
X108429236Y-137508580D01*
X108350135Y-137317611D01*
X108350133Y-137317607D01*
X108348240Y-137313037D01*
X108333441Y-137288888D01*
X108226759Y-137114798D01*
X108226755Y-137114792D01*
X108224176Y-137110584D01*
X108069969Y-136930031D01*
X107889416Y-136775824D01*
X107885208Y-136773245D01*
X107885202Y-136773241D01*
X107691183Y-136654346D01*
X107686963Y-136651760D01*
X107682393Y-136649867D01*
X107682389Y-136649865D01*
X107472167Y-136562789D01*
X107472165Y-136562788D01*
X107467594Y-136560895D01*
X107387391Y-136541640D01*
X107241524Y-136506620D01*
X107241518Y-136506619D01*
X107236711Y-136505465D01*
X107000000Y-136486835D01*
X106763289Y-136505465D01*
X106758482Y-136506619D01*
X106758476Y-136506620D01*
X106612609Y-136541640D01*
X106532406Y-136560895D01*
X106527835Y-136562788D01*
X106527833Y-136562789D01*
X106317611Y-136649865D01*
X106317607Y-136649867D01*
X106313037Y-136651760D01*
X106308817Y-136654346D01*
X106114798Y-136773241D01*
X106114792Y-136773245D01*
X106110584Y-136775824D01*
X105930031Y-136930031D01*
X105775824Y-137110584D01*
X105765647Y-137127191D01*
X105741933Y-137165889D01*
X105689285Y-137213520D01*
X105619244Y-137225127D01*
X105554046Y-137197024D01*
X105514392Y-137138133D01*
X105508500Y-137100054D01*
X105508500Y-72899946D01*
X105528502Y-72831825D01*
X105582158Y-72785332D01*
X105652432Y-72775228D01*
X105717012Y-72804722D01*
X105741933Y-72834110D01*
X105775824Y-72889416D01*
X105930031Y-73069969D01*
X106110584Y-73224176D01*
X106114792Y-73226755D01*
X106114798Y-73226759D01*
X106308817Y-73345654D01*
X106313037Y-73348240D01*
X106317607Y-73350133D01*
X106317611Y-73350135D01*
X106527833Y-73437211D01*
X106532406Y-73439105D01*
X106612609Y-73458360D01*
X106758476Y-73493380D01*
X106758482Y-73493381D01*
X106763289Y-73494535D01*
X107000000Y-73513165D01*
X107236711Y-73494535D01*
X107241518Y-73493381D01*
X107241524Y-73493380D01*
X107387391Y-73458360D01*
X107467594Y-73439105D01*
X107472167Y-73437211D01*
X107682389Y-73350135D01*
X107682393Y-73350133D01*
X107686963Y-73348240D01*
X107691183Y-73345654D01*
X107885202Y-73226759D01*
X107885208Y-73226755D01*
X107889416Y-73224176D01*
X108069969Y-73069969D01*
X108224176Y-72889416D01*
X108226755Y-72885208D01*
X108226759Y-72885202D01*
X108345654Y-72691183D01*
X108348240Y-72686963D01*
X108439105Y-72467594D01*
X108463399Y-72366401D01*
X108493380Y-72241524D01*
X108493381Y-72241518D01*
X108494535Y-72236711D01*
X108513165Y-72000000D01*
X108494535Y-71763289D01*
X108486581Y-71730155D01*
X108440260Y-71537218D01*
X108439105Y-71532406D01*
X108348240Y-71313037D01*
X108345654Y-71308817D01*
X108226759Y-71114798D01*
X108226755Y-71114792D01*
X108224176Y-71110584D01*
X108069969Y-70930031D01*
X107889416Y-70775824D01*
X107834111Y-70741933D01*
X107786480Y-70689285D01*
X107774873Y-70619244D01*
X107802976Y-70554046D01*
X107861867Y-70514392D01*
X107899946Y-70508500D01*
X172100054Y-70508500D01*
X172168175Y-70528502D01*
G37*
%TD.AperFunction*%
%TA.AperFunction,Conductor*%
G36*
X122920150Y-112054929D02*
G01*
X122972854Y-112102497D01*
X122991500Y-112168460D01*
X122991500Y-115460606D01*
X122971498Y-115528727D01*
X122937771Y-115563819D01*
X122785211Y-115670643D01*
X122785208Y-115670645D01*
X122780700Y-115673802D01*
X122618802Y-115835700D01*
X122615645Y-115840208D01*
X122615643Y-115840211D01*
X122599659Y-115863039D01*
X122487477Y-116023251D01*
X122485154Y-116028233D01*
X122485151Y-116028238D01*
X122396973Y-116217339D01*
X122390716Y-116230757D01*
X122389294Y-116236065D01*
X122389293Y-116236067D01*
X122355000Y-116364050D01*
X122331457Y-116451913D01*
X122311502Y-116680000D01*
X122331457Y-116908087D01*
X122332881Y-116913400D01*
X122332881Y-116913402D01*
X122383008Y-117100475D01*
X122390716Y-117129243D01*
X122393039Y-117134224D01*
X122393039Y-117134225D01*
X122485151Y-117331762D01*
X122485154Y-117331767D01*
X122487477Y-117336749D01*
X122618802Y-117524300D01*
X122780700Y-117686198D01*
X122785207Y-117689354D01*
X122785211Y-117689357D01*
X122794637Y-117695957D01*
X122968251Y-117817523D01*
X122973233Y-117819846D01*
X122973238Y-117819849D01*
X123170775Y-117911961D01*
X123175757Y-117914284D01*
X123181065Y-117915706D01*
X123181067Y-117915707D01*
X123391598Y-117972119D01*
X123391600Y-117972119D01*
X123396913Y-117973543D01*
X123625000Y-117993498D01*
X123853087Y-117973543D01*
X123858400Y-117972119D01*
X123858402Y-117972119D01*
X124068933Y-117915707D01*
X124068935Y-117915706D01*
X124074243Y-117914284D01*
X124079225Y-117911961D01*
X124276762Y-117819849D01*
X124276767Y-117819846D01*
X124281749Y-117817523D01*
X124424451Y-117717602D01*
X124491724Y-117694914D01*
X124560584Y-117712199D01*
X124585816Y-117731720D01*
X125051343Y-118197247D01*
X125058887Y-118205537D01*
X125063000Y-118212018D01*
X125068777Y-118217443D01*
X125112667Y-118258658D01*
X125115509Y-118261413D01*
X125135230Y-118281134D01*
X125138425Y-118283612D01*
X125147446Y-118291317D01*
X125179679Y-118321586D01*
X125190858Y-118327732D01*
X125197432Y-118331346D01*
X125213956Y-118342199D01*
X125229959Y-118354613D01*
X125270543Y-118372176D01*
X125281173Y-118377383D01*
X125319940Y-118398695D01*
X125327617Y-118400666D01*
X125327622Y-118400668D01*
X125339558Y-118403732D01*
X125358266Y-118410137D01*
X125376855Y-118418181D01*
X125384683Y-118419421D01*
X125384690Y-118419423D01*
X125420524Y-118425099D01*
X125432144Y-118427505D01*
X125456208Y-118433683D01*
X125474970Y-118438500D01*
X125495224Y-118438500D01*
X125514934Y-118440051D01*
X125534943Y-118443220D01*
X125542835Y-118442474D01*
X125561580Y-118440702D01*
X125578962Y-118439059D01*
X125590819Y-118438500D01*
X127501233Y-118438500D01*
X127512416Y-118439027D01*
X127519909Y-118440702D01*
X127527835Y-118440453D01*
X127527836Y-118440453D01*
X127587986Y-118438562D01*
X127591945Y-118438500D01*
X127619856Y-118438500D01*
X127623791Y-118438003D01*
X127623856Y-118437995D01*
X127635693Y-118437062D01*
X127667951Y-118436048D01*
X127671970Y-118435922D01*
X127679889Y-118435673D01*
X127699343Y-118430021D01*
X127718700Y-118426013D01*
X127730930Y-118424468D01*
X127730931Y-118424468D01*
X127738797Y-118423474D01*
X127746168Y-118420555D01*
X127746170Y-118420555D01*
X127779912Y-118407196D01*
X127791142Y-118403351D01*
X127825983Y-118393229D01*
X127825984Y-118393229D01*
X127833593Y-118391018D01*
X127840412Y-118386985D01*
X127840417Y-118386983D01*
X127851028Y-118380707D01*
X127868776Y-118372012D01*
X127887617Y-118364552D01*
X127907987Y-118349753D01*
X127923387Y-118338564D01*
X127933307Y-118332048D01*
X127964535Y-118313580D01*
X127964538Y-118313578D01*
X127971362Y-118309542D01*
X127985683Y-118295221D01*
X128000717Y-118282380D01*
X128002432Y-118281134D01*
X128017107Y-118270472D01*
X128045298Y-118236395D01*
X128053288Y-118227616D01*
X128291752Y-117989152D01*
X128354064Y-117955126D01*
X128413459Y-117956541D01*
X128471591Y-117972118D01*
X128471602Y-117972120D01*
X128476913Y-117973543D01*
X128705000Y-117993498D01*
X128933087Y-117973543D01*
X128938400Y-117972119D01*
X128938402Y-117972119D01*
X129148933Y-117915707D01*
X129148935Y-117915706D01*
X129154243Y-117914284D01*
X129159225Y-117911961D01*
X129356762Y-117819849D01*
X129356767Y-117819846D01*
X129361749Y-117817523D01*
X129535363Y-117695957D01*
X129544789Y-117689357D01*
X129544793Y-117689354D01*
X129549300Y-117686198D01*
X129711198Y-117524300D01*
X129842523Y-117336749D01*
X129844846Y-117331767D01*
X129844849Y-117331762D01*
X129860805Y-117297543D01*
X129907722Y-117244258D01*
X129975999Y-117224797D01*
X130043959Y-117245339D01*
X130089195Y-117297543D01*
X130105151Y-117331762D01*
X130105154Y-117331767D01*
X130107477Y-117336749D01*
X130238802Y-117524300D01*
X130400700Y-117686198D01*
X130405207Y-117689354D01*
X130405211Y-117689357D01*
X130414637Y-117695957D01*
X130588251Y-117817523D01*
X130593233Y-117819846D01*
X130593238Y-117819849D01*
X130790775Y-117911961D01*
X130795757Y-117914284D01*
X130801065Y-117915706D01*
X130801067Y-117915707D01*
X131011598Y-117972119D01*
X131011600Y-117972119D01*
X131016913Y-117973543D01*
X131245000Y-117993498D01*
X131473087Y-117973543D01*
X131478400Y-117972119D01*
X131478402Y-117972119D01*
X131688933Y-117915707D01*
X131688935Y-117915706D01*
X131694243Y-117914284D01*
X131699225Y-117911961D01*
X131896762Y-117819849D01*
X131896767Y-117819846D01*
X131901749Y-117817523D01*
X132076852Y-117694914D01*
X132084793Y-117689354D01*
X132084794Y-117689353D01*
X132089300Y-117686198D01*
X132093190Y-117682308D01*
X132093196Y-117682303D01*
X132107707Y-117667792D01*
X132170019Y-117633766D01*
X132240834Y-117638831D01*
X132285897Y-117667792D01*
X132815352Y-118197247D01*
X132822896Y-118205537D01*
X132827009Y-118212018D01*
X132832786Y-118217443D01*
X132876676Y-118258658D01*
X132879518Y-118261413D01*
X132899240Y-118281135D01*
X132902361Y-118283556D01*
X132902368Y-118283562D01*
X132902433Y-118283612D01*
X132911454Y-118291317D01*
X132943688Y-118321586D01*
X132950636Y-118325405D01*
X132950638Y-118325407D01*
X132961441Y-118331346D01*
X132977968Y-118342202D01*
X132987707Y-118349757D01*
X132987709Y-118349758D01*
X132993969Y-118354614D01*
X133034549Y-118372174D01*
X133045197Y-118377391D01*
X133069985Y-118391018D01*
X133083949Y-118398695D01*
X133091625Y-118400666D01*
X133091628Y-118400667D01*
X133103571Y-118403733D01*
X133122275Y-118410137D01*
X133122278Y-118410138D01*
X133140864Y-118418181D01*
X133148687Y-118419420D01*
X133148697Y-118419423D01*
X133184533Y-118425099D01*
X133196153Y-118427505D01*
X133220217Y-118433683D01*
X133238979Y-118438500D01*
X133259233Y-118438500D01*
X133278943Y-118440051D01*
X133298952Y-118443220D01*
X133306844Y-118442474D01*
X133325589Y-118440702D01*
X133342971Y-118439059D01*
X133354828Y-118438500D01*
X137661233Y-118438500D01*
X137672416Y-118439027D01*
X137679909Y-118440702D01*
X137687835Y-118440453D01*
X137687836Y-118440453D01*
X137747986Y-118438562D01*
X137751945Y-118438500D01*
X137779856Y-118438500D01*
X137783791Y-118438003D01*
X137783856Y-118437995D01*
X137795693Y-118437062D01*
X137827951Y-118436048D01*
X137831970Y-118435922D01*
X137839889Y-118435673D01*
X137859343Y-118430021D01*
X137878700Y-118426013D01*
X137890930Y-118424468D01*
X137890931Y-118424468D01*
X137898797Y-118423474D01*
X137906168Y-118420555D01*
X137906170Y-118420555D01*
X137939912Y-118407196D01*
X137951142Y-118403351D01*
X137985983Y-118393229D01*
X137985984Y-118393229D01*
X137993593Y-118391018D01*
X138000412Y-118386985D01*
X138000417Y-118386983D01*
X138011028Y-118380707D01*
X138028776Y-118372012D01*
X138047617Y-118364552D01*
X138067987Y-118349753D01*
X138083387Y-118338564D01*
X138093307Y-118332048D01*
X138124535Y-118313580D01*
X138124538Y-118313578D01*
X138131362Y-118309542D01*
X138145683Y-118295221D01*
X138160717Y-118282380D01*
X138162432Y-118281134D01*
X138177107Y-118270472D01*
X138205298Y-118236395D01*
X138213288Y-118227616D01*
X138451752Y-117989152D01*
X138514064Y-117955126D01*
X138573459Y-117956541D01*
X138631591Y-117972118D01*
X138631602Y-117972120D01*
X138636913Y-117973543D01*
X138865000Y-117993498D01*
X139093087Y-117973543D01*
X139098400Y-117972119D01*
X139098402Y-117972119D01*
X139308933Y-117915707D01*
X139308935Y-117915706D01*
X139314243Y-117914284D01*
X139319225Y-117911961D01*
X139516762Y-117819849D01*
X139516767Y-117819846D01*
X139521749Y-117817523D01*
X139695363Y-117695957D01*
X139704789Y-117689357D01*
X139704793Y-117689354D01*
X139709300Y-117686198D01*
X139871198Y-117524300D01*
X140002523Y-117336749D01*
X140004846Y-117331767D01*
X140004849Y-117331762D01*
X140020805Y-117297543D01*
X140067722Y-117244258D01*
X140135999Y-117224797D01*
X140203959Y-117245339D01*
X140249195Y-117297543D01*
X140265151Y-117331762D01*
X140265154Y-117331767D01*
X140267477Y-117336749D01*
X140398802Y-117524300D01*
X140560700Y-117686198D01*
X140565207Y-117689354D01*
X140565211Y-117689357D01*
X140574637Y-117695957D01*
X140748251Y-117817523D01*
X140753233Y-117819846D01*
X140753238Y-117819849D01*
X140950775Y-117911961D01*
X140955757Y-117914284D01*
X140961065Y-117915706D01*
X140961067Y-117915707D01*
X141171598Y-117972119D01*
X141171600Y-117972119D01*
X141176913Y-117973543D01*
X141405000Y-117993498D01*
X141633087Y-117973543D01*
X141638400Y-117972119D01*
X141638402Y-117972119D01*
X141848933Y-117915707D01*
X141848935Y-117915706D01*
X141854243Y-117914284D01*
X141859225Y-117911961D01*
X142056762Y-117819849D01*
X142056767Y-117819846D01*
X142061749Y-117817523D01*
X142235363Y-117695957D01*
X142244789Y-117689357D01*
X142244793Y-117689354D01*
X142249300Y-117686198D01*
X142411198Y-117524300D01*
X142542523Y-117336749D01*
X142544846Y-117331767D01*
X142544849Y-117331762D01*
X142636961Y-117134225D01*
X142636961Y-117134224D01*
X142639284Y-117129243D01*
X142646993Y-117100475D01*
X142697119Y-116913402D01*
X142697119Y-116913400D01*
X142698543Y-116908087D01*
X142718498Y-116680000D01*
X142698543Y-116451913D01*
X142670461Y-116347110D01*
X142672151Y-116276135D01*
X142711945Y-116217339D01*
X142777209Y-116189391D01*
X142792168Y-116188500D01*
X148112832Y-116188500D01*
X148180953Y-116208502D01*
X148227446Y-116262158D01*
X148237550Y-116332432D01*
X148234540Y-116347105D01*
X148206457Y-116451913D01*
X148186502Y-116680000D01*
X148206457Y-116908087D01*
X148207881Y-116913400D01*
X148207881Y-116913402D01*
X148258008Y-117100475D01*
X148265716Y-117129243D01*
X148268039Y-117134224D01*
X148268039Y-117134225D01*
X148360151Y-117331762D01*
X148360154Y-117331767D01*
X148362477Y-117336749D01*
X148493802Y-117524300D01*
X148655700Y-117686198D01*
X148660207Y-117689354D01*
X148660211Y-117689357D01*
X148669637Y-117695957D01*
X148843251Y-117817523D01*
X148848233Y-117819846D01*
X148848238Y-117819849D01*
X149045775Y-117911961D01*
X149050757Y-117914284D01*
X149056065Y-117915706D01*
X149056067Y-117915707D01*
X149266598Y-117972119D01*
X149266600Y-117972119D01*
X149271913Y-117973543D01*
X149500000Y-117993498D01*
X149728087Y-117973543D01*
X149733400Y-117972119D01*
X149733402Y-117972119D01*
X149943933Y-117915707D01*
X149943935Y-117915706D01*
X149949243Y-117914284D01*
X149954225Y-117911961D01*
X150151762Y-117819849D01*
X150151767Y-117819846D01*
X150156749Y-117817523D01*
X150330363Y-117695957D01*
X150339789Y-117689357D01*
X150339793Y-117689354D01*
X150344300Y-117686198D01*
X150506198Y-117524300D01*
X150637523Y-117336749D01*
X150639846Y-117331767D01*
X150639849Y-117331762D01*
X150655805Y-117297543D01*
X150702722Y-117244258D01*
X150770999Y-117224797D01*
X150838959Y-117245339D01*
X150884195Y-117297543D01*
X150900151Y-117331762D01*
X150900154Y-117331767D01*
X150902477Y-117336749D01*
X151033802Y-117524300D01*
X151195700Y-117686198D01*
X151200207Y-117689354D01*
X151200211Y-117689357D01*
X151209637Y-117695957D01*
X151383251Y-117817523D01*
X151388233Y-117819846D01*
X151388238Y-117819849D01*
X151585775Y-117911961D01*
X151590757Y-117914284D01*
X151596065Y-117915706D01*
X151596067Y-117915707D01*
X151806598Y-117972119D01*
X151806600Y-117972119D01*
X151811913Y-117973543D01*
X152040000Y-117993498D01*
X152268087Y-117973543D01*
X152273400Y-117972119D01*
X152273402Y-117972119D01*
X152483933Y-117915707D01*
X152483935Y-117915706D01*
X152489243Y-117914284D01*
X152494225Y-117911961D01*
X152691762Y-117819849D01*
X152691767Y-117819846D01*
X152696749Y-117817523D01*
X152870363Y-117695957D01*
X152879789Y-117689357D01*
X152879793Y-117689354D01*
X152884300Y-117686198D01*
X153046198Y-117524300D01*
X153177523Y-117336749D01*
X153179846Y-117331767D01*
X153179849Y-117331762D01*
X153195805Y-117297543D01*
X153242722Y-117244258D01*
X153310999Y-117224797D01*
X153378959Y-117245339D01*
X153424195Y-117297543D01*
X153440151Y-117331762D01*
X153440154Y-117331767D01*
X153442477Y-117336749D01*
X153573802Y-117524300D01*
X153735700Y-117686198D01*
X153740207Y-117689354D01*
X153740211Y-117689357D01*
X153749637Y-117695957D01*
X153923251Y-117817523D01*
X153928233Y-117819846D01*
X153928238Y-117819849D01*
X154125775Y-117911961D01*
X154130757Y-117914284D01*
X154136065Y-117915706D01*
X154136067Y-117915707D01*
X154346598Y-117972119D01*
X154346600Y-117972119D01*
X154351913Y-117973543D01*
X154580000Y-117993498D01*
X154808087Y-117973543D01*
X154813400Y-117972119D01*
X154813402Y-117972119D01*
X155023933Y-117915707D01*
X155023935Y-117915706D01*
X155029243Y-117914284D01*
X155034225Y-117911961D01*
X155231762Y-117819849D01*
X155231767Y-117819846D01*
X155236749Y-117817523D01*
X155410363Y-117695957D01*
X155419789Y-117689357D01*
X155419793Y-117689354D01*
X155424300Y-117686198D01*
X155586198Y-117524300D01*
X155717523Y-117336749D01*
X155719846Y-117331767D01*
X155719849Y-117331762D01*
X155735805Y-117297543D01*
X155782722Y-117244258D01*
X155850999Y-117224797D01*
X155918959Y-117245339D01*
X155964195Y-117297543D01*
X155980151Y-117331762D01*
X155980154Y-117331767D01*
X155982477Y-117336749D01*
X156113802Y-117524300D01*
X156275700Y-117686198D01*
X156280207Y-117689354D01*
X156280211Y-117689357D01*
X156289637Y-117695957D01*
X156463251Y-117817523D01*
X156468233Y-117819846D01*
X156468238Y-117819849D01*
X156665775Y-117911961D01*
X156670757Y-117914284D01*
X156676065Y-117915706D01*
X156676067Y-117915707D01*
X156886598Y-117972119D01*
X156886600Y-117972119D01*
X156891913Y-117973543D01*
X157120000Y-117993498D01*
X157348087Y-117973543D01*
X157353400Y-117972119D01*
X157353402Y-117972119D01*
X157563933Y-117915707D01*
X157563935Y-117915706D01*
X157569243Y-117914284D01*
X157574225Y-117911961D01*
X157771762Y-117819849D01*
X157771767Y-117819846D01*
X157776749Y-117817523D01*
X157950363Y-117695957D01*
X157959789Y-117689357D01*
X157959793Y-117689354D01*
X157964300Y-117686198D01*
X158126198Y-117524300D01*
X158257523Y-117336749D01*
X158259846Y-117331767D01*
X158259849Y-117331762D01*
X158275805Y-117297543D01*
X158322722Y-117244258D01*
X158390999Y-117224797D01*
X158458959Y-117245339D01*
X158504195Y-117297543D01*
X158520151Y-117331762D01*
X158520154Y-117331767D01*
X158522477Y-117336749D01*
X158653802Y-117524300D01*
X158815700Y-117686198D01*
X158820207Y-117689354D01*
X158820211Y-117689357D01*
X158829637Y-117695957D01*
X159003251Y-117817523D01*
X159008233Y-117819846D01*
X159008238Y-117819849D01*
X159205775Y-117911961D01*
X159210757Y-117914284D01*
X159216065Y-117915706D01*
X159216067Y-117915707D01*
X159426598Y-117972119D01*
X159426600Y-117972119D01*
X159431913Y-117973543D01*
X159660000Y-117993498D01*
X159888087Y-117973543D01*
X159893398Y-117972120D01*
X159893409Y-117972118D01*
X159951541Y-117956541D01*
X160022517Y-117958230D01*
X160073248Y-117989152D01*
X160281343Y-118197247D01*
X160288887Y-118205537D01*
X160293000Y-118212018D01*
X160298777Y-118217443D01*
X160342667Y-118258658D01*
X160345509Y-118261413D01*
X160365230Y-118281134D01*
X160368425Y-118283612D01*
X160377446Y-118291317D01*
X160409679Y-118321586D01*
X160420858Y-118327732D01*
X160427432Y-118331346D01*
X160443956Y-118342199D01*
X160459959Y-118354613D01*
X160500543Y-118372176D01*
X160511173Y-118377383D01*
X160549940Y-118398695D01*
X160557617Y-118400666D01*
X160557622Y-118400668D01*
X160569558Y-118403732D01*
X160588266Y-118410137D01*
X160606855Y-118418181D01*
X160614683Y-118419421D01*
X160614690Y-118419423D01*
X160650524Y-118425099D01*
X160662144Y-118427505D01*
X160686208Y-118433683D01*
X160704970Y-118438500D01*
X160725224Y-118438500D01*
X160744934Y-118440051D01*
X160764943Y-118443220D01*
X160772835Y-118442474D01*
X160791580Y-118440702D01*
X160808962Y-118439059D01*
X160820819Y-118438500D01*
X167667224Y-118438500D01*
X167678407Y-118439027D01*
X167685900Y-118440702D01*
X167693826Y-118440453D01*
X167693827Y-118440453D01*
X167753977Y-118438562D01*
X167757936Y-118438500D01*
X167785847Y-118438500D01*
X167789782Y-118438003D01*
X167789847Y-118437995D01*
X167801684Y-118437062D01*
X167833942Y-118436048D01*
X167837961Y-118435922D01*
X167845880Y-118435673D01*
X167865334Y-118430021D01*
X167884691Y-118426013D01*
X167896921Y-118424468D01*
X167896922Y-118424468D01*
X167904788Y-118423474D01*
X167912159Y-118420555D01*
X167912161Y-118420555D01*
X167945903Y-118407196D01*
X167957133Y-118403351D01*
X167991974Y-118393229D01*
X167991975Y-118393229D01*
X167999584Y-118391018D01*
X168006403Y-118386985D01*
X168006408Y-118386983D01*
X168017019Y-118380707D01*
X168034767Y-118372012D01*
X168053608Y-118364552D01*
X168073978Y-118349753D01*
X168089378Y-118338564D01*
X168099298Y-118332048D01*
X168130526Y-118313580D01*
X168130529Y-118313578D01*
X168137353Y-118309542D01*
X168151674Y-118295221D01*
X168166708Y-118282380D01*
X168168423Y-118281134D01*
X168183098Y-118270472D01*
X168211289Y-118236395D01*
X168219279Y-118227616D01*
X172101405Y-114345491D01*
X172163717Y-114311465D01*
X172234533Y-114316530D01*
X172291368Y-114359077D01*
X172316179Y-114425597D01*
X172316500Y-114434586D01*
X172316500Y-119906397D01*
X172296498Y-119974518D01*
X172279595Y-119995492D01*
X168611727Y-123663359D01*
X168549415Y-123697385D01*
X168478599Y-123692320D01*
X168421764Y-123649773D01*
X168417670Y-123643566D01*
X168417523Y-123643251D01*
X168373678Y-123580634D01*
X168289357Y-123460211D01*
X168289355Y-123460208D01*
X168286198Y-123455700D01*
X168124300Y-123293802D01*
X168119792Y-123290645D01*
X168119789Y-123290643D01*
X168041611Y-123235902D01*
X167936749Y-123162477D01*
X167931767Y-123160154D01*
X167931762Y-123160151D01*
X167734225Y-123068039D01*
X167734224Y-123068039D01*
X167729243Y-123065716D01*
X167723935Y-123064294D01*
X167723933Y-123064293D01*
X167513402Y-123007881D01*
X167513400Y-123007881D01*
X167508087Y-123006457D01*
X167280000Y-122986502D01*
X167051913Y-123006457D01*
X167046600Y-123007881D01*
X167046598Y-123007881D01*
X166836067Y-123064293D01*
X166836065Y-123064294D01*
X166830757Y-123065716D01*
X166825776Y-123068039D01*
X166825775Y-123068039D01*
X166628238Y-123160151D01*
X166628233Y-123160154D01*
X166623251Y-123162477D01*
X166518389Y-123235902D01*
X166440211Y-123290643D01*
X166440208Y-123290645D01*
X166435700Y-123293802D01*
X166273802Y-123455700D01*
X166270645Y-123460208D01*
X166270643Y-123460211D01*
X166233008Y-123513959D01*
X166142477Y-123643251D01*
X166140154Y-123648233D01*
X166140151Y-123648238D01*
X166124195Y-123682457D01*
X166077278Y-123735742D01*
X166009001Y-123755203D01*
X165941041Y-123734661D01*
X165895805Y-123682457D01*
X165879849Y-123648238D01*
X165879846Y-123648233D01*
X165877523Y-123643251D01*
X165786992Y-123513959D01*
X165749357Y-123460211D01*
X165749355Y-123460208D01*
X165746198Y-123455700D01*
X165584300Y-123293802D01*
X165579792Y-123290645D01*
X165579789Y-123290643D01*
X165501611Y-123235902D01*
X165396749Y-123162477D01*
X165391767Y-123160154D01*
X165391762Y-123160151D01*
X165194225Y-123068039D01*
X165194224Y-123068039D01*
X165189243Y-123065716D01*
X165183935Y-123064294D01*
X165183933Y-123064293D01*
X164973402Y-123007881D01*
X164973400Y-123007881D01*
X164968087Y-123006457D01*
X164740000Y-122986502D01*
X164511913Y-123006457D01*
X164506600Y-123007881D01*
X164506598Y-123007881D01*
X164296067Y-123064293D01*
X164296065Y-123064294D01*
X164290757Y-123065716D01*
X164285776Y-123068039D01*
X164285775Y-123068039D01*
X164088238Y-123160151D01*
X164088233Y-123160154D01*
X164083251Y-123162477D01*
X163978389Y-123235902D01*
X163900211Y-123290643D01*
X163900208Y-123290645D01*
X163895700Y-123293802D01*
X163733802Y-123455700D01*
X163730645Y-123460208D01*
X163730643Y-123460211D01*
X163693008Y-123513959D01*
X163602477Y-123643251D01*
X163600154Y-123648233D01*
X163600151Y-123648238D01*
X163584195Y-123682457D01*
X163537278Y-123735742D01*
X163469001Y-123755203D01*
X163401041Y-123734661D01*
X163355805Y-123682457D01*
X163339849Y-123648238D01*
X163339846Y-123648233D01*
X163337523Y-123643251D01*
X163246992Y-123513959D01*
X163209357Y-123460211D01*
X163209355Y-123460208D01*
X163206198Y-123455700D01*
X163044300Y-123293802D01*
X163039792Y-123290645D01*
X163039789Y-123290643D01*
X162961611Y-123235902D01*
X162856749Y-123162477D01*
X162851767Y-123160154D01*
X162851762Y-123160151D01*
X162654225Y-123068039D01*
X162654224Y-123068039D01*
X162649243Y-123065716D01*
X162643935Y-123064294D01*
X162643933Y-123064293D01*
X162433402Y-123007881D01*
X162433400Y-123007881D01*
X162428087Y-123006457D01*
X162200000Y-122986502D01*
X161971913Y-123006457D01*
X161966600Y-123007881D01*
X161966598Y-123007881D01*
X161756067Y-123064293D01*
X161756065Y-123064294D01*
X161750757Y-123065716D01*
X161745776Y-123068039D01*
X161745775Y-123068039D01*
X161548238Y-123160151D01*
X161548233Y-123160154D01*
X161543251Y-123162477D01*
X161438389Y-123235902D01*
X161360211Y-123290643D01*
X161360208Y-123290645D01*
X161355700Y-123293802D01*
X161193802Y-123455700D01*
X161190645Y-123460208D01*
X161190643Y-123460211D01*
X161153008Y-123513959D01*
X161062477Y-123643251D01*
X161060154Y-123648233D01*
X161060151Y-123648238D01*
X161044195Y-123682457D01*
X160997278Y-123735742D01*
X160929001Y-123755203D01*
X160861041Y-123734661D01*
X160815805Y-123682457D01*
X160799849Y-123648238D01*
X160799846Y-123648233D01*
X160797523Y-123643251D01*
X160706992Y-123513959D01*
X160669357Y-123460211D01*
X160669355Y-123460208D01*
X160666198Y-123455700D01*
X160504300Y-123293802D01*
X160499792Y-123290645D01*
X160499789Y-123290643D01*
X160421611Y-123235902D01*
X160316749Y-123162477D01*
X160311767Y-123160154D01*
X160311762Y-123160151D01*
X160114225Y-123068039D01*
X160114224Y-123068039D01*
X160109243Y-123065716D01*
X160103935Y-123064294D01*
X160103933Y-123064293D01*
X159893402Y-123007881D01*
X159893400Y-123007881D01*
X159888087Y-123006457D01*
X159660000Y-122986502D01*
X159431913Y-123006457D01*
X159368458Y-123023460D01*
X159297482Y-123021770D01*
X159246753Y-122990848D01*
X159038652Y-122782747D01*
X159031112Y-122774461D01*
X159027000Y-122767982D01*
X158977348Y-122721356D01*
X158974507Y-122718602D01*
X158954770Y-122698865D01*
X158951573Y-122696385D01*
X158942551Y-122688680D01*
X158929116Y-122676064D01*
X158910321Y-122658414D01*
X158903375Y-122654595D01*
X158903372Y-122654593D01*
X158892566Y-122648652D01*
X158876047Y-122637801D01*
X158875583Y-122637441D01*
X158860041Y-122625386D01*
X158852772Y-122622241D01*
X158852768Y-122622238D01*
X158819463Y-122607826D01*
X158808813Y-122602609D01*
X158770060Y-122581305D01*
X158750437Y-122576267D01*
X158731734Y-122569863D01*
X158720420Y-122564967D01*
X158720419Y-122564967D01*
X158713145Y-122561819D01*
X158705322Y-122560580D01*
X158705312Y-122560577D01*
X158669476Y-122554901D01*
X158657856Y-122552495D01*
X158622711Y-122543472D01*
X158622710Y-122543472D01*
X158615030Y-122541500D01*
X158594776Y-122541500D01*
X158575065Y-122539949D01*
X158562886Y-122538020D01*
X158555057Y-122536780D01*
X158525786Y-122539547D01*
X158511039Y-122540941D01*
X158499181Y-122541500D01*
X134988767Y-122541500D01*
X134977584Y-122540973D01*
X134970091Y-122539298D01*
X134962165Y-122539547D01*
X134962164Y-122539547D01*
X134902014Y-122541438D01*
X134898055Y-122541500D01*
X134870144Y-122541500D01*
X134866210Y-122541997D01*
X134866209Y-122541997D01*
X134866144Y-122542005D01*
X134854307Y-122542938D01*
X134822490Y-122543938D01*
X134818029Y-122544078D01*
X134810110Y-122544327D01*
X134792454Y-122549456D01*
X134790658Y-122549978D01*
X134771306Y-122553986D01*
X134764235Y-122554880D01*
X134751203Y-122556526D01*
X134743834Y-122559443D01*
X134743832Y-122559444D01*
X134710097Y-122572800D01*
X134698869Y-122576645D01*
X134656407Y-122588982D01*
X134649585Y-122593016D01*
X134649579Y-122593019D01*
X134638968Y-122599294D01*
X134621218Y-122607990D01*
X134609756Y-122612528D01*
X134609751Y-122612531D01*
X134602383Y-122615448D01*
X134584970Y-122628099D01*
X134566625Y-122641427D01*
X134556707Y-122647943D01*
X134545463Y-122654593D01*
X134518637Y-122670458D01*
X134504313Y-122684782D01*
X134489281Y-122697621D01*
X134472893Y-122709528D01*
X134444712Y-122743593D01*
X134436722Y-122752373D01*
X134198247Y-122990848D01*
X134135935Y-123024874D01*
X134076542Y-123023460D01*
X134013087Y-123006457D01*
X133785000Y-122986502D01*
X133556913Y-123006457D01*
X133551600Y-123007881D01*
X133551598Y-123007881D01*
X133341067Y-123064293D01*
X133341065Y-123064294D01*
X133335757Y-123065716D01*
X133330776Y-123068039D01*
X133330775Y-123068039D01*
X133133238Y-123160151D01*
X133133233Y-123160154D01*
X133128251Y-123162477D01*
X133023389Y-123235902D01*
X132945211Y-123290643D01*
X132945208Y-123290645D01*
X132940700Y-123293802D01*
X132778802Y-123455700D01*
X132775645Y-123460208D01*
X132775643Y-123460211D01*
X132738008Y-123513959D01*
X132647477Y-123643251D01*
X132645154Y-123648233D01*
X132645151Y-123648238D01*
X132629195Y-123682457D01*
X132582278Y-123735742D01*
X132514001Y-123755203D01*
X132446041Y-123734661D01*
X132400805Y-123682457D01*
X132384849Y-123648238D01*
X132384846Y-123648233D01*
X132382523Y-123643251D01*
X132291992Y-123513959D01*
X132254357Y-123460211D01*
X132254355Y-123460208D01*
X132251198Y-123455700D01*
X132089300Y-123293802D01*
X132084792Y-123290645D01*
X132084789Y-123290643D01*
X132006611Y-123235902D01*
X131901749Y-123162477D01*
X131896767Y-123160154D01*
X131896762Y-123160151D01*
X131699225Y-123068039D01*
X131699224Y-123068039D01*
X131694243Y-123065716D01*
X131688935Y-123064294D01*
X131688933Y-123064293D01*
X131478402Y-123007881D01*
X131478400Y-123007881D01*
X131473087Y-123006457D01*
X131245000Y-122986502D01*
X131016913Y-123006457D01*
X130953458Y-123023460D01*
X130882482Y-123021770D01*
X130831753Y-122990848D01*
X127083652Y-119242747D01*
X127076112Y-119234461D01*
X127072000Y-119227982D01*
X127022348Y-119181356D01*
X127019507Y-119178602D01*
X126999770Y-119158865D01*
X126996573Y-119156385D01*
X126987551Y-119148680D01*
X126961100Y-119123841D01*
X126955321Y-119118414D01*
X126948375Y-119114595D01*
X126948372Y-119114593D01*
X126937566Y-119108652D01*
X126921047Y-119097801D01*
X126920583Y-119097441D01*
X126905041Y-119085386D01*
X126897772Y-119082241D01*
X126897768Y-119082238D01*
X126864463Y-119067826D01*
X126853813Y-119062609D01*
X126815060Y-119041305D01*
X126795437Y-119036267D01*
X126776734Y-119029863D01*
X126765420Y-119024967D01*
X126765419Y-119024967D01*
X126758145Y-119021819D01*
X126750322Y-119020580D01*
X126750312Y-119020577D01*
X126714476Y-119014901D01*
X126702856Y-119012495D01*
X126667711Y-119003472D01*
X126667710Y-119003472D01*
X126660030Y-119001500D01*
X126639776Y-119001500D01*
X126620065Y-118999949D01*
X126607886Y-118998020D01*
X126600057Y-118996780D01*
X126592165Y-118997526D01*
X126556039Y-119000941D01*
X126544181Y-119001500D01*
X119519394Y-119001500D01*
X119451273Y-118981498D01*
X119416181Y-118947771D01*
X119309357Y-118795211D01*
X119309355Y-118795208D01*
X119306198Y-118790700D01*
X119144300Y-118628802D01*
X119139792Y-118625645D01*
X119139789Y-118625643D01*
X119061611Y-118570902D01*
X118956749Y-118497477D01*
X118951767Y-118495154D01*
X118951762Y-118495151D01*
X118916951Y-118478919D01*
X118863666Y-118432002D01*
X118844205Y-118363725D01*
X118864747Y-118295765D01*
X118916951Y-118250529D01*
X118951511Y-118234414D01*
X118961007Y-118228931D01*
X119139467Y-118103972D01*
X119147875Y-118096916D01*
X119301916Y-117942875D01*
X119308972Y-117934467D01*
X119433931Y-117756007D01*
X119439414Y-117746511D01*
X119531490Y-117549053D01*
X119535236Y-117538761D01*
X119581394Y-117366497D01*
X119581058Y-117352401D01*
X119573116Y-117349000D01*
X117032033Y-117349000D01*
X117018502Y-117352973D01*
X117017273Y-117361522D01*
X117064764Y-117538761D01*
X117068510Y-117549053D01*
X117160586Y-117746511D01*
X117166069Y-117756007D01*
X117291028Y-117934467D01*
X117298084Y-117942875D01*
X117452125Y-118096916D01*
X117460533Y-118103972D01*
X117638993Y-118228931D01*
X117648489Y-118234414D01*
X117683049Y-118250529D01*
X117736334Y-118297446D01*
X117755795Y-118365723D01*
X117735253Y-118433683D01*
X117683049Y-118478919D01*
X117648238Y-118495151D01*
X117648233Y-118495154D01*
X117643251Y-118497477D01*
X117538389Y-118570902D01*
X117460211Y-118625643D01*
X117460208Y-118625645D01*
X117455700Y-118628802D01*
X117293802Y-118790700D01*
X117290645Y-118795208D01*
X117290643Y-118795211D01*
X117282043Y-118807493D01*
X117162477Y-118978251D01*
X117160154Y-118983233D01*
X117160151Y-118983238D01*
X117079409Y-119156392D01*
X117065716Y-119185757D01*
X117006457Y-119406913D01*
X116986502Y-119635000D01*
X117006457Y-119863087D01*
X117065716Y-120084243D01*
X117068039Y-120089224D01*
X117068039Y-120089225D01*
X117160151Y-120286762D01*
X117160154Y-120286767D01*
X117162477Y-120291749D01*
X117293802Y-120479300D01*
X117455700Y-120641198D01*
X117460208Y-120644355D01*
X117460211Y-120644357D01*
X117530926Y-120693872D01*
X117643251Y-120772523D01*
X117648233Y-120774846D01*
X117648238Y-120774849D01*
X117682457Y-120790805D01*
X117735742Y-120837722D01*
X117755203Y-120905999D01*
X117734661Y-120973959D01*
X117682457Y-121019195D01*
X117648238Y-121035151D01*
X117648233Y-121035154D01*
X117643251Y-121037477D01*
X117538389Y-121110902D01*
X117460211Y-121165643D01*
X117460208Y-121165645D01*
X117455700Y-121168802D01*
X117293802Y-121330700D01*
X117162477Y-121518251D01*
X117160154Y-121523233D01*
X117160151Y-121523238D01*
X117068039Y-121720775D01*
X117065716Y-121725757D01*
X117006457Y-121946913D01*
X116986502Y-122175000D01*
X117006457Y-122403087D01*
X117007881Y-122408400D01*
X117007881Y-122408402D01*
X117055676Y-122586772D01*
X117065716Y-122624243D01*
X117068039Y-122629224D01*
X117068039Y-122629225D01*
X117160151Y-122826762D01*
X117160154Y-122826767D01*
X117162477Y-122831749D01*
X117197774Y-122882158D01*
X117284474Y-123005978D01*
X117293802Y-123019300D01*
X117455700Y-123181198D01*
X117460208Y-123184355D01*
X117460211Y-123184357D01*
X117538389Y-123239098D01*
X117643251Y-123312523D01*
X117648233Y-123314846D01*
X117648238Y-123314849D01*
X117682457Y-123330805D01*
X117735742Y-123377722D01*
X117755203Y-123445999D01*
X117734661Y-123513959D01*
X117682457Y-123559195D01*
X117648238Y-123575151D01*
X117648233Y-123575154D01*
X117643251Y-123577477D01*
X117555754Y-123638743D01*
X117460211Y-123705643D01*
X117460208Y-123705645D01*
X117455700Y-123708802D01*
X117293802Y-123870700D01*
X117162477Y-124058251D01*
X117160154Y-124063233D01*
X117160151Y-124063238D01*
X117068039Y-124260775D01*
X117065716Y-124265757D01*
X117064294Y-124271065D01*
X117064293Y-124271067D01*
X117007881Y-124481598D01*
X117006457Y-124486913D01*
X116986502Y-124715000D01*
X117006457Y-124943087D01*
X117007881Y-124948400D01*
X117007881Y-124948402D01*
X117061400Y-125148134D01*
X117065716Y-125164243D01*
X117068039Y-125169224D01*
X117068039Y-125169225D01*
X117160151Y-125366762D01*
X117160154Y-125366767D01*
X117162477Y-125371749D01*
X117165634Y-125376257D01*
X117289928Y-125553767D01*
X117293802Y-125559300D01*
X117455700Y-125721198D01*
X117460208Y-125724355D01*
X117460211Y-125724357D01*
X117488960Y-125744487D01*
X117643251Y-125852523D01*
X117648233Y-125854846D01*
X117648238Y-125854849D01*
X117682457Y-125870805D01*
X117735742Y-125917722D01*
X117755203Y-125985999D01*
X117734661Y-126053959D01*
X117682457Y-126099195D01*
X117648238Y-126115151D01*
X117648233Y-126115154D01*
X117643251Y-126117477D01*
X117613627Y-126138220D01*
X117460211Y-126245643D01*
X117460208Y-126245645D01*
X117455700Y-126248802D01*
X117293802Y-126410700D01*
X117162477Y-126598251D01*
X117160154Y-126603233D01*
X117160151Y-126603238D01*
X117068039Y-126800775D01*
X117065716Y-126805757D01*
X117006457Y-127026913D01*
X116986502Y-127255000D01*
X117006457Y-127483087D01*
X117007881Y-127488400D01*
X117007881Y-127488402D01*
X117060934Y-127686395D01*
X117065716Y-127704243D01*
X117068039Y-127709224D01*
X117068039Y-127709225D01*
X117160151Y-127906762D01*
X117160154Y-127906767D01*
X117162477Y-127911749D01*
X117293802Y-128099300D01*
X117455700Y-128261198D01*
X117460208Y-128264355D01*
X117460211Y-128264357D01*
X117538389Y-128319098D01*
X117643251Y-128392523D01*
X117648233Y-128394846D01*
X117648238Y-128394849D01*
X117682457Y-128410805D01*
X117735742Y-128457722D01*
X117755203Y-128525999D01*
X117734661Y-128593959D01*
X117682457Y-128639195D01*
X117648238Y-128655151D01*
X117648233Y-128655154D01*
X117643251Y-128657477D01*
X117538389Y-128730902D01*
X117460211Y-128785643D01*
X117460208Y-128785645D01*
X117455700Y-128788802D01*
X117293802Y-128950700D01*
X117162477Y-129138251D01*
X117160154Y-129143233D01*
X117160151Y-129143238D01*
X117068039Y-129340775D01*
X117065716Y-129345757D01*
X117006457Y-129566913D01*
X116986502Y-129795000D01*
X117006457Y-130023087D01*
X117007881Y-130028400D01*
X117007881Y-130028402D01*
X117060934Y-130226395D01*
X117065716Y-130244243D01*
X117068039Y-130249224D01*
X117068039Y-130249225D01*
X117160151Y-130446762D01*
X117160154Y-130446767D01*
X117162477Y-130451749D01*
X117293802Y-130639300D01*
X117455700Y-130801198D01*
X117460208Y-130804355D01*
X117460211Y-130804357D01*
X117524832Y-130849605D01*
X117643251Y-130932523D01*
X117648233Y-130934846D01*
X117648238Y-130934849D01*
X117682457Y-130950805D01*
X117735742Y-130997722D01*
X117755203Y-131065999D01*
X117734661Y-131133959D01*
X117682457Y-131179195D01*
X117648238Y-131195151D01*
X117648233Y-131195154D01*
X117643251Y-131197477D01*
X117622990Y-131211664D01*
X117460211Y-131325643D01*
X117460208Y-131325645D01*
X117455700Y-131328802D01*
X117293802Y-131490700D01*
X117162477Y-131678251D01*
X117160154Y-131683233D01*
X117160151Y-131683238D01*
X117068039Y-131880775D01*
X117065716Y-131885757D01*
X117006457Y-132106913D01*
X116986502Y-132335000D01*
X117006457Y-132563087D01*
X117065716Y-132784243D01*
X117068039Y-132789224D01*
X117068039Y-132789225D01*
X117160151Y-132986762D01*
X117160154Y-132986767D01*
X117162477Y-132991749D01*
X117293802Y-133179300D01*
X117455700Y-133341198D01*
X117460211Y-133344357D01*
X117464424Y-133347892D01*
X117463473Y-133349026D01*
X117503471Y-133399071D01*
X117510776Y-133469690D01*
X117478742Y-133533049D01*
X117417538Y-133569030D01*
X117400483Y-133572082D01*
X117389684Y-133573255D01*
X117253295Y-133624385D01*
X117136739Y-133711739D01*
X117049385Y-133828295D01*
X116998255Y-133964684D01*
X116991500Y-134026866D01*
X116991500Y-135723134D01*
X116998255Y-135785316D01*
X117049385Y-135921705D01*
X117136739Y-136038261D01*
X117253295Y-136125615D01*
X117261696Y-136128764D01*
X117263918Y-136129981D01*
X117314064Y-136180240D01*
X117329077Y-136249631D01*
X117304191Y-136316123D01*
X117247307Y-136358605D01*
X117203408Y-136366500D01*
X113259500Y-136366500D01*
X113191379Y-136346498D01*
X113144886Y-136292842D01*
X113133500Y-136240500D01*
X113133500Y-118993768D01*
X113134027Y-118982585D01*
X113135702Y-118975092D01*
X113133562Y-118907001D01*
X113133500Y-118903044D01*
X113133500Y-118875144D01*
X113132996Y-118871153D01*
X113132063Y-118859311D01*
X113130923Y-118823036D01*
X113130674Y-118815111D01*
X113125021Y-118795652D01*
X113121012Y-118776293D01*
X113120846Y-118774983D01*
X113118474Y-118756203D01*
X113115558Y-118748837D01*
X113115556Y-118748831D01*
X113102200Y-118715098D01*
X113098355Y-118703868D01*
X113088230Y-118669017D01*
X113088230Y-118669016D01*
X113086019Y-118661407D01*
X113075705Y-118643966D01*
X113067008Y-118626213D01*
X113062472Y-118614758D01*
X113059552Y-118607383D01*
X113033563Y-118571612D01*
X113027047Y-118561692D01*
X113008578Y-118530463D01*
X113004542Y-118523638D01*
X112990221Y-118509317D01*
X112977380Y-118494283D01*
X112970131Y-118484306D01*
X112965472Y-118477893D01*
X112931395Y-118449702D01*
X112922616Y-118441712D01*
X111989152Y-117508248D01*
X111955126Y-117445936D01*
X111956541Y-117386541D01*
X111972118Y-117328409D01*
X111972120Y-117328398D01*
X111973543Y-117323087D01*
X111993498Y-117095000D01*
X111973543Y-116866913D01*
X111963244Y-116828478D01*
X111961911Y-116823503D01*
X117018606Y-116823503D01*
X117018942Y-116837599D01*
X117026884Y-116841000D01*
X118027885Y-116841000D01*
X118043124Y-116836525D01*
X118044329Y-116835135D01*
X118046000Y-116827452D01*
X118046000Y-116822885D01*
X118554000Y-116822885D01*
X118558475Y-116838124D01*
X118559865Y-116839329D01*
X118567548Y-116841000D01*
X119567967Y-116841000D01*
X119581498Y-116837027D01*
X119582727Y-116828478D01*
X119535236Y-116651239D01*
X119531490Y-116640947D01*
X119439414Y-116443489D01*
X119433931Y-116433993D01*
X119308972Y-116255533D01*
X119301916Y-116247125D01*
X119147875Y-116093084D01*
X119139467Y-116086028D01*
X118961007Y-115961069D01*
X118951511Y-115955586D01*
X118754053Y-115863510D01*
X118743761Y-115859764D01*
X118571497Y-115813606D01*
X118557401Y-115813942D01*
X118554000Y-115821884D01*
X118554000Y-116822885D01*
X118046000Y-116822885D01*
X118046000Y-115827033D01*
X118042027Y-115813502D01*
X118033478Y-115812273D01*
X117856239Y-115859764D01*
X117845947Y-115863510D01*
X117648489Y-115955586D01*
X117638993Y-115961069D01*
X117460533Y-116086028D01*
X117452125Y-116093084D01*
X117298084Y-116247125D01*
X117291028Y-116255533D01*
X117166069Y-116433993D01*
X117160586Y-116443489D01*
X117068510Y-116640947D01*
X117064764Y-116651239D01*
X117018606Y-116823503D01*
X111961911Y-116823503D01*
X111915707Y-116651067D01*
X111915706Y-116651065D01*
X111914284Y-116645757D01*
X111911961Y-116640775D01*
X111819849Y-116443238D01*
X111819846Y-116443233D01*
X111817523Y-116438251D01*
X111686198Y-116250700D01*
X111524300Y-116088802D01*
X111519792Y-116085645D01*
X111519789Y-116085643D01*
X111424246Y-116018743D01*
X111336749Y-115957477D01*
X111331767Y-115955154D01*
X111331762Y-115955151D01*
X111134225Y-115863039D01*
X111134224Y-115863039D01*
X111129243Y-115860716D01*
X111123935Y-115859294D01*
X111123933Y-115859293D01*
X110913402Y-115802881D01*
X110913400Y-115802881D01*
X110908087Y-115801457D01*
X110680000Y-115781502D01*
X110451913Y-115801457D01*
X110347110Y-115829539D01*
X110276135Y-115827849D01*
X110217339Y-115788055D01*
X110189391Y-115722791D01*
X110188500Y-115707832D01*
X110188500Y-114073142D01*
X110208502Y-114005021D01*
X110262158Y-113958528D01*
X110332432Y-113948424D01*
X110367750Y-113958947D01*
X110550757Y-114044284D01*
X110556065Y-114045706D01*
X110556067Y-114045707D01*
X110766598Y-114102119D01*
X110766600Y-114102119D01*
X110771913Y-114103543D01*
X111000000Y-114123498D01*
X111228087Y-114103543D01*
X111233400Y-114102119D01*
X111233402Y-114102119D01*
X111443933Y-114045707D01*
X111443935Y-114045706D01*
X111449243Y-114044284D01*
X111454225Y-114041961D01*
X111651762Y-113949849D01*
X111651767Y-113949846D01*
X111656749Y-113947523D01*
X111811500Y-113839165D01*
X111839789Y-113819357D01*
X111839792Y-113819355D01*
X111844300Y-113816198D01*
X112006198Y-113654300D01*
X112116181Y-113497229D01*
X112171638Y-113452901D01*
X112219394Y-113443500D01*
X120298673Y-113443500D01*
X120309856Y-113444027D01*
X120317349Y-113445702D01*
X120325275Y-113445453D01*
X120325276Y-113445453D01*
X120385426Y-113443562D01*
X120389385Y-113443500D01*
X120417296Y-113443500D01*
X120421231Y-113443003D01*
X120421296Y-113442995D01*
X120433133Y-113442062D01*
X120465391Y-113441048D01*
X120469410Y-113440922D01*
X120477329Y-113440673D01*
X120496783Y-113435021D01*
X120516140Y-113431013D01*
X120528370Y-113429468D01*
X120528371Y-113429468D01*
X120536237Y-113428474D01*
X120543608Y-113425555D01*
X120543610Y-113425555D01*
X120577352Y-113412196D01*
X120588582Y-113408351D01*
X120623423Y-113398229D01*
X120623424Y-113398229D01*
X120631033Y-113396018D01*
X120637852Y-113391985D01*
X120637857Y-113391983D01*
X120648468Y-113385707D01*
X120666216Y-113377012D01*
X120685057Y-113369552D01*
X120720827Y-113343564D01*
X120730747Y-113337048D01*
X120761975Y-113318580D01*
X120761978Y-113318578D01*
X120768802Y-113314542D01*
X120783123Y-113300221D01*
X120798157Y-113287380D01*
X120808134Y-113280131D01*
X120814547Y-113275472D01*
X120842738Y-113241395D01*
X120850728Y-113232616D01*
X121693459Y-112389885D01*
X121755771Y-112355859D01*
X121810359Y-112356087D01*
X121845110Y-112363950D01*
X121850884Y-112364177D01*
X121850885Y-112364177D01*
X121892371Y-112365807D01*
X122062105Y-112372476D01*
X122176708Y-112355859D01*
X122271307Y-112342143D01*
X122271312Y-112342142D01*
X122277021Y-112341314D01*
X122282485Y-112339459D01*
X122282490Y-112339458D01*
X122477187Y-112273368D01*
X122477192Y-112273366D01*
X122482659Y-112271510D01*
X122487702Y-112268686D01*
X122667086Y-112168226D01*
X122667090Y-112168223D01*
X122672133Y-112165399D01*
X122784932Y-112071586D01*
X122850095Y-112043405D01*
X122920150Y-112054929D01*
G37*
%TD.AperFunction*%
%TA.AperFunction,Conductor*%
G36*
X115133621Y-76073502D02*
G01*
X115180114Y-76127158D01*
X115191500Y-76179500D01*
X115191500Y-76393022D01*
X115198255Y-76455204D01*
X115249385Y-76591593D01*
X115281444Y-76634369D01*
X115331355Y-76700966D01*
X115331358Y-76700969D01*
X115336739Y-76708149D01*
X115343919Y-76713530D01*
X115350270Y-76719881D01*
X115348128Y-76722023D01*
X115381564Y-76766734D01*
X115386594Y-76837552D01*
X115368477Y-76878923D01*
X115368818Y-76879120D01*
X115367048Y-76882186D01*
X115366701Y-76882978D01*
X115366071Y-76883877D01*
X115360586Y-76893377D01*
X115268510Y-77090835D01*
X115264764Y-77101127D01*
X115208375Y-77311576D01*
X115206472Y-77322369D01*
X115187483Y-77539413D01*
X115187483Y-77550363D01*
X115206472Y-77767407D01*
X115208375Y-77778200D01*
X115264764Y-77988649D01*
X115268510Y-77998941D01*
X115360586Y-78196399D01*
X115366069Y-78205894D01*
X115402509Y-78257936D01*
X115412988Y-78266312D01*
X115426434Y-78259244D01*
X116410905Y-77274773D01*
X116473217Y-77240747D01*
X116544032Y-77245812D01*
X116589095Y-77274773D01*
X117574287Y-78259965D01*
X117586062Y-78266395D01*
X117598077Y-78257099D01*
X117633931Y-78205894D01*
X117639414Y-78196399D01*
X117728443Y-78005475D01*
X120187483Y-78005475D01*
X120206472Y-78222519D01*
X120208375Y-78233312D01*
X120264764Y-78443761D01*
X120268510Y-78454053D01*
X120360586Y-78651511D01*
X120366069Y-78661006D01*
X120402509Y-78713048D01*
X120412988Y-78721424D01*
X120426434Y-78714356D01*
X121127978Y-78012812D01*
X121134356Y-78001132D01*
X121864408Y-78001132D01*
X121864539Y-78002965D01*
X121868790Y-78009580D01*
X122574287Y-78715077D01*
X122586062Y-78721507D01*
X122598077Y-78712211D01*
X122633931Y-78661006D01*
X122639414Y-78651511D01*
X122731490Y-78454053D01*
X122735236Y-78443761D01*
X122791625Y-78233312D01*
X122793528Y-78222519D01*
X122812517Y-78005475D01*
X122812517Y-77994525D01*
X122793528Y-77777481D01*
X122791625Y-77766688D01*
X122735236Y-77556239D01*
X122731490Y-77545947D01*
X122639414Y-77348489D01*
X122633931Y-77338994D01*
X122597491Y-77286952D01*
X122587012Y-77278576D01*
X122573566Y-77285644D01*
X121872022Y-77987188D01*
X121864408Y-78001132D01*
X121134356Y-78001132D01*
X121135592Y-77998868D01*
X121135461Y-77997035D01*
X121131210Y-77990420D01*
X120425713Y-77284923D01*
X120413938Y-77278493D01*
X120401923Y-77287789D01*
X120366069Y-77338994D01*
X120360586Y-77348489D01*
X120268510Y-77545947D01*
X120264764Y-77556239D01*
X120208375Y-77766688D01*
X120206472Y-77777481D01*
X120187483Y-77994525D01*
X120187483Y-78005475D01*
X117728443Y-78005475D01*
X117731490Y-77998941D01*
X117735236Y-77988649D01*
X117791625Y-77778200D01*
X117793528Y-77767407D01*
X117812517Y-77550363D01*
X117812517Y-77539413D01*
X117793528Y-77322369D01*
X117791625Y-77311576D01*
X117735236Y-77101127D01*
X117731490Y-77090835D01*
X117639414Y-76893377D01*
X117633929Y-76883877D01*
X117633299Y-76882978D01*
X117633144Y-76882518D01*
X117631182Y-76879120D01*
X117631865Y-76878726D01*
X117610612Y-76815704D01*
X117627898Y-76746844D01*
X117650934Y-76721085D01*
X117649730Y-76719881D01*
X117656081Y-76713530D01*
X117663261Y-76708149D01*
X117668642Y-76700969D01*
X117668645Y-76700966D01*
X117718556Y-76634369D01*
X117750615Y-76591593D01*
X117801745Y-76455204D01*
X117808500Y-76393022D01*
X117808500Y-76179500D01*
X117828502Y-76111379D01*
X117882158Y-76064886D01*
X117934500Y-76053500D01*
X120234061Y-76053500D01*
X120302182Y-76073502D01*
X120348256Y-76126250D01*
X120362477Y-76156749D01*
X120388616Y-76194079D01*
X120474849Y-76317232D01*
X120493802Y-76344300D01*
X120655700Y-76506198D01*
X120660208Y-76509355D01*
X120660211Y-76509357D01*
X120680968Y-76523891D01*
X120843251Y-76637523D01*
X120848235Y-76639847D01*
X120850528Y-76641171D01*
X120899521Y-76692553D01*
X120912957Y-76762267D01*
X120886571Y-76828178D01*
X120850528Y-76859409D01*
X120838998Y-76866066D01*
X120786952Y-76902509D01*
X120778576Y-76912988D01*
X120785644Y-76926434D01*
X121487188Y-77627978D01*
X121501132Y-77635592D01*
X121502965Y-77635461D01*
X121509580Y-77631210D01*
X122215077Y-76925713D01*
X122221507Y-76913938D01*
X122212211Y-76901923D01*
X122161002Y-76866066D01*
X122149472Y-76859409D01*
X122100479Y-76808027D01*
X122087042Y-76738313D01*
X122113429Y-76672402D01*
X122149472Y-76641171D01*
X122151765Y-76639847D01*
X122156749Y-76637523D01*
X122319032Y-76523891D01*
X122339789Y-76509357D01*
X122339792Y-76509355D01*
X122344300Y-76506198D01*
X122506198Y-76344300D01*
X122525152Y-76317232D01*
X122611384Y-76194079D01*
X122637523Y-76156749D01*
X122651744Y-76126250D01*
X122698660Y-76072966D01*
X122765939Y-76053500D01*
X167712151Y-76053500D01*
X167780272Y-76073502D01*
X167826765Y-76127158D01*
X167836869Y-76197432D01*
X167814085Y-76253564D01*
X167813841Y-76253900D01*
X167808414Y-76259679D01*
X167804595Y-76266626D01*
X167804594Y-76266627D01*
X167798652Y-76277434D01*
X167787801Y-76293953D01*
X167775386Y-76309959D01*
X167772241Y-76317228D01*
X167772238Y-76317232D01*
X167757826Y-76350537D01*
X167752609Y-76361187D01*
X167731305Y-76399940D01*
X167729334Y-76407615D01*
X167729334Y-76407616D01*
X167726267Y-76419562D01*
X167719863Y-76438266D01*
X167711819Y-76456855D01*
X167710580Y-76464678D01*
X167710577Y-76464688D01*
X167704901Y-76500524D01*
X167702495Y-76512144D01*
X167691500Y-76554970D01*
X167691500Y-76575224D01*
X167689949Y-76594934D01*
X167686780Y-76614943D01*
X167687526Y-76622835D01*
X167690941Y-76658961D01*
X167691500Y-76670819D01*
X167691500Y-78407934D01*
X167690973Y-78419117D01*
X167689298Y-78426610D01*
X167689547Y-78434536D01*
X167689547Y-78434537D01*
X167691438Y-78494687D01*
X167691500Y-78498646D01*
X167691500Y-78526557D01*
X167691997Y-78530491D01*
X167691997Y-78530492D01*
X167692005Y-78530557D01*
X167692938Y-78542394D01*
X167694327Y-78586590D01*
X167699978Y-78606040D01*
X167703987Y-78625401D01*
X167706526Y-78645498D01*
X167709445Y-78652869D01*
X167709445Y-78652871D01*
X167722804Y-78686613D01*
X167726649Y-78697843D01*
X167731656Y-78715077D01*
X167738982Y-78740294D01*
X167743015Y-78747113D01*
X167743017Y-78747118D01*
X167749293Y-78757729D01*
X167757988Y-78775477D01*
X167765448Y-78794318D01*
X167770110Y-78800734D01*
X167770110Y-78800735D01*
X167791436Y-78830088D01*
X167797952Y-78840008D01*
X167808241Y-78857405D01*
X167820458Y-78878063D01*
X167834779Y-78892384D01*
X167847619Y-78907417D01*
X167859528Y-78923808D01*
X167865634Y-78928859D01*
X167893605Y-78951999D01*
X167902384Y-78959989D01*
X168443398Y-79501003D01*
X168477424Y-79563315D01*
X168472359Y-79634130D01*
X168447241Y-79674204D01*
X168447457Y-79674379D01*
X168446017Y-79676157D01*
X168445394Y-79677152D01*
X168440629Y-79682138D01*
X168352380Y-79811506D01*
X168297471Y-79856507D01*
X168248294Y-79866500D01*
X112276805Y-79866500D01*
X112208684Y-79846498D01*
X112171013Y-79808940D01*
X112082822Y-79672617D01*
X112082820Y-79672614D01*
X112080014Y-79668277D01*
X111929670Y-79503051D01*
X111925619Y-79499852D01*
X111925615Y-79499848D01*
X111758414Y-79367800D01*
X111758410Y-79367798D01*
X111754359Y-79364598D01*
X111712569Y-79341529D01*
X111662598Y-79291097D01*
X111647826Y-79221654D01*
X111672942Y-79155248D01*
X111700294Y-79128641D01*
X111759988Y-79086062D01*
X120778493Y-79086062D01*
X120787789Y-79098077D01*
X120838994Y-79133931D01*
X120848489Y-79139414D01*
X121045947Y-79231490D01*
X121056239Y-79235236D01*
X121266688Y-79291625D01*
X121277481Y-79293528D01*
X121494525Y-79312517D01*
X121505475Y-79312517D01*
X121722519Y-79293528D01*
X121733312Y-79291625D01*
X121943761Y-79235236D01*
X121954053Y-79231490D01*
X122151511Y-79139414D01*
X122161006Y-79133931D01*
X122213048Y-79097491D01*
X122221424Y-79087012D01*
X122214356Y-79073566D01*
X121512812Y-78372022D01*
X121498868Y-78364408D01*
X121497035Y-78364539D01*
X121490420Y-78368790D01*
X120784923Y-79074287D01*
X120778493Y-79086062D01*
X111759988Y-79086062D01*
X111875328Y-79003792D01*
X111883200Y-78997139D01*
X112034052Y-78846812D01*
X112040730Y-78838965D01*
X112165003Y-78666020D01*
X112170313Y-78657183D01*
X112183278Y-78630950D01*
X115778493Y-78630950D01*
X115787789Y-78642965D01*
X115838994Y-78678819D01*
X115848489Y-78684302D01*
X116045947Y-78776378D01*
X116056239Y-78780124D01*
X116266688Y-78836513D01*
X116277481Y-78838416D01*
X116494525Y-78857405D01*
X116505475Y-78857405D01*
X116722519Y-78838416D01*
X116733312Y-78836513D01*
X116943761Y-78780124D01*
X116954053Y-78776378D01*
X117151511Y-78684302D01*
X117161006Y-78678819D01*
X117213048Y-78642379D01*
X117221424Y-78631900D01*
X117214356Y-78618454D01*
X116512812Y-77916910D01*
X116498868Y-77909296D01*
X116497035Y-77909427D01*
X116490420Y-77913678D01*
X115784923Y-78619175D01*
X115778493Y-78630950D01*
X112183278Y-78630950D01*
X112264670Y-78466267D01*
X112268469Y-78456672D01*
X112330377Y-78252910D01*
X112332555Y-78242837D01*
X112333986Y-78231962D01*
X112331775Y-78217778D01*
X112318617Y-78214000D01*
X110872000Y-78214000D01*
X110803879Y-78193998D01*
X110757386Y-78140342D01*
X110746000Y-78088000D01*
X110746000Y-77832000D01*
X110766002Y-77763879D01*
X110819658Y-77717386D01*
X110872000Y-77706000D01*
X112318344Y-77706000D01*
X112331875Y-77702027D01*
X112333180Y-77692947D01*
X112291214Y-77525875D01*
X112287894Y-77516124D01*
X112202972Y-77320814D01*
X112198105Y-77311739D01*
X112082426Y-77132926D01*
X112076136Y-77124757D01*
X111932293Y-76966677D01*
X111901241Y-76902831D01*
X111909635Y-76832333D01*
X111954812Y-76777564D01*
X111981256Y-76763895D01*
X112088297Y-76723767D01*
X112096705Y-76720615D01*
X112213261Y-76633261D01*
X112300615Y-76516705D01*
X112351745Y-76380316D01*
X112358500Y-76318134D01*
X112358500Y-76179500D01*
X112378502Y-76111379D01*
X112432158Y-76064886D01*
X112484500Y-76053500D01*
X115065500Y-76053500D01*
X115133621Y-76073502D01*
G37*
%TD.AperFunction*%
%TD*%
M02*
