%TF.GenerationSoftware,KiCad,Pcbnew,(6.0.9)*%
%TF.CreationDate,2022-12-23T11:45:04+05:30*%
%TF.ProjectId,IN-12 Panel,494e2d31-3220-4506-916e-656c2e6b6963,1.0*%
%TF.SameCoordinates,Original*%
%TF.FileFunction,Copper,L1,Top*%
%TF.FilePolarity,Positive*%
%FSLAX46Y46*%
G04 Gerber Fmt 4.6, Leading zero omitted, Abs format (unit mm)*
G04 Created by KiCad (PCBNEW (6.0.9)) date 2022-12-23 11:45:04*
%MOMM*%
%LPD*%
G01*
G04 APERTURE LIST*
%ADD10C,0.300000*%
%TA.AperFunction,NonConductor*%
%ADD11C,0.300000*%
%TD*%
%TA.AperFunction,ComponentPad*%
%ADD12C,2.540000*%
%TD*%
%TA.AperFunction,ComponentPad*%
%ADD13C,1.600000*%
%TD*%
%TA.AperFunction,ComponentPad*%
%ADD14O,1.600000X1.600000*%
%TD*%
%TA.AperFunction,ComponentPad*%
%ADD15R,1.700000X1.700000*%
%TD*%
%TA.AperFunction,ComponentPad*%
%ADD16O,1.700000X1.700000*%
%TD*%
%TA.AperFunction,ComponentPad*%
%ADD17R,2.000000X2.000000*%
%TD*%
%TA.AperFunction,ComponentPad*%
%ADD18C,2.000000*%
%TD*%
%TA.AperFunction,ComponentPad*%
%ADD19R,1.600000X1.600000*%
%TD*%
%TA.AperFunction,ComponentPad*%
%ADD20R,1.500000X1.050000*%
%TD*%
%TA.AperFunction,ComponentPad*%
%ADD21O,1.500000X1.050000*%
%TD*%
%TA.AperFunction,ComponentPad*%
%ADD22C,1.107440*%
%TD*%
%TA.AperFunction,ViaPad*%
%ADD23C,0.800000*%
%TD*%
%TA.AperFunction,Conductor*%
%ADD24C,0.250000*%
%TD*%
G04 APERTURE END LIST*
D10*
D11*
X176475981Y-119201071D02*
X176475981Y-117701071D01*
X177190267Y-119201071D02*
X177190267Y-117701071D01*
X178047410Y-119201071D01*
X178047410Y-117701071D01*
X178761696Y-118629642D02*
X179904553Y-118629642D01*
X181404553Y-119201071D02*
X180547410Y-119201071D01*
X180975981Y-119201071D02*
X180975981Y-117701071D01*
X180833124Y-117915357D01*
X180690267Y-118058214D01*
X180547410Y-118129642D01*
X181975981Y-117843928D02*
X182047410Y-117772500D01*
X182190267Y-117701071D01*
X182547410Y-117701071D01*
X182690267Y-117772500D01*
X182761696Y-117843928D01*
X182833124Y-117986785D01*
X182833124Y-118129642D01*
X182761696Y-118343928D01*
X181904553Y-119201071D01*
X182833124Y-119201071D01*
X183975981Y-118415357D02*
X184190267Y-118486785D01*
X184261696Y-118558214D01*
X184333124Y-118701071D01*
X184333124Y-118915357D01*
X184261696Y-119058214D01*
X184190267Y-119129642D01*
X184047410Y-119201071D01*
X183475981Y-119201071D01*
X183475981Y-117701071D01*
X183975981Y-117701071D01*
X184118839Y-117772500D01*
X184190267Y-117843928D01*
X184261696Y-117986785D01*
X184261696Y-118129642D01*
X184190267Y-118272500D01*
X184118839Y-118343928D01*
X183975981Y-118415357D01*
X183475981Y-118415357D01*
X178225981Y-120616071D02*
X178583124Y-121616071D01*
X178940267Y-120616071D01*
X180297410Y-121616071D02*
X179440267Y-121616071D01*
X179868839Y-121616071D02*
X179868839Y-120116071D01*
X179725981Y-120330357D01*
X179583124Y-120473214D01*
X179440267Y-120544642D01*
X180940267Y-121473214D02*
X181011696Y-121544642D01*
X180940267Y-121616071D01*
X180868839Y-121544642D01*
X180940267Y-121473214D01*
X180940267Y-121616071D01*
X181940267Y-120116071D02*
X182083124Y-120116071D01*
X182225981Y-120187500D01*
X182297410Y-120258928D01*
X182368839Y-120401785D01*
X182440267Y-120687500D01*
X182440267Y-121044642D01*
X182368839Y-121330357D01*
X182297410Y-121473214D01*
X182225981Y-121544642D01*
X182083124Y-121616071D01*
X181940267Y-121616071D01*
X181797410Y-121544642D01*
X181725981Y-121473214D01*
X181654553Y-121330357D01*
X181583124Y-121044642D01*
X181583124Y-120687500D01*
X181654553Y-120401785D01*
X181725981Y-120258928D01*
X181797410Y-120187500D01*
X181940267Y-120116071D01*
D12*
%TO.P,N2,LHDP,LHDP*%
%TO.N,unconnected-(N2-PadLHDP)*%
X158182500Y-81183660D03*
%TO.P,N2,A,A*%
%TO.N,Net-(N2-PadA)*%
X162180460Y-82184420D03*
%TO.P,N2,9,9*%
%TO.N,Net-(M2-Pad2)*%
X163673980Y-90000000D03*
%TO.P,N2,8,8*%
%TO.N,Net-(M2-Pad1)*%
X163546980Y-94498340D03*
%TO.P,N2,7,7*%
%TO.N,Net-(M2-Pad10)*%
X162180460Y-97815580D03*
%TO.P,N2,6,6*%
%TO.N,Net-(M2-Pad11)*%
X158182500Y-98816340D03*
%TO.P,N2,5,5*%
%TO.N,Net-(M2-Pad14)*%
X154184540Y-97815580D03*
%TO.P,N2,4,4*%
%TO.N,Net-(M2-Pad13)*%
X152500520Y-94498340D03*
%TO.P,N2,3,3*%
%TO.N,Net-(M2-Pad9)*%
X152373520Y-90000000D03*
%TO.P,N2,2,2*%
%TO.N,Net-(M2-Pad8)*%
X152500520Y-85501660D03*
%TO.P,N2,1,1*%
%TO.N,Net-(M2-Pad15)*%
X154184540Y-82184420D03*
%TO.P,N2,0,0*%
%TO.N,Net-(M2-Pad16)*%
X163546980Y-85501660D03*
%TD*%
%TO.P,N1,0,0*%
%TO.N,Net-(M1-Pad16)*%
X137546980Y-85501660D03*
%TO.P,N1,1,1*%
%TO.N,Net-(M1-Pad15)*%
X128184540Y-82184420D03*
%TO.P,N1,2,2*%
%TO.N,Net-(M1-Pad8)*%
X126500520Y-85501660D03*
%TO.P,N1,3,3*%
%TO.N,Net-(M1-Pad9)*%
X126373520Y-90000000D03*
%TO.P,N1,4,4*%
%TO.N,Net-(M1-Pad13)*%
X126500520Y-94498340D03*
%TO.P,N1,5,5*%
%TO.N,Net-(M1-Pad14)*%
X128184540Y-97815580D03*
%TO.P,N1,6,6*%
%TO.N,Net-(M1-Pad11)*%
X132182500Y-98816340D03*
%TO.P,N1,7,7*%
%TO.N,Net-(M1-Pad10)*%
X136180460Y-97815580D03*
%TO.P,N1,8,8*%
%TO.N,Net-(M1-Pad1)*%
X137546980Y-94498340D03*
%TO.P,N1,9,9*%
%TO.N,Net-(M1-Pad2)*%
X137673980Y-90000000D03*
%TO.P,N1,A,A*%
%TO.N,Net-(N1-PadA)*%
X136180460Y-82184420D03*
%TO.P,N1,LHDP,LHDP*%
%TO.N,unconnected-(N1-PadLHDP)*%
X132182500Y-81183660D03*
%TD*%
D13*
%TO.P,R3,1*%
%TO.N,Net-(N1-PadA)*%
X121500000Y-97810000D03*
D14*
%TO.P,R3,2*%
%TO.N,+180V*%
X121500000Y-90190000D03*
%TD*%
D13*
%TO.P,R1,1*%
%TO.N,/NBLB{slash}INS1{slash}IN3*%
X170000000Y-74190000D03*
D14*
%TO.P,R1,2*%
%TO.N,Net-(Q1-Pad2)*%
X170000000Y-81810000D03*
%TD*%
D15*
%TO.P,J4,1,Pin_1*%
%TO.N,VCC*%
X121500000Y-60420000D03*
D16*
%TO.P,J4,2,Pin_2*%
%TO.N,GND*%
X121500000Y-62960000D03*
%TO.P,J4,3,Pin_3*%
%TO.N,/NBLB{slash}INS1{slash}IN3*%
X121500000Y-65500000D03*
%TO.P,J4,4,Pin_4*%
%TO.N,/RCLK*%
X121500000Y-68040000D03*
%TO.P,J4,5,Pin_5*%
%TO.N,/SRCLK*%
X121500000Y-70580000D03*
%TO.P,J4,6,Pin_6*%
%TO.N,/SERIN*%
X121500000Y-73120000D03*
%TD*%
D15*
%TO.P,J1,1,Pin_1*%
%TO.N,+180V*%
X180000000Y-78725000D03*
D16*
%TO.P,J1,2,Pin_2*%
%TO.N,GND1*%
X180000000Y-81265000D03*
%TD*%
D15*
%TO.P,J2,1,Pin_1*%
%TO.N,+180V*%
X121500000Y-78725000D03*
D16*
%TO.P,J2,2,Pin_2*%
%TO.N,GND1*%
X121500000Y-81265000D03*
%TD*%
D17*
%TO.P,C1,1*%
%TO.N,+180V*%
X130500000Y-71632323D03*
D18*
%TO.P,C1,2*%
%TO.N,GND1*%
X130500000Y-76632323D03*
%TD*%
D13*
%TO.P,C2,1*%
%TO.N,GND*%
X132000000Y-63000000D03*
%TO.P,C2,2*%
%TO.N,VCC*%
X132000000Y-60500000D03*
%TD*%
D15*
%TO.P,J3,1,Pin_1*%
%TO.N,VCC*%
X180000000Y-60460000D03*
D16*
%TO.P,J3,2,Pin_2*%
%TO.N,GND*%
X180000000Y-63000000D03*
%TO.P,J3,3,Pin_3*%
%TO.N,/NBLB{slash}INS1{slash}IN3*%
X180000000Y-65540000D03*
%TO.P,J3,4,Pin_4*%
%TO.N,/RCLK*%
X180000000Y-68080000D03*
%TO.P,J3,5,Pin_5*%
%TO.N,/SRCLK*%
X180000000Y-70620000D03*
%TO.P,J3,6,Pin_6*%
%TO.N,/SEROUT*%
X180000000Y-73160000D03*
%TD*%
D13*
%TO.P,R4,1*%
%TO.N,Net-(N2-PadA)*%
X173500000Y-97810000D03*
D14*
%TO.P,R4,2*%
%TO.N,+180V*%
X173500000Y-90190000D03*
%TD*%
D19*
%TO.P,C3,1*%
%TO.N,VCC*%
X127000000Y-60544888D03*
D13*
%TO.P,C3,2*%
%TO.N,GND*%
X127000000Y-62544888D03*
%TD*%
%TO.P,R2,1*%
%TO.N,+180V*%
X167000000Y-74190000D03*
D14*
%TO.P,R2,2*%
%TO.N,Net-(N3-PadA)*%
X167000000Y-81810000D03*
%TD*%
%TO.P,U1,16,VCC*%
%TO.N,VCC*%
X121180000Y-121305000D03*
%TO.P,U1,15,QA*%
%TO.N,/QA*%
X121180000Y-118765000D03*
%TO.P,U1,14,SER*%
%TO.N,/SERIN*%
X121180000Y-116225000D03*
%TO.P,U1,13,~{OE}*%
%TO.N,GND*%
X121180000Y-113685000D03*
%TO.P,U1,12,RCLK*%
%TO.N,/RCLK*%
X121180000Y-111145000D03*
%TO.P,U1,11,SRCLK*%
%TO.N,/SRCLK*%
X121180000Y-108605000D03*
%TO.P,U1,10,~{SRCLR}*%
%TO.N,VCC*%
X121180000Y-106065000D03*
%TO.P,U1,9,QH'*%
%TO.N,/SEROUT*%
X121180000Y-103525000D03*
%TO.P,U1,8,GND*%
%TO.N,GND*%
X128800000Y-103525000D03*
%TO.P,U1,7,QH*%
%TO.N,/QH*%
X128800000Y-106065000D03*
%TO.P,U1,6,QG*%
%TO.N,/QG*%
X128800000Y-108605000D03*
%TO.P,U1,5,QF*%
%TO.N,/QF*%
X128800000Y-111145000D03*
%TO.P,U1,4,QE*%
%TO.N,/QE*%
X128800000Y-113685000D03*
%TO.P,U1,3,QD*%
%TO.N,/QD*%
X128800000Y-116225000D03*
%TO.P,U1,2,QC*%
%TO.N,/QC*%
X128800000Y-118765000D03*
D19*
%TO.P,U1,1,QB*%
%TO.N,/QB*%
X128800000Y-121305000D03*
%TD*%
D20*
%TO.P,Q1,1,E*%
%TO.N,GND1*%
X174140000Y-78730000D03*
D21*
%TO.P,Q1,2,B*%
%TO.N,Net-(Q1-Pad2)*%
X174140000Y-80000000D03*
%TO.P,Q1,3,C*%
%TO.N,Net-(N3-PadK)*%
X174140000Y-81270000D03*
%TD*%
D22*
%TO.P,N3,A,A*%
%TO.N,Net-(N3-PadA)*%
X182087500Y-90000000D03*
%TO.P,N3,K,K*%
%TO.N,Net-(N3-PadK)*%
X178912500Y-90000000D03*
%TD*%
D14*
%TO.P,M2,16,0*%
%TO.N,Net-(M2-Pad16)*%
X159993839Y-104910000D03*
%TO.P,M2,15,1*%
%TO.N,Net-(M2-Pad15)*%
X162533839Y-104910000D03*
%TO.P,M2,14,5*%
%TO.N,Net-(M2-Pad14)*%
X165073839Y-104910000D03*
%TO.P,M2,13,4*%
%TO.N,Net-(M2-Pad13)*%
X167613839Y-104910000D03*
%TO.P,M2,12,GND*%
%TO.N,GND1*%
X170153839Y-104910000D03*
%TO.P,M2,11,6*%
%TO.N,Net-(M2-Pad11)*%
X172693839Y-104910000D03*
%TO.P,M2,10,7*%
%TO.N,Net-(M2-Pad10)*%
X175233839Y-104910000D03*
%TO.P,M2,9,3*%
%TO.N,Net-(M2-Pad9)*%
X177773839Y-104910000D03*
%TO.P,M2,8,2*%
%TO.N,Net-(M2-Pad8)*%
X177773839Y-112530000D03*
%TO.P,M2,7,C*%
%TO.N,/QC*%
X175233839Y-112530000D03*
%TO.P,M2,6,B*%
%TO.N,/QB*%
X172693839Y-112530000D03*
%TO.P,M2,5,VCC*%
%TO.N,VCC*%
X170153839Y-112530000D03*
%TO.P,M2,4,D*%
%TO.N,/QD*%
X167613839Y-112530000D03*
%TO.P,M2,3,A*%
%TO.N,/QA*%
X165073839Y-112530000D03*
%TO.P,M2,2,9*%
%TO.N,Net-(M2-Pad2)*%
X162533839Y-112530000D03*
D19*
%TO.P,M2,1,8*%
%TO.N,Net-(M2-Pad1)*%
X159993839Y-112530000D03*
%TD*%
D14*
%TO.P,M1,16,0*%
%TO.N,Net-(M1-Pad16)*%
X134118839Y-104910000D03*
%TO.P,M1,15,1*%
%TO.N,Net-(M1-Pad15)*%
X136658839Y-104910000D03*
%TO.P,M1,14,5*%
%TO.N,Net-(M1-Pad14)*%
X139198839Y-104910000D03*
%TO.P,M1,13,4*%
%TO.N,Net-(M1-Pad13)*%
X141738839Y-104910000D03*
%TO.P,M1,12,GND*%
%TO.N,GND1*%
X144278839Y-104910000D03*
%TO.P,M1,11,6*%
%TO.N,Net-(M1-Pad11)*%
X146818839Y-104910000D03*
%TO.P,M1,10,7*%
%TO.N,Net-(M1-Pad10)*%
X149358839Y-104910000D03*
%TO.P,M1,9,3*%
%TO.N,Net-(M1-Pad9)*%
X151898839Y-104910000D03*
%TO.P,M1,8,2*%
%TO.N,Net-(M1-Pad8)*%
X151898839Y-112530000D03*
%TO.P,M1,7,C*%
%TO.N,/QG*%
X149358839Y-112530000D03*
%TO.P,M1,6,B*%
%TO.N,/QF*%
X146818839Y-112530000D03*
%TO.P,M1,5,VCC*%
%TO.N,VCC*%
X144278839Y-112530000D03*
%TO.P,M1,4,D*%
%TO.N,/QH*%
X141738839Y-112530000D03*
%TO.P,M1,3,A*%
%TO.N,/QE*%
X139198839Y-112530000D03*
%TO.P,M1,2,9*%
%TO.N,Net-(M1-Pad2)*%
X136658839Y-112530000D03*
D19*
%TO.P,M1,1,8*%
%TO.N,Net-(M1-Pad1)*%
X134118839Y-112530000D03*
%TD*%
D23*
%TO.N,/SEROUT*%
X183868839Y-73230000D03*
%TD*%
D24*
%TO.N,Net-(M1-Pad15)*%
X128184540Y-89749501D02*
X128184540Y-82184420D01*
X129779540Y-91344501D02*
X128184540Y-89749501D01*
X129779540Y-101640757D02*
X129779540Y-91344501D01*
X132868839Y-104730056D02*
X129779540Y-101640757D01*
X132868839Y-107230000D02*
X132868839Y-104730056D01*
X135868839Y-107230000D02*
X132868839Y-107230000D01*
X136658839Y-106440000D02*
X135868839Y-107230000D01*
X136658839Y-104910000D02*
X136658839Y-106440000D01*
%TO.N,Net-(M1-Pad14)*%
X132368839Y-104866452D02*
X128184540Y-100682153D01*
X138282443Y-107730000D02*
X132368839Y-107730000D01*
X132368839Y-107730000D02*
X132368839Y-104866452D01*
X139198839Y-106813604D02*
X138282443Y-107730000D01*
X139198839Y-104910000D02*
X139198839Y-106813604D01*
X128184540Y-100682153D02*
X128184540Y-97815580D01*
%TO.N,Net-(M1-Pad13)*%
X126500520Y-99634529D02*
X126500520Y-94498340D01*
X131868839Y-108230000D02*
X131868839Y-105002848D01*
X131868839Y-105002848D02*
X126500520Y-99634529D01*
X138418839Y-108230000D02*
X131868839Y-108230000D01*
X141738839Y-104910000D02*
X138418839Y-108230000D01*
%TO.N,Net-(M1-Pad16)*%
X134118839Y-92620812D02*
X136078980Y-90660671D01*
X134118839Y-104910000D02*
X134118839Y-92620812D01*
X136078980Y-90660671D02*
X136078980Y-86969660D01*
X136078980Y-86969660D02*
X137546980Y-85501660D01*
%TO.N,Net-(M2-Pad11)*%
X170513839Y-102730000D02*
X172693839Y-104910000D01*
X162096160Y-102730000D02*
X170513839Y-102730000D01*
X158182500Y-98816340D02*
X162096160Y-102730000D01*
%TO.N,Net-(M2-Pad10)*%
X168139419Y-97815580D02*
X162180460Y-97815580D01*
X175233839Y-104910000D02*
X168139419Y-97815580D01*
%TO.N,Net-(M2-Pad9)*%
X168957179Y-96093340D02*
X158466860Y-96093340D01*
X158466860Y-96093340D02*
X152373520Y-90000000D01*
X177773839Y-104910000D02*
X168957179Y-96093340D01*
%TO.N,/SEROUT*%
X183868839Y-109230000D02*
X183868839Y-73230000D01*
X169868839Y-123230000D02*
X183868839Y-109230000D01*
X122868839Y-123230000D02*
X169868839Y-123230000D01*
%TO.N,/QH*%
X139938839Y-110730000D02*
X141738839Y-112530000D01*
X133368839Y-110633839D02*
X133368839Y-110730000D01*
X128800000Y-106065000D02*
X133368839Y-110633839D01*
X133368839Y-110730000D02*
X139938839Y-110730000D01*
%TO.N,/QG*%
X148058839Y-111230000D02*
X149358839Y-112530000D01*
X145675641Y-113036802D02*
X145675641Y-112082207D01*
X144482443Y-114230000D02*
X145675641Y-113036802D01*
X133568839Y-114230000D02*
X144482443Y-114230000D01*
X128800000Y-109461161D02*
X133568839Y-114230000D01*
X145675641Y-112082207D02*
X146527848Y-111230000D01*
X146527848Y-111230000D02*
X148058839Y-111230000D01*
X128800000Y-108605000D02*
X128800000Y-109461161D01*
%TO.N,VCC*%
X167353839Y-109730000D02*
X170153839Y-112530000D01*
X147078839Y-109730000D02*
X167353839Y-109730000D01*
X144278839Y-112530000D02*
X147078839Y-109730000D01*
%TO.N,/QF*%
X144538839Y-114810000D02*
X146818839Y-112530000D01*
X127675000Y-114150991D02*
X128334009Y-114810000D01*
X128800000Y-111145000D02*
X127675000Y-112270000D01*
X127675000Y-112270000D02*
X127675000Y-114150991D01*
X128334009Y-114810000D02*
X144538839Y-114810000D01*
%TO.N,/QD*%
X163918839Y-116225000D02*
X167613839Y-112530000D01*
X128800000Y-116225000D02*
X163918839Y-116225000D01*
%TO.N,Net-(Q1-Pad2)*%
X171810000Y-80000000D02*
X174140000Y-80000000D01*
X170000000Y-81810000D02*
X171810000Y-80000000D01*
%TO.N,Net-(N1-PadA)*%
X128510179Y-79588660D02*
X133584700Y-79588660D01*
X124883839Y-88397152D02*
X124883839Y-83215000D01*
X124883839Y-83215000D02*
X128510179Y-79588660D01*
X121500000Y-91780991D02*
X124883839Y-88397152D01*
X121500000Y-97810000D02*
X121500000Y-91780991D01*
X133584700Y-79588660D02*
X136180460Y-82184420D01*
%TO.N,Net-(N2-PadA)*%
X163976511Y-82184420D02*
X162180460Y-82184420D01*
X165868839Y-84076748D02*
X163976511Y-82184420D01*
X173500000Y-97810000D02*
X165868839Y-90178839D01*
X165868839Y-90178839D02*
X165868839Y-84076748D01*
%TO.N,GND1*%
X145403839Y-103785000D02*
X144278839Y-104910000D01*
X170153839Y-104910000D02*
X169028839Y-103785000D01*
X169028839Y-103785000D02*
X145403839Y-103785000D01*
X171278839Y-106035000D02*
X170153839Y-104910000D01*
X178239830Y-106035000D02*
X171278839Y-106035000D01*
X180000000Y-104274830D02*
X178239830Y-106035000D01*
X180000000Y-81265000D02*
X180000000Y-104274830D01*
%TO.N,VCC*%
X183143839Y-109005000D02*
X183143839Y-63603839D01*
X178493839Y-113655000D02*
X183143839Y-109005000D01*
X171278839Y-113655000D02*
X178493839Y-113655000D01*
X170153839Y-112530000D02*
X171278839Y-113655000D01*
X183143839Y-63603839D02*
X180000000Y-60460000D01*
%TO.N,Net-(N3-PadK)*%
X178912500Y-86042500D02*
X174140000Y-81270000D01*
X178912500Y-90000000D02*
X178912500Y-86042500D01*
%TO.N,GND1*%
X177465000Y-78730000D02*
X180000000Y-81265000D01*
X174140000Y-78730000D02*
X177465000Y-78730000D01*
X132597677Y-78730000D02*
X174140000Y-78730000D01*
X130500000Y-76632323D02*
X132597677Y-78730000D01*
%TO.N,/SEROUT*%
X122868839Y-105213839D02*
X122868839Y-123230000D01*
X121180000Y-103525000D02*
X122868839Y-105213839D01*
%TO.N,+180V*%
X176590000Y-75315000D02*
X180000000Y-78725000D01*
X168125000Y-75315000D02*
X176590000Y-75315000D01*
X167000000Y-74190000D02*
X168125000Y-75315000D01*
X164442323Y-71632323D02*
X167000000Y-74190000D01*
X130500000Y-71632323D02*
X164442323Y-71632323D01*
%TO.N,GND1*%
X125867323Y-81265000D02*
X130500000Y-76632323D01*
X121500000Y-81265000D02*
X125867323Y-81265000D01*
%TO.N,+180V*%
X123407323Y-78725000D02*
X130500000Y-71632323D01*
X121500000Y-78725000D02*
X123407323Y-78725000D01*
%TO.N,/NBLB{slash}INS1{slash}IN3*%
X180368839Y-71985000D02*
X172205000Y-71985000D01*
X181175000Y-66715000D02*
X181175000Y-71178839D01*
X172205000Y-71985000D02*
X170000000Y-74190000D01*
X180000000Y-65540000D02*
X181175000Y-66715000D01*
X181175000Y-71178839D02*
X180368839Y-71985000D01*
%TO.N,/SRCLK*%
X122350000Y-69730000D02*
X179110000Y-69730000D01*
X179110000Y-69730000D02*
X180000000Y-70620000D01*
X121500000Y-70580000D02*
X122350000Y-69730000D01*
%TO.N,/RCLK*%
X179960000Y-68040000D02*
X180000000Y-68080000D01*
X121500000Y-68040000D02*
X179960000Y-68040000D01*
%TO.N,/NBLB{slash}INS1{slash}IN3*%
X179960000Y-65500000D02*
X180000000Y-65540000D01*
X121500000Y-65500000D02*
X179960000Y-65500000D01*
%TO.N,VCC*%
X122305000Y-107190000D02*
X121180000Y-106065000D01*
X122305000Y-120180000D02*
X122305000Y-107190000D01*
X121180000Y-121305000D02*
X122305000Y-120180000D01*
X120055000Y-61865000D02*
X120055000Y-120180000D01*
X120055000Y-120180000D02*
X121180000Y-121305000D01*
X121500000Y-60420000D02*
X120055000Y-61865000D01*
X179960000Y-60420000D02*
X180000000Y-60460000D01*
X121500000Y-60420000D02*
X179960000Y-60420000D01*
%TD*%
%TA.AperFunction,Conductor*%
%TO.N,GND*%
G36*
X124515008Y-89766055D02*
G01*
X124571843Y-89808602D01*
X124596654Y-89875122D01*
X124596341Y-89896734D01*
X124593141Y-89928515D01*
X124590644Y-89953314D01*
X124590868Y-89957980D01*
X124590868Y-89957985D01*
X124593038Y-90003160D01*
X124603327Y-90217352D01*
X124629112Y-90346984D01*
X124653847Y-90471330D01*
X124654898Y-90476616D01*
X124656477Y-90481014D01*
X124656479Y-90481021D01*
X124724438Y-90670301D01*
X124744224Y-90725410D01*
X124746441Y-90729536D01*
X124827003Y-90879469D01*
X124869342Y-90958267D01*
X124872137Y-90962011D01*
X124872139Y-90962013D01*
X125024712Y-91166333D01*
X125027505Y-91170073D01*
X125030812Y-91173351D01*
X125030817Y-91173357D01*
X125188682Y-91329849D01*
X125215238Y-91356174D01*
X125219005Y-91358936D01*
X125219006Y-91358937D01*
X125351315Y-91455950D01*
X125428416Y-91512483D01*
X125432551Y-91514659D01*
X125432555Y-91514661D01*
X125474498Y-91536728D01*
X125662356Y-91635565D01*
X125911920Y-91722716D01*
X125916513Y-91723588D01*
X126167035Y-91771151D01*
X126167038Y-91771151D01*
X126171624Y-91772022D01*
X126303693Y-91777211D01*
X126431095Y-91782218D01*
X126431101Y-91782218D01*
X126435763Y-91782401D01*
X126698535Y-91753622D01*
X126703046Y-91752434D01*
X126703048Y-91752434D01*
X126949644Y-91687511D01*
X126949646Y-91687510D01*
X126954167Y-91686320D01*
X126958464Y-91684474D01*
X127192749Y-91583817D01*
X127192751Y-91583816D01*
X127197043Y-91581972D01*
X127421827Y-91442871D01*
X127476277Y-91396776D01*
X127620016Y-91275093D01*
X127620018Y-91275091D01*
X127623583Y-91272073D01*
X127797876Y-91073329D01*
X127822981Y-91034300D01*
X127938351Y-90854936D01*
X127940879Y-90851006D01*
X127976010Y-90773018D01*
X128005459Y-90707645D01*
X128051675Y-90653751D01*
X128119692Y-90633398D01*
X128187915Y-90653048D01*
X128209436Y-90670301D01*
X129109135Y-91570000D01*
X129143161Y-91632312D01*
X129146040Y-91659095D01*
X129146040Y-96104022D01*
X129126038Y-96172143D01*
X129072382Y-96218636D01*
X129002108Y-96228740D01*
X128964316Y-96217029D01*
X128852646Y-96161960D01*
X128795690Y-96143728D01*
X128631374Y-96091130D01*
X128600887Y-96081371D01*
X128423532Y-96052487D01*
X128344593Y-96039631D01*
X128344592Y-96039631D01*
X128339981Y-96038880D01*
X128207821Y-96037150D01*
X128080338Y-96035481D01*
X128080335Y-96035481D01*
X128075661Y-96035420D01*
X127813732Y-96071066D01*
X127809240Y-96072375D01*
X127809232Y-96072377D01*
X127744894Y-96091130D01*
X127673898Y-96090989D01*
X127614248Y-96052487D01*
X127584883Y-95987848D01*
X127595127Y-95917594D01*
X127628225Y-95873996D01*
X127747016Y-95773433D01*
X127747018Y-95773431D01*
X127750583Y-95770413D01*
X127924876Y-95571669D01*
X127927885Y-95566992D01*
X128065351Y-95353276D01*
X128067879Y-95349346D01*
X128176450Y-95108328D01*
X128248203Y-94853910D01*
X128281563Y-94591680D01*
X128284007Y-94498340D01*
X128264417Y-94234724D01*
X128206077Y-93976899D01*
X128190548Y-93936966D01*
X128111962Y-93734882D01*
X128111961Y-93734880D01*
X128110269Y-93730529D01*
X128084055Y-93684663D01*
X127981417Y-93505085D01*
X127979098Y-93501027D01*
X127815445Y-93293434D01*
X127622905Y-93112310D01*
X127585732Y-93086522D01*
X127409546Y-92964298D01*
X127409541Y-92964295D01*
X127405708Y-92961636D01*
X127401517Y-92959569D01*
X127172814Y-92846785D01*
X127172811Y-92846784D01*
X127168626Y-92844720D01*
X127111670Y-92826488D01*
X126921312Y-92765554D01*
X126921314Y-92765554D01*
X126916867Y-92764131D01*
X126774345Y-92740920D01*
X126660573Y-92722391D01*
X126660572Y-92722391D01*
X126655961Y-92721640D01*
X126523801Y-92719910D01*
X126396318Y-92718241D01*
X126396315Y-92718241D01*
X126391641Y-92718180D01*
X126129712Y-92753826D01*
X126125222Y-92755135D01*
X126125216Y-92755136D01*
X126017252Y-92786605D01*
X125875930Y-92827797D01*
X125871683Y-92829755D01*
X125871680Y-92829756D01*
X125790274Y-92867285D01*
X125635868Y-92938467D01*
X125631959Y-92941030D01*
X125418715Y-93080839D01*
X125418710Y-93080843D01*
X125414802Y-93083405D01*
X125217587Y-93259426D01*
X125048556Y-93462664D01*
X124911421Y-93688654D01*
X124809197Y-93932431D01*
X124808046Y-93936963D01*
X124808045Y-93936966D01*
X124796746Y-93981456D01*
X124744128Y-94188641D01*
X124717644Y-94451654D01*
X124717868Y-94456320D01*
X124717868Y-94456325D01*
X124720038Y-94501500D01*
X124730327Y-94715692D01*
X124781898Y-94974956D01*
X124783477Y-94979354D01*
X124783479Y-94979361D01*
X124869641Y-95219341D01*
X124871224Y-95223750D01*
X124873438Y-95227870D01*
X124873441Y-95227876D01*
X124993969Y-95452190D01*
X124996342Y-95456607D01*
X124999137Y-95460351D01*
X124999139Y-95460353D01*
X125114456Y-95614781D01*
X125154505Y-95668413D01*
X125157812Y-95671691D01*
X125157817Y-95671697D01*
X125257399Y-95770413D01*
X125342238Y-95854514D01*
X125555416Y-96010823D01*
X125559551Y-96012999D01*
X125559555Y-96013001D01*
X125785208Y-96131723D01*
X125785212Y-96131725D01*
X125789356Y-96133905D01*
X125791703Y-96134725D01*
X125845755Y-96179857D01*
X125867020Y-96249905D01*
X125867020Y-99555762D01*
X125866493Y-99566945D01*
X125864818Y-99574438D01*
X125865067Y-99582364D01*
X125865067Y-99582365D01*
X125866958Y-99642515D01*
X125867020Y-99646474D01*
X125867020Y-99674385D01*
X125867517Y-99678319D01*
X125867517Y-99678320D01*
X125867525Y-99678385D01*
X125868458Y-99690222D01*
X125869847Y-99734418D01*
X125875498Y-99753868D01*
X125879507Y-99773229D01*
X125882046Y-99793326D01*
X125884965Y-99800697D01*
X125884965Y-99800699D01*
X125898324Y-99834441D01*
X125902169Y-99845671D01*
X125914502Y-99888122D01*
X125918535Y-99894941D01*
X125918537Y-99894946D01*
X125924813Y-99905557D01*
X125933508Y-99923305D01*
X125940968Y-99942146D01*
X125945630Y-99948562D01*
X125945630Y-99948563D01*
X125966956Y-99977916D01*
X125973472Y-99987836D01*
X125995978Y-100025891D01*
X126010299Y-100040212D01*
X126023139Y-100055245D01*
X126035048Y-100071636D01*
X126041154Y-100076687D01*
X126069125Y-100099827D01*
X126077904Y-100107817D01*
X128163727Y-102193640D01*
X128197753Y-102255952D01*
X128192688Y-102326767D01*
X128150141Y-102383603D01*
X128141765Y-102389128D01*
X127960533Y-102516028D01*
X127952125Y-102523084D01*
X127798084Y-102677125D01*
X127791028Y-102685533D01*
X127666069Y-102863993D01*
X127660586Y-102873489D01*
X127568510Y-103070947D01*
X127564764Y-103081239D01*
X127518606Y-103253503D01*
X127518942Y-103267599D01*
X127526884Y-103271000D01*
X128928000Y-103271000D01*
X128996121Y-103291002D01*
X129042614Y-103344658D01*
X129054000Y-103397000D01*
X129054000Y-103653000D01*
X129033998Y-103721121D01*
X128980342Y-103767614D01*
X128928000Y-103779000D01*
X127532033Y-103779000D01*
X127518502Y-103782973D01*
X127517273Y-103791522D01*
X127564764Y-103968761D01*
X127568510Y-103979053D01*
X127660586Y-104176511D01*
X127666069Y-104186007D01*
X127791028Y-104364467D01*
X127798084Y-104372875D01*
X127952125Y-104526916D01*
X127960533Y-104533972D01*
X128138993Y-104658931D01*
X128148489Y-104664414D01*
X128183049Y-104680529D01*
X128236334Y-104727446D01*
X128255795Y-104795723D01*
X128235253Y-104863683D01*
X128183049Y-104908919D01*
X128148238Y-104925151D01*
X128148233Y-104925154D01*
X128143251Y-104927477D01*
X128085584Y-104967856D01*
X127960211Y-105055643D01*
X127960208Y-105055645D01*
X127955700Y-105058802D01*
X127793802Y-105220700D01*
X127662477Y-105408251D01*
X127660154Y-105413233D01*
X127660151Y-105413238D01*
X127568039Y-105610775D01*
X127565716Y-105615757D01*
X127506457Y-105836913D01*
X127486502Y-106065000D01*
X127506457Y-106293087D01*
X127507881Y-106298400D01*
X127507881Y-106298402D01*
X127561840Y-106499776D01*
X127565716Y-106514243D01*
X127568039Y-106519224D01*
X127568039Y-106519225D01*
X127660151Y-106716762D01*
X127660154Y-106716767D01*
X127662477Y-106721749D01*
X127727997Y-106815321D01*
X127774926Y-106882342D01*
X127793802Y-106909300D01*
X127955700Y-107071198D01*
X127960208Y-107074355D01*
X127960211Y-107074357D01*
X127963269Y-107076498D01*
X128143251Y-107202523D01*
X128148233Y-107204846D01*
X128148238Y-107204849D01*
X128182457Y-107220805D01*
X128235742Y-107267722D01*
X128255203Y-107335999D01*
X128234661Y-107403959D01*
X128182457Y-107449195D01*
X128148238Y-107465151D01*
X128148233Y-107465154D01*
X128143251Y-107467477D01*
X128038389Y-107540902D01*
X127960211Y-107595643D01*
X127960208Y-107595645D01*
X127955700Y-107598802D01*
X127793802Y-107760700D01*
X127662477Y-107948251D01*
X127660154Y-107953233D01*
X127660151Y-107953238D01*
X127568039Y-108150775D01*
X127565716Y-108155757D01*
X127506457Y-108376913D01*
X127486502Y-108605000D01*
X127506457Y-108833087D01*
X127507881Y-108838400D01*
X127507881Y-108838402D01*
X127555545Y-109016283D01*
X127565716Y-109054243D01*
X127568039Y-109059224D01*
X127568039Y-109059225D01*
X127660151Y-109256762D01*
X127660154Y-109256767D01*
X127662477Y-109261749D01*
X127711319Y-109331502D01*
X127783468Y-109434541D01*
X127793802Y-109449300D01*
X127955700Y-109611198D01*
X127960208Y-109614355D01*
X127960211Y-109614357D01*
X127993336Y-109637551D01*
X128143251Y-109742523D01*
X128148233Y-109744846D01*
X128148238Y-109744849D01*
X128182457Y-109760805D01*
X128235742Y-109807722D01*
X128255203Y-109875999D01*
X128234661Y-109943959D01*
X128182457Y-109989195D01*
X128148238Y-110005151D01*
X128148233Y-110005154D01*
X128143251Y-110007477D01*
X128068819Y-110059595D01*
X127960211Y-110135643D01*
X127960208Y-110135645D01*
X127955700Y-110138802D01*
X127793802Y-110300700D01*
X127790645Y-110305208D01*
X127790643Y-110305211D01*
X127778200Y-110322982D01*
X127662477Y-110488251D01*
X127660154Y-110493233D01*
X127660151Y-110493238D01*
X127570619Y-110685242D01*
X127565716Y-110695757D01*
X127564294Y-110701065D01*
X127564293Y-110701067D01*
X127544857Y-110773602D01*
X127506457Y-110916913D01*
X127486502Y-111145000D01*
X127506457Y-111373087D01*
X127523460Y-111436541D01*
X127521770Y-111507518D01*
X127490848Y-111558247D01*
X127282747Y-111766348D01*
X127274461Y-111773888D01*
X127267982Y-111778000D01*
X127262557Y-111783777D01*
X127221357Y-111827651D01*
X127218602Y-111830493D01*
X127198865Y-111850230D01*
X127196385Y-111853427D01*
X127188682Y-111862447D01*
X127158414Y-111894679D01*
X127154595Y-111901625D01*
X127154593Y-111901628D01*
X127148652Y-111912434D01*
X127137801Y-111928953D01*
X127125386Y-111944959D01*
X127122241Y-111952228D01*
X127122238Y-111952232D01*
X127107826Y-111985537D01*
X127102609Y-111996187D01*
X127081305Y-112034940D01*
X127079334Y-112042615D01*
X127079334Y-112042616D01*
X127076267Y-112054562D01*
X127069863Y-112073266D01*
X127061819Y-112091855D01*
X127060580Y-112099678D01*
X127060577Y-112099688D01*
X127054901Y-112135524D01*
X127052495Y-112147144D01*
X127047091Y-112168192D01*
X127041500Y-112189970D01*
X127041500Y-112210224D01*
X127039949Y-112229934D01*
X127036780Y-112249943D01*
X127037526Y-112257835D01*
X127040941Y-112293961D01*
X127041500Y-112305819D01*
X127041500Y-114072224D01*
X127040973Y-114083407D01*
X127039298Y-114090900D01*
X127039547Y-114098826D01*
X127039547Y-114098827D01*
X127041438Y-114158977D01*
X127041500Y-114162936D01*
X127041500Y-114190847D01*
X127041997Y-114194781D01*
X127041997Y-114194782D01*
X127042005Y-114194847D01*
X127042938Y-114206684D01*
X127044327Y-114250880D01*
X127049978Y-114270330D01*
X127053987Y-114289691D01*
X127054033Y-114290051D01*
X127056526Y-114309788D01*
X127059445Y-114317159D01*
X127059445Y-114317161D01*
X127072804Y-114350903D01*
X127076649Y-114362133D01*
X127088982Y-114404584D01*
X127093015Y-114411403D01*
X127093017Y-114411408D01*
X127099293Y-114422019D01*
X127107988Y-114439767D01*
X127115448Y-114458608D01*
X127120110Y-114465024D01*
X127120110Y-114465025D01*
X127141436Y-114494378D01*
X127147952Y-114504298D01*
X127170458Y-114542353D01*
X127184779Y-114556674D01*
X127197619Y-114571707D01*
X127209528Y-114588098D01*
X127215634Y-114593149D01*
X127243605Y-114616289D01*
X127252384Y-114624279D01*
X127812208Y-115184103D01*
X127846234Y-115246415D01*
X127841169Y-115317230D01*
X127812208Y-115362293D01*
X127797697Y-115376804D01*
X127797692Y-115376810D01*
X127793802Y-115380700D01*
X127662477Y-115568251D01*
X127660154Y-115573233D01*
X127660151Y-115573238D01*
X127568039Y-115770775D01*
X127565716Y-115775757D01*
X127506457Y-115996913D01*
X127486502Y-116225000D01*
X127506457Y-116453087D01*
X127507881Y-116458400D01*
X127507881Y-116458402D01*
X127560934Y-116656395D01*
X127565716Y-116674243D01*
X127568039Y-116679224D01*
X127568039Y-116679225D01*
X127660151Y-116876762D01*
X127660154Y-116876767D01*
X127662477Y-116881749D01*
X127793802Y-117069300D01*
X127955700Y-117231198D01*
X127960208Y-117234355D01*
X127960211Y-117234357D01*
X128038389Y-117289098D01*
X128143251Y-117362523D01*
X128148233Y-117364846D01*
X128148238Y-117364849D01*
X128182457Y-117380805D01*
X128235742Y-117427722D01*
X128255203Y-117495999D01*
X128234661Y-117563959D01*
X128182457Y-117609195D01*
X128148238Y-117625151D01*
X128148233Y-117625154D01*
X128143251Y-117627477D01*
X128038389Y-117700902D01*
X127960211Y-117755643D01*
X127960208Y-117755645D01*
X127955700Y-117758802D01*
X127793802Y-117920700D01*
X127662477Y-118108251D01*
X127660154Y-118113233D01*
X127660151Y-118113238D01*
X127568039Y-118310775D01*
X127565716Y-118315757D01*
X127506457Y-118536913D01*
X127486502Y-118765000D01*
X127506457Y-118993087D01*
X127565716Y-119214243D01*
X127568039Y-119219224D01*
X127568039Y-119219225D01*
X127660151Y-119416762D01*
X127660154Y-119416767D01*
X127662477Y-119421749D01*
X127793802Y-119609300D01*
X127955700Y-119771198D01*
X127960211Y-119774357D01*
X127964424Y-119777892D01*
X127963473Y-119779026D01*
X128003471Y-119829071D01*
X128010776Y-119899690D01*
X127978742Y-119963049D01*
X127917538Y-119999030D01*
X127900483Y-120002082D01*
X127889684Y-120003255D01*
X127753295Y-120054385D01*
X127636739Y-120141739D01*
X127549385Y-120258295D01*
X127498255Y-120394684D01*
X127491500Y-120456866D01*
X127491500Y-122153134D01*
X127498255Y-122215316D01*
X127549385Y-122351705D01*
X127554770Y-122358890D01*
X127554771Y-122358892D01*
X127581784Y-122394935D01*
X127606632Y-122461442D01*
X127591579Y-122530824D01*
X127541405Y-122581054D01*
X127480958Y-122596500D01*
X123628339Y-122596500D01*
X123560218Y-122576498D01*
X123513725Y-122522842D01*
X123502339Y-122470500D01*
X123502339Y-105292606D01*
X123502866Y-105281423D01*
X123504541Y-105273930D01*
X123502401Y-105205853D01*
X123502339Y-105201894D01*
X123502339Y-105173983D01*
X123501834Y-105169983D01*
X123500901Y-105158140D01*
X123500099Y-105132607D01*
X123499512Y-105113950D01*
X123493860Y-105094496D01*
X123489852Y-105075139D01*
X123488307Y-105062909D01*
X123488307Y-105062908D01*
X123487313Y-105055042D01*
X123484394Y-105047669D01*
X123471035Y-105013927D01*
X123467190Y-105002697D01*
X123457068Y-104967856D01*
X123457068Y-104967855D01*
X123454857Y-104960246D01*
X123450824Y-104953427D01*
X123450822Y-104953422D01*
X123444546Y-104942811D01*
X123435851Y-104925063D01*
X123428391Y-104906222D01*
X123402403Y-104870452D01*
X123395887Y-104860532D01*
X123377419Y-104829304D01*
X123377417Y-104829301D01*
X123373381Y-104822477D01*
X123359060Y-104808156D01*
X123346219Y-104793122D01*
X123338970Y-104783145D01*
X123334311Y-104776732D01*
X123300234Y-104748541D01*
X123291455Y-104740551D01*
X122489152Y-103938248D01*
X122455126Y-103875936D01*
X122456541Y-103816541D01*
X122472118Y-103758409D01*
X122472120Y-103758398D01*
X122473543Y-103753087D01*
X122493498Y-103525000D01*
X122473543Y-103296913D01*
X122454394Y-103225448D01*
X122415707Y-103081067D01*
X122415706Y-103081065D01*
X122414284Y-103075757D01*
X122319966Y-102873489D01*
X122319849Y-102873238D01*
X122319846Y-102873233D01*
X122317523Y-102868251D01*
X122186198Y-102680700D01*
X122024300Y-102518802D01*
X122019792Y-102515645D01*
X122019789Y-102515643D01*
X121941611Y-102460902D01*
X121836749Y-102387477D01*
X121831767Y-102385154D01*
X121831762Y-102385151D01*
X121634225Y-102293039D01*
X121634224Y-102293039D01*
X121629243Y-102290716D01*
X121623935Y-102289294D01*
X121623933Y-102289293D01*
X121413402Y-102232881D01*
X121413400Y-102232881D01*
X121408087Y-102231457D01*
X121180000Y-102211502D01*
X120951913Y-102231457D01*
X120847110Y-102259539D01*
X120776135Y-102257849D01*
X120717339Y-102218055D01*
X120689391Y-102152791D01*
X120688500Y-102137832D01*
X120688500Y-99073142D01*
X120708502Y-99005021D01*
X120762158Y-98958528D01*
X120832432Y-98948424D01*
X120867750Y-98958947D01*
X120925022Y-98985653D01*
X121050757Y-99044284D01*
X121056065Y-99045706D01*
X121056067Y-99045707D01*
X121266598Y-99102119D01*
X121266600Y-99102119D01*
X121271913Y-99103543D01*
X121500000Y-99123498D01*
X121728087Y-99103543D01*
X121733400Y-99102119D01*
X121733402Y-99102119D01*
X121943933Y-99045707D01*
X121943935Y-99045706D01*
X121949243Y-99044284D01*
X121962119Y-99038280D01*
X122151762Y-98949849D01*
X122151767Y-98949846D01*
X122156749Y-98947523D01*
X122311500Y-98839165D01*
X122339789Y-98819357D01*
X122339792Y-98819355D01*
X122344300Y-98816198D01*
X122506198Y-98654300D01*
X122637523Y-98466749D01*
X122639846Y-98461767D01*
X122639849Y-98461762D01*
X122731961Y-98264225D01*
X122731961Y-98264224D01*
X122734284Y-98259243D01*
X122737802Y-98246116D01*
X122792119Y-98043402D01*
X122792119Y-98043400D01*
X122793543Y-98038087D01*
X122813498Y-97810000D01*
X122793543Y-97581913D01*
X122792117Y-97576591D01*
X122735707Y-97366067D01*
X122735706Y-97366065D01*
X122734284Y-97360757D01*
X122723193Y-97336972D01*
X122639849Y-97158238D01*
X122639846Y-97158233D01*
X122637523Y-97153251D01*
X122558497Y-97040391D01*
X122509357Y-96970211D01*
X122509355Y-96970208D01*
X122506198Y-96965700D01*
X122344300Y-96803802D01*
X122339792Y-96800645D01*
X122339789Y-96800643D01*
X122187229Y-96693819D01*
X122142901Y-96638362D01*
X122133500Y-96590606D01*
X122133500Y-92095585D01*
X122153502Y-92027464D01*
X122170405Y-92006490D01*
X124381880Y-89795016D01*
X124444192Y-89760990D01*
X124515008Y-89766055D01*
G37*
%TD.AperFunction*%
%TA.AperFunction,Conductor*%
G36*
X125633621Y-61073502D02*
G01*
X125680114Y-61127158D01*
X125691500Y-61179500D01*
X125691500Y-61393022D01*
X125698255Y-61455204D01*
X125749385Y-61591593D01*
X125781444Y-61634369D01*
X125831355Y-61700966D01*
X125831358Y-61700969D01*
X125836739Y-61708149D01*
X125843919Y-61713530D01*
X125850270Y-61719881D01*
X125848128Y-61722023D01*
X125881564Y-61766734D01*
X125886594Y-61837552D01*
X125868477Y-61878923D01*
X125868818Y-61879120D01*
X125867048Y-61882186D01*
X125866701Y-61882978D01*
X125866071Y-61883877D01*
X125860586Y-61893377D01*
X125768510Y-62090835D01*
X125764764Y-62101127D01*
X125708375Y-62311576D01*
X125706472Y-62322369D01*
X125687483Y-62539413D01*
X125687483Y-62550363D01*
X125706472Y-62767407D01*
X125708375Y-62778200D01*
X125764764Y-62988649D01*
X125768510Y-62998941D01*
X125860586Y-63196399D01*
X125866069Y-63205894D01*
X125902509Y-63257936D01*
X125912988Y-63266312D01*
X125926434Y-63259244D01*
X126910905Y-62274773D01*
X126973217Y-62240747D01*
X127044032Y-62245812D01*
X127089095Y-62274773D01*
X128074287Y-63259965D01*
X128086062Y-63266395D01*
X128098077Y-63257099D01*
X128133931Y-63205894D01*
X128139414Y-63196399D01*
X128228443Y-63005475D01*
X130687483Y-63005475D01*
X130706472Y-63222519D01*
X130708375Y-63233312D01*
X130764764Y-63443761D01*
X130768510Y-63454053D01*
X130860586Y-63651511D01*
X130866069Y-63661006D01*
X130902509Y-63713048D01*
X130912988Y-63721424D01*
X130926434Y-63714356D01*
X131627978Y-63012812D01*
X131634356Y-63001132D01*
X132364408Y-63001132D01*
X132364539Y-63002965D01*
X132368790Y-63009580D01*
X133074287Y-63715077D01*
X133086062Y-63721507D01*
X133098077Y-63712211D01*
X133133931Y-63661006D01*
X133139414Y-63651511D01*
X133231490Y-63454053D01*
X133235236Y-63443761D01*
X133291625Y-63233312D01*
X133293528Y-63222519D01*
X133312517Y-63005475D01*
X133312517Y-62994525D01*
X133293528Y-62777481D01*
X133291625Y-62766688D01*
X133235236Y-62556239D01*
X133231490Y-62545947D01*
X133139414Y-62348489D01*
X133133931Y-62338994D01*
X133097491Y-62286952D01*
X133087012Y-62278576D01*
X133073566Y-62285644D01*
X132372022Y-62987188D01*
X132364408Y-63001132D01*
X131634356Y-63001132D01*
X131635592Y-62998868D01*
X131635461Y-62997035D01*
X131631210Y-62990420D01*
X130925713Y-62284923D01*
X130913938Y-62278493D01*
X130901923Y-62287789D01*
X130866069Y-62338994D01*
X130860586Y-62348489D01*
X130768510Y-62545947D01*
X130764764Y-62556239D01*
X130708375Y-62766688D01*
X130706472Y-62777481D01*
X130687483Y-62994525D01*
X130687483Y-63005475D01*
X128228443Y-63005475D01*
X128231490Y-62998941D01*
X128235236Y-62988649D01*
X128291625Y-62778200D01*
X128293528Y-62767407D01*
X128312517Y-62550363D01*
X128312517Y-62539413D01*
X128293528Y-62322369D01*
X128291625Y-62311576D01*
X128235236Y-62101127D01*
X128231490Y-62090835D01*
X128139414Y-61893377D01*
X128133929Y-61883877D01*
X128133299Y-61882978D01*
X128133144Y-61882518D01*
X128131182Y-61879120D01*
X128131865Y-61878726D01*
X128110612Y-61815704D01*
X128127898Y-61746844D01*
X128150934Y-61721085D01*
X128149730Y-61719881D01*
X128156081Y-61713530D01*
X128163261Y-61708149D01*
X128168642Y-61700969D01*
X128168645Y-61700966D01*
X128218556Y-61634369D01*
X128250615Y-61591593D01*
X128301745Y-61455204D01*
X128308500Y-61393022D01*
X128308500Y-61179500D01*
X128328502Y-61111379D01*
X128382158Y-61064886D01*
X128434500Y-61053500D01*
X130734061Y-61053500D01*
X130802182Y-61073502D01*
X130848256Y-61126250D01*
X130862477Y-61156749D01*
X130918056Y-61236124D01*
X130973088Y-61314717D01*
X130993802Y-61344300D01*
X131155700Y-61506198D01*
X131160208Y-61509355D01*
X131160211Y-61509357D01*
X131214302Y-61547232D01*
X131343251Y-61637523D01*
X131348235Y-61639847D01*
X131350528Y-61641171D01*
X131399521Y-61692553D01*
X131412957Y-61762267D01*
X131386571Y-61828178D01*
X131350528Y-61859409D01*
X131338998Y-61866066D01*
X131286952Y-61902509D01*
X131278576Y-61912988D01*
X131285644Y-61926434D01*
X131987188Y-62627978D01*
X132001132Y-62635592D01*
X132002965Y-62635461D01*
X132009580Y-62631210D01*
X132715077Y-61925713D01*
X132721507Y-61913938D01*
X132712211Y-61901923D01*
X132661002Y-61866066D01*
X132649472Y-61859409D01*
X132600479Y-61808027D01*
X132587042Y-61738313D01*
X132613429Y-61672402D01*
X132649472Y-61641171D01*
X132651765Y-61639847D01*
X132656749Y-61637523D01*
X132785698Y-61547232D01*
X132839789Y-61509357D01*
X132839792Y-61509355D01*
X132844300Y-61506198D01*
X133006198Y-61344300D01*
X133026913Y-61314717D01*
X133081944Y-61236124D01*
X133137523Y-61156749D01*
X133151744Y-61126250D01*
X133198660Y-61072966D01*
X133265939Y-61053500D01*
X178515500Y-61053500D01*
X178583621Y-61073502D01*
X178630114Y-61127158D01*
X178641500Y-61179500D01*
X178641500Y-61358134D01*
X178648255Y-61420316D01*
X178699385Y-61556705D01*
X178786739Y-61673261D01*
X178903295Y-61760615D01*
X178911704Y-61763767D01*
X178911705Y-61763768D01*
X179020960Y-61804726D01*
X179077725Y-61847367D01*
X179102425Y-61913929D01*
X179087218Y-61983278D01*
X179067825Y-62009759D01*
X178944590Y-62138717D01*
X178938104Y-62146727D01*
X178818098Y-62322649D01*
X178813000Y-62331623D01*
X178723338Y-62524783D01*
X178719775Y-62534470D01*
X178664389Y-62734183D01*
X178665912Y-62742607D01*
X178678292Y-62746000D01*
X181336459Y-62746000D01*
X181336459Y-62750776D01*
X181373103Y-62750784D01*
X181426672Y-62782577D01*
X182473434Y-63829339D01*
X182507460Y-63891651D01*
X182510339Y-63918434D01*
X182510339Y-88847992D01*
X182490337Y-88916113D01*
X182436681Y-88962606D01*
X182366407Y-88972710D01*
X182347081Y-88968357D01*
X182308013Y-88956264D01*
X182308011Y-88956264D01*
X182302123Y-88954441D01*
X182295998Y-88953797D01*
X182295997Y-88953797D01*
X182101080Y-88933310D01*
X182101079Y-88933310D01*
X182094952Y-88932666D01*
X182008416Y-88940541D01*
X181893636Y-88950987D01*
X181893633Y-88950988D01*
X181887497Y-88951546D01*
X181881591Y-88953284D01*
X181881587Y-88953285D01*
X181733049Y-88997002D01*
X181687660Y-89010361D01*
X181503053Y-89106871D01*
X181340707Y-89237400D01*
X181206807Y-89396977D01*
X181203843Y-89402369D01*
X181203840Y-89402373D01*
X181141741Y-89515331D01*
X181106452Y-89579522D01*
X181104591Y-89585389D01*
X181104590Y-89585391D01*
X181074958Y-89678803D01*
X181043464Y-89778083D01*
X181020244Y-89985097D01*
X181020760Y-89991241D01*
X181035129Y-90162354D01*
X181037675Y-90192679D01*
X181044657Y-90217028D01*
X181084384Y-90355570D01*
X181095094Y-90392921D01*
X181190313Y-90578198D01*
X181194138Y-90583024D01*
X181194140Y-90583027D01*
X181315876Y-90736621D01*
X181315881Y-90736626D01*
X181319705Y-90741451D01*
X181478343Y-90876462D01*
X181660183Y-90978089D01*
X181858300Y-91042461D01*
X182065147Y-91067126D01*
X182071282Y-91066654D01*
X182071284Y-91066654D01*
X182266704Y-91051617D01*
X182266709Y-91051616D01*
X182272845Y-91051144D01*
X182278775Y-91049488D01*
X182278777Y-91049488D01*
X182347063Y-91030422D01*
X182350455Y-91029475D01*
X182421446Y-91030422D01*
X182480655Y-91069598D01*
X182509284Y-91134566D01*
X182510339Y-91150834D01*
X182510339Y-108690406D01*
X182490337Y-108758527D01*
X182473434Y-108779501D01*
X179187536Y-112065398D01*
X179125224Y-112099424D01*
X179054408Y-112094359D01*
X178997573Y-112051812D01*
X178984246Y-112029552D01*
X178913690Y-111878242D01*
X178913686Y-111878236D01*
X178911362Y-111873251D01*
X178837937Y-111768389D01*
X178783196Y-111690211D01*
X178783194Y-111690208D01*
X178780037Y-111685700D01*
X178618139Y-111523802D01*
X178613631Y-111520645D01*
X178613628Y-111520643D01*
X178494399Y-111437158D01*
X178430588Y-111392477D01*
X178425606Y-111390154D01*
X178425601Y-111390151D01*
X178228064Y-111298039D01*
X178228063Y-111298039D01*
X178223082Y-111295716D01*
X178217774Y-111294294D01*
X178217772Y-111294293D01*
X178007241Y-111237881D01*
X178007239Y-111237881D01*
X178001926Y-111236457D01*
X177773839Y-111216502D01*
X177545752Y-111236457D01*
X177540439Y-111237881D01*
X177540437Y-111237881D01*
X177329906Y-111294293D01*
X177329904Y-111294294D01*
X177324596Y-111295716D01*
X177319615Y-111298039D01*
X177319614Y-111298039D01*
X177122077Y-111390151D01*
X177122072Y-111390154D01*
X177117090Y-111392477D01*
X177053279Y-111437158D01*
X176934050Y-111520643D01*
X176934047Y-111520645D01*
X176929539Y-111523802D01*
X176767641Y-111685700D01*
X176764484Y-111690208D01*
X176764482Y-111690211D01*
X176709741Y-111768389D01*
X176636316Y-111873251D01*
X176633993Y-111878233D01*
X176633990Y-111878238D01*
X176618034Y-111912457D01*
X176571117Y-111965742D01*
X176502840Y-111985203D01*
X176434880Y-111964661D01*
X176389644Y-111912457D01*
X176373688Y-111878238D01*
X176373685Y-111878233D01*
X176371362Y-111873251D01*
X176297937Y-111768389D01*
X176243196Y-111690211D01*
X176243194Y-111690208D01*
X176240037Y-111685700D01*
X176078139Y-111523802D01*
X176073631Y-111520645D01*
X176073628Y-111520643D01*
X175954399Y-111437158D01*
X175890588Y-111392477D01*
X175885606Y-111390154D01*
X175885601Y-111390151D01*
X175688064Y-111298039D01*
X175688063Y-111298039D01*
X175683082Y-111295716D01*
X175677774Y-111294294D01*
X175677772Y-111294293D01*
X175467241Y-111237881D01*
X175467239Y-111237881D01*
X175461926Y-111236457D01*
X175233839Y-111216502D01*
X175005752Y-111236457D01*
X175000439Y-111237881D01*
X175000437Y-111237881D01*
X174789906Y-111294293D01*
X174789904Y-111294294D01*
X174784596Y-111295716D01*
X174779615Y-111298039D01*
X174779614Y-111298039D01*
X174582077Y-111390151D01*
X174582072Y-111390154D01*
X174577090Y-111392477D01*
X174513279Y-111437158D01*
X174394050Y-111520643D01*
X174394047Y-111520645D01*
X174389539Y-111523802D01*
X174227641Y-111685700D01*
X174224484Y-111690208D01*
X174224482Y-111690211D01*
X174169741Y-111768389D01*
X174096316Y-111873251D01*
X174093993Y-111878233D01*
X174093990Y-111878238D01*
X174078034Y-111912457D01*
X174031117Y-111965742D01*
X173962840Y-111985203D01*
X173894880Y-111964661D01*
X173849644Y-111912457D01*
X173833688Y-111878238D01*
X173833685Y-111878233D01*
X173831362Y-111873251D01*
X173757937Y-111768389D01*
X173703196Y-111690211D01*
X173703194Y-111690208D01*
X173700037Y-111685700D01*
X173538139Y-111523802D01*
X173533631Y-111520645D01*
X173533628Y-111520643D01*
X173414399Y-111437158D01*
X173350588Y-111392477D01*
X173345606Y-111390154D01*
X173345601Y-111390151D01*
X173148064Y-111298039D01*
X173148063Y-111298039D01*
X173143082Y-111295716D01*
X173137774Y-111294294D01*
X173137772Y-111294293D01*
X172927241Y-111237881D01*
X172927239Y-111237881D01*
X172921926Y-111236457D01*
X172693839Y-111216502D01*
X172465752Y-111236457D01*
X172460439Y-111237881D01*
X172460437Y-111237881D01*
X172249906Y-111294293D01*
X172249904Y-111294294D01*
X172244596Y-111295716D01*
X172239615Y-111298039D01*
X172239614Y-111298039D01*
X172042077Y-111390151D01*
X172042072Y-111390154D01*
X172037090Y-111392477D01*
X171973279Y-111437158D01*
X171854050Y-111520643D01*
X171854047Y-111520645D01*
X171849539Y-111523802D01*
X171687641Y-111685700D01*
X171684484Y-111690208D01*
X171684482Y-111690211D01*
X171629741Y-111768389D01*
X171556316Y-111873251D01*
X171553993Y-111878233D01*
X171553990Y-111878238D01*
X171538034Y-111912457D01*
X171491117Y-111965742D01*
X171422840Y-111985203D01*
X171354880Y-111964661D01*
X171309644Y-111912457D01*
X171293688Y-111878238D01*
X171293685Y-111878233D01*
X171291362Y-111873251D01*
X171217937Y-111768389D01*
X171163196Y-111690211D01*
X171163194Y-111690208D01*
X171160037Y-111685700D01*
X170998139Y-111523802D01*
X170993631Y-111520645D01*
X170993628Y-111520643D01*
X170874399Y-111437158D01*
X170810588Y-111392477D01*
X170805606Y-111390154D01*
X170805601Y-111390151D01*
X170608064Y-111298039D01*
X170608063Y-111298039D01*
X170603082Y-111295716D01*
X170597774Y-111294294D01*
X170597772Y-111294293D01*
X170387241Y-111237881D01*
X170387239Y-111237881D01*
X170381926Y-111236457D01*
X170153839Y-111216502D01*
X169925752Y-111236457D01*
X169920441Y-111237880D01*
X169920430Y-111237882D01*
X169862298Y-111253459D01*
X169791322Y-111251770D01*
X169740591Y-111220848D01*
X168820444Y-110300700D01*
X167857491Y-109337747D01*
X167849951Y-109329461D01*
X167845839Y-109322982D01*
X167796187Y-109276356D01*
X167793346Y-109273602D01*
X167773609Y-109253865D01*
X167770412Y-109251385D01*
X167761390Y-109243680D01*
X167747961Y-109231069D01*
X167729160Y-109213414D01*
X167722214Y-109209595D01*
X167722211Y-109209593D01*
X167711405Y-109203652D01*
X167694886Y-109192801D01*
X167694422Y-109192441D01*
X167678880Y-109180386D01*
X167671611Y-109177241D01*
X167671607Y-109177238D01*
X167638302Y-109162826D01*
X167627652Y-109157609D01*
X167588899Y-109136305D01*
X167569276Y-109131267D01*
X167550573Y-109124863D01*
X167539259Y-109119967D01*
X167539258Y-109119967D01*
X167531984Y-109116819D01*
X167524161Y-109115580D01*
X167524151Y-109115577D01*
X167488315Y-109109901D01*
X167476695Y-109107495D01*
X167441550Y-109098472D01*
X167441549Y-109098472D01*
X167433869Y-109096500D01*
X167413615Y-109096500D01*
X167393904Y-109094949D01*
X167381725Y-109093020D01*
X167373896Y-109091780D01*
X167344625Y-109094547D01*
X167329878Y-109095941D01*
X167318020Y-109096500D01*
X147157606Y-109096500D01*
X147146423Y-109095973D01*
X147138930Y-109094298D01*
X147131004Y-109094547D01*
X147131003Y-109094547D01*
X147070840Y-109096438D01*
X147066882Y-109096500D01*
X147038983Y-109096500D01*
X147034993Y-109097004D01*
X147023159Y-109097936D01*
X146978950Y-109099326D01*
X146971336Y-109101538D01*
X146971331Y-109101539D01*
X146959498Y-109104977D01*
X146940135Y-109108988D01*
X146920042Y-109111526D01*
X146912675Y-109114443D01*
X146912670Y-109114444D01*
X146878931Y-109127802D01*
X146867704Y-109131646D01*
X146825246Y-109143982D01*
X146818420Y-109148019D01*
X146807811Y-109154293D01*
X146790063Y-109162988D01*
X146771222Y-109170448D01*
X146764806Y-109175110D01*
X146764805Y-109175110D01*
X146735452Y-109196436D01*
X146725532Y-109202952D01*
X146694304Y-109221420D01*
X146694301Y-109221422D01*
X146687477Y-109225458D01*
X146673156Y-109239779D01*
X146658123Y-109252619D01*
X146641732Y-109264528D01*
X146633056Y-109275016D01*
X146613541Y-109298605D01*
X146605551Y-109307384D01*
X144692087Y-111220848D01*
X144629775Y-111254874D01*
X144570380Y-111253459D01*
X144512248Y-111237882D01*
X144512237Y-111237880D01*
X144506926Y-111236457D01*
X144278839Y-111216502D01*
X144050752Y-111236457D01*
X144045439Y-111237881D01*
X144045437Y-111237881D01*
X143834906Y-111294293D01*
X143834904Y-111294294D01*
X143829596Y-111295716D01*
X143824615Y-111298039D01*
X143824614Y-111298039D01*
X143627077Y-111390151D01*
X143627072Y-111390154D01*
X143622090Y-111392477D01*
X143558279Y-111437158D01*
X143439050Y-111520643D01*
X143439047Y-111520645D01*
X143434539Y-111523802D01*
X143272641Y-111685700D01*
X143269484Y-111690208D01*
X143269482Y-111690211D01*
X143214741Y-111768389D01*
X143141316Y-111873251D01*
X143138993Y-111878233D01*
X143138990Y-111878238D01*
X143123034Y-111912457D01*
X143076117Y-111965742D01*
X143007840Y-111985203D01*
X142939880Y-111964661D01*
X142894644Y-111912457D01*
X142878688Y-111878238D01*
X142878685Y-111878233D01*
X142876362Y-111873251D01*
X142802937Y-111768389D01*
X142748196Y-111690211D01*
X142748194Y-111690208D01*
X142745037Y-111685700D01*
X142583139Y-111523802D01*
X142578631Y-111520645D01*
X142578628Y-111520643D01*
X142459399Y-111437158D01*
X142395588Y-111392477D01*
X142390606Y-111390154D01*
X142390601Y-111390151D01*
X142193064Y-111298039D01*
X142193063Y-111298039D01*
X142188082Y-111295716D01*
X142182774Y-111294294D01*
X142182772Y-111294293D01*
X141972241Y-111237881D01*
X141972239Y-111237881D01*
X141966926Y-111236457D01*
X141738839Y-111216502D01*
X141510752Y-111236457D01*
X141447297Y-111253460D01*
X141376321Y-111251770D01*
X141325592Y-111220848D01*
X140442491Y-110337747D01*
X140434951Y-110329461D01*
X140430839Y-110322982D01*
X140381187Y-110276356D01*
X140378346Y-110273602D01*
X140358609Y-110253865D01*
X140355412Y-110251385D01*
X140346390Y-110243680D01*
X140319939Y-110218841D01*
X140314160Y-110213414D01*
X140307214Y-110209595D01*
X140307211Y-110209593D01*
X140296405Y-110203652D01*
X140279886Y-110192801D01*
X140279422Y-110192441D01*
X140263880Y-110180386D01*
X140256611Y-110177241D01*
X140256607Y-110177238D01*
X140223302Y-110162826D01*
X140212652Y-110157609D01*
X140173899Y-110136305D01*
X140154276Y-110131267D01*
X140135573Y-110124863D01*
X140124259Y-110119967D01*
X140124258Y-110119967D01*
X140116984Y-110116819D01*
X140109161Y-110115580D01*
X140109151Y-110115577D01*
X140073315Y-110109901D01*
X140061695Y-110107495D01*
X140026550Y-110098472D01*
X140026549Y-110098472D01*
X140018869Y-110096500D01*
X139998615Y-110096500D01*
X139978904Y-110094949D01*
X139966725Y-110093020D01*
X139958896Y-110091780D01*
X139951004Y-110092526D01*
X139914878Y-110095941D01*
X139903020Y-110096500D01*
X133779594Y-110096500D01*
X133711473Y-110076498D01*
X133690499Y-110059595D01*
X132709499Y-109078595D01*
X132675473Y-109016283D01*
X132680538Y-108945468D01*
X132723085Y-108888632D01*
X132789605Y-108863821D01*
X132798594Y-108863500D01*
X138340072Y-108863500D01*
X138351255Y-108864027D01*
X138358748Y-108865702D01*
X138366674Y-108865453D01*
X138366675Y-108865453D01*
X138426825Y-108863562D01*
X138430784Y-108863500D01*
X138458695Y-108863500D01*
X138462630Y-108863003D01*
X138462695Y-108862995D01*
X138474532Y-108862062D01*
X138506790Y-108861048D01*
X138510809Y-108860922D01*
X138518728Y-108860673D01*
X138538182Y-108855021D01*
X138557539Y-108851013D01*
X138569769Y-108849468D01*
X138569770Y-108849468D01*
X138577636Y-108848474D01*
X138585007Y-108845555D01*
X138585009Y-108845555D01*
X138618751Y-108832196D01*
X138629981Y-108828351D01*
X138664822Y-108818229D01*
X138664823Y-108818229D01*
X138672432Y-108816018D01*
X138679251Y-108811985D01*
X138679256Y-108811983D01*
X138689867Y-108805707D01*
X138707615Y-108797012D01*
X138726456Y-108789552D01*
X138762226Y-108763564D01*
X138772146Y-108757048D01*
X138803374Y-108738580D01*
X138803377Y-108738578D01*
X138810201Y-108734542D01*
X138824522Y-108720221D01*
X138839556Y-108707380D01*
X138849533Y-108700131D01*
X138855946Y-108695472D01*
X138884137Y-108661395D01*
X138892127Y-108652616D01*
X141325591Y-106219152D01*
X141387903Y-106185126D01*
X141447298Y-106186541D01*
X141505430Y-106202118D01*
X141505441Y-106202120D01*
X141510752Y-106203543D01*
X141738839Y-106223498D01*
X141966926Y-106203543D01*
X141972239Y-106202119D01*
X141972241Y-106202119D01*
X142182772Y-106145707D01*
X142182774Y-106145706D01*
X142188082Y-106144284D01*
X142220014Y-106129394D01*
X142390601Y-106049849D01*
X142390606Y-106049846D01*
X142395588Y-106047523D01*
X142500450Y-105974098D01*
X142578628Y-105919357D01*
X142578631Y-105919355D01*
X142583139Y-105916198D01*
X142745037Y-105754300D01*
X142876362Y-105566749D01*
X142878685Y-105561767D01*
X142878688Y-105561762D01*
X142894644Y-105527543D01*
X142941561Y-105474258D01*
X143009838Y-105454797D01*
X143077798Y-105475339D01*
X143123034Y-105527543D01*
X143138990Y-105561762D01*
X143138993Y-105561767D01*
X143141316Y-105566749D01*
X143272641Y-105754300D01*
X143434539Y-105916198D01*
X143439047Y-105919355D01*
X143439050Y-105919357D01*
X143517228Y-105974098D01*
X143622090Y-106047523D01*
X143627072Y-106049846D01*
X143627077Y-106049849D01*
X143797664Y-106129394D01*
X143829596Y-106144284D01*
X143834904Y-106145706D01*
X143834906Y-106145707D01*
X144045437Y-106202119D01*
X144045439Y-106202119D01*
X144050752Y-106203543D01*
X144278839Y-106223498D01*
X144506926Y-106203543D01*
X144512239Y-106202119D01*
X144512241Y-106202119D01*
X144722772Y-106145707D01*
X144722774Y-106145706D01*
X144728082Y-106144284D01*
X144760014Y-106129394D01*
X144930601Y-106049849D01*
X144930606Y-106049846D01*
X144935588Y-106047523D01*
X145040450Y-105974098D01*
X145118628Y-105919357D01*
X145118631Y-105919355D01*
X145123139Y-105916198D01*
X145285037Y-105754300D01*
X145416362Y-105566749D01*
X145418685Y-105561767D01*
X145418688Y-105561762D01*
X145434644Y-105527543D01*
X145481561Y-105474258D01*
X145549838Y-105454797D01*
X145617798Y-105475339D01*
X145663034Y-105527543D01*
X145678990Y-105561762D01*
X145678993Y-105561767D01*
X145681316Y-105566749D01*
X145812641Y-105754300D01*
X145974539Y-105916198D01*
X145979047Y-105919355D01*
X145979050Y-105919357D01*
X146057228Y-105974098D01*
X146162090Y-106047523D01*
X146167072Y-106049846D01*
X146167077Y-106049849D01*
X146337664Y-106129394D01*
X146369596Y-106144284D01*
X146374904Y-106145706D01*
X146374906Y-106145707D01*
X146585437Y-106202119D01*
X146585439Y-106202119D01*
X146590752Y-106203543D01*
X146818839Y-106223498D01*
X147046926Y-106203543D01*
X147052239Y-106202119D01*
X147052241Y-106202119D01*
X147262772Y-106145707D01*
X147262774Y-106145706D01*
X147268082Y-106144284D01*
X147300014Y-106129394D01*
X147470601Y-106049849D01*
X147470606Y-106049846D01*
X147475588Y-106047523D01*
X147580450Y-105974098D01*
X147658628Y-105919357D01*
X147658631Y-105919355D01*
X147663139Y-105916198D01*
X147825037Y-105754300D01*
X147956362Y-105566749D01*
X147958685Y-105561767D01*
X147958688Y-105561762D01*
X147974644Y-105527543D01*
X148021561Y-105474258D01*
X148089838Y-105454797D01*
X148157798Y-105475339D01*
X148203034Y-105527543D01*
X148218990Y-105561762D01*
X148218993Y-105561767D01*
X148221316Y-105566749D01*
X148352641Y-105754300D01*
X148514539Y-105916198D01*
X148519047Y-105919355D01*
X148519050Y-105919357D01*
X148597228Y-105974098D01*
X148702090Y-106047523D01*
X148707072Y-106049846D01*
X148707077Y-106049849D01*
X148877664Y-106129394D01*
X148909596Y-106144284D01*
X148914904Y-106145706D01*
X148914906Y-106145707D01*
X149125437Y-106202119D01*
X149125439Y-106202119D01*
X149130752Y-106203543D01*
X149358839Y-106223498D01*
X149586926Y-106203543D01*
X149592239Y-106202119D01*
X149592241Y-106202119D01*
X149802772Y-106145707D01*
X149802774Y-106145706D01*
X149808082Y-106144284D01*
X149840014Y-106129394D01*
X150010601Y-106049849D01*
X150010606Y-106049846D01*
X150015588Y-106047523D01*
X150120450Y-105974098D01*
X150198628Y-105919357D01*
X150198631Y-105919355D01*
X150203139Y-105916198D01*
X150365037Y-105754300D01*
X150496362Y-105566749D01*
X150498685Y-105561767D01*
X150498688Y-105561762D01*
X150514644Y-105527543D01*
X150561561Y-105474258D01*
X150629838Y-105454797D01*
X150697798Y-105475339D01*
X150743034Y-105527543D01*
X150758990Y-105561762D01*
X150758993Y-105561767D01*
X150761316Y-105566749D01*
X150892641Y-105754300D01*
X151054539Y-105916198D01*
X151059047Y-105919355D01*
X151059050Y-105919357D01*
X151137228Y-105974098D01*
X151242090Y-106047523D01*
X151247072Y-106049846D01*
X151247077Y-106049849D01*
X151417664Y-106129394D01*
X151449596Y-106144284D01*
X151454904Y-106145706D01*
X151454906Y-106145707D01*
X151665437Y-106202119D01*
X151665439Y-106202119D01*
X151670752Y-106203543D01*
X151898839Y-106223498D01*
X152126926Y-106203543D01*
X152132239Y-106202119D01*
X152132241Y-106202119D01*
X152342772Y-106145707D01*
X152342774Y-106145706D01*
X152348082Y-106144284D01*
X152380014Y-106129394D01*
X152550601Y-106049849D01*
X152550606Y-106049846D01*
X152555588Y-106047523D01*
X152660450Y-105974098D01*
X152738628Y-105919357D01*
X152738631Y-105919355D01*
X152743139Y-105916198D01*
X152905037Y-105754300D01*
X153036362Y-105566749D01*
X153038685Y-105561767D01*
X153038688Y-105561762D01*
X153130800Y-105364225D01*
X153130800Y-105364224D01*
X153133123Y-105359243D01*
X153150979Y-105292606D01*
X153190958Y-105143402D01*
X153190958Y-105143400D01*
X153192382Y-105138087D01*
X153212337Y-104910000D01*
X153192382Y-104681913D01*
X153164300Y-104577110D01*
X153165990Y-104506135D01*
X153205784Y-104447339D01*
X153271048Y-104419391D01*
X153286007Y-104418500D01*
X158606671Y-104418500D01*
X158674792Y-104438502D01*
X158721285Y-104492158D01*
X158731389Y-104562432D01*
X158728379Y-104577105D01*
X158700296Y-104681913D01*
X158680341Y-104910000D01*
X158700296Y-105138087D01*
X158701720Y-105143400D01*
X158701720Y-105143402D01*
X158741700Y-105292606D01*
X158759555Y-105359243D01*
X158761878Y-105364224D01*
X158761878Y-105364225D01*
X158853990Y-105561762D01*
X158853993Y-105561767D01*
X158856316Y-105566749D01*
X158987641Y-105754300D01*
X159149539Y-105916198D01*
X159154047Y-105919355D01*
X159154050Y-105919357D01*
X159232228Y-105974098D01*
X159337090Y-106047523D01*
X159342072Y-106049846D01*
X159342077Y-106049849D01*
X159512664Y-106129394D01*
X159544596Y-106144284D01*
X159549904Y-106145706D01*
X159549906Y-106145707D01*
X159760437Y-106202119D01*
X159760439Y-106202119D01*
X159765752Y-106203543D01*
X159993839Y-106223498D01*
X160221926Y-106203543D01*
X160227239Y-106202119D01*
X160227241Y-106202119D01*
X160437772Y-106145707D01*
X160437774Y-106145706D01*
X160443082Y-106144284D01*
X160475014Y-106129394D01*
X160645601Y-106049849D01*
X160645606Y-106049846D01*
X160650588Y-106047523D01*
X160755450Y-105974098D01*
X160833628Y-105919357D01*
X160833631Y-105919355D01*
X160838139Y-105916198D01*
X161000037Y-105754300D01*
X161131362Y-105566749D01*
X161133685Y-105561767D01*
X161133688Y-105561762D01*
X161149644Y-105527543D01*
X161196561Y-105474258D01*
X161264838Y-105454797D01*
X161332798Y-105475339D01*
X161378034Y-105527543D01*
X161393990Y-105561762D01*
X161393993Y-105561767D01*
X161396316Y-105566749D01*
X161527641Y-105754300D01*
X161689539Y-105916198D01*
X161694047Y-105919355D01*
X161694050Y-105919357D01*
X161772228Y-105974098D01*
X161877090Y-106047523D01*
X161882072Y-106049846D01*
X161882077Y-106049849D01*
X162052664Y-106129394D01*
X162084596Y-106144284D01*
X162089904Y-106145706D01*
X162089906Y-106145707D01*
X162300437Y-106202119D01*
X162300439Y-106202119D01*
X162305752Y-106203543D01*
X162533839Y-106223498D01*
X162761926Y-106203543D01*
X162767239Y-106202119D01*
X162767241Y-106202119D01*
X162977772Y-106145707D01*
X162977774Y-106145706D01*
X162983082Y-106144284D01*
X163015014Y-106129394D01*
X163185601Y-106049849D01*
X163185606Y-106049846D01*
X163190588Y-106047523D01*
X163295450Y-105974098D01*
X163373628Y-105919357D01*
X163373631Y-105919355D01*
X163378139Y-105916198D01*
X163540037Y-105754300D01*
X163671362Y-105566749D01*
X163673685Y-105561767D01*
X163673688Y-105561762D01*
X163689644Y-105527543D01*
X163736561Y-105474258D01*
X163804838Y-105454797D01*
X163872798Y-105475339D01*
X163918034Y-105527543D01*
X163933990Y-105561762D01*
X163933993Y-105561767D01*
X163936316Y-105566749D01*
X164067641Y-105754300D01*
X164229539Y-105916198D01*
X164234047Y-105919355D01*
X164234050Y-105919357D01*
X164312228Y-105974098D01*
X164417090Y-106047523D01*
X164422072Y-106049846D01*
X164422077Y-106049849D01*
X164592664Y-106129394D01*
X164624596Y-106144284D01*
X164629904Y-106145706D01*
X164629906Y-106145707D01*
X164840437Y-106202119D01*
X164840439Y-106202119D01*
X164845752Y-106203543D01*
X165073839Y-106223498D01*
X165301926Y-106203543D01*
X165307239Y-106202119D01*
X165307241Y-106202119D01*
X165517772Y-106145707D01*
X165517774Y-106145706D01*
X165523082Y-106144284D01*
X165555014Y-106129394D01*
X165725601Y-106049849D01*
X165725606Y-106049846D01*
X165730588Y-106047523D01*
X165835450Y-105974098D01*
X165913628Y-105919357D01*
X165913631Y-105919355D01*
X165918139Y-105916198D01*
X166080037Y-105754300D01*
X166211362Y-105566749D01*
X166213685Y-105561767D01*
X166213688Y-105561762D01*
X166229644Y-105527543D01*
X166276561Y-105474258D01*
X166344838Y-105454797D01*
X166412798Y-105475339D01*
X166458034Y-105527543D01*
X166473990Y-105561762D01*
X166473993Y-105561767D01*
X166476316Y-105566749D01*
X166607641Y-105754300D01*
X166769539Y-105916198D01*
X166774047Y-105919355D01*
X166774050Y-105919357D01*
X166852228Y-105974098D01*
X166957090Y-106047523D01*
X166962072Y-106049846D01*
X166962077Y-106049849D01*
X167132664Y-106129394D01*
X167164596Y-106144284D01*
X167169904Y-106145706D01*
X167169906Y-106145707D01*
X167380437Y-106202119D01*
X167380439Y-106202119D01*
X167385752Y-106203543D01*
X167613839Y-106223498D01*
X167841926Y-106203543D01*
X167847239Y-106202119D01*
X167847241Y-106202119D01*
X168057772Y-106145707D01*
X168057774Y-106145706D01*
X168063082Y-106144284D01*
X168095014Y-106129394D01*
X168265601Y-106049849D01*
X168265606Y-106049846D01*
X168270588Y-106047523D01*
X168375450Y-105974098D01*
X168453628Y-105919357D01*
X168453631Y-105919355D01*
X168458139Y-105916198D01*
X168620037Y-105754300D01*
X168751362Y-105566749D01*
X168753685Y-105561767D01*
X168753688Y-105561762D01*
X168769644Y-105527543D01*
X168816561Y-105474258D01*
X168884838Y-105454797D01*
X168952798Y-105475339D01*
X168998034Y-105527543D01*
X169013990Y-105561762D01*
X169013993Y-105561767D01*
X169016316Y-105566749D01*
X169147641Y-105754300D01*
X169309539Y-105916198D01*
X169314047Y-105919355D01*
X169314050Y-105919357D01*
X169392228Y-105974098D01*
X169497090Y-106047523D01*
X169502072Y-106049846D01*
X169502077Y-106049849D01*
X169672664Y-106129394D01*
X169704596Y-106144284D01*
X169709904Y-106145706D01*
X169709906Y-106145707D01*
X169920437Y-106202119D01*
X169920439Y-106202119D01*
X169925752Y-106203543D01*
X170153839Y-106223498D01*
X170381926Y-106203543D01*
X170387237Y-106202120D01*
X170387248Y-106202118D01*
X170445380Y-106186541D01*
X170516356Y-106188230D01*
X170567087Y-106219152D01*
X170775182Y-106427247D01*
X170782726Y-106435537D01*
X170786839Y-106442018D01*
X170792616Y-106447443D01*
X170836506Y-106488658D01*
X170839348Y-106491413D01*
X170859069Y-106511134D01*
X170862264Y-106513612D01*
X170871286Y-106521318D01*
X170903518Y-106551586D01*
X170910467Y-106555406D01*
X170921271Y-106561346D01*
X170937795Y-106572199D01*
X170953798Y-106584613D01*
X170994382Y-106602176D01*
X171005012Y-106607383D01*
X171043779Y-106628695D01*
X171051456Y-106630666D01*
X171051461Y-106630668D01*
X171063397Y-106633732D01*
X171082105Y-106640137D01*
X171100694Y-106648181D01*
X171108522Y-106649421D01*
X171108529Y-106649423D01*
X171144363Y-106655099D01*
X171155983Y-106657505D01*
X171187798Y-106665673D01*
X171198809Y-106668500D01*
X171219063Y-106668500D01*
X171238773Y-106670051D01*
X171258782Y-106673220D01*
X171266674Y-106672474D01*
X171285419Y-106670702D01*
X171302801Y-106669059D01*
X171314658Y-106668500D01*
X178161063Y-106668500D01*
X178172246Y-106669027D01*
X178179739Y-106670702D01*
X178187665Y-106670453D01*
X178187666Y-106670453D01*
X178247816Y-106668562D01*
X178251775Y-106668500D01*
X178279686Y-106668500D01*
X178283621Y-106668003D01*
X178283686Y-106667995D01*
X178295523Y-106667062D01*
X178327781Y-106666048D01*
X178331800Y-106665922D01*
X178339719Y-106665673D01*
X178359173Y-106660021D01*
X178378530Y-106656013D01*
X178390760Y-106654468D01*
X178390761Y-106654468D01*
X178398627Y-106653474D01*
X178405998Y-106650555D01*
X178406000Y-106650555D01*
X178439742Y-106637196D01*
X178450972Y-106633351D01*
X178485813Y-106623229D01*
X178485814Y-106623229D01*
X178493423Y-106621018D01*
X178500242Y-106616985D01*
X178500247Y-106616983D01*
X178510858Y-106610707D01*
X178528606Y-106602012D01*
X178547447Y-106594552D01*
X178567817Y-106579753D01*
X178583217Y-106568564D01*
X178593137Y-106562048D01*
X178624365Y-106543580D01*
X178624368Y-106543578D01*
X178631192Y-106539542D01*
X178645513Y-106525221D01*
X178660547Y-106512380D01*
X178665291Y-106508933D01*
X178676937Y-106500472D01*
X178705128Y-106466395D01*
X178713118Y-106457616D01*
X180392247Y-104778487D01*
X180400537Y-104770943D01*
X180407018Y-104766830D01*
X180453659Y-104717162D01*
X180456413Y-104714321D01*
X180476134Y-104694600D01*
X180478612Y-104691405D01*
X180486318Y-104682383D01*
X180511158Y-104655931D01*
X180516586Y-104650151D01*
X180526346Y-104632398D01*
X180537199Y-104615875D01*
X180544753Y-104606136D01*
X180549613Y-104599871D01*
X180567176Y-104559287D01*
X180572383Y-104548657D01*
X180593695Y-104509890D01*
X180595666Y-104502213D01*
X180595668Y-104502208D01*
X180598732Y-104490272D01*
X180605138Y-104471560D01*
X180610033Y-104460249D01*
X180613181Y-104452975D01*
X180614421Y-104445147D01*
X180614423Y-104445140D01*
X180620099Y-104409306D01*
X180622505Y-104397686D01*
X180631528Y-104362541D01*
X180631528Y-104362540D01*
X180633500Y-104354860D01*
X180633500Y-104334606D01*
X180635051Y-104314895D01*
X180636241Y-104307385D01*
X180638220Y-104294887D01*
X180634059Y-104250868D01*
X180633500Y-104239011D01*
X180633500Y-82545427D01*
X180653502Y-82477306D01*
X180694618Y-82437550D01*
X180697994Y-82435896D01*
X180879860Y-82306173D01*
X180908373Y-82277760D01*
X181034435Y-82152137D01*
X181038096Y-82148489D01*
X181049169Y-82133080D01*
X181165435Y-81971277D01*
X181168453Y-81967077D01*
X181172145Y-81959608D01*
X181265136Y-81771453D01*
X181265137Y-81771451D01*
X181267430Y-81766811D01*
X181306061Y-81639662D01*
X181330865Y-81558023D01*
X181330865Y-81558021D01*
X181332370Y-81553069D01*
X181361529Y-81331590D01*
X181362707Y-81283378D01*
X181363074Y-81268365D01*
X181363074Y-81268361D01*
X181363156Y-81265000D01*
X181344852Y-81042361D01*
X181290431Y-80825702D01*
X181201354Y-80620840D01*
X181144440Y-80532865D01*
X181082822Y-80437617D01*
X181082820Y-80437614D01*
X181080014Y-80433277D01*
X181060465Y-80411793D01*
X180932798Y-80271488D01*
X180901746Y-80207642D01*
X180910141Y-80137143D01*
X180955317Y-80082375D01*
X180981761Y-80068706D01*
X181088297Y-80028767D01*
X181096705Y-80025615D01*
X181213261Y-79938261D01*
X181300615Y-79821705D01*
X181351745Y-79685316D01*
X181358500Y-79623134D01*
X181358500Y-77826866D01*
X181351745Y-77764684D01*
X181300615Y-77628295D01*
X181213261Y-77511739D01*
X181096705Y-77424385D01*
X180960316Y-77373255D01*
X180898134Y-77366500D01*
X179589595Y-77366500D01*
X179521474Y-77346498D01*
X179500500Y-77329595D01*
X177093652Y-74922747D01*
X177086112Y-74914461D01*
X177082000Y-74907982D01*
X177032348Y-74861356D01*
X177029507Y-74858602D01*
X177009770Y-74838865D01*
X177006573Y-74836385D01*
X176997551Y-74828680D01*
X176971100Y-74803841D01*
X176965321Y-74798414D01*
X176958375Y-74794595D01*
X176958372Y-74794593D01*
X176947566Y-74788652D01*
X176931047Y-74777801D01*
X176930583Y-74777441D01*
X176915041Y-74765386D01*
X176907772Y-74762241D01*
X176907768Y-74762238D01*
X176874463Y-74747826D01*
X176863813Y-74742609D01*
X176825060Y-74721305D01*
X176805437Y-74716267D01*
X176786734Y-74709863D01*
X176775420Y-74704967D01*
X176775419Y-74704967D01*
X176768145Y-74701819D01*
X176760322Y-74700580D01*
X176760312Y-74700577D01*
X176724476Y-74694901D01*
X176712856Y-74692495D01*
X176677711Y-74683472D01*
X176677710Y-74683472D01*
X176670030Y-74681500D01*
X176649776Y-74681500D01*
X176630065Y-74679949D01*
X176617886Y-74678020D01*
X176610057Y-74676780D01*
X176602165Y-74677526D01*
X176566039Y-74680941D01*
X176554181Y-74681500D01*
X171387168Y-74681500D01*
X171319047Y-74661498D01*
X171272554Y-74607842D01*
X171262450Y-74537568D01*
X171265461Y-74522888D01*
X171293543Y-74418087D01*
X171313498Y-74190000D01*
X171293543Y-73961913D01*
X171292119Y-73956598D01*
X171292118Y-73956591D01*
X171276541Y-73898459D01*
X171278230Y-73827483D01*
X171309152Y-73776752D01*
X171862665Y-73223240D01*
X172430500Y-72655405D01*
X172492812Y-72621379D01*
X172519595Y-72618500D01*
X178574626Y-72618500D01*
X178642747Y-72638502D01*
X178689240Y-72692158D01*
X178699344Y-72762432D01*
X178696045Y-72778164D01*
X178660989Y-72904570D01*
X178637251Y-73126695D01*
X178637548Y-73131848D01*
X178637548Y-73131851D01*
X178643011Y-73226590D01*
X178650110Y-73349715D01*
X178651247Y-73354761D01*
X178651248Y-73354767D01*
X178663261Y-73408069D01*
X178699222Y-73567639D01*
X178737461Y-73661811D01*
X178771674Y-73746067D01*
X178783266Y-73774616D01*
X178899987Y-73965088D01*
X179046250Y-74133938D01*
X179218126Y-74276632D01*
X179411000Y-74389338D01*
X179619692Y-74469030D01*
X179624760Y-74470061D01*
X179624763Y-74470062D01*
X179681298Y-74481564D01*
X179838597Y-74513567D01*
X179843772Y-74513757D01*
X179843774Y-74513757D01*
X180056673Y-74521564D01*
X180056677Y-74521564D01*
X180061837Y-74521753D01*
X180066957Y-74521097D01*
X180066959Y-74521097D01*
X180278288Y-74494025D01*
X180278289Y-74494025D01*
X180283416Y-74493368D01*
X180288366Y-74491883D01*
X180492429Y-74430661D01*
X180492434Y-74430659D01*
X180497384Y-74429174D01*
X180697994Y-74330896D01*
X180879860Y-74201173D01*
X181038096Y-74043489D01*
X181064218Y-74007137D01*
X181165435Y-73866277D01*
X181168453Y-73862077D01*
X181185551Y-73827483D01*
X181265136Y-73666453D01*
X181265137Y-73666451D01*
X181267430Y-73661811D01*
X181307859Y-73528743D01*
X181330865Y-73453023D01*
X181330865Y-73453021D01*
X181332370Y-73448069D01*
X181361529Y-73226590D01*
X181362479Y-73187699D01*
X181363074Y-73163365D01*
X181363074Y-73163361D01*
X181363156Y-73160000D01*
X181344852Y-72937361D01*
X181290431Y-72720702D01*
X181201354Y-72515840D01*
X181080014Y-72328277D01*
X181078035Y-72326102D01*
X181052557Y-72260528D01*
X181066704Y-72190955D01*
X181089007Y-72160737D01*
X181567253Y-71682491D01*
X181575539Y-71674951D01*
X181582018Y-71670839D01*
X181628644Y-71621187D01*
X181631398Y-71618346D01*
X181651135Y-71598609D01*
X181653615Y-71595412D01*
X181661320Y-71586390D01*
X181686159Y-71559939D01*
X181691586Y-71554160D01*
X181695405Y-71547214D01*
X181695407Y-71547211D01*
X181701348Y-71536405D01*
X181712199Y-71519886D01*
X181719758Y-71510140D01*
X181724614Y-71503880D01*
X181727759Y-71496611D01*
X181727762Y-71496607D01*
X181742174Y-71463302D01*
X181747391Y-71452652D01*
X181768695Y-71413899D01*
X181773733Y-71394276D01*
X181780137Y-71375573D01*
X181785033Y-71364259D01*
X181785033Y-71364258D01*
X181788181Y-71356984D01*
X181789420Y-71349161D01*
X181789423Y-71349151D01*
X181795099Y-71313315D01*
X181797505Y-71301695D01*
X181806528Y-71266550D01*
X181806528Y-71266549D01*
X181808500Y-71258869D01*
X181808500Y-71238615D01*
X181810051Y-71218904D01*
X181811980Y-71206725D01*
X181813220Y-71198896D01*
X181809059Y-71154877D01*
X181808500Y-71143020D01*
X181808500Y-66793767D01*
X181809027Y-66782584D01*
X181810702Y-66775091D01*
X181809949Y-66751114D01*
X181808562Y-66707001D01*
X181808500Y-66703043D01*
X181808500Y-66675144D01*
X181807996Y-66671153D01*
X181807063Y-66659311D01*
X181805923Y-66623036D01*
X181805674Y-66615111D01*
X181803462Y-66607497D01*
X181803461Y-66607492D01*
X181800023Y-66595659D01*
X181796012Y-66576295D01*
X181794467Y-66564064D01*
X181793474Y-66556203D01*
X181790557Y-66548836D01*
X181790556Y-66548831D01*
X181777198Y-66515092D01*
X181773354Y-66503865D01*
X181763230Y-66469022D01*
X181761018Y-66461407D01*
X181750707Y-66443972D01*
X181742012Y-66426224D01*
X181734552Y-66407383D01*
X181708564Y-66371613D01*
X181702048Y-66361693D01*
X181683580Y-66330465D01*
X181683578Y-66330462D01*
X181679542Y-66323638D01*
X181665221Y-66309317D01*
X181652380Y-66294283D01*
X181645131Y-66284306D01*
X181640472Y-66277893D01*
X181634368Y-66272843D01*
X181634363Y-66272838D01*
X181606402Y-66249707D01*
X181597622Y-66241717D01*
X181351218Y-65995313D01*
X181317192Y-65933001D01*
X181319755Y-65869589D01*
X181330865Y-65833022D01*
X181332370Y-65828069D01*
X181361529Y-65606590D01*
X181363156Y-65540000D01*
X181344852Y-65317361D01*
X181290431Y-65100702D01*
X181201354Y-64895840D01*
X181080014Y-64708277D01*
X180929670Y-64543051D01*
X180925619Y-64539852D01*
X180925615Y-64539848D01*
X180758414Y-64407800D01*
X180758410Y-64407798D01*
X180754359Y-64404598D01*
X180712569Y-64381529D01*
X180662598Y-64331097D01*
X180647826Y-64261654D01*
X180672942Y-64195248D01*
X180700294Y-64168641D01*
X180875328Y-64043792D01*
X180883200Y-64037139D01*
X181034052Y-63886812D01*
X181040730Y-63878965D01*
X181165003Y-63706020D01*
X181170313Y-63697183D01*
X181264670Y-63506267D01*
X181268469Y-63496672D01*
X181330377Y-63292910D01*
X181332555Y-63282837D01*
X181333986Y-63271962D01*
X181331775Y-63257778D01*
X181318617Y-63254000D01*
X178683225Y-63254000D01*
X178669694Y-63257973D01*
X178668257Y-63267966D01*
X178698565Y-63402446D01*
X178701645Y-63412275D01*
X178781770Y-63609603D01*
X178786413Y-63618794D01*
X178897694Y-63800388D01*
X178903777Y-63808699D01*
X179043213Y-63969667D01*
X179050580Y-63976883D01*
X179214434Y-64112916D01*
X179222881Y-64118831D01*
X179291969Y-64159203D01*
X179340693Y-64210842D01*
X179353764Y-64280625D01*
X179327033Y-64346396D01*
X179286584Y-64379752D01*
X179273607Y-64386507D01*
X179269474Y-64389610D01*
X179269471Y-64389612D01*
X179113298Y-64506870D01*
X179094965Y-64520635D01*
X178940629Y-64682138D01*
X178852380Y-64811506D01*
X178797471Y-64856507D01*
X178748294Y-64866500D01*
X122776805Y-64866500D01*
X122708684Y-64846498D01*
X122671013Y-64808940D01*
X122582822Y-64672617D01*
X122582820Y-64672614D01*
X122580014Y-64668277D01*
X122429670Y-64503051D01*
X122425619Y-64499852D01*
X122425615Y-64499848D01*
X122258414Y-64367800D01*
X122258410Y-64367798D01*
X122254359Y-64364598D01*
X122212569Y-64341529D01*
X122162598Y-64291097D01*
X122147826Y-64221654D01*
X122172942Y-64155248D01*
X122200294Y-64128641D01*
X122259988Y-64086062D01*
X131278493Y-64086062D01*
X131287789Y-64098077D01*
X131338994Y-64133931D01*
X131348489Y-64139414D01*
X131545947Y-64231490D01*
X131556239Y-64235236D01*
X131766688Y-64291625D01*
X131777481Y-64293528D01*
X131994525Y-64312517D01*
X132005475Y-64312517D01*
X132222519Y-64293528D01*
X132233312Y-64291625D01*
X132443761Y-64235236D01*
X132454053Y-64231490D01*
X132651511Y-64139414D01*
X132661006Y-64133931D01*
X132713048Y-64097491D01*
X132721424Y-64087012D01*
X132714356Y-64073566D01*
X132012812Y-63372022D01*
X131998868Y-63364408D01*
X131997035Y-63364539D01*
X131990420Y-63368790D01*
X131284923Y-64074287D01*
X131278493Y-64086062D01*
X122259988Y-64086062D01*
X122375328Y-64003792D01*
X122383200Y-63997139D01*
X122534052Y-63846812D01*
X122540730Y-63838965D01*
X122665003Y-63666020D01*
X122670313Y-63657183D01*
X122683278Y-63630950D01*
X126278493Y-63630950D01*
X126287789Y-63642965D01*
X126338994Y-63678819D01*
X126348489Y-63684302D01*
X126545947Y-63776378D01*
X126556239Y-63780124D01*
X126766688Y-63836513D01*
X126777481Y-63838416D01*
X126994525Y-63857405D01*
X127005475Y-63857405D01*
X127222519Y-63838416D01*
X127233312Y-63836513D01*
X127443761Y-63780124D01*
X127454053Y-63776378D01*
X127651511Y-63684302D01*
X127661006Y-63678819D01*
X127713048Y-63642379D01*
X127721424Y-63631900D01*
X127714356Y-63618454D01*
X127012812Y-62916910D01*
X126998868Y-62909296D01*
X126997035Y-62909427D01*
X126990420Y-62913678D01*
X126284923Y-63619175D01*
X126278493Y-63630950D01*
X122683278Y-63630950D01*
X122764670Y-63466267D01*
X122768469Y-63456672D01*
X122830377Y-63252910D01*
X122832555Y-63242837D01*
X122833986Y-63231962D01*
X122831775Y-63217778D01*
X122818617Y-63214000D01*
X121372000Y-63214000D01*
X121303879Y-63193998D01*
X121257386Y-63140342D01*
X121246000Y-63088000D01*
X121246000Y-62832000D01*
X121266002Y-62763879D01*
X121319658Y-62717386D01*
X121372000Y-62706000D01*
X122818344Y-62706000D01*
X122831875Y-62702027D01*
X122833180Y-62692947D01*
X122791214Y-62525875D01*
X122787894Y-62516124D01*
X122702972Y-62320814D01*
X122698105Y-62311739D01*
X122582426Y-62132926D01*
X122576136Y-62124757D01*
X122432293Y-61966677D01*
X122401241Y-61902831D01*
X122409635Y-61832333D01*
X122454812Y-61777564D01*
X122481256Y-61763895D01*
X122588297Y-61723767D01*
X122596705Y-61720615D01*
X122713261Y-61633261D01*
X122800615Y-61516705D01*
X122851745Y-61380316D01*
X122858500Y-61318134D01*
X122858500Y-61179500D01*
X122878502Y-61111379D01*
X122932158Y-61064886D01*
X122984500Y-61053500D01*
X125565500Y-61053500D01*
X125633621Y-61073502D01*
G37*
%TD.AperFunction*%
%TD*%
M02*
