%TF.GenerationSoftware,KiCad,Pcbnew,(6.0.9)*%
%TF.CreationDate,2022-12-23T11:45:04+05:30*%
%TF.ProjectId,IN-12 Panel,494e2d31-3220-4506-916e-656c2e6b6963,1.0*%
%TF.SameCoordinates,Original*%
%TF.FileFunction,Copper,L2,Bot*%
%TF.FilePolarity,Positive*%
%FSLAX46Y46*%
G04 Gerber Fmt 4.6, Leading zero omitted, Abs format (unit mm)*
G04 Created by KiCad (PCBNEW (6.0.9)) date 2022-12-23 11:45:04*
%MOMM*%
%LPD*%
G01*
G04 APERTURE LIST*
%TA.AperFunction,ComponentPad*%
%ADD10C,2.540000*%
%TD*%
%TA.AperFunction,ComponentPad*%
%ADD11C,1.600000*%
%TD*%
%TA.AperFunction,ComponentPad*%
%ADD12O,1.600000X1.600000*%
%TD*%
%TA.AperFunction,ComponentPad*%
%ADD13R,1.700000X1.700000*%
%TD*%
%TA.AperFunction,ComponentPad*%
%ADD14O,1.700000X1.700000*%
%TD*%
%TA.AperFunction,ComponentPad*%
%ADD15R,2.000000X2.000000*%
%TD*%
%TA.AperFunction,ComponentPad*%
%ADD16C,2.000000*%
%TD*%
%TA.AperFunction,ComponentPad*%
%ADD17R,1.600000X1.600000*%
%TD*%
%TA.AperFunction,ComponentPad*%
%ADD18R,1.500000X1.050000*%
%TD*%
%TA.AperFunction,ComponentPad*%
%ADD19O,1.500000X1.050000*%
%TD*%
%TA.AperFunction,ComponentPad*%
%ADD20C,1.107440*%
%TD*%
%TA.AperFunction,ViaPad*%
%ADD21C,0.800000*%
%TD*%
%TA.AperFunction,Conductor*%
%ADD22C,0.250000*%
%TD*%
G04 APERTURE END LIST*
D10*
%TO.P,N2,LHDP,LHDP*%
%TO.N,unconnected-(N2-PadLHDP)*%
X158182500Y-81183660D03*
%TO.P,N2,A,A*%
%TO.N,Net-(N2-PadA)*%
X162180460Y-82184420D03*
%TO.P,N2,9,9*%
%TO.N,Net-(M2-Pad2)*%
X163673980Y-90000000D03*
%TO.P,N2,8,8*%
%TO.N,Net-(M2-Pad1)*%
X163546980Y-94498340D03*
%TO.P,N2,7,7*%
%TO.N,Net-(M2-Pad10)*%
X162180460Y-97815580D03*
%TO.P,N2,6,6*%
%TO.N,Net-(M2-Pad11)*%
X158182500Y-98816340D03*
%TO.P,N2,5,5*%
%TO.N,Net-(M2-Pad14)*%
X154184540Y-97815580D03*
%TO.P,N2,4,4*%
%TO.N,Net-(M2-Pad13)*%
X152500520Y-94498340D03*
%TO.P,N2,3,3*%
%TO.N,Net-(M2-Pad9)*%
X152373520Y-90000000D03*
%TO.P,N2,2,2*%
%TO.N,Net-(M2-Pad8)*%
X152500520Y-85501660D03*
%TO.P,N2,1,1*%
%TO.N,Net-(M2-Pad15)*%
X154184540Y-82184420D03*
%TO.P,N2,0,0*%
%TO.N,Net-(M2-Pad16)*%
X163546980Y-85501660D03*
%TD*%
%TO.P,N1,0,0*%
%TO.N,Net-(M1-Pad16)*%
X137546980Y-85501660D03*
%TO.P,N1,1,1*%
%TO.N,Net-(M1-Pad15)*%
X128184540Y-82184420D03*
%TO.P,N1,2,2*%
%TO.N,Net-(M1-Pad8)*%
X126500520Y-85501660D03*
%TO.P,N1,3,3*%
%TO.N,Net-(M1-Pad9)*%
X126373520Y-90000000D03*
%TO.P,N1,4,4*%
%TO.N,Net-(M1-Pad13)*%
X126500520Y-94498340D03*
%TO.P,N1,5,5*%
%TO.N,Net-(M1-Pad14)*%
X128184540Y-97815580D03*
%TO.P,N1,6,6*%
%TO.N,Net-(M1-Pad11)*%
X132182500Y-98816340D03*
%TO.P,N1,7,7*%
%TO.N,Net-(M1-Pad10)*%
X136180460Y-97815580D03*
%TO.P,N1,8,8*%
%TO.N,Net-(M1-Pad1)*%
X137546980Y-94498340D03*
%TO.P,N1,9,9*%
%TO.N,Net-(M1-Pad2)*%
X137673980Y-90000000D03*
%TO.P,N1,A,A*%
%TO.N,Net-(N1-PadA)*%
X136180460Y-82184420D03*
%TO.P,N1,LHDP,LHDP*%
%TO.N,unconnected-(N1-PadLHDP)*%
X132182500Y-81183660D03*
%TD*%
D11*
%TO.P,R3,1*%
%TO.N,Net-(N1-PadA)*%
X121500000Y-97810000D03*
D12*
%TO.P,R3,2*%
%TO.N,+180V*%
X121500000Y-90190000D03*
%TD*%
D11*
%TO.P,R1,1*%
%TO.N,/NBLB{slash}INS1{slash}IN3*%
X170000000Y-74190000D03*
D12*
%TO.P,R1,2*%
%TO.N,Net-(Q1-Pad2)*%
X170000000Y-81810000D03*
%TD*%
D13*
%TO.P,J4,1,Pin_1*%
%TO.N,VCC*%
X121500000Y-60420000D03*
D14*
%TO.P,J4,2,Pin_2*%
%TO.N,GND*%
X121500000Y-62960000D03*
%TO.P,J4,3,Pin_3*%
%TO.N,/NBLB{slash}INS1{slash}IN3*%
X121500000Y-65500000D03*
%TO.P,J4,4,Pin_4*%
%TO.N,/RCLK*%
X121500000Y-68040000D03*
%TO.P,J4,5,Pin_5*%
%TO.N,/SRCLK*%
X121500000Y-70580000D03*
%TO.P,J4,6,Pin_6*%
%TO.N,/SERIN*%
X121500000Y-73120000D03*
%TD*%
D13*
%TO.P,J1,1,Pin_1*%
%TO.N,+180V*%
X180000000Y-78725000D03*
D14*
%TO.P,J1,2,Pin_2*%
%TO.N,GND1*%
X180000000Y-81265000D03*
%TD*%
D13*
%TO.P,J2,1,Pin_1*%
%TO.N,+180V*%
X121500000Y-78725000D03*
D14*
%TO.P,J2,2,Pin_2*%
%TO.N,GND1*%
X121500000Y-81265000D03*
%TD*%
D15*
%TO.P,C1,1*%
%TO.N,+180V*%
X130500000Y-71632323D03*
D16*
%TO.P,C1,2*%
%TO.N,GND1*%
X130500000Y-76632323D03*
%TD*%
D11*
%TO.P,C2,1*%
%TO.N,GND*%
X132000000Y-63000000D03*
%TO.P,C2,2*%
%TO.N,VCC*%
X132000000Y-60500000D03*
%TD*%
D13*
%TO.P,J3,1,Pin_1*%
%TO.N,VCC*%
X180000000Y-60460000D03*
D14*
%TO.P,J3,2,Pin_2*%
%TO.N,GND*%
X180000000Y-63000000D03*
%TO.P,J3,3,Pin_3*%
%TO.N,/NBLB{slash}INS1{slash}IN3*%
X180000000Y-65540000D03*
%TO.P,J3,4,Pin_4*%
%TO.N,/RCLK*%
X180000000Y-68080000D03*
%TO.P,J3,5,Pin_5*%
%TO.N,/SRCLK*%
X180000000Y-70620000D03*
%TO.P,J3,6,Pin_6*%
%TO.N,/SEROUT*%
X180000000Y-73160000D03*
%TD*%
D11*
%TO.P,R4,1*%
%TO.N,Net-(N2-PadA)*%
X173500000Y-97810000D03*
D12*
%TO.P,R4,2*%
%TO.N,+180V*%
X173500000Y-90190000D03*
%TD*%
D17*
%TO.P,C3,1*%
%TO.N,VCC*%
X127000000Y-60544888D03*
D11*
%TO.P,C3,2*%
%TO.N,GND*%
X127000000Y-62544888D03*
%TD*%
%TO.P,R2,1*%
%TO.N,+180V*%
X167000000Y-74190000D03*
D12*
%TO.P,R2,2*%
%TO.N,Net-(N3-PadA)*%
X167000000Y-81810000D03*
%TD*%
%TO.P,U1,16,VCC*%
%TO.N,VCC*%
X121180000Y-121305000D03*
%TO.P,U1,15,QA*%
%TO.N,/QA*%
X121180000Y-118765000D03*
%TO.P,U1,14,SER*%
%TO.N,/SERIN*%
X121180000Y-116225000D03*
%TO.P,U1,13,~{OE}*%
%TO.N,GND*%
X121180000Y-113685000D03*
%TO.P,U1,12,RCLK*%
%TO.N,/RCLK*%
X121180000Y-111145000D03*
%TO.P,U1,11,SRCLK*%
%TO.N,/SRCLK*%
X121180000Y-108605000D03*
%TO.P,U1,10,~{SRCLR}*%
%TO.N,VCC*%
X121180000Y-106065000D03*
%TO.P,U1,9,QH'*%
%TO.N,/SEROUT*%
X121180000Y-103525000D03*
%TO.P,U1,8,GND*%
%TO.N,GND*%
X128800000Y-103525000D03*
%TO.P,U1,7,QH*%
%TO.N,/QH*%
X128800000Y-106065000D03*
%TO.P,U1,6,QG*%
%TO.N,/QG*%
X128800000Y-108605000D03*
%TO.P,U1,5,QF*%
%TO.N,/QF*%
X128800000Y-111145000D03*
%TO.P,U1,4,QE*%
%TO.N,/QE*%
X128800000Y-113685000D03*
%TO.P,U1,3,QD*%
%TO.N,/QD*%
X128800000Y-116225000D03*
%TO.P,U1,2,QC*%
%TO.N,/QC*%
X128800000Y-118765000D03*
D17*
%TO.P,U1,1,QB*%
%TO.N,/QB*%
X128800000Y-121305000D03*
%TD*%
D18*
%TO.P,Q1,1,E*%
%TO.N,GND1*%
X174140000Y-78730000D03*
D19*
%TO.P,Q1,2,B*%
%TO.N,Net-(Q1-Pad2)*%
X174140000Y-80000000D03*
%TO.P,Q1,3,C*%
%TO.N,Net-(N3-PadK)*%
X174140000Y-81270000D03*
%TD*%
D20*
%TO.P,N3,A,A*%
%TO.N,Net-(N3-PadA)*%
X182087500Y-90000000D03*
%TO.P,N3,K,K*%
%TO.N,Net-(N3-PadK)*%
X178912500Y-90000000D03*
%TD*%
D12*
%TO.P,M2,16,0*%
%TO.N,Net-(M2-Pad16)*%
X159993839Y-104910000D03*
%TO.P,M2,15,1*%
%TO.N,Net-(M2-Pad15)*%
X162533839Y-104910000D03*
%TO.P,M2,14,5*%
%TO.N,Net-(M2-Pad14)*%
X165073839Y-104910000D03*
%TO.P,M2,13,4*%
%TO.N,Net-(M2-Pad13)*%
X167613839Y-104910000D03*
%TO.P,M2,12,GND*%
%TO.N,GND1*%
X170153839Y-104910000D03*
%TO.P,M2,11,6*%
%TO.N,Net-(M2-Pad11)*%
X172693839Y-104910000D03*
%TO.P,M2,10,7*%
%TO.N,Net-(M2-Pad10)*%
X175233839Y-104910000D03*
%TO.P,M2,9,3*%
%TO.N,Net-(M2-Pad9)*%
X177773839Y-104910000D03*
%TO.P,M2,8,2*%
%TO.N,Net-(M2-Pad8)*%
X177773839Y-112530000D03*
%TO.P,M2,7,C*%
%TO.N,/QC*%
X175233839Y-112530000D03*
%TO.P,M2,6,B*%
%TO.N,/QB*%
X172693839Y-112530000D03*
%TO.P,M2,5,VCC*%
%TO.N,VCC*%
X170153839Y-112530000D03*
%TO.P,M2,4,D*%
%TO.N,/QD*%
X167613839Y-112530000D03*
%TO.P,M2,3,A*%
%TO.N,/QA*%
X165073839Y-112530000D03*
%TO.P,M2,2,9*%
%TO.N,Net-(M2-Pad2)*%
X162533839Y-112530000D03*
D17*
%TO.P,M2,1,8*%
%TO.N,Net-(M2-Pad1)*%
X159993839Y-112530000D03*
%TD*%
D12*
%TO.P,M1,16,0*%
%TO.N,Net-(M1-Pad16)*%
X134118839Y-104910000D03*
%TO.P,M1,15,1*%
%TO.N,Net-(M1-Pad15)*%
X136658839Y-104910000D03*
%TO.P,M1,14,5*%
%TO.N,Net-(M1-Pad14)*%
X139198839Y-104910000D03*
%TO.P,M1,13,4*%
%TO.N,Net-(M1-Pad13)*%
X141738839Y-104910000D03*
%TO.P,M1,12,GND*%
%TO.N,GND1*%
X144278839Y-104910000D03*
%TO.P,M1,11,6*%
%TO.N,Net-(M1-Pad11)*%
X146818839Y-104910000D03*
%TO.P,M1,10,7*%
%TO.N,Net-(M1-Pad10)*%
X149358839Y-104910000D03*
%TO.P,M1,9,3*%
%TO.N,Net-(M1-Pad9)*%
X151898839Y-104910000D03*
%TO.P,M1,8,2*%
%TO.N,Net-(M1-Pad8)*%
X151898839Y-112530000D03*
%TO.P,M1,7,C*%
%TO.N,/QG*%
X149358839Y-112530000D03*
%TO.P,M1,6,B*%
%TO.N,/QF*%
X146818839Y-112530000D03*
%TO.P,M1,5,VCC*%
%TO.N,VCC*%
X144278839Y-112530000D03*
%TO.P,M1,4,D*%
%TO.N,/QH*%
X141738839Y-112530000D03*
%TO.P,M1,3,A*%
%TO.N,/QE*%
X139198839Y-112530000D03*
%TO.P,M1,2,9*%
%TO.N,Net-(M1-Pad2)*%
X136658839Y-112530000D03*
D17*
%TO.P,M1,1,8*%
%TO.N,Net-(M1-Pad1)*%
X134118839Y-112530000D03*
%TD*%
D21*
%TO.N,/SEROUT*%
X183868839Y-73230000D03*
%TD*%
D22*
%TO.N,Net-(M2-Pad15)*%
X154184540Y-89545701D02*
X154184540Y-82184420D01*
X155868839Y-91230000D02*
X154184540Y-89545701D01*
X159527848Y-106035000D02*
X155868839Y-102375991D01*
X161408839Y-106035000D02*
X159527848Y-106035000D01*
X162533839Y-104910000D02*
X161408839Y-106035000D01*
X155868839Y-102375991D02*
X155868839Y-91230000D01*
%TO.N,Net-(M2-Pad8)*%
X154883289Y-79230000D02*
X152500520Y-81612769D01*
X161481711Y-79230000D02*
X154883289Y-79230000D01*
X163868839Y-82786226D02*
X163868839Y-81617128D01*
X167368839Y-86286226D02*
X163868839Y-82786226D01*
X163868839Y-81617128D02*
X161481711Y-79230000D01*
X167368839Y-93269830D02*
X167368839Y-86286226D01*
X152500520Y-81612769D02*
X152500520Y-85501660D01*
X173818839Y-99719830D02*
X167368839Y-93269830D01*
X173818839Y-108575000D02*
X173818839Y-99719830D01*
X177773839Y-112530000D02*
X173818839Y-108575000D01*
%TO.N,Net-(M2-Pad13)*%
X152500520Y-98387231D02*
X152500520Y-94498340D01*
X153473839Y-99360550D02*
X152500520Y-98387231D01*
X162549830Y-114105000D02*
X158682443Y-114105000D01*
X158682443Y-114105000D02*
X153473839Y-108896396D01*
X153473839Y-108896396D02*
X153473839Y-99360550D01*
X163670146Y-112984684D02*
X162549830Y-114105000D01*
X167613839Y-108109009D02*
X163670146Y-112052702D01*
X167613839Y-104910000D02*
X167613839Y-108109009D01*
X163670146Y-112052702D02*
X163670146Y-112984684D01*
%TO.N,Net-(M2-Pad14)*%
X154184540Y-108970701D02*
X154184540Y-97815580D01*
X158868839Y-113655000D02*
X154184540Y-108970701D01*
X165073839Y-108086396D02*
X161118839Y-112041396D01*
X161118839Y-113655000D02*
X158868839Y-113655000D01*
X165073839Y-104910000D02*
X165073839Y-108086396D01*
X161118839Y-112041396D02*
X161118839Y-113655000D01*
%TO.N,Net-(M2-Pad16)*%
X159993839Y-92571122D02*
X162078980Y-90485981D01*
X162078980Y-90485981D02*
X162078980Y-86969660D01*
X159993839Y-104910000D02*
X159993839Y-92571122D01*
X162078980Y-86969660D02*
X163546980Y-85501660D01*
%TO.N,Net-(M2-Pad2)*%
X166198839Y-108865000D02*
X166198839Y-92524859D01*
X162533839Y-112530000D02*
X166198839Y-108865000D01*
X166198839Y-92524859D02*
X163673980Y-90000000D01*
%TO.N,Net-(M2-Pad1)*%
X163868839Y-94820199D02*
X163546980Y-94498340D01*
X163868839Y-108655000D02*
X163868839Y-94820199D01*
X159993839Y-112530000D02*
X163868839Y-108655000D01*
%TO.N,+180V*%
X122868839Y-80093839D02*
X122868839Y-88821161D01*
X122868839Y-88821161D02*
X121500000Y-90190000D01*
X121500000Y-78725000D02*
X122868839Y-80093839D01*
%TO.N,Net-(M1-Pad8)*%
X124778520Y-87223660D02*
X126500520Y-85501660D01*
X124778520Y-90660671D02*
X124778520Y-87223660D01*
X150773839Y-104450000D02*
X139227179Y-92903340D01*
X127021189Y-92903340D02*
X124778520Y-90660671D01*
X150773839Y-110273630D02*
X150773839Y-104450000D01*
X151898839Y-112530000D02*
X151898839Y-111398630D01*
X151898839Y-111398630D02*
X150773839Y-110273630D01*
X139227179Y-92903340D02*
X127021189Y-92903340D01*
%TO.N,Net-(M1-Pad11)*%
X137151160Y-103785000D02*
X132182500Y-98816340D01*
X145693839Y-103785000D02*
X137151160Y-103785000D01*
X146818839Y-104910000D02*
X145693839Y-103785000D01*
%TO.N,Net-(M1-Pad10)*%
X142264419Y-97815580D02*
X136180460Y-97815580D01*
X149358839Y-104910000D02*
X142264419Y-97815580D01*
%TO.N,Net-(M1-Pad9)*%
X129643520Y-86730000D02*
X126373520Y-90000000D01*
X135868839Y-89303878D02*
X133294961Y-86730000D01*
X133294961Y-86730000D02*
X129643520Y-86730000D01*
X136733839Y-91595000D02*
X135868839Y-90730000D01*
X135868839Y-90730000D02*
X135868839Y-89303878D01*
X138583839Y-91595000D02*
X136733839Y-91595000D01*
X151898839Y-104910000D02*
X138583839Y-91595000D01*
%TO.N,Net-(M1-Pad2)*%
X139470031Y-90000000D02*
X137673980Y-90000000D01*
X153023839Y-103553808D02*
X139470031Y-90000000D01*
X152364830Y-113655000D02*
X153023839Y-112995991D01*
X141272848Y-113655000D02*
X152364830Y-113655000D01*
X139788839Y-111405000D02*
X140613839Y-112230000D01*
X153023839Y-112995991D02*
X153023839Y-103553808D01*
X137783839Y-111405000D02*
X139788839Y-111405000D01*
X140613839Y-112230000D02*
X140613839Y-112995991D01*
X140613839Y-112995991D02*
X141272848Y-113655000D01*
X136658839Y-112530000D02*
X137783839Y-111405000D01*
%TO.N,Net-(M1-Pad1)*%
X130587500Y-98155669D02*
X134244829Y-94498340D01*
X130587500Y-108998661D02*
X130587500Y-98155669D01*
X134244829Y-94498340D02*
X137546980Y-94498340D01*
X134118839Y-112530000D02*
X130587500Y-108998661D01*
%TO.N,/QE*%
X138043839Y-113685000D02*
X139198839Y-112530000D01*
X128800000Y-113685000D02*
X138043839Y-113685000D01*
%TO.N,/SERIN*%
X119155000Y-68443839D02*
X119155000Y-114200000D01*
X120733839Y-66865000D02*
X119155000Y-68443839D01*
X121986701Y-66865000D02*
X120733839Y-66865000D01*
X122675000Y-67553299D02*
X121986701Y-66865000D01*
X119155000Y-114200000D02*
X121180000Y-116225000D01*
X122675000Y-71945000D02*
X122675000Y-67553299D01*
X121500000Y-73120000D02*
X122675000Y-71945000D01*
%TO.N,/RCLK*%
X119605000Y-109570000D02*
X119605000Y-69935000D01*
X119605000Y-69935000D02*
X121500000Y-68040000D01*
X121180000Y-111145000D02*
X119605000Y-109570000D01*
%TO.N,/SRCLK*%
X120055000Y-107480000D02*
X121180000Y-108605000D01*
X120055000Y-72025000D02*
X120055000Y-107480000D01*
X121500000Y-70580000D02*
X120055000Y-72025000D01*
%TO.N,/QA*%
X162503839Y-115100000D02*
X165073839Y-112530000D01*
X124845000Y-115100000D02*
X162503839Y-115100000D01*
X121180000Y-118765000D02*
X124845000Y-115100000D01*
%TO.N,/QC*%
X127675000Y-122430000D02*
X127975000Y-122730000D01*
X165033839Y-122730000D02*
X175233839Y-112530000D01*
X127675000Y-119890000D02*
X127675000Y-122430000D01*
X128800000Y-118765000D02*
X127675000Y-119890000D01*
X127975000Y-122730000D02*
X165033839Y-122730000D01*
%TO.N,/QB*%
X163918839Y-121305000D02*
X172693839Y-112530000D01*
X128800000Y-121305000D02*
X163918839Y-121305000D01*
%TO.N,Net-(N3-PadA)*%
X173034009Y-91315000D02*
X167000000Y-85280991D01*
X180772500Y-91315000D02*
X173034009Y-91315000D01*
X182087500Y-90000000D02*
X180772500Y-91315000D01*
X167000000Y-85280991D02*
X167000000Y-81810000D01*
%TO.N,+180V*%
X173500000Y-85225000D02*
X180000000Y-78725000D01*
X173500000Y-90190000D02*
X173500000Y-85225000D01*
%TO.N,/SEROUT*%
X183798839Y-73160000D02*
X180000000Y-73160000D01*
X183868839Y-73230000D02*
X183798839Y-73160000D01*
%TD*%
%TA.AperFunction,Conductor*%
%TO.N,GND*%
G36*
X182668175Y-55528502D02*
G01*
X182714668Y-55582158D01*
X182724772Y-55652432D01*
X182695278Y-55717012D01*
X182665890Y-55741933D01*
X182610584Y-55775824D01*
X182430031Y-55930031D01*
X182275824Y-56110584D01*
X182273245Y-56114792D01*
X182273241Y-56114798D01*
X182154346Y-56308817D01*
X182151760Y-56313037D01*
X182060895Y-56532406D01*
X182059740Y-56537218D01*
X182013420Y-56730155D01*
X182005465Y-56763289D01*
X181987308Y-56993995D01*
X181986835Y-57000000D01*
X182005465Y-57236711D01*
X182006619Y-57241518D01*
X182006620Y-57241524D01*
X182036601Y-57366401D01*
X182060895Y-57467594D01*
X182151760Y-57686963D01*
X182154346Y-57691183D01*
X182273241Y-57885202D01*
X182273245Y-57885208D01*
X182275824Y-57889416D01*
X182430031Y-58069969D01*
X182610584Y-58224176D01*
X182614792Y-58226755D01*
X182614798Y-58226759D01*
X182808817Y-58345654D01*
X182813037Y-58348240D01*
X182817607Y-58350133D01*
X182817611Y-58350135D01*
X183027833Y-58437211D01*
X183032406Y-58439105D01*
X183112609Y-58458360D01*
X183258476Y-58493380D01*
X183258482Y-58493381D01*
X183263289Y-58494535D01*
X183500000Y-58513165D01*
X183736711Y-58494535D01*
X183741518Y-58493381D01*
X183741524Y-58493380D01*
X183887391Y-58458360D01*
X183967594Y-58439105D01*
X183972167Y-58437211D01*
X184182389Y-58350135D01*
X184182393Y-58350133D01*
X184186963Y-58348240D01*
X184191183Y-58345654D01*
X184385202Y-58226759D01*
X184385208Y-58226755D01*
X184389416Y-58224176D01*
X184569969Y-58069969D01*
X184724176Y-57889416D01*
X184758067Y-57834111D01*
X184810715Y-57786480D01*
X184880756Y-57774873D01*
X184945954Y-57802976D01*
X184985608Y-57861867D01*
X184991500Y-57899946D01*
X184991500Y-72949696D01*
X184971498Y-73017817D01*
X184917842Y-73064310D01*
X184847568Y-73074414D01*
X184782988Y-73044920D01*
X184745667Y-72988632D01*
X184705408Y-72864729D01*
X184703366Y-72858444D01*
X184607879Y-72693056D01*
X184599594Y-72683854D01*
X184484514Y-72556045D01*
X184484513Y-72556044D01*
X184480092Y-72551134D01*
X184325591Y-72438882D01*
X184319563Y-72436198D01*
X184319561Y-72436197D01*
X184157158Y-72363891D01*
X184157157Y-72363891D01*
X184151127Y-72361206D01*
X184057726Y-72341353D01*
X183970783Y-72322872D01*
X183970778Y-72322872D01*
X183964326Y-72321500D01*
X183773352Y-72321500D01*
X183766900Y-72322872D01*
X183766895Y-72322872D01*
X183679952Y-72341353D01*
X183586551Y-72361206D01*
X183580521Y-72363891D01*
X183580520Y-72363891D01*
X183418117Y-72436197D01*
X183418115Y-72436198D01*
X183412087Y-72438882D01*
X183406746Y-72442762D01*
X183406745Y-72442763D01*
X183324613Y-72502436D01*
X183257746Y-72526294D01*
X183250552Y-72526500D01*
X181276805Y-72526500D01*
X181208684Y-72506498D01*
X181171013Y-72468940D01*
X181082822Y-72332617D01*
X181082820Y-72332614D01*
X181080014Y-72328277D01*
X180929670Y-72163051D01*
X180925619Y-72159852D01*
X180925615Y-72159848D01*
X180758414Y-72027800D01*
X180758410Y-72027798D01*
X180754359Y-72024598D01*
X180713053Y-72001796D01*
X180663084Y-71951364D01*
X180648312Y-71881921D01*
X180673428Y-71815516D01*
X180700780Y-71788909D01*
X180744603Y-71757650D01*
X180879860Y-71661173D01*
X181038096Y-71503489D01*
X181097594Y-71420689D01*
X181165435Y-71326277D01*
X181168453Y-71322077D01*
X181267430Y-71121811D01*
X181332370Y-70908069D01*
X181361529Y-70686590D01*
X181363156Y-70620000D01*
X181344852Y-70397361D01*
X181290431Y-70180702D01*
X181201354Y-69975840D01*
X181080014Y-69788277D01*
X180929670Y-69623051D01*
X180925619Y-69619852D01*
X180925615Y-69619848D01*
X180758414Y-69487800D01*
X180758410Y-69487798D01*
X180754359Y-69484598D01*
X180713053Y-69461796D01*
X180663084Y-69411364D01*
X180648312Y-69341921D01*
X180673428Y-69275516D01*
X180700780Y-69248909D01*
X180744603Y-69217650D01*
X180879860Y-69121173D01*
X181038096Y-68963489D01*
X181097594Y-68880689D01*
X181165435Y-68786277D01*
X181168453Y-68782077D01*
X181205933Y-68706243D01*
X181265136Y-68586453D01*
X181265137Y-68586451D01*
X181267430Y-68581811D01*
X181332370Y-68368069D01*
X181361529Y-68146590D01*
X181361611Y-68143240D01*
X181363074Y-68083365D01*
X181363074Y-68083361D01*
X181363156Y-68080000D01*
X181344852Y-67857361D01*
X181290431Y-67640702D01*
X181201354Y-67435840D01*
X181080014Y-67248277D01*
X180929670Y-67083051D01*
X180925619Y-67079852D01*
X180925615Y-67079848D01*
X180758414Y-66947800D01*
X180758410Y-66947798D01*
X180754359Y-66944598D01*
X180713053Y-66921796D01*
X180663084Y-66871364D01*
X180648312Y-66801921D01*
X180673428Y-66735516D01*
X180700780Y-66708909D01*
X180744603Y-66677650D01*
X180879860Y-66581173D01*
X181038096Y-66423489D01*
X181058662Y-66394869D01*
X181165435Y-66246277D01*
X181168453Y-66242077D01*
X181186147Y-66206277D01*
X181265136Y-66046453D01*
X181265137Y-66046451D01*
X181267430Y-66041811D01*
X181332370Y-65828069D01*
X181361529Y-65606590D01*
X181362425Y-65569908D01*
X181363074Y-65543365D01*
X181363074Y-65543361D01*
X181363156Y-65540000D01*
X181344852Y-65317361D01*
X181290431Y-65100702D01*
X181201354Y-64895840D01*
X181080014Y-64708277D01*
X180929670Y-64543051D01*
X180925619Y-64539852D01*
X180925615Y-64539848D01*
X180758414Y-64407800D01*
X180758410Y-64407798D01*
X180754359Y-64404598D01*
X180712569Y-64381529D01*
X180662598Y-64331097D01*
X180647826Y-64261654D01*
X180672942Y-64195248D01*
X180700294Y-64168641D01*
X180875328Y-64043792D01*
X180883200Y-64037139D01*
X181034052Y-63886812D01*
X181040730Y-63878965D01*
X181165003Y-63706020D01*
X181170313Y-63697183D01*
X181264670Y-63506267D01*
X181268469Y-63496672D01*
X181330377Y-63292910D01*
X181332555Y-63282837D01*
X181333986Y-63271962D01*
X181331775Y-63257778D01*
X181318617Y-63254000D01*
X178683225Y-63254000D01*
X178669694Y-63257973D01*
X178668257Y-63267966D01*
X178698565Y-63402446D01*
X178701645Y-63412275D01*
X178781770Y-63609603D01*
X178786413Y-63618794D01*
X178897694Y-63800388D01*
X178903777Y-63808699D01*
X179043213Y-63969667D01*
X179050580Y-63976883D01*
X179214434Y-64112916D01*
X179222881Y-64118831D01*
X179291969Y-64159203D01*
X179340693Y-64210842D01*
X179353764Y-64280625D01*
X179327033Y-64346396D01*
X179286584Y-64379752D01*
X179273607Y-64386507D01*
X179269474Y-64389610D01*
X179269471Y-64389612D01*
X179113298Y-64506870D01*
X179094965Y-64520635D01*
X179091393Y-64524373D01*
X178974771Y-64646411D01*
X178940629Y-64682138D01*
X178814743Y-64866680D01*
X178799003Y-64900590D01*
X178741435Y-65024610D01*
X178720688Y-65069305D01*
X178660989Y-65284570D01*
X178637251Y-65506695D01*
X178637548Y-65511848D01*
X178637548Y-65511851D01*
X178643011Y-65606590D01*
X178650110Y-65729715D01*
X178651247Y-65734761D01*
X178651248Y-65734767D01*
X178663261Y-65788069D01*
X178699222Y-65947639D01*
X178737461Y-66041811D01*
X178768815Y-66119026D01*
X178783266Y-66154616D01*
X178785965Y-66159020D01*
X178893760Y-66334926D01*
X178899987Y-66345088D01*
X179046250Y-66513938D01*
X179218126Y-66656632D01*
X179288595Y-66697811D01*
X179291445Y-66699476D01*
X179340169Y-66751114D01*
X179353240Y-66820897D01*
X179326509Y-66886669D01*
X179286055Y-66920027D01*
X179273607Y-66926507D01*
X179269474Y-66929610D01*
X179269471Y-66929612D01*
X179245247Y-66947800D01*
X179094965Y-67060635D01*
X178940629Y-67222138D01*
X178814743Y-67406680D01*
X178767715Y-67507993D01*
X178750398Y-67545301D01*
X178720688Y-67609305D01*
X178660989Y-67824570D01*
X178637251Y-68046695D01*
X178637548Y-68051848D01*
X178637548Y-68051851D01*
X178647039Y-68216455D01*
X178650110Y-68269715D01*
X178651247Y-68274761D01*
X178651248Y-68274767D01*
X178669584Y-68356128D01*
X178699222Y-68487639D01*
X178783266Y-68694616D01*
X178899987Y-68885088D01*
X179046250Y-69053938D01*
X179218126Y-69196632D01*
X179288595Y-69237811D01*
X179291445Y-69239476D01*
X179340169Y-69291114D01*
X179353240Y-69360897D01*
X179326509Y-69426669D01*
X179286055Y-69460027D01*
X179273607Y-69466507D01*
X179269474Y-69469610D01*
X179269471Y-69469612D01*
X179245247Y-69487800D01*
X179094965Y-69600635D01*
X178940629Y-69762138D01*
X178814743Y-69946680D01*
X178799003Y-69980590D01*
X178729381Y-70130578D01*
X178720688Y-70149305D01*
X178660989Y-70364570D01*
X178637251Y-70586695D01*
X178637548Y-70591848D01*
X178637548Y-70591851D01*
X178643011Y-70686590D01*
X178650110Y-70809715D01*
X178651247Y-70814761D01*
X178651248Y-70814767D01*
X178671119Y-70902939D01*
X178699222Y-71027639D01*
X178783266Y-71234616D01*
X178899987Y-71425088D01*
X179046250Y-71593938D01*
X179218126Y-71736632D01*
X179288595Y-71777811D01*
X179291445Y-71779476D01*
X179340169Y-71831114D01*
X179353240Y-71900897D01*
X179326509Y-71966669D01*
X179286055Y-72000027D01*
X179273607Y-72006507D01*
X179269474Y-72009610D01*
X179269471Y-72009612D01*
X179108570Y-72130420D01*
X179094965Y-72140635D01*
X178940629Y-72302138D01*
X178937715Y-72306410D01*
X178937714Y-72306411D01*
X178900080Y-72361581D01*
X178814743Y-72486680D01*
X178720688Y-72689305D01*
X178660989Y-72904570D01*
X178637251Y-73126695D01*
X178637548Y-73131848D01*
X178637548Y-73131851D01*
X178640704Y-73186590D01*
X178650110Y-73349715D01*
X178651247Y-73354761D01*
X178651248Y-73354767D01*
X178663261Y-73408069D01*
X178699222Y-73567639D01*
X178721219Y-73621811D01*
X178771674Y-73746067D01*
X178783266Y-73774616D01*
X178899987Y-73965088D01*
X179046250Y-74133938D01*
X179218126Y-74276632D01*
X179411000Y-74389338D01*
X179619692Y-74469030D01*
X179624760Y-74470061D01*
X179624763Y-74470062D01*
X179681298Y-74481564D01*
X179838597Y-74513567D01*
X179843772Y-74513757D01*
X179843774Y-74513757D01*
X180056673Y-74521564D01*
X180056677Y-74521564D01*
X180061837Y-74521753D01*
X180066957Y-74521097D01*
X180066959Y-74521097D01*
X180278288Y-74494025D01*
X180278289Y-74494025D01*
X180283416Y-74493368D01*
X180288366Y-74491883D01*
X180492429Y-74430661D01*
X180492434Y-74430659D01*
X180497384Y-74429174D01*
X180697994Y-74330896D01*
X180879860Y-74201173D01*
X181038096Y-74043489D01*
X181064218Y-74007137D01*
X181165435Y-73866277D01*
X181168453Y-73862077D01*
X181170746Y-73857437D01*
X181172446Y-73854608D01*
X181224674Y-73806518D01*
X181280451Y-73793500D01*
X183097612Y-73793500D01*
X183165733Y-73813502D01*
X183191247Y-73835189D01*
X183257586Y-73908866D01*
X183412087Y-74021118D01*
X183418115Y-74023802D01*
X183418117Y-74023803D01*
X183580520Y-74096109D01*
X183586551Y-74098794D01*
X183679951Y-74118647D01*
X183766895Y-74137128D01*
X183766900Y-74137128D01*
X183773352Y-74138500D01*
X183964326Y-74138500D01*
X183970778Y-74137128D01*
X183970783Y-74137128D01*
X184057727Y-74118647D01*
X184151127Y-74098794D01*
X184157158Y-74096109D01*
X184319561Y-74023803D01*
X184319563Y-74023802D01*
X184325591Y-74021118D01*
X184480092Y-73908866D01*
X184546430Y-73835190D01*
X184603460Y-73771852D01*
X184603461Y-73771851D01*
X184607879Y-73766944D01*
X184703366Y-73601556D01*
X184745667Y-73471368D01*
X184785741Y-73412762D01*
X184851137Y-73385125D01*
X184921094Y-73397232D01*
X184973400Y-73445238D01*
X184991500Y-73510304D01*
X184991500Y-122100054D01*
X184971498Y-122168175D01*
X184917842Y-122214668D01*
X184847568Y-122224772D01*
X184782988Y-122195278D01*
X184758067Y-122165889D01*
X184726758Y-122114798D01*
X184724176Y-122110584D01*
X184569969Y-121930031D01*
X184389416Y-121775824D01*
X184385208Y-121773245D01*
X184385202Y-121773241D01*
X184191183Y-121654346D01*
X184186963Y-121651760D01*
X184182393Y-121649867D01*
X184182389Y-121649865D01*
X183972167Y-121562789D01*
X183972165Y-121562788D01*
X183967594Y-121560895D01*
X183873904Y-121538402D01*
X183741524Y-121506620D01*
X183741518Y-121506619D01*
X183736711Y-121505465D01*
X183500000Y-121486835D01*
X183263289Y-121505465D01*
X183258482Y-121506619D01*
X183258476Y-121506620D01*
X183126096Y-121538402D01*
X183032406Y-121560895D01*
X183027835Y-121562788D01*
X183027833Y-121562789D01*
X182817611Y-121649865D01*
X182817607Y-121649867D01*
X182813037Y-121651760D01*
X182808817Y-121654346D01*
X182614798Y-121773241D01*
X182614792Y-121773245D01*
X182610584Y-121775824D01*
X182430031Y-121930031D01*
X182275824Y-122110584D01*
X182273245Y-122114792D01*
X182273241Y-122114798D01*
X182155275Y-122307301D01*
X182151760Y-122313037D01*
X182149867Y-122317607D01*
X182149865Y-122317611D01*
X182068914Y-122513047D01*
X182060895Y-122532406D01*
X182047357Y-122588797D01*
X182010088Y-122744034D01*
X182005465Y-122763289D01*
X181987308Y-122993995D01*
X181986835Y-123000000D01*
X182005465Y-123236711D01*
X182006619Y-123241518D01*
X182006620Y-123241524D01*
X182035285Y-123360922D01*
X182060895Y-123467594D01*
X182151760Y-123686963D01*
X182154346Y-123691183D01*
X182273241Y-123885202D01*
X182273245Y-123885208D01*
X182275824Y-123889416D01*
X182430031Y-124069969D01*
X182610584Y-124224176D01*
X182665889Y-124258067D01*
X182713520Y-124310715D01*
X182725127Y-124380756D01*
X182697024Y-124445954D01*
X182638133Y-124485608D01*
X182600054Y-124491500D01*
X118399946Y-124491500D01*
X118331825Y-124471498D01*
X118285332Y-124417842D01*
X118275228Y-124347568D01*
X118304722Y-124282988D01*
X118334111Y-124258067D01*
X118389416Y-124224176D01*
X118569969Y-124069969D01*
X118724176Y-123889416D01*
X118726755Y-123885208D01*
X118726759Y-123885202D01*
X118845654Y-123691183D01*
X118848240Y-123686963D01*
X118939105Y-123467594D01*
X118964715Y-123360922D01*
X118993380Y-123241524D01*
X118993381Y-123241518D01*
X118994535Y-123236711D01*
X119013165Y-123000000D01*
X118994535Y-122763289D01*
X118989913Y-122744034D01*
X118952643Y-122588797D01*
X118939105Y-122532406D01*
X118931086Y-122513047D01*
X118850135Y-122317611D01*
X118850133Y-122317607D01*
X118848240Y-122313037D01*
X118844725Y-122307301D01*
X118726759Y-122114798D01*
X118726755Y-122114792D01*
X118724176Y-122110584D01*
X118569969Y-121930031D01*
X118389416Y-121775824D01*
X118385208Y-121773245D01*
X118385202Y-121773241D01*
X118191183Y-121654346D01*
X118186963Y-121651760D01*
X118182393Y-121649867D01*
X118182389Y-121649865D01*
X117972167Y-121562789D01*
X117972165Y-121562788D01*
X117967594Y-121560895D01*
X117873904Y-121538402D01*
X117741524Y-121506620D01*
X117741518Y-121506619D01*
X117736711Y-121505465D01*
X117500000Y-121486835D01*
X117263289Y-121505465D01*
X117258482Y-121506619D01*
X117258476Y-121506620D01*
X117126096Y-121538402D01*
X117032406Y-121560895D01*
X117027835Y-121562788D01*
X117027833Y-121562789D01*
X116817611Y-121649865D01*
X116817607Y-121649867D01*
X116813037Y-121651760D01*
X116808817Y-121654346D01*
X116614798Y-121773241D01*
X116614792Y-121773245D01*
X116610584Y-121775824D01*
X116430031Y-121930031D01*
X116275824Y-122110584D01*
X116273242Y-122114798D01*
X116241933Y-122165889D01*
X116189285Y-122213520D01*
X116119244Y-122225127D01*
X116054046Y-122197024D01*
X116014392Y-122138133D01*
X116008500Y-122100054D01*
X116008500Y-68423782D01*
X118516780Y-68423782D01*
X118517526Y-68431674D01*
X118520941Y-68467800D01*
X118521500Y-68479658D01*
X118521500Y-114121233D01*
X118520973Y-114132416D01*
X118519298Y-114139909D01*
X118519547Y-114147835D01*
X118519547Y-114147836D01*
X118521438Y-114207986D01*
X118521500Y-114211945D01*
X118521500Y-114239856D01*
X118521997Y-114243790D01*
X118521997Y-114243791D01*
X118522005Y-114243856D01*
X118522938Y-114255693D01*
X118524327Y-114299889D01*
X118529734Y-114318500D01*
X118529978Y-114319339D01*
X118533987Y-114338700D01*
X118536526Y-114358797D01*
X118539445Y-114366168D01*
X118539445Y-114366170D01*
X118552804Y-114399912D01*
X118556649Y-114411142D01*
X118568982Y-114453593D01*
X118573015Y-114460412D01*
X118573017Y-114460417D01*
X118579293Y-114471028D01*
X118587988Y-114488776D01*
X118595448Y-114507617D01*
X118600110Y-114514033D01*
X118600110Y-114514034D01*
X118621436Y-114543387D01*
X118627952Y-114553307D01*
X118635717Y-114566436D01*
X118650458Y-114591362D01*
X118664779Y-114605683D01*
X118677619Y-114620716D01*
X118689528Y-114637107D01*
X118695634Y-114642158D01*
X118723605Y-114665298D01*
X118732384Y-114673288D01*
X119870848Y-115811752D01*
X119904874Y-115874064D01*
X119903459Y-115933459D01*
X119887882Y-115991591D01*
X119887881Y-115991598D01*
X119886457Y-115996913D01*
X119866502Y-116225000D01*
X119886457Y-116453087D01*
X119945716Y-116674243D01*
X119948039Y-116679224D01*
X119948039Y-116679225D01*
X120040151Y-116876762D01*
X120040154Y-116876767D01*
X120042477Y-116881749D01*
X120173802Y-117069300D01*
X120335700Y-117231198D01*
X120340208Y-117234355D01*
X120340211Y-117234357D01*
X120418389Y-117289098D01*
X120523251Y-117362523D01*
X120528233Y-117364846D01*
X120528238Y-117364849D01*
X120562457Y-117380805D01*
X120615742Y-117427722D01*
X120635203Y-117495999D01*
X120614661Y-117563959D01*
X120562457Y-117609195D01*
X120528238Y-117625151D01*
X120528233Y-117625154D01*
X120523251Y-117627477D01*
X120418389Y-117700902D01*
X120340211Y-117755643D01*
X120340208Y-117755645D01*
X120335700Y-117758802D01*
X120173802Y-117920700D01*
X120042477Y-118108251D01*
X120040154Y-118113233D01*
X120040151Y-118113238D01*
X119948039Y-118310775D01*
X119945716Y-118315757D01*
X119944294Y-118321065D01*
X119944293Y-118321067D01*
X119887883Y-118531591D01*
X119886457Y-118536913D01*
X119866502Y-118765000D01*
X119886457Y-118993087D01*
X119887880Y-118998398D01*
X119887881Y-118998402D01*
X119903460Y-119056541D01*
X119945716Y-119214243D01*
X119948039Y-119219224D01*
X119948039Y-119219225D01*
X120040151Y-119416762D01*
X120040154Y-119416767D01*
X120042477Y-119421749D01*
X120112413Y-119521628D01*
X120147847Y-119572232D01*
X120173802Y-119609300D01*
X120335700Y-119771198D01*
X120340208Y-119774355D01*
X120340211Y-119774357D01*
X120354711Y-119784510D01*
X120523251Y-119902523D01*
X120528233Y-119904846D01*
X120528238Y-119904849D01*
X120562457Y-119920805D01*
X120615742Y-119967722D01*
X120635203Y-120035999D01*
X120614661Y-120103959D01*
X120562457Y-120149195D01*
X120528238Y-120165151D01*
X120528233Y-120165154D01*
X120523251Y-120167477D01*
X120418389Y-120240902D01*
X120340211Y-120295643D01*
X120340208Y-120295645D01*
X120335700Y-120298802D01*
X120173802Y-120460700D01*
X120042477Y-120648251D01*
X120040154Y-120653233D01*
X120040151Y-120653238D01*
X119948039Y-120850775D01*
X119945716Y-120855757D01*
X119886457Y-121076913D01*
X119866502Y-121305000D01*
X119886457Y-121533087D01*
X119887881Y-121538400D01*
X119887881Y-121538402D01*
X119940934Y-121736395D01*
X119945716Y-121754243D01*
X119948039Y-121759224D01*
X119948039Y-121759225D01*
X120040151Y-121956762D01*
X120040154Y-121956767D01*
X120042477Y-121961749D01*
X120045634Y-121966257D01*
X120165983Y-122138133D01*
X120173802Y-122149300D01*
X120335700Y-122311198D01*
X120340208Y-122314355D01*
X120340211Y-122314357D01*
X120418389Y-122369098D01*
X120523251Y-122442523D01*
X120528233Y-122444846D01*
X120528238Y-122444849D01*
X120706200Y-122527833D01*
X120730757Y-122539284D01*
X120736065Y-122540706D01*
X120736067Y-122540707D01*
X120946598Y-122597119D01*
X120946600Y-122597119D01*
X120951913Y-122598543D01*
X121180000Y-122618498D01*
X121408087Y-122598543D01*
X121413400Y-122597119D01*
X121413402Y-122597119D01*
X121623933Y-122540707D01*
X121623935Y-122540706D01*
X121629243Y-122539284D01*
X121653800Y-122527833D01*
X121831762Y-122444849D01*
X121831767Y-122444846D01*
X121836749Y-122442523D01*
X121941611Y-122369098D01*
X122019789Y-122314357D01*
X122019792Y-122314355D01*
X122024300Y-122311198D01*
X122186198Y-122149300D01*
X122194018Y-122138133D01*
X122314366Y-121966257D01*
X122317523Y-121961749D01*
X122319846Y-121956767D01*
X122319849Y-121956762D01*
X122411961Y-121759225D01*
X122411961Y-121759224D01*
X122414284Y-121754243D01*
X122419067Y-121736395D01*
X122472119Y-121538402D01*
X122472119Y-121538400D01*
X122473543Y-121533087D01*
X122493498Y-121305000D01*
X122473543Y-121076913D01*
X122414284Y-120855757D01*
X122411961Y-120850775D01*
X122319849Y-120653238D01*
X122319846Y-120653233D01*
X122317523Y-120648251D01*
X122186198Y-120460700D01*
X122024300Y-120298802D01*
X122019792Y-120295645D01*
X122019789Y-120295643D01*
X121941611Y-120240902D01*
X121836749Y-120167477D01*
X121831767Y-120165154D01*
X121831762Y-120165151D01*
X121797543Y-120149195D01*
X121744258Y-120102278D01*
X121724797Y-120034001D01*
X121745339Y-119966041D01*
X121797543Y-119920805D01*
X121831762Y-119904849D01*
X121831767Y-119904846D01*
X121836749Y-119902523D01*
X122005289Y-119784510D01*
X122019789Y-119774357D01*
X122019792Y-119774355D01*
X122024300Y-119771198D01*
X122186198Y-119609300D01*
X122212154Y-119572232D01*
X122247587Y-119521628D01*
X122317523Y-119421749D01*
X122319846Y-119416767D01*
X122319849Y-119416762D01*
X122411961Y-119219225D01*
X122411961Y-119219224D01*
X122414284Y-119214243D01*
X122456541Y-119056541D01*
X122472119Y-118998402D01*
X122472120Y-118998398D01*
X122473543Y-118993087D01*
X122493498Y-118765000D01*
X122473543Y-118536913D01*
X122472119Y-118531598D01*
X122472118Y-118531591D01*
X122456541Y-118473459D01*
X122458230Y-118402483D01*
X122489152Y-118351752D01*
X125070499Y-115770405D01*
X125132811Y-115736379D01*
X125159594Y-115733500D01*
X127412832Y-115733500D01*
X127480953Y-115753502D01*
X127527446Y-115807158D01*
X127537550Y-115877432D01*
X127534540Y-115892105D01*
X127506457Y-115996913D01*
X127486502Y-116225000D01*
X127506457Y-116453087D01*
X127565716Y-116674243D01*
X127568039Y-116679224D01*
X127568039Y-116679225D01*
X127660151Y-116876762D01*
X127660154Y-116876767D01*
X127662477Y-116881749D01*
X127793802Y-117069300D01*
X127955700Y-117231198D01*
X127960208Y-117234355D01*
X127960211Y-117234357D01*
X128038389Y-117289098D01*
X128143251Y-117362523D01*
X128148233Y-117364846D01*
X128148238Y-117364849D01*
X128182457Y-117380805D01*
X128235742Y-117427722D01*
X128255203Y-117495999D01*
X128234661Y-117563959D01*
X128182457Y-117609195D01*
X128148238Y-117625151D01*
X128148233Y-117625154D01*
X128143251Y-117627477D01*
X128038389Y-117700902D01*
X127960211Y-117755643D01*
X127960208Y-117755645D01*
X127955700Y-117758802D01*
X127793802Y-117920700D01*
X127662477Y-118108251D01*
X127660154Y-118113233D01*
X127660151Y-118113238D01*
X127568039Y-118310775D01*
X127565716Y-118315757D01*
X127564294Y-118321065D01*
X127564293Y-118321067D01*
X127507883Y-118531591D01*
X127506457Y-118536913D01*
X127486502Y-118765000D01*
X127506457Y-118993087D01*
X127523460Y-119056541D01*
X127521770Y-119127518D01*
X127490848Y-119178247D01*
X127282747Y-119386348D01*
X127274461Y-119393888D01*
X127267982Y-119398000D01*
X127262557Y-119403777D01*
X127221357Y-119447651D01*
X127218602Y-119450493D01*
X127198865Y-119470230D01*
X127196385Y-119473427D01*
X127188682Y-119482447D01*
X127158414Y-119514679D01*
X127154595Y-119521625D01*
X127154593Y-119521628D01*
X127148652Y-119532434D01*
X127137801Y-119548953D01*
X127125386Y-119564959D01*
X127122241Y-119572228D01*
X127122238Y-119572232D01*
X127107826Y-119605537D01*
X127102609Y-119616187D01*
X127081305Y-119654940D01*
X127079334Y-119662615D01*
X127079334Y-119662616D01*
X127076267Y-119674562D01*
X127069863Y-119693266D01*
X127061819Y-119711855D01*
X127060580Y-119719678D01*
X127060577Y-119719688D01*
X127054901Y-119755524D01*
X127052495Y-119767144D01*
X127048037Y-119784510D01*
X127041500Y-119809970D01*
X127041500Y-119830224D01*
X127039949Y-119849934D01*
X127036780Y-119869943D01*
X127037526Y-119877835D01*
X127040941Y-119913961D01*
X127041500Y-119925819D01*
X127041500Y-122351233D01*
X127040973Y-122362416D01*
X127039298Y-122369909D01*
X127039547Y-122377835D01*
X127039547Y-122377836D01*
X127041438Y-122437986D01*
X127041500Y-122441945D01*
X127041500Y-122469856D01*
X127041997Y-122473790D01*
X127041997Y-122473791D01*
X127042005Y-122473856D01*
X127042938Y-122485693D01*
X127044327Y-122529889D01*
X127047470Y-122540707D01*
X127049978Y-122549339D01*
X127053987Y-122568700D01*
X127056526Y-122588797D01*
X127059445Y-122596168D01*
X127059445Y-122596170D01*
X127072804Y-122629912D01*
X127076649Y-122641142D01*
X127088982Y-122683593D01*
X127093015Y-122690412D01*
X127093017Y-122690417D01*
X127099293Y-122701028D01*
X127107988Y-122718776D01*
X127115448Y-122737617D01*
X127120110Y-122744033D01*
X127120110Y-122744034D01*
X127141436Y-122773387D01*
X127147952Y-122783307D01*
X127170458Y-122821362D01*
X127176064Y-122826969D01*
X127184780Y-122835685D01*
X127197620Y-122850718D01*
X127209528Y-122867107D01*
X127215635Y-122872159D01*
X127243593Y-122895288D01*
X127252374Y-122903278D01*
X127471353Y-123122258D01*
X127478887Y-123130537D01*
X127483000Y-123137018D01*
X127504095Y-123156827D01*
X127532652Y-123183644D01*
X127535494Y-123186399D01*
X127555230Y-123206135D01*
X127558427Y-123208615D01*
X127567447Y-123216318D01*
X127599679Y-123246586D01*
X127606625Y-123250405D01*
X127606628Y-123250407D01*
X127617434Y-123256348D01*
X127633953Y-123267199D01*
X127649959Y-123279614D01*
X127657228Y-123282759D01*
X127657232Y-123282762D01*
X127690537Y-123297174D01*
X127701187Y-123302391D01*
X127739940Y-123323695D01*
X127747615Y-123325666D01*
X127747616Y-123325666D01*
X127759562Y-123328733D01*
X127778267Y-123335137D01*
X127796855Y-123343181D01*
X127804678Y-123344420D01*
X127804688Y-123344423D01*
X127840524Y-123350099D01*
X127852144Y-123352505D01*
X127883959Y-123360673D01*
X127894970Y-123363500D01*
X127915224Y-123363500D01*
X127934934Y-123365051D01*
X127954943Y-123368220D01*
X127962835Y-123367474D01*
X127981580Y-123365702D01*
X127998962Y-123364059D01*
X128010819Y-123363500D01*
X164955072Y-123363500D01*
X164966255Y-123364027D01*
X164973748Y-123365702D01*
X164981674Y-123365453D01*
X164981675Y-123365453D01*
X165041825Y-123363562D01*
X165045784Y-123363500D01*
X165073695Y-123363500D01*
X165077630Y-123363003D01*
X165077695Y-123362995D01*
X165089532Y-123362062D01*
X165121790Y-123361048D01*
X165125809Y-123360922D01*
X165133728Y-123360673D01*
X165153182Y-123355021D01*
X165172539Y-123351013D01*
X165184769Y-123349468D01*
X165184770Y-123349468D01*
X165192636Y-123348474D01*
X165200007Y-123345555D01*
X165200009Y-123345555D01*
X165233751Y-123332196D01*
X165244981Y-123328351D01*
X165279822Y-123318229D01*
X165279823Y-123318229D01*
X165287432Y-123316018D01*
X165294251Y-123311985D01*
X165294256Y-123311983D01*
X165304867Y-123305707D01*
X165322615Y-123297012D01*
X165341456Y-123289552D01*
X165377226Y-123263564D01*
X165387146Y-123257048D01*
X165418374Y-123238580D01*
X165418377Y-123238578D01*
X165425201Y-123234542D01*
X165439522Y-123220221D01*
X165454556Y-123207380D01*
X165464533Y-123200131D01*
X165470946Y-123195472D01*
X165499137Y-123161395D01*
X165507127Y-123152616D01*
X174820591Y-113839152D01*
X174882903Y-113805126D01*
X174942298Y-113806541D01*
X175000430Y-113822118D01*
X175000441Y-113822120D01*
X175005752Y-113823543D01*
X175233839Y-113843498D01*
X175461926Y-113823543D01*
X175467239Y-113822119D01*
X175467241Y-113822119D01*
X175677772Y-113765707D01*
X175677774Y-113765706D01*
X175683082Y-113764284D01*
X175688064Y-113761961D01*
X175885601Y-113669849D01*
X175885606Y-113669846D01*
X175890588Y-113667523D01*
X176048431Y-113557000D01*
X176073628Y-113539357D01*
X176073631Y-113539355D01*
X176078139Y-113536198D01*
X176240037Y-113374300D01*
X176282431Y-113313756D01*
X176313206Y-113269804D01*
X176371362Y-113186749D01*
X176373685Y-113181767D01*
X176373688Y-113181762D01*
X176389644Y-113147543D01*
X176436561Y-113094258D01*
X176504838Y-113074797D01*
X176572798Y-113095339D01*
X176618034Y-113147543D01*
X176633990Y-113181762D01*
X176633993Y-113181767D01*
X176636316Y-113186749D01*
X176694472Y-113269804D01*
X176725248Y-113313756D01*
X176767641Y-113374300D01*
X176929539Y-113536198D01*
X176934047Y-113539355D01*
X176934050Y-113539357D01*
X176959247Y-113557000D01*
X177117090Y-113667523D01*
X177122072Y-113669846D01*
X177122077Y-113669849D01*
X177319614Y-113761961D01*
X177324596Y-113764284D01*
X177329904Y-113765706D01*
X177329906Y-113765707D01*
X177540437Y-113822119D01*
X177540439Y-113822119D01*
X177545752Y-113823543D01*
X177773839Y-113843498D01*
X178001926Y-113823543D01*
X178007239Y-113822119D01*
X178007241Y-113822119D01*
X178217772Y-113765707D01*
X178217774Y-113765706D01*
X178223082Y-113764284D01*
X178228064Y-113761961D01*
X178425601Y-113669849D01*
X178425606Y-113669846D01*
X178430588Y-113667523D01*
X178588431Y-113557000D01*
X178613628Y-113539357D01*
X178613631Y-113539355D01*
X178618139Y-113536198D01*
X178780037Y-113374300D01*
X178822431Y-113313756D01*
X178853206Y-113269804D01*
X178911362Y-113186749D01*
X178913685Y-113181767D01*
X178913688Y-113181762D01*
X179005800Y-112984225D01*
X179005800Y-112984224D01*
X179008123Y-112979243D01*
X179022524Y-112925500D01*
X179065958Y-112763402D01*
X179065958Y-112763400D01*
X179067382Y-112758087D01*
X179087337Y-112530000D01*
X179067382Y-112301913D01*
X179062810Y-112284849D01*
X179009546Y-112086067D01*
X179009545Y-112086065D01*
X179008123Y-112080757D01*
X179005339Y-112074787D01*
X178913688Y-111878238D01*
X178913685Y-111878233D01*
X178911362Y-111873251D01*
X178780037Y-111685700D01*
X178618139Y-111523802D01*
X178613631Y-111520645D01*
X178613628Y-111520643D01*
X178527356Y-111460235D01*
X178430588Y-111392477D01*
X178425606Y-111390154D01*
X178425601Y-111390151D01*
X178228064Y-111298039D01*
X178228063Y-111298039D01*
X178223082Y-111295716D01*
X178217774Y-111294294D01*
X178217772Y-111294293D01*
X178007241Y-111237881D01*
X178007239Y-111237881D01*
X178001926Y-111236457D01*
X177773839Y-111216502D01*
X177545752Y-111236457D01*
X177540441Y-111237880D01*
X177540430Y-111237882D01*
X177482298Y-111253459D01*
X177411322Y-111251770D01*
X177360591Y-111220848D01*
X174489244Y-108349500D01*
X174455218Y-108287188D01*
X174452339Y-108260405D01*
X174452339Y-106187131D01*
X174472341Y-106119010D01*
X174525997Y-106072517D01*
X174596271Y-106062413D01*
X174631588Y-106072936D01*
X174784596Y-106144284D01*
X174789904Y-106145706D01*
X174789906Y-106145707D01*
X175000437Y-106202119D01*
X175000439Y-106202119D01*
X175005752Y-106203543D01*
X175233839Y-106223498D01*
X175461926Y-106203543D01*
X175467239Y-106202119D01*
X175467241Y-106202119D01*
X175677772Y-106145707D01*
X175677774Y-106145706D01*
X175683082Y-106144284D01*
X175715014Y-106129394D01*
X175885601Y-106049849D01*
X175885606Y-106049846D01*
X175890588Y-106047523D01*
X176015339Y-105960171D01*
X176073628Y-105919357D01*
X176073631Y-105919355D01*
X176078139Y-105916198D01*
X176240037Y-105754300D01*
X176371362Y-105566749D01*
X176373685Y-105561767D01*
X176373688Y-105561762D01*
X176389644Y-105527543D01*
X176436561Y-105474258D01*
X176504838Y-105454797D01*
X176572798Y-105475339D01*
X176618034Y-105527543D01*
X176633990Y-105561762D01*
X176633993Y-105561767D01*
X176636316Y-105566749D01*
X176767641Y-105754300D01*
X176929539Y-105916198D01*
X176934047Y-105919355D01*
X176934050Y-105919357D01*
X176992339Y-105960171D01*
X177117090Y-106047523D01*
X177122072Y-106049846D01*
X177122077Y-106049849D01*
X177292664Y-106129394D01*
X177324596Y-106144284D01*
X177329904Y-106145706D01*
X177329906Y-106145707D01*
X177540437Y-106202119D01*
X177540439Y-106202119D01*
X177545752Y-106203543D01*
X177773839Y-106223498D01*
X178001926Y-106203543D01*
X178007239Y-106202119D01*
X178007241Y-106202119D01*
X178217772Y-106145707D01*
X178217774Y-106145706D01*
X178223082Y-106144284D01*
X178255014Y-106129394D01*
X178425601Y-106049849D01*
X178425606Y-106049846D01*
X178430588Y-106047523D01*
X178555339Y-105960171D01*
X178613628Y-105919357D01*
X178613631Y-105919355D01*
X178618139Y-105916198D01*
X178780037Y-105754300D01*
X178911362Y-105566749D01*
X178913685Y-105561767D01*
X178913688Y-105561762D01*
X179005800Y-105364225D01*
X179005800Y-105364224D01*
X179008123Y-105359243D01*
X179067382Y-105138087D01*
X179087337Y-104910000D01*
X179067382Y-104681913D01*
X179062693Y-104664414D01*
X179009546Y-104466067D01*
X179009545Y-104466065D01*
X179008123Y-104460757D01*
X178996526Y-104435886D01*
X178913688Y-104258238D01*
X178913685Y-104258233D01*
X178911362Y-104253251D01*
X178780037Y-104065700D01*
X178618139Y-103903802D01*
X178613631Y-103900645D01*
X178613628Y-103900643D01*
X178461067Y-103793819D01*
X178430588Y-103772477D01*
X178425606Y-103770154D01*
X178425601Y-103770151D01*
X178228064Y-103678039D01*
X178228063Y-103678039D01*
X178223082Y-103675716D01*
X178217774Y-103674294D01*
X178217772Y-103674293D01*
X178007241Y-103617881D01*
X178007239Y-103617881D01*
X178001926Y-103616457D01*
X177773839Y-103596502D01*
X177545752Y-103616457D01*
X177540439Y-103617881D01*
X177540437Y-103617881D01*
X177329906Y-103674293D01*
X177329904Y-103674294D01*
X177324596Y-103675716D01*
X177319615Y-103678039D01*
X177319614Y-103678039D01*
X177122077Y-103770151D01*
X177122072Y-103770154D01*
X177117090Y-103772477D01*
X177086611Y-103793819D01*
X176934050Y-103900643D01*
X176934047Y-103900645D01*
X176929539Y-103903802D01*
X176767641Y-104065700D01*
X176636316Y-104253251D01*
X176633993Y-104258233D01*
X176633990Y-104258238D01*
X176618034Y-104292457D01*
X176571117Y-104345742D01*
X176502840Y-104365203D01*
X176434880Y-104344661D01*
X176389644Y-104292457D01*
X176373688Y-104258238D01*
X176373685Y-104258233D01*
X176371362Y-104253251D01*
X176240037Y-104065700D01*
X176078139Y-103903802D01*
X176073631Y-103900645D01*
X176073628Y-103900643D01*
X175921067Y-103793819D01*
X175890588Y-103772477D01*
X175885606Y-103770154D01*
X175885601Y-103770151D01*
X175688064Y-103678039D01*
X175688063Y-103678039D01*
X175683082Y-103675716D01*
X175677774Y-103674294D01*
X175677772Y-103674293D01*
X175467241Y-103617881D01*
X175467239Y-103617881D01*
X175461926Y-103616457D01*
X175233839Y-103596502D01*
X175005752Y-103616457D01*
X175000439Y-103617881D01*
X175000437Y-103617881D01*
X174789906Y-103674293D01*
X174789904Y-103674294D01*
X174784596Y-103675716D01*
X174650251Y-103738362D01*
X174631589Y-103747064D01*
X174561397Y-103757725D01*
X174496584Y-103728745D01*
X174457728Y-103669325D01*
X174452339Y-103632869D01*
X174452339Y-99798593D01*
X174452866Y-99787409D01*
X174454540Y-99779921D01*
X174452401Y-99711862D01*
X174452339Y-99707905D01*
X174452339Y-99679974D01*
X174451833Y-99675968D01*
X174450900Y-99664122D01*
X174449761Y-99627867D01*
X174449512Y-99619940D01*
X174443861Y-99600488D01*
X174439853Y-99581136D01*
X174438307Y-99568898D01*
X174438306Y-99568896D01*
X174437313Y-99561033D01*
X174421033Y-99519916D01*
X174417198Y-99508715D01*
X174404857Y-99466236D01*
X174400824Y-99459417D01*
X174400822Y-99459412D01*
X174394546Y-99448801D01*
X174385849Y-99431051D01*
X174378391Y-99412213D01*
X174352410Y-99376453D01*
X174345892Y-99366531D01*
X174327417Y-99335290D01*
X174327413Y-99335285D01*
X174323381Y-99328467D01*
X174309057Y-99314143D01*
X174296215Y-99299108D01*
X174284311Y-99282723D01*
X174250245Y-99254541D01*
X174241466Y-99246552D01*
X174136641Y-99141727D01*
X174102615Y-99079415D01*
X174107680Y-99008600D01*
X174150227Y-98951764D01*
X174156434Y-98947670D01*
X174156749Y-98947523D01*
X174246068Y-98884981D01*
X174339789Y-98819357D01*
X174339792Y-98819355D01*
X174344300Y-98816198D01*
X174506198Y-98654300D01*
X174637523Y-98466749D01*
X174639846Y-98461767D01*
X174639849Y-98461762D01*
X174731961Y-98264225D01*
X174731961Y-98264224D01*
X174734284Y-98259243D01*
X174793543Y-98038087D01*
X174813498Y-97810000D01*
X174793543Y-97581913D01*
X174792119Y-97576598D01*
X174735707Y-97366067D01*
X174735706Y-97366065D01*
X174734284Y-97360757D01*
X174724346Y-97339445D01*
X174639849Y-97158238D01*
X174639846Y-97158233D01*
X174637523Y-97153251D01*
X174558497Y-97040391D01*
X174509357Y-96970211D01*
X174509355Y-96970208D01*
X174506198Y-96965700D01*
X174344300Y-96803802D01*
X174339792Y-96800645D01*
X174339789Y-96800643D01*
X174261611Y-96745902D01*
X174156749Y-96672477D01*
X174151767Y-96670154D01*
X174151762Y-96670151D01*
X173954225Y-96578039D01*
X173954224Y-96578039D01*
X173949243Y-96575716D01*
X173943935Y-96574294D01*
X173943933Y-96574293D01*
X173733402Y-96517881D01*
X173733400Y-96517881D01*
X173728087Y-96516457D01*
X173500000Y-96496502D01*
X173271913Y-96516457D01*
X173266600Y-96517881D01*
X173266598Y-96517881D01*
X173056067Y-96574293D01*
X173056065Y-96574294D01*
X173050757Y-96575716D01*
X173045776Y-96578039D01*
X173045775Y-96578039D01*
X172848238Y-96670151D01*
X172848233Y-96670154D01*
X172843251Y-96672477D01*
X172738389Y-96745902D01*
X172660211Y-96800643D01*
X172660208Y-96800645D01*
X172655700Y-96803802D01*
X172493802Y-96965700D01*
X172490645Y-96970208D01*
X172490643Y-96970211D01*
X172393867Y-97108422D01*
X172362477Y-97153251D01*
X172361169Y-97152335D01*
X172315105Y-97196257D01*
X172245391Y-97209694D01*
X172179480Y-97183307D01*
X172168273Y-97173359D01*
X168039244Y-93044330D01*
X168005218Y-92982018D01*
X168002339Y-92955235D01*
X168002339Y-87483424D01*
X168022341Y-87415303D01*
X168075997Y-87368810D01*
X168146271Y-87358706D01*
X168210851Y-87388200D01*
X168217434Y-87394329D01*
X172530352Y-91707247D01*
X172537896Y-91715537D01*
X172542009Y-91722018D01*
X172547786Y-91727443D01*
X172591676Y-91768658D01*
X172594518Y-91771413D01*
X172614239Y-91791134D01*
X172617434Y-91793612D01*
X172626456Y-91801318D01*
X172658688Y-91831586D01*
X172665637Y-91835406D01*
X172676441Y-91841346D01*
X172692965Y-91852199D01*
X172708968Y-91864613D01*
X172749552Y-91882176D01*
X172760182Y-91887383D01*
X172798949Y-91908695D01*
X172806626Y-91910666D01*
X172806631Y-91910668D01*
X172818567Y-91913732D01*
X172837275Y-91920137D01*
X172855864Y-91928181D01*
X172863689Y-91929420D01*
X172863691Y-91929421D01*
X172899528Y-91935097D01*
X172911149Y-91937504D01*
X172942968Y-91945673D01*
X172953979Y-91948500D01*
X172974240Y-91948500D01*
X172993949Y-91950051D01*
X173013952Y-91953219D01*
X173021844Y-91952473D01*
X173027071Y-91951979D01*
X173057963Y-91949059D01*
X173069820Y-91948500D01*
X180693733Y-91948500D01*
X180704916Y-91949027D01*
X180712409Y-91950702D01*
X180720335Y-91950453D01*
X180720336Y-91950453D01*
X180780486Y-91948562D01*
X180784445Y-91948500D01*
X180812356Y-91948500D01*
X180816291Y-91948003D01*
X180816356Y-91947995D01*
X180828193Y-91947062D01*
X180860451Y-91946048D01*
X180864470Y-91945922D01*
X180872389Y-91945673D01*
X180891843Y-91940021D01*
X180911200Y-91936013D01*
X180923430Y-91934468D01*
X180923431Y-91934468D01*
X180931297Y-91933474D01*
X180938668Y-91930555D01*
X180938670Y-91930555D01*
X180972412Y-91917196D01*
X180983642Y-91913351D01*
X181018483Y-91903229D01*
X181018484Y-91903229D01*
X181026093Y-91901018D01*
X181032912Y-91896985D01*
X181032917Y-91896983D01*
X181043528Y-91890707D01*
X181061276Y-91882012D01*
X181080117Y-91874552D01*
X181100487Y-91859753D01*
X181115887Y-91848564D01*
X181125807Y-91842048D01*
X181157035Y-91823580D01*
X181157038Y-91823578D01*
X181163862Y-91819542D01*
X181178183Y-91805221D01*
X181193217Y-91792380D01*
X181194932Y-91791134D01*
X181209607Y-91780472D01*
X181214657Y-91774368D01*
X181214662Y-91774363D01*
X181237793Y-91746402D01*
X181245783Y-91737621D01*
X181888877Y-91094528D01*
X181951189Y-91060503D01*
X181992890Y-91058510D01*
X182065147Y-91067126D01*
X182071282Y-91066654D01*
X182071284Y-91066654D01*
X182266704Y-91051617D01*
X182266709Y-91051616D01*
X182272845Y-91051144D01*
X182278775Y-91049488D01*
X182278777Y-91049488D01*
X182467556Y-90996780D01*
X182467555Y-90996780D01*
X182473484Y-90995125D01*
X182478973Y-90992352D01*
X182478979Y-90992350D01*
X182620052Y-90921088D01*
X182659420Y-90901202D01*
X182698583Y-90870605D01*
X182818716Y-90776746D01*
X182823572Y-90772952D01*
X182827702Y-90768168D01*
X182868415Y-90721001D01*
X182959688Y-90615261D01*
X182962731Y-90609904D01*
X182962734Y-90609900D01*
X183025612Y-90499213D01*
X183062582Y-90434134D01*
X183128335Y-90236472D01*
X183154444Y-90029802D01*
X183154860Y-90000000D01*
X183134532Y-89792682D01*
X183131601Y-89782972D01*
X183100333Y-89679409D01*
X183074323Y-89593261D01*
X182976527Y-89409332D01*
X182972451Y-89404334D01*
X182848762Y-89252677D01*
X182848759Y-89252674D01*
X182844867Y-89247902D01*
X182836440Y-89240930D01*
X182729502Y-89152463D01*
X182684360Y-89115118D01*
X182501119Y-89016040D01*
X182401621Y-88985240D01*
X182308010Y-88956263D01*
X182308007Y-88956262D01*
X182302123Y-88954441D01*
X182295998Y-88953797D01*
X182295997Y-88953797D01*
X182101080Y-88933310D01*
X182101079Y-88933310D01*
X182094952Y-88932666D01*
X182008416Y-88940541D01*
X181893636Y-88950987D01*
X181893633Y-88950988D01*
X181887497Y-88951546D01*
X181881591Y-88953284D01*
X181881587Y-88953285D01*
X181822736Y-88970606D01*
X181687660Y-89010361D01*
X181503053Y-89106871D01*
X181340707Y-89237400D01*
X181206807Y-89396977D01*
X181203843Y-89402369D01*
X181203840Y-89402373D01*
X181159288Y-89483414D01*
X181106452Y-89579522D01*
X181104591Y-89585389D01*
X181104590Y-89585391D01*
X181100283Y-89598968D01*
X181043464Y-89778083D01*
X181020244Y-89985097D01*
X181021496Y-90000000D01*
X181029779Y-90098640D01*
X181015548Y-90168196D01*
X180993316Y-90198280D01*
X180546999Y-90644596D01*
X180484687Y-90678621D01*
X180457904Y-90681500D01*
X179963548Y-90681500D01*
X179895427Y-90661498D01*
X179848934Y-90607842D01*
X179838830Y-90537568D01*
X179853990Y-90493267D01*
X179887582Y-90434134D01*
X179953335Y-90236472D01*
X179979444Y-90029802D01*
X179979860Y-90000000D01*
X179959532Y-89792682D01*
X179956601Y-89782972D01*
X179925333Y-89679409D01*
X179899323Y-89593261D01*
X179801527Y-89409332D01*
X179797451Y-89404334D01*
X179673762Y-89252677D01*
X179673759Y-89252674D01*
X179669867Y-89247902D01*
X179661440Y-89240930D01*
X179554502Y-89152463D01*
X179509360Y-89115118D01*
X179326119Y-89016040D01*
X179226621Y-88985240D01*
X179133010Y-88956263D01*
X179133007Y-88956262D01*
X179127123Y-88954441D01*
X179120998Y-88953797D01*
X179120997Y-88953797D01*
X178926080Y-88933310D01*
X178926079Y-88933310D01*
X178919952Y-88932666D01*
X178833416Y-88940541D01*
X178718636Y-88950987D01*
X178718633Y-88950988D01*
X178712497Y-88951546D01*
X178706591Y-88953284D01*
X178706587Y-88953285D01*
X178647736Y-88970606D01*
X178512660Y-89010361D01*
X178328053Y-89106871D01*
X178165707Y-89237400D01*
X178031807Y-89396977D01*
X178028843Y-89402369D01*
X178028840Y-89402373D01*
X177984288Y-89483414D01*
X177931452Y-89579522D01*
X177929591Y-89585389D01*
X177929590Y-89585391D01*
X177925283Y-89598968D01*
X177868464Y-89778083D01*
X177845244Y-89985097D01*
X177845760Y-89991240D01*
X177845760Y-89991241D01*
X177859673Y-90156923D01*
X177862675Y-90192679D01*
X177869750Y-90217352D01*
X177914461Y-90373275D01*
X177920094Y-90392921D01*
X177922909Y-90398398D01*
X177922912Y-90398406D01*
X177974048Y-90497906D01*
X177987396Y-90567636D01*
X177960926Y-90633514D01*
X177903041Y-90674622D01*
X177861982Y-90681500D01*
X174887168Y-90681500D01*
X174819047Y-90661498D01*
X174772554Y-90607842D01*
X174762450Y-90537568D01*
X174765461Y-90522888D01*
X174773399Y-90493264D01*
X174793543Y-90418087D01*
X174813498Y-90190000D01*
X174793543Y-89961913D01*
X174789992Y-89948660D01*
X174735707Y-89746067D01*
X174735706Y-89746065D01*
X174734284Y-89740757D01*
X174669349Y-89601502D01*
X174639849Y-89538238D01*
X174639846Y-89538233D01*
X174637523Y-89533251D01*
X174542103Y-89396977D01*
X174509357Y-89350211D01*
X174509355Y-89350208D01*
X174506198Y-89345700D01*
X174344300Y-89183802D01*
X174339792Y-89180645D01*
X174339789Y-89180643D01*
X174187229Y-89073819D01*
X174142901Y-89018362D01*
X174133500Y-88970606D01*
X174133500Y-85539594D01*
X174153502Y-85471473D01*
X174170405Y-85450499D01*
X178425019Y-81195885D01*
X178487331Y-81161859D01*
X178558146Y-81166924D01*
X178614982Y-81209471D01*
X178639905Y-81277727D01*
X178644853Y-81363535D01*
X178650110Y-81454715D01*
X178651247Y-81459761D01*
X178651248Y-81459767D01*
X178670170Y-81543728D01*
X178699222Y-81672639D01*
X178737461Y-81766811D01*
X178766630Y-81838645D01*
X178783266Y-81879616D01*
X178803844Y-81913196D01*
X178877019Y-82032607D01*
X178899987Y-82070088D01*
X179046250Y-82238938D01*
X179218126Y-82381632D01*
X179411000Y-82494338D01*
X179415825Y-82496180D01*
X179415826Y-82496181D01*
X179467104Y-82515762D01*
X179619692Y-82574030D01*
X179624760Y-82575061D01*
X179624763Y-82575062D01*
X179732017Y-82596883D01*
X179838597Y-82618567D01*
X179843772Y-82618757D01*
X179843774Y-82618757D01*
X180056673Y-82626564D01*
X180056677Y-82626564D01*
X180061837Y-82626753D01*
X180066957Y-82626097D01*
X180066959Y-82626097D01*
X180278288Y-82599025D01*
X180278289Y-82599025D01*
X180283416Y-82598368D01*
X180331697Y-82583883D01*
X180492429Y-82535661D01*
X180492434Y-82535659D01*
X180497384Y-82534174D01*
X180697994Y-82435896D01*
X180879860Y-82306173D01*
X180899160Y-82286941D01*
X181034435Y-82152137D01*
X181038096Y-82148489D01*
X181049169Y-82133080D01*
X181165435Y-81971277D01*
X181168453Y-81967077D01*
X181189024Y-81925456D01*
X181265136Y-81771453D01*
X181265137Y-81771451D01*
X181267430Y-81766811D01*
X181317928Y-81600604D01*
X181330865Y-81558023D01*
X181330865Y-81558021D01*
X181332370Y-81553069D01*
X181361529Y-81331590D01*
X181361611Y-81328240D01*
X181363074Y-81268365D01*
X181363074Y-81268361D01*
X181363156Y-81265000D01*
X181344852Y-81042361D01*
X181290431Y-80825702D01*
X181201354Y-80620840D01*
X181144440Y-80532865D01*
X181082822Y-80437617D01*
X181082820Y-80437614D01*
X181080014Y-80433277D01*
X181060465Y-80411793D01*
X180932798Y-80271488D01*
X180901746Y-80207642D01*
X180910141Y-80137143D01*
X180955317Y-80082375D01*
X180981761Y-80068706D01*
X181088297Y-80028767D01*
X181096705Y-80025615D01*
X181213261Y-79938261D01*
X181300615Y-79821705D01*
X181351745Y-79685316D01*
X181358500Y-79623134D01*
X181358500Y-77826866D01*
X181351745Y-77764684D01*
X181300615Y-77628295D01*
X181213261Y-77511739D01*
X181096705Y-77424385D01*
X180960316Y-77373255D01*
X180898134Y-77366500D01*
X179101866Y-77366500D01*
X179039684Y-77373255D01*
X178903295Y-77424385D01*
X178786739Y-77511739D01*
X178699385Y-77628295D01*
X178648255Y-77764684D01*
X178641500Y-77826866D01*
X178641500Y-79135405D01*
X178621498Y-79203526D01*
X178604595Y-79224500D01*
X173107747Y-84721348D01*
X173099461Y-84728888D01*
X173092982Y-84733000D01*
X173087557Y-84738777D01*
X173046357Y-84782651D01*
X173043602Y-84785493D01*
X173023865Y-84805230D01*
X173021385Y-84808427D01*
X173013682Y-84817447D01*
X172983414Y-84849679D01*
X172979595Y-84856625D01*
X172979593Y-84856628D01*
X172973652Y-84867434D01*
X172962801Y-84883953D01*
X172950386Y-84899959D01*
X172947241Y-84907228D01*
X172947238Y-84907232D01*
X172932826Y-84940537D01*
X172927609Y-84951187D01*
X172906305Y-84989940D01*
X172904334Y-84997615D01*
X172904334Y-84997616D01*
X172901267Y-85009562D01*
X172894863Y-85028266D01*
X172886819Y-85046855D01*
X172885580Y-85054678D01*
X172885577Y-85054688D01*
X172879901Y-85090524D01*
X172877495Y-85102144D01*
X172866500Y-85144970D01*
X172866500Y-85165224D01*
X172864949Y-85184934D01*
X172861780Y-85204943D01*
X172862526Y-85212835D01*
X172865941Y-85248961D01*
X172866500Y-85260819D01*
X172866500Y-88970606D01*
X172846498Y-89038727D01*
X172812771Y-89073819D01*
X172660211Y-89180643D01*
X172660208Y-89180645D01*
X172655700Y-89183802D01*
X172493802Y-89345700D01*
X172490645Y-89350208D01*
X172490643Y-89350211D01*
X172403818Y-89474210D01*
X172362477Y-89533251D01*
X172361169Y-89532335D01*
X172315105Y-89576257D01*
X172245391Y-89589694D01*
X172179480Y-89563307D01*
X172168273Y-89553359D01*
X167670405Y-85055491D01*
X167636379Y-84993179D01*
X167633500Y-84966396D01*
X167633500Y-83029394D01*
X167653502Y-82961273D01*
X167687229Y-82926181D01*
X167839789Y-82819357D01*
X167839792Y-82819355D01*
X167844300Y-82816198D01*
X168006198Y-82654300D01*
X168027756Y-82623513D01*
X168083089Y-82544488D01*
X168137523Y-82466749D01*
X168139846Y-82461767D01*
X168139849Y-82461762D01*
X168231961Y-82264225D01*
X168231961Y-82264224D01*
X168234284Y-82259243D01*
X168235941Y-82253061D01*
X168292119Y-82043402D01*
X168292119Y-82043400D01*
X168293543Y-82038087D01*
X168313498Y-81810000D01*
X168686502Y-81810000D01*
X168706457Y-82038087D01*
X168707881Y-82043400D01*
X168707881Y-82043402D01*
X168764060Y-82253061D01*
X168765716Y-82259243D01*
X168768039Y-82264224D01*
X168768039Y-82264225D01*
X168860151Y-82461762D01*
X168860154Y-82461767D01*
X168862477Y-82466749D01*
X168916911Y-82544488D01*
X168972245Y-82623513D01*
X168993802Y-82654300D01*
X169155700Y-82816198D01*
X169160208Y-82819355D01*
X169160211Y-82819357D01*
X169229872Y-82868134D01*
X169343251Y-82947523D01*
X169348233Y-82949846D01*
X169348238Y-82949849D01*
X169545775Y-83041961D01*
X169550757Y-83044284D01*
X169556065Y-83045706D01*
X169556067Y-83045707D01*
X169766598Y-83102119D01*
X169766600Y-83102119D01*
X169771913Y-83103543D01*
X170000000Y-83123498D01*
X170228087Y-83103543D01*
X170233400Y-83102119D01*
X170233402Y-83102119D01*
X170443933Y-83045707D01*
X170443935Y-83045706D01*
X170449243Y-83044284D01*
X170454225Y-83041961D01*
X170651762Y-82949849D01*
X170651767Y-82949846D01*
X170656749Y-82947523D01*
X170770128Y-82868134D01*
X170839789Y-82819357D01*
X170839792Y-82819355D01*
X170844300Y-82816198D01*
X171006198Y-82654300D01*
X171027756Y-82623513D01*
X171083089Y-82544488D01*
X171137523Y-82466749D01*
X171139846Y-82461767D01*
X171139849Y-82461762D01*
X171231961Y-82264225D01*
X171231961Y-82264224D01*
X171234284Y-82259243D01*
X171235941Y-82253061D01*
X171292119Y-82043402D01*
X171292119Y-82043400D01*
X171293543Y-82038087D01*
X171313498Y-81810000D01*
X171293543Y-81581913D01*
X171291230Y-81573282D01*
X171235707Y-81366067D01*
X171235706Y-81366065D01*
X171234284Y-81360757D01*
X171231961Y-81355775D01*
X171188583Y-81262750D01*
X172876524Y-81262750D01*
X172878797Y-81287728D01*
X172893995Y-81454715D01*
X172894894Y-81464596D01*
X172896632Y-81470502D01*
X172896633Y-81470506D01*
X172936268Y-81605171D01*
X172952119Y-81659029D01*
X172954972Y-81664486D01*
X172954973Y-81664489D01*
X172966778Y-81687070D01*
X173046019Y-81838645D01*
X173049879Y-81843445D01*
X173049879Y-81843446D01*
X173055729Y-81850722D01*
X173173019Y-81996601D01*
X173328281Y-82126881D01*
X173333673Y-82129845D01*
X173333677Y-82129848D01*
X173374221Y-82152137D01*
X173505891Y-82224523D01*
X173699084Y-82285807D01*
X173705201Y-82286493D01*
X173705205Y-82286494D01*
X173779348Y-82294810D01*
X173856817Y-82303500D01*
X174416004Y-82303500D01*
X174566713Y-82288723D01*
X174760742Y-82230142D01*
X174939698Y-82134990D01*
X175096763Y-82006890D01*
X175164131Y-81925456D01*
X175222027Y-81855472D01*
X175222029Y-81855469D01*
X175225956Y-81850722D01*
X175322356Y-81672435D01*
X175363590Y-81539230D01*
X175380468Y-81484707D01*
X175380469Y-81484704D01*
X175382290Y-81478820D01*
X175384444Y-81458331D01*
X175402832Y-81283378D01*
X175402832Y-81283377D01*
X175403476Y-81277250D01*
X175394627Y-81180021D01*
X175385665Y-81081543D01*
X175385664Y-81081540D01*
X175385106Y-81075404D01*
X175357964Y-80983182D01*
X175329620Y-80886880D01*
X175327881Y-80880971D01*
X175324217Y-80873961D01*
X175236835Y-80706815D01*
X175233981Y-80701355D01*
X175234016Y-80701337D01*
X175214111Y-80635559D01*
X175229271Y-80574591D01*
X175262807Y-80512567D01*
X175322356Y-80402435D01*
X175382290Y-80208820D01*
X175388265Y-80151977D01*
X175402832Y-80013378D01*
X175402832Y-80013377D01*
X175403476Y-80007250D01*
X175392141Y-79882707D01*
X175385665Y-79811543D01*
X175385664Y-79811540D01*
X175385106Y-79805404D01*
X175382034Y-79794964D01*
X175329620Y-79616879D01*
X175329619Y-79616877D01*
X175327881Y-79610971D01*
X175328740Y-79610718D01*
X175322286Y-79545338D01*
X175335452Y-79508594D01*
X175340615Y-79501705D01*
X175343768Y-79493296D01*
X175388971Y-79372715D01*
X175391745Y-79365316D01*
X175398500Y-79303134D01*
X175398500Y-78156866D01*
X175391745Y-78094684D01*
X175340615Y-77958295D01*
X175253261Y-77841739D01*
X175136705Y-77754385D01*
X175000316Y-77703255D01*
X174938134Y-77696500D01*
X173341866Y-77696500D01*
X173279684Y-77703255D01*
X173143295Y-77754385D01*
X173026739Y-77841739D01*
X172939385Y-77958295D01*
X172888255Y-78094684D01*
X172881500Y-78156866D01*
X172881500Y-79303134D01*
X172888255Y-79365316D01*
X172891029Y-79372715D01*
X172936232Y-79493296D01*
X172936234Y-79493299D01*
X172939385Y-79501705D01*
X172944773Y-79508894D01*
X172944906Y-79509137D01*
X172960076Y-79578494D01*
X172954752Y-79606907D01*
X172897710Y-79791180D01*
X172897066Y-79797305D01*
X172897066Y-79797306D01*
X172877168Y-79986622D01*
X172876524Y-79992750D01*
X172879025Y-80020229D01*
X172893148Y-80175407D01*
X172894894Y-80194596D01*
X172896632Y-80200502D01*
X172896633Y-80200506D01*
X172924134Y-80293945D01*
X172952119Y-80389029D01*
X172954972Y-80394486D01*
X172954973Y-80394489D01*
X172983712Y-80449461D01*
X173045923Y-80568460D01*
X173045923Y-80568462D01*
X173046019Y-80568645D01*
X173045984Y-80568663D01*
X173065889Y-80634441D01*
X173050729Y-80695409D01*
X172957644Y-80867565D01*
X172897710Y-81061180D01*
X172897066Y-81067305D01*
X172897066Y-81067306D01*
X172883026Y-81200889D01*
X172876524Y-81262750D01*
X171188583Y-81262750D01*
X171139849Y-81158238D01*
X171139846Y-81158233D01*
X171137523Y-81153251D01*
X171006198Y-80965700D01*
X170844300Y-80803802D01*
X170839792Y-80800645D01*
X170839789Y-80800643D01*
X170761611Y-80745902D01*
X170656749Y-80672477D01*
X170651767Y-80670154D01*
X170651762Y-80670151D01*
X170454225Y-80578039D01*
X170454224Y-80578039D01*
X170449243Y-80575716D01*
X170443935Y-80574294D01*
X170443933Y-80574293D01*
X170233402Y-80517881D01*
X170233400Y-80517881D01*
X170228087Y-80516457D01*
X170000000Y-80496502D01*
X169771913Y-80516457D01*
X169766600Y-80517881D01*
X169766598Y-80517881D01*
X169556067Y-80574293D01*
X169556065Y-80574294D01*
X169550757Y-80575716D01*
X169545776Y-80578039D01*
X169545775Y-80578039D01*
X169348238Y-80670151D01*
X169348233Y-80670154D01*
X169343251Y-80672477D01*
X169238389Y-80745902D01*
X169160211Y-80800643D01*
X169160208Y-80800645D01*
X169155700Y-80803802D01*
X168993802Y-80965700D01*
X168862477Y-81153251D01*
X168860154Y-81158233D01*
X168860151Y-81158238D01*
X168768039Y-81355775D01*
X168765716Y-81360757D01*
X168764294Y-81366065D01*
X168764293Y-81366067D01*
X168708770Y-81573282D01*
X168706457Y-81581913D01*
X168686502Y-81810000D01*
X168313498Y-81810000D01*
X168293543Y-81581913D01*
X168291230Y-81573282D01*
X168235707Y-81366067D01*
X168235706Y-81366065D01*
X168234284Y-81360757D01*
X168231961Y-81355775D01*
X168139849Y-81158238D01*
X168139846Y-81158233D01*
X168137523Y-81153251D01*
X168006198Y-80965700D01*
X167844300Y-80803802D01*
X167839792Y-80800645D01*
X167839789Y-80800643D01*
X167761611Y-80745902D01*
X167656749Y-80672477D01*
X167651767Y-80670154D01*
X167651762Y-80670151D01*
X167454225Y-80578039D01*
X167454224Y-80578039D01*
X167449243Y-80575716D01*
X167443935Y-80574294D01*
X167443933Y-80574293D01*
X167233402Y-80517881D01*
X167233400Y-80517881D01*
X167228087Y-80516457D01*
X167000000Y-80496502D01*
X166771913Y-80516457D01*
X166766600Y-80517881D01*
X166766598Y-80517881D01*
X166556067Y-80574293D01*
X166556065Y-80574294D01*
X166550757Y-80575716D01*
X166545776Y-80578039D01*
X166545775Y-80578039D01*
X166348238Y-80670151D01*
X166348233Y-80670154D01*
X166343251Y-80672477D01*
X166238389Y-80745902D01*
X166160211Y-80800643D01*
X166160208Y-80800645D01*
X166155700Y-80803802D01*
X165993802Y-80965700D01*
X165862477Y-81153251D01*
X165860154Y-81158233D01*
X165860151Y-81158238D01*
X165768039Y-81355775D01*
X165765716Y-81360757D01*
X165764294Y-81366065D01*
X165764293Y-81366067D01*
X165708770Y-81573282D01*
X165706457Y-81581913D01*
X165686502Y-81810000D01*
X165706457Y-82038087D01*
X165707881Y-82043400D01*
X165707881Y-82043402D01*
X165764060Y-82253061D01*
X165765716Y-82259243D01*
X165768039Y-82264224D01*
X165768039Y-82264225D01*
X165860151Y-82461762D01*
X165860154Y-82461767D01*
X165862477Y-82466749D01*
X165916911Y-82544488D01*
X165972245Y-82623513D01*
X165993802Y-82654300D01*
X166155700Y-82816198D01*
X166160208Y-82819355D01*
X166160211Y-82819357D01*
X166312771Y-82926181D01*
X166357099Y-82981638D01*
X166366500Y-83029394D01*
X166366500Y-84083792D01*
X166346498Y-84151913D01*
X166292842Y-84198406D01*
X166222568Y-84208510D01*
X166157988Y-84179016D01*
X166151405Y-84172887D01*
X164539244Y-82560726D01*
X164505218Y-82498414D01*
X164502339Y-82471631D01*
X164502339Y-81695895D01*
X164502866Y-81684712D01*
X164504541Y-81677219D01*
X164504094Y-81662979D01*
X164502401Y-81609129D01*
X164502339Y-81605171D01*
X164502339Y-81577272D01*
X164501835Y-81573281D01*
X164500902Y-81561439D01*
X164500346Y-81543728D01*
X164499513Y-81517239D01*
X164497301Y-81509625D01*
X164497300Y-81509620D01*
X164493862Y-81497787D01*
X164489851Y-81478423D01*
X164488306Y-81466192D01*
X164487313Y-81458331D01*
X164484396Y-81450964D01*
X164484395Y-81450959D01*
X164471037Y-81417220D01*
X164467193Y-81405993D01*
X164461205Y-81385385D01*
X164454857Y-81363535D01*
X164444546Y-81346100D01*
X164435851Y-81328352D01*
X164428391Y-81309511D01*
X164402403Y-81273741D01*
X164395887Y-81263821D01*
X164377419Y-81232593D01*
X164377417Y-81232590D01*
X164373381Y-81225766D01*
X164359060Y-81211445D01*
X164346219Y-81196411D01*
X164343740Y-81192999D01*
X164334311Y-81180021D01*
X164300234Y-81151830D01*
X164291455Y-81143840D01*
X161985363Y-78837747D01*
X161977823Y-78829461D01*
X161973711Y-78822982D01*
X161924059Y-78776356D01*
X161921218Y-78773602D01*
X161901481Y-78753865D01*
X161898284Y-78751385D01*
X161889262Y-78743680D01*
X161875827Y-78731064D01*
X161857032Y-78713414D01*
X161850086Y-78709595D01*
X161850083Y-78709593D01*
X161839277Y-78703652D01*
X161822758Y-78692801D01*
X161822294Y-78692441D01*
X161806752Y-78680386D01*
X161799483Y-78677241D01*
X161799479Y-78677238D01*
X161766174Y-78662826D01*
X161755524Y-78657609D01*
X161716771Y-78636305D01*
X161697148Y-78631267D01*
X161678445Y-78624863D01*
X161667131Y-78619967D01*
X161667130Y-78619967D01*
X161659856Y-78616819D01*
X161652033Y-78615580D01*
X161652023Y-78615577D01*
X161616187Y-78609901D01*
X161604567Y-78607495D01*
X161569422Y-78598472D01*
X161569421Y-78598472D01*
X161561741Y-78596500D01*
X161541487Y-78596500D01*
X161521776Y-78594949D01*
X161509597Y-78593020D01*
X161501768Y-78591780D01*
X161472497Y-78594547D01*
X161457750Y-78595941D01*
X161445892Y-78596500D01*
X154962056Y-78596500D01*
X154950873Y-78595973D01*
X154943380Y-78594298D01*
X154935454Y-78594547D01*
X154935453Y-78594547D01*
X154875303Y-78596438D01*
X154871344Y-78596500D01*
X154843433Y-78596500D01*
X154839499Y-78596997D01*
X154839498Y-78596997D01*
X154839433Y-78597005D01*
X154827596Y-78597938D01*
X154795779Y-78598938D01*
X154791318Y-78599078D01*
X154783399Y-78599327D01*
X154765743Y-78604456D01*
X154763947Y-78604978D01*
X154744595Y-78608986D01*
X154737524Y-78609880D01*
X154724492Y-78611526D01*
X154717123Y-78614443D01*
X154717121Y-78614444D01*
X154683386Y-78627800D01*
X154672158Y-78631645D01*
X154629696Y-78643982D01*
X154622874Y-78648016D01*
X154622868Y-78648019D01*
X154612257Y-78654294D01*
X154594507Y-78662990D01*
X154583045Y-78667528D01*
X154583040Y-78667531D01*
X154575672Y-78670448D01*
X154558259Y-78683099D01*
X154539914Y-78696427D01*
X154529996Y-78702943D01*
X154518752Y-78709593D01*
X154491926Y-78725458D01*
X154477602Y-78739782D01*
X154462570Y-78752621D01*
X154446182Y-78764528D01*
X154418001Y-78798593D01*
X154410011Y-78807373D01*
X152108267Y-81109117D01*
X152099981Y-81116657D01*
X152093502Y-81120769D01*
X152088077Y-81126546D01*
X152046877Y-81170420D01*
X152044122Y-81173262D01*
X152024385Y-81192999D01*
X152021905Y-81196196D01*
X152014202Y-81205216D01*
X151983934Y-81237448D01*
X151980115Y-81244394D01*
X151980113Y-81244397D01*
X151974172Y-81255203D01*
X151963321Y-81271722D01*
X151950906Y-81287728D01*
X151947761Y-81294997D01*
X151947758Y-81295001D01*
X151933346Y-81328306D01*
X151928129Y-81338956D01*
X151906825Y-81377709D01*
X151904854Y-81385384D01*
X151904854Y-81385385D01*
X151901787Y-81397331D01*
X151895383Y-81416035D01*
X151887339Y-81434624D01*
X151886100Y-81442447D01*
X151886097Y-81442457D01*
X151880421Y-81478293D01*
X151878015Y-81489913D01*
X151868992Y-81525058D01*
X151867020Y-81532739D01*
X151867020Y-81552993D01*
X151865469Y-81572703D01*
X151862300Y-81592712D01*
X151863046Y-81600604D01*
X151866461Y-81636730D01*
X151867020Y-81648588D01*
X151867020Y-83754567D01*
X151847018Y-83822688D01*
X151793771Y-83868993D01*
X151787398Y-83871931D01*
X151635868Y-83941787D01*
X151603682Y-83962889D01*
X151418715Y-84084159D01*
X151418710Y-84084163D01*
X151414802Y-84086725D01*
X151217587Y-84262746D01*
X151048556Y-84465984D01*
X150911421Y-84691974D01*
X150909615Y-84696282D01*
X150909614Y-84696283D01*
X150824206Y-84899959D01*
X150809197Y-84935751D01*
X150808046Y-84940283D01*
X150808045Y-84940286D01*
X150796746Y-84984776D01*
X150744128Y-85191961D01*
X150717644Y-85454974D01*
X150717868Y-85459640D01*
X150717868Y-85459645D01*
X150720038Y-85504820D01*
X150730327Y-85719012D01*
X150781898Y-85978276D01*
X150783477Y-85982674D01*
X150783479Y-85982681D01*
X150862816Y-86203652D01*
X150871224Y-86227070D01*
X150873441Y-86231196D01*
X150940821Y-86356596D01*
X150996342Y-86459927D01*
X150999137Y-86463671D01*
X150999139Y-86463673D01*
X151081552Y-86574037D01*
X151154505Y-86671733D01*
X151157812Y-86675011D01*
X151157817Y-86675017D01*
X151275337Y-86791515D01*
X151342238Y-86857834D01*
X151346005Y-86860596D01*
X151346006Y-86860597D01*
X151520580Y-86988600D01*
X151555416Y-87014143D01*
X151559551Y-87016319D01*
X151559555Y-87016321D01*
X151615044Y-87045515D01*
X151789356Y-87137225D01*
X152038920Y-87224376D01*
X152043513Y-87225248D01*
X152294035Y-87272811D01*
X152294038Y-87272811D01*
X152298624Y-87273682D01*
X152430693Y-87278871D01*
X152558095Y-87283878D01*
X152558101Y-87283878D01*
X152562763Y-87284061D01*
X152825535Y-87255282D01*
X152830046Y-87254094D01*
X152830048Y-87254094D01*
X153076644Y-87189171D01*
X153076646Y-87189170D01*
X153081167Y-87187980D01*
X153085464Y-87186134D01*
X153319749Y-87085477D01*
X153319751Y-87085476D01*
X153324043Y-87083632D01*
X153358738Y-87062162D01*
X153427190Y-87043325D01*
X153494959Y-87064487D01*
X153540530Y-87118928D01*
X153551040Y-87169307D01*
X153551040Y-88411459D01*
X153531038Y-88479580D01*
X153477382Y-88526073D01*
X153407108Y-88536177D01*
X153353221Y-88514987D01*
X153282546Y-88465958D01*
X153282541Y-88465955D01*
X153278708Y-88463296D01*
X153274517Y-88461229D01*
X153045814Y-88348445D01*
X153045811Y-88348444D01*
X153041626Y-88346380D01*
X152984670Y-88328148D01*
X152915747Y-88306086D01*
X152789867Y-88265791D01*
X152647345Y-88242580D01*
X152533573Y-88224051D01*
X152533572Y-88224051D01*
X152528961Y-88223300D01*
X152396801Y-88221570D01*
X152269318Y-88219901D01*
X152269315Y-88219901D01*
X152264641Y-88219840D01*
X152002712Y-88255486D01*
X151998222Y-88256795D01*
X151998216Y-88256796D01*
X151891358Y-88287943D01*
X151748930Y-88329457D01*
X151744683Y-88331415D01*
X151744680Y-88331416D01*
X151654470Y-88373004D01*
X151508868Y-88440127D01*
X151504959Y-88442690D01*
X151291715Y-88582499D01*
X151291710Y-88582503D01*
X151287802Y-88585065D01*
X151284310Y-88588182D01*
X151107323Y-88746149D01*
X151090587Y-88761086D01*
X150921556Y-88964324D01*
X150784421Y-89190314D01*
X150782615Y-89194622D01*
X150782614Y-89194623D01*
X150690298Y-89414773D01*
X150682197Y-89434091D01*
X150681046Y-89438623D01*
X150681045Y-89438626D01*
X150668292Y-89488841D01*
X150617128Y-89690301D01*
X150590644Y-89953314D01*
X150590868Y-89957980D01*
X150590868Y-89957985D01*
X150593038Y-90003160D01*
X150603327Y-90217352D01*
X150629112Y-90346984D01*
X150653847Y-90471330D01*
X150654898Y-90476616D01*
X150656477Y-90481014D01*
X150656479Y-90481021D01*
X150715209Y-90644596D01*
X150744224Y-90725410D01*
X150746441Y-90729536D01*
X150859653Y-90940234D01*
X150869342Y-90958267D01*
X150872137Y-90962011D01*
X150872139Y-90962013D01*
X150991131Y-91121362D01*
X151027505Y-91170073D01*
X151030812Y-91173351D01*
X151030817Y-91173357D01*
X151188682Y-91329849D01*
X151215238Y-91356174D01*
X151219005Y-91358936D01*
X151219006Y-91358937D01*
X151350700Y-91455499D01*
X151428416Y-91512483D01*
X151432551Y-91514659D01*
X151432555Y-91514661D01*
X151555813Y-91579510D01*
X151662356Y-91635565D01*
X151666775Y-91637108D01*
X151892763Y-91716026D01*
X151911920Y-91722716D01*
X151916513Y-91723588D01*
X152167035Y-91771151D01*
X152167038Y-91771151D01*
X152171624Y-91772022D01*
X152303693Y-91777211D01*
X152431095Y-91782218D01*
X152431101Y-91782218D01*
X152435763Y-91782401D01*
X152698535Y-91753622D01*
X152703046Y-91752434D01*
X152703048Y-91752434D01*
X152949644Y-91687511D01*
X152949646Y-91687510D01*
X152954167Y-91686320D01*
X152958464Y-91684474D01*
X153192749Y-91583817D01*
X153192751Y-91583816D01*
X153197043Y-91581972D01*
X153358403Y-91482119D01*
X153417852Y-91445331D01*
X153417854Y-91445330D01*
X153421827Y-91442871D01*
X153490163Y-91385021D01*
X153620016Y-91275093D01*
X153620018Y-91275091D01*
X153623583Y-91272073D01*
X153797876Y-91073329D01*
X153802363Y-91066354D01*
X153908592Y-90901202D01*
X153940879Y-90851006D01*
X154049450Y-90609988D01*
X154050722Y-90605478D01*
X154057857Y-90580180D01*
X154095598Y-90520046D01*
X154159860Y-90489863D01*
X154230238Y-90499213D01*
X154268221Y-90525286D01*
X155198434Y-91455499D01*
X155232460Y-91517811D01*
X155235339Y-91544594D01*
X155235339Y-96148059D01*
X155215337Y-96216180D01*
X155161681Y-96262673D01*
X155091407Y-96272777D01*
X155053611Y-96261065D01*
X154856834Y-96164025D01*
X154856831Y-96164024D01*
X154852646Y-96161960D01*
X154809220Y-96148059D01*
X154631374Y-96091130D01*
X154600887Y-96081371D01*
X154423532Y-96052487D01*
X154344593Y-96039631D01*
X154344592Y-96039631D01*
X154339981Y-96038880D01*
X154207821Y-96037150D01*
X154080338Y-96035481D01*
X154080335Y-96035481D01*
X154075661Y-96035420D01*
X153813732Y-96071066D01*
X153809240Y-96072375D01*
X153809232Y-96072377D01*
X153744894Y-96091130D01*
X153673898Y-96090989D01*
X153614248Y-96052487D01*
X153584883Y-95987848D01*
X153595127Y-95917594D01*
X153628225Y-95873996D01*
X153747016Y-95773433D01*
X153747018Y-95773431D01*
X153750583Y-95770413D01*
X153924876Y-95571669D01*
X153998887Y-95456607D01*
X154065351Y-95353276D01*
X154067879Y-95349346D01*
X154176450Y-95108328D01*
X154248203Y-94853910D01*
X154281563Y-94591680D01*
X154284007Y-94498340D01*
X154275048Y-94377786D01*
X154264763Y-94239376D01*
X154264762Y-94239372D01*
X154264417Y-94234724D01*
X154206077Y-93976899D01*
X154203893Y-93971283D01*
X154111962Y-93734882D01*
X154111961Y-93734880D01*
X154110269Y-93730529D01*
X154107069Y-93724929D01*
X154041666Y-93610498D01*
X153979098Y-93501027D01*
X153815445Y-93293434D01*
X153622905Y-93112310D01*
X153585732Y-93086522D01*
X153409546Y-92964298D01*
X153409541Y-92964295D01*
X153405708Y-92961636D01*
X153401517Y-92959569D01*
X153172814Y-92846785D01*
X153172811Y-92846784D01*
X153168626Y-92844720D01*
X153111670Y-92826488D01*
X152921312Y-92765554D01*
X152921314Y-92765554D01*
X152916867Y-92764131D01*
X152774345Y-92740920D01*
X152660573Y-92722391D01*
X152660572Y-92722391D01*
X152655961Y-92721640D01*
X152523801Y-92719910D01*
X152396318Y-92718241D01*
X152396315Y-92718241D01*
X152391641Y-92718180D01*
X152129712Y-92753826D01*
X152125222Y-92755135D01*
X152125216Y-92755136D01*
X152017252Y-92786605D01*
X151875930Y-92827797D01*
X151871683Y-92829755D01*
X151871680Y-92829756D01*
X151830720Y-92848639D01*
X151635868Y-92938467D01*
X151631959Y-92941030D01*
X151418715Y-93080839D01*
X151418710Y-93080843D01*
X151414802Y-93083405D01*
X151217587Y-93259426D01*
X151048556Y-93462664D01*
X150911421Y-93688654D01*
X150909615Y-93692962D01*
X150909614Y-93692963D01*
X150811189Y-93927681D01*
X150809197Y-93932431D01*
X150808046Y-93936963D01*
X150808045Y-93936966D01*
X150796746Y-93981456D01*
X150744128Y-94188641D01*
X150717644Y-94451654D01*
X150717868Y-94456320D01*
X150717868Y-94456325D01*
X150720038Y-94501500D01*
X150730327Y-94715692D01*
X150781898Y-94974956D01*
X150783477Y-94979354D01*
X150783479Y-94979361D01*
X150845406Y-95151842D01*
X150871224Y-95223750D01*
X150873441Y-95227876D01*
X150940821Y-95353276D01*
X150996342Y-95456607D01*
X150999137Y-95460351D01*
X150999139Y-95460353D01*
X151082263Y-95571669D01*
X151154505Y-95668413D01*
X151157812Y-95671691D01*
X151157817Y-95671697D01*
X151257399Y-95770413D01*
X151342238Y-95854514D01*
X151555416Y-96010823D01*
X151559551Y-96012999D01*
X151559555Y-96013001D01*
X151785208Y-96131723D01*
X151785212Y-96131725D01*
X151789356Y-96133905D01*
X151791703Y-96134725D01*
X151845755Y-96179857D01*
X151867020Y-96249905D01*
X151867020Y-98308464D01*
X151866493Y-98319647D01*
X151864818Y-98327140D01*
X151865067Y-98335066D01*
X151865067Y-98335067D01*
X151866958Y-98395217D01*
X151867020Y-98399176D01*
X151867020Y-98427087D01*
X151867517Y-98431021D01*
X151867517Y-98431022D01*
X151867525Y-98431087D01*
X151868458Y-98442924D01*
X151869847Y-98487120D01*
X151875498Y-98506570D01*
X151879507Y-98525931D01*
X151880853Y-98536581D01*
X151882046Y-98546028D01*
X151884965Y-98553399D01*
X151884965Y-98553401D01*
X151898324Y-98587143D01*
X151902169Y-98598373D01*
X151914502Y-98640824D01*
X151918535Y-98647643D01*
X151918537Y-98647648D01*
X151924813Y-98658259D01*
X151933508Y-98676007D01*
X151940968Y-98694848D01*
X151945630Y-98701264D01*
X151945630Y-98701265D01*
X151966956Y-98730618D01*
X151973472Y-98740538D01*
X151990735Y-98769727D01*
X151995978Y-98778593D01*
X152010299Y-98792914D01*
X152023139Y-98807947D01*
X152035048Y-98824338D01*
X152041152Y-98829388D01*
X152041157Y-98829393D01*
X152069118Y-98852524D01*
X152077899Y-98860514D01*
X152803435Y-99586051D01*
X152837460Y-99648363D01*
X152840339Y-99675146D01*
X152840339Y-102170214D01*
X152820337Y-102238335D01*
X152766681Y-102284828D01*
X152696407Y-102294932D01*
X152631827Y-102265438D01*
X152625244Y-102259309D01*
X146403552Y-96037616D01*
X139973683Y-89607747D01*
X139966143Y-89599461D01*
X139962031Y-89592982D01*
X139947698Y-89579522D01*
X139912380Y-89546357D01*
X139909538Y-89543602D01*
X139889801Y-89523865D01*
X139886604Y-89521385D01*
X139877582Y-89513680D01*
X139851131Y-89488841D01*
X139845352Y-89483414D01*
X139838406Y-89479595D01*
X139838403Y-89479593D01*
X139827597Y-89473652D01*
X139811078Y-89462801D01*
X139810614Y-89462441D01*
X139795072Y-89450386D01*
X139787803Y-89447241D01*
X139787799Y-89447238D01*
X139754494Y-89432826D01*
X139743844Y-89427609D01*
X139705091Y-89406305D01*
X139685468Y-89401267D01*
X139666765Y-89394863D01*
X139655451Y-89389967D01*
X139655450Y-89389967D01*
X139648176Y-89386819D01*
X139640353Y-89385580D01*
X139640343Y-89385577D01*
X139604507Y-89379901D01*
X139592887Y-89377495D01*
X139557742Y-89368472D01*
X139557741Y-89368472D01*
X139550061Y-89366500D01*
X139529807Y-89366500D01*
X139510096Y-89364949D01*
X139497917Y-89363020D01*
X139490088Y-89361780D01*
X139482196Y-89362526D01*
X139446070Y-89365941D01*
X139434212Y-89366500D01*
X139422153Y-89366500D01*
X139354032Y-89346498D01*
X139307539Y-89292842D01*
X139304720Y-89286167D01*
X139295903Y-89263494D01*
X139283729Y-89232189D01*
X139257515Y-89186323D01*
X139219063Y-89119047D01*
X139152558Y-89002687D01*
X138988905Y-88795094D01*
X138796365Y-88613970D01*
X138759192Y-88588182D01*
X138583006Y-88465958D01*
X138583001Y-88465955D01*
X138579168Y-88463296D01*
X138574977Y-88461229D01*
X138346274Y-88348445D01*
X138346271Y-88348444D01*
X138342086Y-88346380D01*
X138285130Y-88328148D01*
X138216207Y-88306086D01*
X138090327Y-88265791D01*
X137947805Y-88242580D01*
X137834033Y-88224051D01*
X137834032Y-88224051D01*
X137829421Y-88223300D01*
X137697261Y-88221570D01*
X137569778Y-88219901D01*
X137569775Y-88219901D01*
X137565101Y-88219840D01*
X137303172Y-88255486D01*
X137298682Y-88256795D01*
X137298676Y-88256796D01*
X137191818Y-88287943D01*
X137049390Y-88329457D01*
X137045143Y-88331415D01*
X137045140Y-88331416D01*
X136954930Y-88373004D01*
X136809328Y-88440127D01*
X136805419Y-88442690D01*
X136592175Y-88582499D01*
X136592170Y-88582503D01*
X136588262Y-88585065D01*
X136391047Y-88761086D01*
X136389629Y-88759497D01*
X136335509Y-88790246D01*
X136264617Y-88786377D01*
X136217556Y-88756690D01*
X133798613Y-86337747D01*
X133791073Y-86329461D01*
X133786961Y-86322982D01*
X133737309Y-86276356D01*
X133734468Y-86273602D01*
X133714731Y-86253865D01*
X133711534Y-86251385D01*
X133702512Y-86243680D01*
X133689077Y-86231064D01*
X133670282Y-86213414D01*
X133663336Y-86209595D01*
X133663333Y-86209593D01*
X133652527Y-86203652D01*
X133636008Y-86192801D01*
X133635544Y-86192441D01*
X133620002Y-86180386D01*
X133612733Y-86177241D01*
X133612729Y-86177238D01*
X133579424Y-86162826D01*
X133568774Y-86157609D01*
X133530021Y-86136305D01*
X133510398Y-86131267D01*
X133491695Y-86124863D01*
X133480381Y-86119967D01*
X133480380Y-86119967D01*
X133473106Y-86116819D01*
X133465283Y-86115580D01*
X133465273Y-86115577D01*
X133429437Y-86109901D01*
X133417817Y-86107495D01*
X133382672Y-86098472D01*
X133382671Y-86098472D01*
X133374991Y-86096500D01*
X133354737Y-86096500D01*
X133335026Y-86094949D01*
X133332495Y-86094548D01*
X133315018Y-86091780D01*
X133307126Y-86092526D01*
X133271000Y-86095941D01*
X133259142Y-86096500D01*
X129722283Y-86096500D01*
X129711099Y-86095973D01*
X129703611Y-86094299D01*
X129695688Y-86094548D01*
X129635553Y-86096438D01*
X129631595Y-86096500D01*
X129603664Y-86096500D01*
X129599749Y-86096995D01*
X129599745Y-86096995D01*
X129599687Y-86097003D01*
X129599658Y-86097006D01*
X129587816Y-86097939D01*
X129543630Y-86099327D01*
X129526264Y-86104372D01*
X129524178Y-86104978D01*
X129504826Y-86108986D01*
X129497755Y-86109880D01*
X129484723Y-86111526D01*
X129477354Y-86114443D01*
X129477352Y-86114444D01*
X129443617Y-86127800D01*
X129432389Y-86131645D01*
X129389927Y-86143982D01*
X129383105Y-86148016D01*
X129383099Y-86148019D01*
X129372488Y-86154294D01*
X129354738Y-86162990D01*
X129343276Y-86167528D01*
X129343271Y-86167531D01*
X129335903Y-86170448D01*
X129318490Y-86183099D01*
X129300145Y-86196427D01*
X129290227Y-86202943D01*
X129278983Y-86209593D01*
X129252157Y-86225458D01*
X129237833Y-86239782D01*
X129222801Y-86252621D01*
X129206413Y-86264528D01*
X129178232Y-86298593D01*
X129170242Y-86307373D01*
X127163837Y-88313778D01*
X127101525Y-88347804D01*
X127036331Y-88344685D01*
X126789867Y-88265791D01*
X126647345Y-88242580D01*
X126533573Y-88224051D01*
X126533572Y-88224051D01*
X126528961Y-88223300D01*
X126396801Y-88221570D01*
X126269318Y-88219901D01*
X126269315Y-88219901D01*
X126264641Y-88219840D01*
X126002712Y-88255486D01*
X125998222Y-88256795D01*
X125998216Y-88256796D01*
X125891358Y-88287943D01*
X125748930Y-88329457D01*
X125744683Y-88331415D01*
X125744680Y-88331416D01*
X125590771Y-88402369D01*
X125520533Y-88412724D01*
X125455848Y-88383461D01*
X125417251Y-88323872D01*
X125412020Y-88287943D01*
X125412020Y-87538254D01*
X125432022Y-87470133D01*
X125448925Y-87449159D01*
X125712291Y-87185793D01*
X125774603Y-87151767D01*
X125842927Y-87155933D01*
X126034503Y-87222834D01*
X126034509Y-87222836D01*
X126038920Y-87224376D01*
X126043513Y-87225248D01*
X126294035Y-87272811D01*
X126294038Y-87272811D01*
X126298624Y-87273682D01*
X126430693Y-87278871D01*
X126558095Y-87283878D01*
X126558101Y-87283878D01*
X126562763Y-87284061D01*
X126825535Y-87255282D01*
X126830046Y-87254094D01*
X126830048Y-87254094D01*
X127076644Y-87189171D01*
X127076646Y-87189170D01*
X127081167Y-87187980D01*
X127085464Y-87186134D01*
X127319749Y-87085477D01*
X127319751Y-87085476D01*
X127324043Y-87083632D01*
X127488829Y-86981659D01*
X127544852Y-86946991D01*
X127544854Y-86946990D01*
X127548827Y-86944531D01*
X127604313Y-86897559D01*
X127747016Y-86776753D01*
X127747018Y-86776751D01*
X127750583Y-86773733D01*
X127924876Y-86574989D01*
X127935946Y-86557780D01*
X128065351Y-86356596D01*
X128067879Y-86352666D01*
X128176450Y-86111648D01*
X128248203Y-85857230D01*
X128281563Y-85595000D01*
X128284007Y-85501660D01*
X128280192Y-85450320D01*
X128264763Y-85242696D01*
X128264762Y-85242692D01*
X128264417Y-85238044D01*
X128206077Y-84980219D01*
X128200702Y-84966396D01*
X128111962Y-84738202D01*
X128111961Y-84738200D01*
X128110269Y-84733849D01*
X128106694Y-84727593D01*
X127981417Y-84508405D01*
X127979098Y-84504347D01*
X127815445Y-84296754D01*
X127634799Y-84126819D01*
X127598887Y-84065575D01*
X127601787Y-83994637D01*
X127642578Y-83936529D01*
X127708309Y-83909698D01*
X127744634Y-83911255D01*
X127978055Y-83955571D01*
X127978058Y-83955571D01*
X127982644Y-83956442D01*
X128114714Y-83961632D01*
X128242115Y-83966638D01*
X128242121Y-83966638D01*
X128246783Y-83966821D01*
X128509555Y-83938042D01*
X128514066Y-83936854D01*
X128514068Y-83936854D01*
X128760664Y-83871931D01*
X128760666Y-83871930D01*
X128765187Y-83870740D01*
X128821335Y-83846617D01*
X129003769Y-83768237D01*
X129003771Y-83768236D01*
X129008063Y-83766392D01*
X129155632Y-83675073D01*
X129228872Y-83629751D01*
X129228874Y-83629750D01*
X129232847Y-83627291D01*
X129299451Y-83570907D01*
X129431036Y-83459513D01*
X129431038Y-83459511D01*
X129434603Y-83456493D01*
X129608896Y-83257749D01*
X129682907Y-83142687D01*
X129746201Y-83044284D01*
X129751899Y-83035426D01*
X129860470Y-82794408D01*
X129932223Y-82539990D01*
X129945176Y-82438173D01*
X129965185Y-82280891D01*
X129965185Y-82280885D01*
X129965583Y-82277760D01*
X129965938Y-82264225D01*
X129967944Y-82187580D01*
X129968027Y-82184420D01*
X129957548Y-82043402D01*
X129948783Y-81925456D01*
X129948782Y-81925452D01*
X129948437Y-81920804D01*
X129890097Y-81662979D01*
X129882189Y-81642644D01*
X129795982Y-81420962D01*
X129795981Y-81420960D01*
X129794289Y-81416609D01*
X129788222Y-81405993D01*
X129737290Y-81316882D01*
X129663118Y-81187107D01*
X129623596Y-81136974D01*
X130399624Y-81136974D01*
X130399848Y-81141640D01*
X130399848Y-81141645D01*
X130403889Y-81225766D01*
X130412307Y-81401012D01*
X130427679Y-81478293D01*
X130462455Y-81653120D01*
X130463878Y-81660276D01*
X130465457Y-81664674D01*
X130465459Y-81664681D01*
X130532255Y-81850722D01*
X130553204Y-81909070D01*
X130555421Y-81913196D01*
X130674595Y-82134990D01*
X130678322Y-82141927D01*
X130681117Y-82145671D01*
X130681119Y-82145673D01*
X130798249Y-82302529D01*
X130836485Y-82353733D01*
X130839792Y-82357011D01*
X130839797Y-82357017D01*
X131016209Y-82531895D01*
X131024218Y-82539834D01*
X131027985Y-82542596D01*
X131027986Y-82542597D01*
X131183259Y-82656448D01*
X131237396Y-82696143D01*
X131241531Y-82698319D01*
X131241535Y-82698321D01*
X131364793Y-82763170D01*
X131471336Y-82819225D01*
X131720900Y-82906376D01*
X131725493Y-82907248D01*
X131976015Y-82954811D01*
X131976018Y-82954811D01*
X131980604Y-82955682D01*
X132112674Y-82960872D01*
X132240075Y-82965878D01*
X132240081Y-82965878D01*
X132244743Y-82966061D01*
X132507515Y-82937282D01*
X132512026Y-82936094D01*
X132512028Y-82936094D01*
X132758624Y-82871171D01*
X132758626Y-82871170D01*
X132763147Y-82869980D01*
X132880975Y-82819357D01*
X133001729Y-82767477D01*
X133001731Y-82767476D01*
X133006023Y-82765632D01*
X133175048Y-82661036D01*
X133226832Y-82628991D01*
X133226834Y-82628990D01*
X133230807Y-82626531D01*
X133292824Y-82574030D01*
X133428996Y-82458753D01*
X133428998Y-82458751D01*
X133432563Y-82455733D01*
X133606856Y-82256989D01*
X133629648Y-82221556D01*
X133683564Y-82137734D01*
X134397584Y-82137734D01*
X134397808Y-82142400D01*
X134397808Y-82142405D01*
X134399978Y-82187580D01*
X134410267Y-82401772D01*
X134424163Y-82471631D01*
X134459601Y-82649789D01*
X134461838Y-82661036D01*
X134463417Y-82665434D01*
X134463419Y-82665441D01*
X134536194Y-82868134D01*
X134551164Y-82909830D01*
X134553381Y-82913956D01*
X134655507Y-83104022D01*
X134676282Y-83142687D01*
X134679077Y-83146431D01*
X134679079Y-83146433D01*
X134762203Y-83257749D01*
X134834445Y-83354493D01*
X134837752Y-83357771D01*
X134837757Y-83357777D01*
X135018862Y-83537307D01*
X135022178Y-83540594D01*
X135025945Y-83543356D01*
X135025946Y-83543357D01*
X135136301Y-83624273D01*
X135235356Y-83696903D01*
X135239491Y-83699079D01*
X135239495Y-83699081D01*
X135349859Y-83757146D01*
X135469296Y-83819985D01*
X135718860Y-83907136D01*
X135723453Y-83908008D01*
X135973975Y-83955571D01*
X135973978Y-83955571D01*
X135978564Y-83956442D01*
X136110634Y-83961632D01*
X136238035Y-83966638D01*
X136238041Y-83966638D01*
X136242703Y-83966821D01*
X136253677Y-83965619D01*
X136323570Y-83978085D01*
X136375628Y-84026360D01*
X136393323Y-84095116D01*
X136371037Y-84162524D01*
X136351296Y-84184873D01*
X136264047Y-84262746D01*
X136095016Y-84465984D01*
X135957881Y-84691974D01*
X135956075Y-84696282D01*
X135956074Y-84696283D01*
X135870666Y-84899959D01*
X135855657Y-84935751D01*
X135854506Y-84940283D01*
X135854505Y-84940286D01*
X135843206Y-84984776D01*
X135790588Y-85191961D01*
X135764104Y-85454974D01*
X135764328Y-85459640D01*
X135764328Y-85459645D01*
X135766498Y-85504820D01*
X135776787Y-85719012D01*
X135828358Y-85978276D01*
X135829937Y-85982674D01*
X135829939Y-85982681D01*
X135909276Y-86203652D01*
X135917684Y-86227070D01*
X135919901Y-86231196D01*
X135987281Y-86356596D01*
X136042802Y-86459927D01*
X136045597Y-86463671D01*
X136045599Y-86463673D01*
X136128012Y-86574037D01*
X136200965Y-86671733D01*
X136204272Y-86675011D01*
X136204277Y-86675017D01*
X136321797Y-86791515D01*
X136388698Y-86857834D01*
X136392465Y-86860596D01*
X136392466Y-86860597D01*
X136567040Y-86988600D01*
X136601876Y-87014143D01*
X136606011Y-87016319D01*
X136606015Y-87016321D01*
X136661504Y-87045515D01*
X136835816Y-87137225D01*
X137085380Y-87224376D01*
X137089973Y-87225248D01*
X137340495Y-87272811D01*
X137340498Y-87272811D01*
X137345084Y-87273682D01*
X137477153Y-87278871D01*
X137604555Y-87283878D01*
X137604561Y-87283878D01*
X137609223Y-87284061D01*
X137871995Y-87255282D01*
X137876506Y-87254094D01*
X137876508Y-87254094D01*
X138123104Y-87189171D01*
X138123106Y-87189170D01*
X138127627Y-87187980D01*
X138131924Y-87186134D01*
X138366209Y-87085477D01*
X138366211Y-87085476D01*
X138370503Y-87083632D01*
X138535289Y-86981659D01*
X138591312Y-86946991D01*
X138591314Y-86946990D01*
X138595287Y-86944531D01*
X138650773Y-86897559D01*
X138793476Y-86776753D01*
X138793478Y-86776751D01*
X138797043Y-86773733D01*
X138971336Y-86574989D01*
X138982406Y-86557780D01*
X139111811Y-86356596D01*
X139114339Y-86352666D01*
X139222910Y-86111648D01*
X139294663Y-85857230D01*
X139328023Y-85595000D01*
X139330467Y-85501660D01*
X139326652Y-85450320D01*
X139311223Y-85242696D01*
X139311222Y-85242692D01*
X139310877Y-85238044D01*
X139252537Y-84980219D01*
X139247162Y-84966396D01*
X139158422Y-84738202D01*
X139158421Y-84738200D01*
X139156729Y-84733849D01*
X139153154Y-84727593D01*
X139027877Y-84508405D01*
X139025558Y-84504347D01*
X138861905Y-84296754D01*
X138669365Y-84115630D01*
X138632192Y-84089842D01*
X138456006Y-83967618D01*
X138456001Y-83967615D01*
X138452168Y-83964956D01*
X138447977Y-83962889D01*
X138219274Y-83850105D01*
X138219271Y-83850104D01*
X138215086Y-83848040D01*
X138180479Y-83836962D01*
X137967772Y-83768874D01*
X137967774Y-83768874D01*
X137963327Y-83767451D01*
X137780759Y-83737718D01*
X137707033Y-83725711D01*
X137707032Y-83725711D01*
X137702421Y-83724960D01*
X137481314Y-83722066D01*
X137459340Y-83721778D01*
X137391487Y-83700886D01*
X137345700Y-83646627D01*
X137336517Y-83576226D01*
X137366853Y-83512037D01*
X137379578Y-83499622D01*
X137426948Y-83459520D01*
X137426952Y-83459516D01*
X137430523Y-83456493D01*
X137604816Y-83257749D01*
X137678827Y-83142687D01*
X137742121Y-83044284D01*
X137747819Y-83035426D01*
X137856390Y-82794408D01*
X137928143Y-82539990D01*
X137941096Y-82438173D01*
X137961105Y-82280891D01*
X137961105Y-82280885D01*
X137961503Y-82277760D01*
X137961858Y-82264225D01*
X137963864Y-82187580D01*
X137963947Y-82184420D01*
X137953468Y-82043402D01*
X137944703Y-81925456D01*
X137944702Y-81925452D01*
X137944357Y-81920804D01*
X137886017Y-81662979D01*
X137878109Y-81642644D01*
X137791902Y-81420962D01*
X137791901Y-81420960D01*
X137790209Y-81416609D01*
X137784142Y-81405993D01*
X137733210Y-81316882D01*
X137659038Y-81187107D01*
X137495385Y-80979514D01*
X137302845Y-80798390D01*
X137265672Y-80772602D01*
X137089486Y-80650378D01*
X137089481Y-80650375D01*
X137085648Y-80647716D01*
X137081457Y-80645649D01*
X136852754Y-80532865D01*
X136852751Y-80532864D01*
X136848566Y-80530800D01*
X136808208Y-80517881D01*
X136601252Y-80451634D01*
X136601254Y-80451634D01*
X136596807Y-80450211D01*
X136412544Y-80420202D01*
X136340513Y-80408471D01*
X136340512Y-80408471D01*
X136335901Y-80407720D01*
X136203741Y-80405990D01*
X136076258Y-80404321D01*
X136076255Y-80404321D01*
X136071581Y-80404260D01*
X135809652Y-80439906D01*
X135805162Y-80441215D01*
X135805156Y-80441216D01*
X135697192Y-80472685D01*
X135555870Y-80513877D01*
X135551623Y-80515835D01*
X135551620Y-80515836D01*
X135461410Y-80557424D01*
X135315808Y-80624547D01*
X135311899Y-80627110D01*
X135098655Y-80766919D01*
X135098650Y-80766923D01*
X135094742Y-80769485D01*
X135058767Y-80801594D01*
X134920843Y-80924696D01*
X134897527Y-80945506D01*
X134869243Y-80979514D01*
X134751763Y-81120769D01*
X134728496Y-81148744D01*
X134591361Y-81374734D01*
X134589555Y-81379042D01*
X134589554Y-81379043D01*
X134493899Y-81607156D01*
X134489137Y-81618511D01*
X134487986Y-81623043D01*
X134487985Y-81623046D01*
X134477460Y-81664489D01*
X134424068Y-81874721D01*
X134397584Y-82137734D01*
X133683564Y-82137734D01*
X133747331Y-82038596D01*
X133749859Y-82034666D01*
X133858430Y-81793648D01*
X133930183Y-81539230D01*
X133945782Y-81416609D01*
X133963145Y-81280131D01*
X133963145Y-81280125D01*
X133963543Y-81277000D01*
X133963629Y-81273741D01*
X133965311Y-81209471D01*
X133965987Y-81183660D01*
X133960448Y-81109117D01*
X133946743Y-80924696D01*
X133946742Y-80924692D01*
X133946397Y-80920044D01*
X133888057Y-80662219D01*
X133881613Y-80645649D01*
X133793942Y-80420202D01*
X133793941Y-80420200D01*
X133792249Y-80415849D01*
X133785626Y-80404260D01*
X133709740Y-80271488D01*
X133661078Y-80186347D01*
X133497425Y-79978754D01*
X133304885Y-79797630D01*
X133267712Y-79771842D01*
X133091526Y-79649618D01*
X133091521Y-79649615D01*
X133087688Y-79646956D01*
X133083497Y-79644889D01*
X132854794Y-79532105D01*
X132854791Y-79532104D01*
X132850606Y-79530040D01*
X132793650Y-79511808D01*
X132603292Y-79450874D01*
X132603294Y-79450874D01*
X132598847Y-79449451D01*
X132456325Y-79426240D01*
X132342553Y-79407711D01*
X132342552Y-79407711D01*
X132337941Y-79406960D01*
X132205781Y-79405230D01*
X132078298Y-79403561D01*
X132078295Y-79403561D01*
X132073621Y-79403500D01*
X131811692Y-79439146D01*
X131807202Y-79440455D01*
X131807196Y-79440456D01*
X131699232Y-79471925D01*
X131557910Y-79513117D01*
X131553663Y-79515075D01*
X131553660Y-79515076D01*
X131488017Y-79545338D01*
X131317848Y-79623787D01*
X131313939Y-79626350D01*
X131100695Y-79766159D01*
X131100690Y-79766163D01*
X131096782Y-79768725D01*
X131029372Y-79828891D01*
X130908069Y-79937158D01*
X130899567Y-79944746D01*
X130730536Y-80147984D01*
X130593401Y-80373974D01*
X130591595Y-80378282D01*
X130591594Y-80378283D01*
X130506705Y-80580722D01*
X130491177Y-80617751D01*
X130490026Y-80622283D01*
X130490025Y-80622286D01*
X130473011Y-80689278D01*
X130426108Y-80873961D01*
X130399624Y-81136974D01*
X129623596Y-81136974D01*
X129499465Y-80979514D01*
X129306925Y-80798390D01*
X129269752Y-80772602D01*
X129093566Y-80650378D01*
X129093561Y-80650375D01*
X129089728Y-80647716D01*
X129085537Y-80645649D01*
X128856834Y-80532865D01*
X128856831Y-80532864D01*
X128852646Y-80530800D01*
X128812288Y-80517881D01*
X128605332Y-80451634D01*
X128605334Y-80451634D01*
X128600887Y-80450211D01*
X128416624Y-80420202D01*
X128344593Y-80408471D01*
X128344592Y-80408471D01*
X128339981Y-80407720D01*
X128207821Y-80405990D01*
X128080338Y-80404321D01*
X128080335Y-80404321D01*
X128075661Y-80404260D01*
X127813732Y-80439906D01*
X127809242Y-80441215D01*
X127809236Y-80441216D01*
X127701272Y-80472685D01*
X127559950Y-80513877D01*
X127555703Y-80515835D01*
X127555700Y-80515836D01*
X127465490Y-80557424D01*
X127319888Y-80624547D01*
X127315979Y-80627110D01*
X127102735Y-80766919D01*
X127102730Y-80766923D01*
X127098822Y-80769485D01*
X127062847Y-80801594D01*
X126924923Y-80924696D01*
X126901607Y-80945506D01*
X126873323Y-80979514D01*
X126755843Y-81120769D01*
X126732576Y-81148744D01*
X126595441Y-81374734D01*
X126593635Y-81379042D01*
X126593634Y-81379043D01*
X126497979Y-81607156D01*
X126493217Y-81618511D01*
X126492066Y-81623043D01*
X126492065Y-81623046D01*
X126481540Y-81664489D01*
X126428148Y-81874721D01*
X126401664Y-82137734D01*
X126401888Y-82142400D01*
X126401888Y-82142405D01*
X126404058Y-82187580D01*
X126414347Y-82401772D01*
X126428243Y-82471631D01*
X126463681Y-82649789D01*
X126465918Y-82661036D01*
X126467497Y-82665434D01*
X126467499Y-82665441D01*
X126540274Y-82868134D01*
X126555244Y-82909830D01*
X126557461Y-82913956D01*
X126659587Y-83104022D01*
X126680362Y-83142687D01*
X126683157Y-83146431D01*
X126683159Y-83146433D01*
X126766283Y-83257749D01*
X126838525Y-83354493D01*
X126841832Y-83357771D01*
X126841837Y-83357777D01*
X127022942Y-83537307D01*
X127026258Y-83540594D01*
X127030025Y-83543356D01*
X127030026Y-83543357D01*
X127036219Y-83547898D01*
X127079326Y-83604311D01*
X127085090Y-83675073D01*
X127051683Y-83737718D01*
X126989710Y-83772358D01*
X126925948Y-83769622D01*
X126925865Y-83769967D01*
X126924097Y-83769543D01*
X126923293Y-83769508D01*
X126916867Y-83767451D01*
X126734299Y-83737718D01*
X126660573Y-83725711D01*
X126660572Y-83725711D01*
X126655961Y-83724960D01*
X126523801Y-83723230D01*
X126396318Y-83721561D01*
X126396315Y-83721561D01*
X126391641Y-83721500D01*
X126129712Y-83757146D01*
X126125222Y-83758455D01*
X126125216Y-83758456D01*
X126017252Y-83789925D01*
X125875930Y-83831117D01*
X125871683Y-83833075D01*
X125871680Y-83833076D01*
X125781470Y-83874664D01*
X125635868Y-83941787D01*
X125603682Y-83962889D01*
X125418715Y-84084159D01*
X125418710Y-84084163D01*
X125414802Y-84086725D01*
X125217587Y-84262746D01*
X125048556Y-84465984D01*
X124911421Y-84691974D01*
X124909615Y-84696282D01*
X124909614Y-84696283D01*
X124824206Y-84899959D01*
X124809197Y-84935751D01*
X124808046Y-84940283D01*
X124808045Y-84940286D01*
X124796746Y-84984776D01*
X124744128Y-85191961D01*
X124717644Y-85454974D01*
X124717868Y-85459640D01*
X124717868Y-85459645D01*
X124720038Y-85504820D01*
X124730327Y-85719012D01*
X124781898Y-85978276D01*
X124783477Y-85982674D01*
X124783479Y-85982681D01*
X124846338Y-86157758D01*
X124850532Y-86228631D01*
X124816845Y-86289431D01*
X124594550Y-86511725D01*
X124386262Y-86720013D01*
X124377983Y-86727547D01*
X124371502Y-86731660D01*
X124335295Y-86770217D01*
X124324877Y-86781311D01*
X124322122Y-86784153D01*
X124302385Y-86803890D01*
X124299905Y-86807087D01*
X124292202Y-86816107D01*
X124261934Y-86848339D01*
X124258115Y-86855285D01*
X124258113Y-86855288D01*
X124252172Y-86866094D01*
X124241321Y-86882613D01*
X124228906Y-86898619D01*
X124225761Y-86905888D01*
X124225758Y-86905892D01*
X124211346Y-86939197D01*
X124206129Y-86949847D01*
X124184825Y-86988600D01*
X124180152Y-87006802D01*
X124179787Y-87008222D01*
X124173383Y-87026926D01*
X124165339Y-87045515D01*
X124164100Y-87053338D01*
X124164097Y-87053348D01*
X124158421Y-87089184D01*
X124156015Y-87100804D01*
X124145020Y-87143630D01*
X124145020Y-87163884D01*
X124143469Y-87183594D01*
X124140300Y-87203603D01*
X124141046Y-87211495D01*
X124144461Y-87247621D01*
X124145020Y-87259479D01*
X124145020Y-90581904D01*
X124144493Y-90593087D01*
X124142818Y-90600580D01*
X124143067Y-90608506D01*
X124143067Y-90608507D01*
X124144958Y-90668657D01*
X124145020Y-90672616D01*
X124145020Y-90700527D01*
X124145517Y-90704461D01*
X124145517Y-90704462D01*
X124145525Y-90704527D01*
X124146458Y-90716364D01*
X124147847Y-90760560D01*
X124153498Y-90780010D01*
X124157507Y-90799371D01*
X124160046Y-90819468D01*
X124162965Y-90826839D01*
X124162965Y-90826841D01*
X124176324Y-90860583D01*
X124180169Y-90871813D01*
X124192502Y-90914264D01*
X124196535Y-90921083D01*
X124196537Y-90921088D01*
X124202813Y-90931699D01*
X124211508Y-90949447D01*
X124218968Y-90968288D01*
X124223630Y-90974704D01*
X124223630Y-90974705D01*
X124244956Y-91004058D01*
X124251472Y-91013978D01*
X124263491Y-91034300D01*
X124273978Y-91052033D01*
X124288299Y-91066354D01*
X124301139Y-91081387D01*
X124313048Y-91097778D01*
X124319154Y-91102829D01*
X124347125Y-91125969D01*
X124355904Y-91133959D01*
X125867063Y-92645118D01*
X125901089Y-92707430D01*
X125896024Y-92778245D01*
X125853477Y-92835081D01*
X125830719Y-92848639D01*
X125757693Y-92882305D01*
X125635868Y-92938467D01*
X125631959Y-92941030D01*
X125418715Y-93080839D01*
X125418710Y-93080843D01*
X125414802Y-93083405D01*
X125217587Y-93259426D01*
X125048556Y-93462664D01*
X124911421Y-93688654D01*
X124909615Y-93692962D01*
X124909614Y-93692963D01*
X124811189Y-93927681D01*
X124809197Y-93932431D01*
X124808046Y-93936963D01*
X124808045Y-93936966D01*
X124796746Y-93981456D01*
X124744128Y-94188641D01*
X124717644Y-94451654D01*
X124717868Y-94456320D01*
X124717868Y-94456325D01*
X124720038Y-94501500D01*
X124730327Y-94715692D01*
X124781898Y-94974956D01*
X124783477Y-94979354D01*
X124783479Y-94979361D01*
X124845406Y-95151842D01*
X124871224Y-95223750D01*
X124873441Y-95227876D01*
X124940821Y-95353276D01*
X124996342Y-95456607D01*
X124999137Y-95460351D01*
X124999139Y-95460353D01*
X125082263Y-95571669D01*
X125154505Y-95668413D01*
X125157812Y-95671691D01*
X125157817Y-95671697D01*
X125257399Y-95770413D01*
X125342238Y-95854514D01*
X125555416Y-96010823D01*
X125559551Y-96012999D01*
X125559555Y-96013001D01*
X125669919Y-96071066D01*
X125789356Y-96133905D01*
X126038920Y-96221056D01*
X126043513Y-96221928D01*
X126294035Y-96269491D01*
X126294038Y-96269491D01*
X126298624Y-96270362D01*
X126428874Y-96275480D01*
X126558095Y-96280558D01*
X126558101Y-96280558D01*
X126562763Y-96280741D01*
X126825535Y-96251962D01*
X126830046Y-96250774D01*
X126830048Y-96250774D01*
X126941915Y-96221322D01*
X127012884Y-96223322D01*
X127071505Y-96263372D01*
X127099168Y-96328758D01*
X127087089Y-96398719D01*
X127057896Y-96437173D01*
X126905225Y-96573437D01*
X126901607Y-96576666D01*
X126732576Y-96779904D01*
X126595441Y-97005894D01*
X126593635Y-97010202D01*
X126593634Y-97010203D01*
X126504869Y-97221885D01*
X126493217Y-97249671D01*
X126492066Y-97254203D01*
X126492065Y-97254206D01*
X126480585Y-97299409D01*
X126428148Y-97505881D01*
X126401664Y-97768894D01*
X126401888Y-97773560D01*
X126401888Y-97773565D01*
X126404072Y-97819027D01*
X126414347Y-98032932D01*
X126422842Y-98075639D01*
X126444704Y-98185544D01*
X126465918Y-98292196D01*
X126467497Y-98296594D01*
X126467499Y-98296601D01*
X126535495Y-98485985D01*
X126555244Y-98540990D01*
X126557461Y-98545116D01*
X126662465Y-98740538D01*
X126680362Y-98773847D01*
X126683157Y-98777591D01*
X126683159Y-98777593D01*
X126825385Y-98968057D01*
X126838525Y-98985653D01*
X126841832Y-98988931D01*
X126841837Y-98988937D01*
X127021744Y-99167279D01*
X127026258Y-99171754D01*
X127030025Y-99174516D01*
X127030026Y-99174517D01*
X127136909Y-99252887D01*
X127239436Y-99328063D01*
X127243571Y-99330239D01*
X127243575Y-99330241D01*
X127322268Y-99371643D01*
X127473376Y-99451145D01*
X127564750Y-99483054D01*
X127654518Y-99514402D01*
X127722940Y-99538296D01*
X127727533Y-99539168D01*
X127978055Y-99586731D01*
X127978058Y-99586731D01*
X127982644Y-99587602D01*
X128114713Y-99592791D01*
X128242115Y-99597798D01*
X128242121Y-99597798D01*
X128246783Y-99597981D01*
X128509555Y-99569202D01*
X128514066Y-99568014D01*
X128514068Y-99568014D01*
X128760664Y-99503091D01*
X128760666Y-99503090D01*
X128765187Y-99501900D01*
X128809052Y-99483054D01*
X129003769Y-99399397D01*
X129003771Y-99399396D01*
X129008063Y-99397552D01*
X129232847Y-99258451D01*
X129329761Y-99176408D01*
X129431036Y-99090673D01*
X129431038Y-99090671D01*
X129434603Y-99087653D01*
X129608896Y-98888909D01*
X129627161Y-98860514D01*
X129722029Y-98713024D01*
X129775703Y-98666553D01*
X129845981Y-98656477D01*
X129910550Y-98685995D01*
X129948910Y-98745737D01*
X129954000Y-98781187D01*
X129954000Y-102525019D01*
X129933998Y-102593140D01*
X129880342Y-102639633D01*
X129810068Y-102649737D01*
X129745488Y-102620243D01*
X129738905Y-102614114D01*
X129647875Y-102523084D01*
X129639467Y-102516028D01*
X129461007Y-102391069D01*
X129451511Y-102385586D01*
X129254053Y-102293510D01*
X129243761Y-102289764D01*
X129071497Y-102243606D01*
X129057401Y-102243942D01*
X129054000Y-102251884D01*
X129054000Y-103653000D01*
X129033998Y-103721121D01*
X128980342Y-103767614D01*
X128928000Y-103779000D01*
X127532033Y-103779000D01*
X127518502Y-103782973D01*
X127517273Y-103791522D01*
X127564764Y-103968761D01*
X127568510Y-103979053D01*
X127660586Y-104176511D01*
X127666069Y-104186007D01*
X127791028Y-104364467D01*
X127798084Y-104372875D01*
X127952125Y-104526916D01*
X127960533Y-104533972D01*
X128138993Y-104658931D01*
X128148489Y-104664414D01*
X128183049Y-104680529D01*
X128236334Y-104727446D01*
X128255795Y-104795723D01*
X128235253Y-104863683D01*
X128183049Y-104908919D01*
X128148238Y-104925151D01*
X128148233Y-104925154D01*
X128143251Y-104927477D01*
X128038389Y-105000902D01*
X127960211Y-105055643D01*
X127960208Y-105055645D01*
X127955700Y-105058802D01*
X127793802Y-105220700D01*
X127662477Y-105408251D01*
X127660154Y-105413233D01*
X127660151Y-105413238D01*
X127568039Y-105610775D01*
X127565716Y-105615757D01*
X127506457Y-105836913D01*
X127486502Y-106065000D01*
X127506457Y-106293087D01*
X127507881Y-106298400D01*
X127507881Y-106298402D01*
X127559599Y-106491413D01*
X127565716Y-106514243D01*
X127568039Y-106519224D01*
X127568039Y-106519225D01*
X127660151Y-106716762D01*
X127660154Y-106716767D01*
X127662477Y-106721749D01*
X127793802Y-106909300D01*
X127955700Y-107071198D01*
X127960208Y-107074355D01*
X127960211Y-107074357D01*
X128038389Y-107129098D01*
X128143251Y-107202523D01*
X128148233Y-107204846D01*
X128148238Y-107204849D01*
X128182457Y-107220805D01*
X128235742Y-107267722D01*
X128255203Y-107335999D01*
X128234661Y-107403959D01*
X128182457Y-107449195D01*
X128148238Y-107465151D01*
X128148233Y-107465154D01*
X128143251Y-107467477D01*
X128038389Y-107540902D01*
X127960211Y-107595643D01*
X127960208Y-107595645D01*
X127955700Y-107598802D01*
X127793802Y-107760700D01*
X127662477Y-107948251D01*
X127660154Y-107953233D01*
X127660151Y-107953238D01*
X127598688Y-108085048D01*
X127565716Y-108155757D01*
X127564294Y-108161065D01*
X127564293Y-108161067D01*
X127513802Y-108349500D01*
X127506457Y-108376913D01*
X127486502Y-108605000D01*
X127506457Y-108833087D01*
X127507881Y-108838400D01*
X127507881Y-108838402D01*
X127554426Y-109012107D01*
X127565716Y-109054243D01*
X127568039Y-109059224D01*
X127568039Y-109059225D01*
X127660151Y-109256762D01*
X127660154Y-109256767D01*
X127662477Y-109261749D01*
X127665634Y-109266257D01*
X127787864Y-109440819D01*
X127793802Y-109449300D01*
X127955700Y-109611198D01*
X127960208Y-109614355D01*
X127960211Y-109614357D01*
X128038389Y-109669098D01*
X128143251Y-109742523D01*
X128148233Y-109744846D01*
X128148238Y-109744849D01*
X128182457Y-109760805D01*
X128235742Y-109807722D01*
X128255203Y-109875999D01*
X128234661Y-109943959D01*
X128182457Y-109989195D01*
X128148238Y-110005151D01*
X128148233Y-110005154D01*
X128143251Y-110007477D01*
X128085193Y-110048130D01*
X127960211Y-110135643D01*
X127960208Y-110135645D01*
X127955700Y-110138802D01*
X127793802Y-110300700D01*
X127790645Y-110305208D01*
X127790643Y-110305211D01*
X127748358Y-110365600D01*
X127662477Y-110488251D01*
X127660154Y-110493233D01*
X127660151Y-110493238D01*
X127583245Y-110658165D01*
X127565716Y-110695757D01*
X127564294Y-110701065D01*
X127564293Y-110701067D01*
X127518645Y-110871427D01*
X127506457Y-110916913D01*
X127486502Y-111145000D01*
X127506457Y-111373087D01*
X127507881Y-111378400D01*
X127507881Y-111378402D01*
X127546713Y-111523322D01*
X127565716Y-111594243D01*
X127568039Y-111599224D01*
X127568039Y-111599225D01*
X127660151Y-111796762D01*
X127660154Y-111796767D01*
X127662477Y-111801749D01*
X127716035Y-111878238D01*
X127776550Y-111964661D01*
X127793802Y-111989300D01*
X127955700Y-112151198D01*
X127960208Y-112154355D01*
X127960211Y-112154357D01*
X127981972Y-112169594D01*
X128143251Y-112282523D01*
X128148233Y-112284846D01*
X128148238Y-112284849D01*
X128182457Y-112300805D01*
X128235742Y-112347722D01*
X128255203Y-112415999D01*
X128234661Y-112483959D01*
X128182457Y-112529195D01*
X128148238Y-112545151D01*
X128148233Y-112545154D01*
X128143251Y-112547477D01*
X128038389Y-112620902D01*
X127960211Y-112675643D01*
X127960208Y-112675645D01*
X127955700Y-112678802D01*
X127793802Y-112840700D01*
X127662477Y-113028251D01*
X127660154Y-113033233D01*
X127660151Y-113033238D01*
X127568039Y-113230775D01*
X127565716Y-113235757D01*
X127564294Y-113241065D01*
X127564293Y-113241067D01*
X127507881Y-113451598D01*
X127506457Y-113456913D01*
X127486502Y-113685000D01*
X127506457Y-113913087D01*
X127507881Y-113918400D01*
X127507881Y-113918402D01*
X127560934Y-114116395D01*
X127565716Y-114134243D01*
X127568039Y-114139224D01*
X127568039Y-114139225D01*
X127583129Y-114171586D01*
X127637064Y-114287249D01*
X127637064Y-114287250D01*
X127647725Y-114357442D01*
X127618745Y-114422255D01*
X127559325Y-114461111D01*
X127522869Y-114466500D01*
X124923768Y-114466500D01*
X124912585Y-114465973D01*
X124905092Y-114464298D01*
X124897166Y-114464547D01*
X124897165Y-114464547D01*
X124837002Y-114466438D01*
X124833044Y-114466500D01*
X124805144Y-114466500D01*
X124801154Y-114467004D01*
X124789320Y-114467936D01*
X124745111Y-114469326D01*
X124737497Y-114471538D01*
X124737492Y-114471539D01*
X124725659Y-114474977D01*
X124706296Y-114478988D01*
X124686203Y-114481526D01*
X124678836Y-114484443D01*
X124678831Y-114484444D01*
X124645092Y-114497802D01*
X124633865Y-114501646D01*
X124591407Y-114513982D01*
X124584581Y-114518019D01*
X124573972Y-114524293D01*
X124556224Y-114532988D01*
X124537383Y-114540448D01*
X124530967Y-114545110D01*
X124530966Y-114545110D01*
X124501613Y-114566436D01*
X124491693Y-114572952D01*
X124460465Y-114591420D01*
X124460462Y-114591422D01*
X124453638Y-114595458D01*
X124439317Y-114609779D01*
X124424284Y-114622619D01*
X124407893Y-114634528D01*
X124402842Y-114640634D01*
X124379702Y-114668605D01*
X124371712Y-114677384D01*
X122706589Y-116342506D01*
X122644277Y-116376532D01*
X122573461Y-116371467D01*
X122516626Y-116328920D01*
X122491815Y-116262400D01*
X122491974Y-116242428D01*
X122493019Y-116230485D01*
X122493019Y-116230475D01*
X122493498Y-116225000D01*
X122473543Y-115996913D01*
X122472117Y-115991591D01*
X122415707Y-115781067D01*
X122415706Y-115781065D01*
X122414284Y-115775757D01*
X122408027Y-115762339D01*
X122319849Y-115573238D01*
X122319846Y-115573233D01*
X122317523Y-115568251D01*
X122186198Y-115380700D01*
X122024300Y-115218802D01*
X122019792Y-115215645D01*
X122019789Y-115215643D01*
X121941611Y-115160902D01*
X121836749Y-115087477D01*
X121831767Y-115085154D01*
X121831762Y-115085151D01*
X121796951Y-115068919D01*
X121743666Y-115022002D01*
X121724205Y-114953725D01*
X121744747Y-114885765D01*
X121796951Y-114840529D01*
X121831511Y-114824414D01*
X121841007Y-114818931D01*
X122019467Y-114693972D01*
X122027875Y-114686916D01*
X122181916Y-114532875D01*
X122188972Y-114524467D01*
X122313931Y-114346007D01*
X122319414Y-114336511D01*
X122411490Y-114139053D01*
X122415236Y-114128761D01*
X122461394Y-113956497D01*
X122461058Y-113942401D01*
X122453116Y-113939000D01*
X121052000Y-113939000D01*
X120983879Y-113918998D01*
X120937386Y-113865342D01*
X120926000Y-113813000D01*
X120926000Y-113557000D01*
X120946002Y-113488879D01*
X120999658Y-113442386D01*
X121052000Y-113431000D01*
X122447967Y-113431000D01*
X122461498Y-113427027D01*
X122462727Y-113418478D01*
X122415236Y-113241239D01*
X122411490Y-113230947D01*
X122319414Y-113033489D01*
X122313931Y-113023993D01*
X122188972Y-112845533D01*
X122181916Y-112837125D01*
X122027875Y-112683084D01*
X122019467Y-112676028D01*
X121841007Y-112551069D01*
X121831511Y-112545586D01*
X121796951Y-112529471D01*
X121743666Y-112482554D01*
X121724205Y-112414277D01*
X121744747Y-112346317D01*
X121796951Y-112301081D01*
X121831762Y-112284849D01*
X121831767Y-112284846D01*
X121836749Y-112282523D01*
X121998028Y-112169594D01*
X122019789Y-112154357D01*
X122019792Y-112154355D01*
X122024300Y-112151198D01*
X122186198Y-111989300D01*
X122203451Y-111964661D01*
X122263965Y-111878238D01*
X122317523Y-111801749D01*
X122319846Y-111796767D01*
X122319849Y-111796762D01*
X122411961Y-111599225D01*
X122411961Y-111599224D01*
X122414284Y-111594243D01*
X122433288Y-111523322D01*
X122472119Y-111378402D01*
X122472119Y-111378400D01*
X122473543Y-111373087D01*
X122493498Y-111145000D01*
X122473543Y-110916913D01*
X122461355Y-110871427D01*
X122415707Y-110701067D01*
X122415706Y-110701065D01*
X122414284Y-110695757D01*
X122396755Y-110658165D01*
X122319849Y-110493238D01*
X122319846Y-110493233D01*
X122317523Y-110488251D01*
X122231642Y-110365600D01*
X122189357Y-110305211D01*
X122189355Y-110305208D01*
X122186198Y-110300700D01*
X122024300Y-110138802D01*
X122019792Y-110135645D01*
X122019789Y-110135643D01*
X121894807Y-110048130D01*
X121836749Y-110007477D01*
X121831767Y-110005154D01*
X121831762Y-110005151D01*
X121797543Y-109989195D01*
X121744258Y-109942278D01*
X121724797Y-109874001D01*
X121745339Y-109806041D01*
X121797543Y-109760805D01*
X121831762Y-109744849D01*
X121831767Y-109744846D01*
X121836749Y-109742523D01*
X121941611Y-109669098D01*
X122019789Y-109614357D01*
X122019792Y-109614355D01*
X122024300Y-109611198D01*
X122186198Y-109449300D01*
X122192137Y-109440819D01*
X122314366Y-109266257D01*
X122317523Y-109261749D01*
X122319846Y-109256767D01*
X122319849Y-109256762D01*
X122411961Y-109059225D01*
X122411961Y-109059224D01*
X122414284Y-109054243D01*
X122425575Y-109012107D01*
X122472119Y-108838402D01*
X122472119Y-108838400D01*
X122473543Y-108833087D01*
X122493498Y-108605000D01*
X122473543Y-108376913D01*
X122466198Y-108349500D01*
X122415707Y-108161067D01*
X122415706Y-108161065D01*
X122414284Y-108155757D01*
X122381312Y-108085048D01*
X122319849Y-107953238D01*
X122319846Y-107953233D01*
X122317523Y-107948251D01*
X122186198Y-107760700D01*
X122024300Y-107598802D01*
X122019792Y-107595645D01*
X122019789Y-107595643D01*
X121941611Y-107540902D01*
X121836749Y-107467477D01*
X121831767Y-107465154D01*
X121831762Y-107465151D01*
X121797543Y-107449195D01*
X121744258Y-107402278D01*
X121724797Y-107334001D01*
X121745339Y-107266041D01*
X121797543Y-107220805D01*
X121831762Y-107204849D01*
X121831767Y-107204846D01*
X121836749Y-107202523D01*
X121941611Y-107129098D01*
X122019789Y-107074357D01*
X122019792Y-107074355D01*
X122024300Y-107071198D01*
X122186198Y-106909300D01*
X122317523Y-106721749D01*
X122319846Y-106716767D01*
X122319849Y-106716762D01*
X122411961Y-106519225D01*
X122411961Y-106519224D01*
X122414284Y-106514243D01*
X122420402Y-106491413D01*
X122472119Y-106298402D01*
X122472119Y-106298400D01*
X122473543Y-106293087D01*
X122493498Y-106065000D01*
X122473543Y-105836913D01*
X122414284Y-105615757D01*
X122411961Y-105610775D01*
X122319849Y-105413238D01*
X122319846Y-105413233D01*
X122317523Y-105408251D01*
X122186198Y-105220700D01*
X122024300Y-105058802D01*
X122019792Y-105055645D01*
X122019789Y-105055643D01*
X121941611Y-105000902D01*
X121836749Y-104927477D01*
X121831767Y-104925154D01*
X121831762Y-104925151D01*
X121797543Y-104909195D01*
X121744258Y-104862278D01*
X121724797Y-104794001D01*
X121745339Y-104726041D01*
X121797543Y-104680805D01*
X121831762Y-104664849D01*
X121831767Y-104664846D01*
X121836749Y-104662523D01*
X121941611Y-104589098D01*
X122019789Y-104534357D01*
X122019792Y-104534355D01*
X122024300Y-104531198D01*
X122186198Y-104369300D01*
X122203451Y-104344661D01*
X122263965Y-104258238D01*
X122317523Y-104181749D01*
X122319846Y-104176767D01*
X122319849Y-104176762D01*
X122411961Y-103979225D01*
X122411961Y-103979224D01*
X122414284Y-103974243D01*
X122444942Y-103859829D01*
X122472119Y-103758402D01*
X122472119Y-103758400D01*
X122473543Y-103753087D01*
X122493498Y-103525000D01*
X122473543Y-103296913D01*
X122463291Y-103258652D01*
X122461911Y-103253503D01*
X127518606Y-103253503D01*
X127518942Y-103267599D01*
X127526884Y-103271000D01*
X128527885Y-103271000D01*
X128543124Y-103266525D01*
X128544329Y-103265135D01*
X128546000Y-103257452D01*
X128546000Y-102257033D01*
X128542027Y-102243502D01*
X128533478Y-102242273D01*
X128356239Y-102289764D01*
X128345947Y-102293510D01*
X128148489Y-102385586D01*
X128138993Y-102391069D01*
X127960533Y-102516028D01*
X127952125Y-102523084D01*
X127798084Y-102677125D01*
X127791028Y-102685533D01*
X127666069Y-102863993D01*
X127660586Y-102873489D01*
X127568510Y-103070947D01*
X127564764Y-103081239D01*
X127518606Y-103253503D01*
X122461911Y-103253503D01*
X122415707Y-103081067D01*
X122415706Y-103081065D01*
X122414284Y-103075757D01*
X122319966Y-102873489D01*
X122319849Y-102873238D01*
X122319846Y-102873233D01*
X122317523Y-102868251D01*
X122213281Y-102719378D01*
X122189357Y-102685211D01*
X122189355Y-102685208D01*
X122186198Y-102680700D01*
X122024300Y-102518802D01*
X122019792Y-102515645D01*
X122019789Y-102515643D01*
X121941611Y-102460902D01*
X121836749Y-102387477D01*
X121831767Y-102385154D01*
X121831762Y-102385151D01*
X121634225Y-102293039D01*
X121634224Y-102293039D01*
X121629243Y-102290716D01*
X121623935Y-102289294D01*
X121623933Y-102289293D01*
X121413402Y-102232881D01*
X121413400Y-102232881D01*
X121408087Y-102231457D01*
X121180000Y-102211502D01*
X120951913Y-102231457D01*
X120847110Y-102259539D01*
X120776135Y-102257849D01*
X120717339Y-102218055D01*
X120689391Y-102152791D01*
X120688500Y-102137832D01*
X120688500Y-99073142D01*
X120708502Y-99005021D01*
X120762158Y-98958528D01*
X120832432Y-98948424D01*
X120867750Y-98958947D01*
X120989409Y-99015677D01*
X121050757Y-99044284D01*
X121056065Y-99045706D01*
X121056067Y-99045707D01*
X121266598Y-99102119D01*
X121266600Y-99102119D01*
X121271913Y-99103543D01*
X121500000Y-99123498D01*
X121728087Y-99103543D01*
X121733400Y-99102119D01*
X121733402Y-99102119D01*
X121943933Y-99045707D01*
X121943935Y-99045706D01*
X121949243Y-99044284D01*
X121954225Y-99041961D01*
X122151762Y-98949849D01*
X122151767Y-98949846D01*
X122156749Y-98947523D01*
X122332675Y-98824338D01*
X122339789Y-98819357D01*
X122339792Y-98819355D01*
X122344300Y-98816198D01*
X122506198Y-98654300D01*
X122637523Y-98466749D01*
X122639846Y-98461767D01*
X122639849Y-98461762D01*
X122731961Y-98264225D01*
X122731961Y-98264224D01*
X122734284Y-98259243D01*
X122793543Y-98038087D01*
X122813498Y-97810000D01*
X122793543Y-97581913D01*
X122792119Y-97576598D01*
X122735707Y-97366067D01*
X122735706Y-97366065D01*
X122734284Y-97360757D01*
X122724346Y-97339445D01*
X122639849Y-97158238D01*
X122639846Y-97158233D01*
X122637523Y-97153251D01*
X122558497Y-97040391D01*
X122509357Y-96970211D01*
X122509355Y-96970208D01*
X122506198Y-96965700D01*
X122344300Y-96803802D01*
X122339792Y-96800645D01*
X122339789Y-96800643D01*
X122261611Y-96745902D01*
X122156749Y-96672477D01*
X122151767Y-96670154D01*
X122151762Y-96670151D01*
X121954225Y-96578039D01*
X121954224Y-96578039D01*
X121949243Y-96575716D01*
X121943935Y-96574294D01*
X121943933Y-96574293D01*
X121733402Y-96517881D01*
X121733400Y-96517881D01*
X121728087Y-96516457D01*
X121500000Y-96496502D01*
X121271913Y-96516457D01*
X121266600Y-96517881D01*
X121266598Y-96517881D01*
X121056067Y-96574293D01*
X121056065Y-96574294D01*
X121050757Y-96575716D01*
X121045776Y-96578039D01*
X121045775Y-96578039D01*
X120867750Y-96661053D01*
X120797558Y-96671714D01*
X120732745Y-96642734D01*
X120693889Y-96583314D01*
X120688500Y-96546858D01*
X120688500Y-91453142D01*
X120708502Y-91385021D01*
X120762158Y-91338528D01*
X120832432Y-91328424D01*
X120867750Y-91338947D01*
X121050757Y-91424284D01*
X121056065Y-91425706D01*
X121056067Y-91425707D01*
X121266598Y-91482119D01*
X121266600Y-91482119D01*
X121271913Y-91483543D01*
X121500000Y-91503498D01*
X121728087Y-91483543D01*
X121733400Y-91482119D01*
X121733402Y-91482119D01*
X121943933Y-91425707D01*
X121943935Y-91425706D01*
X121949243Y-91424284D01*
X121954225Y-91421961D01*
X122151762Y-91329849D01*
X122151767Y-91329846D01*
X122156749Y-91327523D01*
X122287009Y-91236314D01*
X122339789Y-91199357D01*
X122339792Y-91199355D01*
X122344300Y-91196198D01*
X122506198Y-91034300D01*
X122557582Y-90960917D01*
X122619973Y-90871813D01*
X122637523Y-90846749D01*
X122639846Y-90841767D01*
X122639849Y-90841762D01*
X122731961Y-90644225D01*
X122731961Y-90644224D01*
X122734284Y-90639243D01*
X122740981Y-90614252D01*
X122792119Y-90423402D01*
X122792120Y-90423399D01*
X122793543Y-90418087D01*
X122813498Y-90190000D01*
X122793543Y-89961913D01*
X122792119Y-89956598D01*
X122792118Y-89956591D01*
X122776541Y-89898459D01*
X122778230Y-89827483D01*
X122809152Y-89776752D01*
X123261086Y-89324818D01*
X123269376Y-89317274D01*
X123275857Y-89313161D01*
X123322498Y-89263493D01*
X123325252Y-89260652D01*
X123344974Y-89240930D01*
X123347451Y-89237737D01*
X123355156Y-89228716D01*
X123379998Y-89202261D01*
X123385425Y-89196482D01*
X123389246Y-89189532D01*
X123395185Y-89178729D01*
X123406041Y-89162202D01*
X123413596Y-89152463D01*
X123413597Y-89152461D01*
X123418453Y-89146201D01*
X123436013Y-89105621D01*
X123441230Y-89094973D01*
X123458714Y-89063170D01*
X123458715Y-89063168D01*
X123462534Y-89056221D01*
X123467572Y-89036598D01*
X123473976Y-89017895D01*
X123478872Y-89006581D01*
X123478872Y-89006580D01*
X123482020Y-88999306D01*
X123483259Y-88991483D01*
X123483262Y-88991473D01*
X123488938Y-88955637D01*
X123491344Y-88944017D01*
X123500367Y-88908872D01*
X123500367Y-88908871D01*
X123502339Y-88901191D01*
X123502339Y-88880937D01*
X123503890Y-88861226D01*
X123505819Y-88849047D01*
X123507059Y-88841218D01*
X123502898Y-88797199D01*
X123502339Y-88785342D01*
X123502339Y-80172607D01*
X123502866Y-80161424D01*
X123504541Y-80153931D01*
X123502401Y-80085840D01*
X123502339Y-80081883D01*
X123502339Y-80053983D01*
X123501835Y-80049992D01*
X123500902Y-80038150D01*
X123499762Y-80001875D01*
X123499513Y-79993950D01*
X123495098Y-79978754D01*
X123493860Y-79974491D01*
X123489851Y-79955132D01*
X123489685Y-79953822D01*
X123487313Y-79935042D01*
X123484397Y-79927676D01*
X123484395Y-79927670D01*
X123471039Y-79893937D01*
X123467194Y-79882707D01*
X123457069Y-79847856D01*
X123457069Y-79847855D01*
X123454858Y-79840246D01*
X123444544Y-79822805D01*
X123435847Y-79805052D01*
X123431311Y-79793597D01*
X123428391Y-79786222D01*
X123402402Y-79750451D01*
X123395886Y-79740531D01*
X123377417Y-79709302D01*
X123373381Y-79702477D01*
X123359060Y-79688156D01*
X123346219Y-79673122D01*
X123338970Y-79663145D01*
X123334311Y-79656732D01*
X123300234Y-79628541D01*
X123291455Y-79620551D01*
X122895405Y-79224501D01*
X122861379Y-79162189D01*
X122858500Y-79135406D01*
X122858500Y-77826866D01*
X122851745Y-77764684D01*
X122800615Y-77628295D01*
X122713261Y-77511739D01*
X122596705Y-77424385D01*
X122460316Y-77373255D01*
X122398134Y-77366500D01*
X120814500Y-77366500D01*
X120746379Y-77346498D01*
X120699886Y-77292842D01*
X120688500Y-77240500D01*
X120688500Y-76632323D01*
X128986835Y-76632323D01*
X129005465Y-76869034D01*
X129060895Y-77099917D01*
X129062788Y-77104488D01*
X129062789Y-77104490D01*
X129140807Y-77292842D01*
X129151760Y-77319286D01*
X129154346Y-77323506D01*
X129273241Y-77517525D01*
X129273245Y-77517531D01*
X129275824Y-77521739D01*
X129430031Y-77702292D01*
X129610584Y-77856499D01*
X129614792Y-77859078D01*
X129614798Y-77859082D01*
X129776699Y-77958295D01*
X129813037Y-77980563D01*
X129817607Y-77982456D01*
X129817611Y-77982458D01*
X130027833Y-78069534D01*
X130032406Y-78071428D01*
X130098455Y-78087285D01*
X130258476Y-78125703D01*
X130258482Y-78125704D01*
X130263289Y-78126858D01*
X130500000Y-78145488D01*
X130736711Y-78126858D01*
X130741518Y-78125704D01*
X130741524Y-78125703D01*
X130901545Y-78087285D01*
X130967594Y-78071428D01*
X130972167Y-78069534D01*
X131182389Y-77982458D01*
X131182393Y-77982456D01*
X131186963Y-77980563D01*
X131223301Y-77958295D01*
X131385202Y-77859082D01*
X131385208Y-77859078D01*
X131389416Y-77856499D01*
X131569969Y-77702292D01*
X131724176Y-77521739D01*
X131726755Y-77517531D01*
X131726759Y-77517525D01*
X131845654Y-77323506D01*
X131848240Y-77319286D01*
X131859194Y-77292842D01*
X131937211Y-77104490D01*
X131937212Y-77104488D01*
X131939105Y-77099917D01*
X131994535Y-76869034D01*
X132013165Y-76632323D01*
X131994535Y-76395612D01*
X131939105Y-76164729D01*
X131848240Y-75945360D01*
X131845654Y-75941140D01*
X131726759Y-75747121D01*
X131726755Y-75747115D01*
X131724176Y-75742907D01*
X131569969Y-75562354D01*
X131389416Y-75408147D01*
X131385208Y-75405568D01*
X131385202Y-75405564D01*
X131191183Y-75286669D01*
X131186963Y-75284083D01*
X131182393Y-75282190D01*
X131182389Y-75282188D01*
X130972167Y-75195112D01*
X130972165Y-75195111D01*
X130967594Y-75193218D01*
X130887391Y-75173963D01*
X130741524Y-75138943D01*
X130741518Y-75138942D01*
X130736711Y-75137788D01*
X130500000Y-75119158D01*
X130263289Y-75137788D01*
X130258482Y-75138942D01*
X130258476Y-75138943D01*
X130112609Y-75173963D01*
X130032406Y-75193218D01*
X130027835Y-75195111D01*
X130027833Y-75195112D01*
X129817611Y-75282188D01*
X129817607Y-75282190D01*
X129813037Y-75284083D01*
X129808817Y-75286669D01*
X129614798Y-75405564D01*
X129614792Y-75405568D01*
X129610584Y-75408147D01*
X129430031Y-75562354D01*
X129275824Y-75742907D01*
X129273245Y-75747115D01*
X129273241Y-75747121D01*
X129154346Y-75941140D01*
X129151760Y-75945360D01*
X129060895Y-76164729D01*
X129005465Y-76395612D01*
X128986835Y-76632323D01*
X120688500Y-76632323D01*
X120688500Y-74438883D01*
X120708502Y-74370762D01*
X120762158Y-74324269D01*
X120832432Y-74314165D01*
X120878071Y-74330096D01*
X120911000Y-74349338D01*
X121119692Y-74429030D01*
X121124760Y-74430061D01*
X121124763Y-74430062D01*
X121232017Y-74451883D01*
X121338597Y-74473567D01*
X121343772Y-74473757D01*
X121343774Y-74473757D01*
X121556673Y-74481564D01*
X121556677Y-74481564D01*
X121561837Y-74481753D01*
X121566957Y-74481097D01*
X121566959Y-74481097D01*
X121778288Y-74454025D01*
X121778289Y-74454025D01*
X121783416Y-74453368D01*
X121859102Y-74430661D01*
X121992429Y-74390661D01*
X121992434Y-74390659D01*
X121997384Y-74389174D01*
X122197994Y-74290896D01*
X122339446Y-74190000D01*
X165686502Y-74190000D01*
X165706457Y-74418087D01*
X165707881Y-74423400D01*
X165707881Y-74423402D01*
X165734059Y-74521097D01*
X165765716Y-74639243D01*
X165768039Y-74644224D01*
X165768039Y-74644225D01*
X165860151Y-74841762D01*
X165860154Y-74841767D01*
X165862477Y-74846749D01*
X165993802Y-75034300D01*
X166155700Y-75196198D01*
X166160208Y-75199355D01*
X166160211Y-75199357D01*
X166238389Y-75254098D01*
X166343251Y-75327523D01*
X166348233Y-75329846D01*
X166348238Y-75329849D01*
X166523037Y-75411358D01*
X166550757Y-75424284D01*
X166556065Y-75425706D01*
X166556067Y-75425707D01*
X166766598Y-75482119D01*
X166766600Y-75482119D01*
X166771913Y-75483543D01*
X167000000Y-75503498D01*
X167228087Y-75483543D01*
X167233400Y-75482119D01*
X167233402Y-75482119D01*
X167443933Y-75425707D01*
X167443935Y-75425706D01*
X167449243Y-75424284D01*
X167476963Y-75411358D01*
X167651762Y-75329849D01*
X167651767Y-75329846D01*
X167656749Y-75327523D01*
X167761611Y-75254098D01*
X167839789Y-75199357D01*
X167839792Y-75199355D01*
X167844300Y-75196198D01*
X168006198Y-75034300D01*
X168137523Y-74846749D01*
X168139846Y-74841767D01*
X168139849Y-74841762D01*
X168231961Y-74644225D01*
X168231961Y-74644224D01*
X168234284Y-74639243D01*
X168265942Y-74521097D01*
X168292119Y-74423402D01*
X168292119Y-74423400D01*
X168293543Y-74418087D01*
X168313498Y-74190000D01*
X168686502Y-74190000D01*
X168706457Y-74418087D01*
X168707881Y-74423400D01*
X168707881Y-74423402D01*
X168734059Y-74521097D01*
X168765716Y-74639243D01*
X168768039Y-74644224D01*
X168768039Y-74644225D01*
X168860151Y-74841762D01*
X168860154Y-74841767D01*
X168862477Y-74846749D01*
X168993802Y-75034300D01*
X169155700Y-75196198D01*
X169160208Y-75199355D01*
X169160211Y-75199357D01*
X169238389Y-75254098D01*
X169343251Y-75327523D01*
X169348233Y-75329846D01*
X169348238Y-75329849D01*
X169523037Y-75411358D01*
X169550757Y-75424284D01*
X169556065Y-75425706D01*
X169556067Y-75425707D01*
X169766598Y-75482119D01*
X169766600Y-75482119D01*
X169771913Y-75483543D01*
X170000000Y-75503498D01*
X170228087Y-75483543D01*
X170233400Y-75482119D01*
X170233402Y-75482119D01*
X170443933Y-75425707D01*
X170443935Y-75425706D01*
X170449243Y-75424284D01*
X170476963Y-75411358D01*
X170651762Y-75329849D01*
X170651767Y-75329846D01*
X170656749Y-75327523D01*
X170761611Y-75254098D01*
X170839789Y-75199357D01*
X170839792Y-75199355D01*
X170844300Y-75196198D01*
X171006198Y-75034300D01*
X171137523Y-74846749D01*
X171139846Y-74841767D01*
X171139849Y-74841762D01*
X171231961Y-74644225D01*
X171231961Y-74644224D01*
X171234284Y-74639243D01*
X171265942Y-74521097D01*
X171292119Y-74423402D01*
X171292119Y-74423400D01*
X171293543Y-74418087D01*
X171313498Y-74190000D01*
X171293543Y-73961913D01*
X171292119Y-73956598D01*
X171235707Y-73746067D01*
X171235706Y-73746065D01*
X171234284Y-73740757D01*
X171169374Y-73601556D01*
X171139849Y-73538238D01*
X171139846Y-73538233D01*
X171137523Y-73533251D01*
X171053338Y-73413023D01*
X171009357Y-73350211D01*
X171009355Y-73350208D01*
X171006198Y-73345700D01*
X170844300Y-73183802D01*
X170839792Y-73180645D01*
X170839789Y-73180643D01*
X170753182Y-73120000D01*
X170656749Y-73052477D01*
X170651767Y-73050154D01*
X170651762Y-73050151D01*
X170454225Y-72958039D01*
X170454224Y-72958039D01*
X170449243Y-72955716D01*
X170443935Y-72954294D01*
X170443933Y-72954293D01*
X170233402Y-72897881D01*
X170233400Y-72897881D01*
X170228087Y-72896457D01*
X170000000Y-72876502D01*
X169771913Y-72896457D01*
X169766600Y-72897881D01*
X169766598Y-72897881D01*
X169556067Y-72954293D01*
X169556065Y-72954294D01*
X169550757Y-72955716D01*
X169545776Y-72958039D01*
X169545775Y-72958039D01*
X169348238Y-73050151D01*
X169348233Y-73050154D01*
X169343251Y-73052477D01*
X169246818Y-73120000D01*
X169160211Y-73180643D01*
X169160208Y-73180645D01*
X169155700Y-73183802D01*
X168993802Y-73345700D01*
X168990645Y-73350208D01*
X168990643Y-73350211D01*
X168946662Y-73413023D01*
X168862477Y-73533251D01*
X168860154Y-73538233D01*
X168860151Y-73538238D01*
X168830626Y-73601556D01*
X168765716Y-73740757D01*
X168764294Y-73746065D01*
X168764293Y-73746067D01*
X168707881Y-73956598D01*
X168706457Y-73961913D01*
X168686502Y-74190000D01*
X168313498Y-74190000D01*
X168293543Y-73961913D01*
X168292119Y-73956598D01*
X168235707Y-73746067D01*
X168235706Y-73746065D01*
X168234284Y-73740757D01*
X168169374Y-73601556D01*
X168139849Y-73538238D01*
X168139846Y-73538233D01*
X168137523Y-73533251D01*
X168053338Y-73413023D01*
X168009357Y-73350211D01*
X168009355Y-73350208D01*
X168006198Y-73345700D01*
X167844300Y-73183802D01*
X167839792Y-73180645D01*
X167839789Y-73180643D01*
X167753182Y-73120000D01*
X167656749Y-73052477D01*
X167651767Y-73050154D01*
X167651762Y-73050151D01*
X167454225Y-72958039D01*
X167454224Y-72958039D01*
X167449243Y-72955716D01*
X167443935Y-72954294D01*
X167443933Y-72954293D01*
X167233402Y-72897881D01*
X167233400Y-72897881D01*
X167228087Y-72896457D01*
X167000000Y-72876502D01*
X166771913Y-72896457D01*
X166766600Y-72897881D01*
X166766598Y-72897881D01*
X166556067Y-72954293D01*
X166556065Y-72954294D01*
X166550757Y-72955716D01*
X166545776Y-72958039D01*
X166545775Y-72958039D01*
X166348238Y-73050151D01*
X166348233Y-73050154D01*
X166343251Y-73052477D01*
X166246818Y-73120000D01*
X166160211Y-73180643D01*
X166160208Y-73180645D01*
X166155700Y-73183802D01*
X165993802Y-73345700D01*
X165990645Y-73350208D01*
X165990643Y-73350211D01*
X165946662Y-73413023D01*
X165862477Y-73533251D01*
X165860154Y-73538233D01*
X165860151Y-73538238D01*
X165830626Y-73601556D01*
X165765716Y-73740757D01*
X165764294Y-73746065D01*
X165764293Y-73746067D01*
X165707881Y-73956598D01*
X165706457Y-73961913D01*
X165686502Y-74190000D01*
X122339446Y-74190000D01*
X122379860Y-74161173D01*
X122402613Y-74138500D01*
X122534435Y-74007137D01*
X122538096Y-74003489D01*
X122564034Y-73967393D01*
X122665435Y-73826277D01*
X122668453Y-73822077D01*
X122694276Y-73769829D01*
X122765136Y-73626453D01*
X122765137Y-73626451D01*
X122767430Y-73621811D01*
X122832370Y-73408069D01*
X122861529Y-73186590D01*
X122862656Y-73140454D01*
X122863074Y-73123365D01*
X122863074Y-73123361D01*
X122863156Y-73120000D01*
X122844852Y-72897361D01*
X122816821Y-72785766D01*
X122819625Y-72714825D01*
X122840946Y-72680457D01*
X128991500Y-72680457D01*
X128998255Y-72742639D01*
X129049385Y-72879028D01*
X129136739Y-72995584D01*
X129253295Y-73082938D01*
X129389684Y-73134068D01*
X129451866Y-73140823D01*
X131548134Y-73140823D01*
X131610316Y-73134068D01*
X131746705Y-73082938D01*
X131863261Y-72995584D01*
X131950615Y-72879028D01*
X132001745Y-72742639D01*
X132008500Y-72680457D01*
X132008500Y-70584189D01*
X132001745Y-70522007D01*
X131950615Y-70385618D01*
X131863261Y-70269062D01*
X131746705Y-70181708D01*
X131610316Y-70130578D01*
X131548134Y-70123823D01*
X129451866Y-70123823D01*
X129389684Y-70130578D01*
X129253295Y-70181708D01*
X129136739Y-70269062D01*
X129049385Y-70385618D01*
X128998255Y-70522007D01*
X128991500Y-70584189D01*
X128991500Y-72680457D01*
X122840946Y-72680457D01*
X122849930Y-72665975D01*
X123067253Y-72448652D01*
X123075539Y-72441112D01*
X123082018Y-72437000D01*
X123128644Y-72387348D01*
X123131398Y-72384507D01*
X123151135Y-72364770D01*
X123153615Y-72361573D01*
X123161320Y-72352551D01*
X123186159Y-72326100D01*
X123191586Y-72320321D01*
X123195405Y-72313375D01*
X123195407Y-72313372D01*
X123201348Y-72302566D01*
X123212199Y-72286047D01*
X123219758Y-72276301D01*
X123224614Y-72270041D01*
X123227759Y-72262772D01*
X123227762Y-72262768D01*
X123242174Y-72229463D01*
X123247391Y-72218813D01*
X123268695Y-72180060D01*
X123273733Y-72160437D01*
X123280137Y-72141734D01*
X123285033Y-72130420D01*
X123285033Y-72130419D01*
X123288181Y-72123145D01*
X123289420Y-72115322D01*
X123289423Y-72115312D01*
X123295099Y-72079476D01*
X123297505Y-72067856D01*
X123306528Y-72032711D01*
X123306528Y-72032710D01*
X123308500Y-72025030D01*
X123308500Y-72004776D01*
X123310051Y-71985065D01*
X123311980Y-71972886D01*
X123313220Y-71965057D01*
X123309059Y-71921038D01*
X123308500Y-71909181D01*
X123308500Y-67632067D01*
X123309027Y-67620884D01*
X123310702Y-67613391D01*
X123308562Y-67545300D01*
X123308500Y-67541343D01*
X123308500Y-67513443D01*
X123307996Y-67509452D01*
X123307063Y-67497610D01*
X123305923Y-67461335D01*
X123305674Y-67453410D01*
X123303462Y-67445796D01*
X123303461Y-67445791D01*
X123300023Y-67433958D01*
X123296012Y-67414594D01*
X123294467Y-67402363D01*
X123293474Y-67394502D01*
X123290557Y-67387135D01*
X123290556Y-67387130D01*
X123277198Y-67353391D01*
X123273354Y-67342164D01*
X123263230Y-67307321D01*
X123261018Y-67299706D01*
X123250707Y-67282271D01*
X123242012Y-67264523D01*
X123234552Y-67245682D01*
X123208564Y-67209912D01*
X123202048Y-67199992D01*
X123183580Y-67168764D01*
X123183578Y-67168761D01*
X123179542Y-67161937D01*
X123165221Y-67147616D01*
X123152380Y-67132582D01*
X123145132Y-67122606D01*
X123140472Y-67116192D01*
X123106407Y-67088011D01*
X123097626Y-67080021D01*
X122556505Y-66538899D01*
X122522480Y-66476587D01*
X122527545Y-66405771D01*
X122543278Y-66376278D01*
X122665435Y-66206277D01*
X122668453Y-66202077D01*
X122694276Y-66149829D01*
X122765136Y-66006453D01*
X122765137Y-66006451D01*
X122767430Y-66001811D01*
X122832370Y-65788069D01*
X122861529Y-65566590D01*
X122861611Y-65563240D01*
X122863074Y-65503365D01*
X122863074Y-65503361D01*
X122863156Y-65500000D01*
X122844852Y-65277361D01*
X122790431Y-65060702D01*
X122701354Y-64855840D01*
X122603420Y-64704457D01*
X122582822Y-64672617D01*
X122582820Y-64672614D01*
X122580014Y-64668277D01*
X122429670Y-64503051D01*
X122425619Y-64499852D01*
X122425615Y-64499848D01*
X122258414Y-64367800D01*
X122258410Y-64367798D01*
X122254359Y-64364598D01*
X122212569Y-64341529D01*
X122162598Y-64291097D01*
X122147826Y-64221654D01*
X122172942Y-64155248D01*
X122200294Y-64128641D01*
X122259988Y-64086062D01*
X131278493Y-64086062D01*
X131287789Y-64098077D01*
X131338994Y-64133931D01*
X131348489Y-64139414D01*
X131545947Y-64231490D01*
X131556239Y-64235236D01*
X131766688Y-64291625D01*
X131777481Y-64293528D01*
X131994525Y-64312517D01*
X132005475Y-64312517D01*
X132222519Y-64293528D01*
X132233312Y-64291625D01*
X132443761Y-64235236D01*
X132454053Y-64231490D01*
X132651511Y-64139414D01*
X132661006Y-64133931D01*
X132713048Y-64097491D01*
X132721424Y-64087012D01*
X132714356Y-64073566D01*
X132012812Y-63372022D01*
X131998868Y-63364408D01*
X131997035Y-63364539D01*
X131990420Y-63368790D01*
X131284923Y-64074287D01*
X131278493Y-64086062D01*
X122259988Y-64086062D01*
X122375328Y-64003792D01*
X122383200Y-63997139D01*
X122534052Y-63846812D01*
X122540730Y-63838965D01*
X122665003Y-63666020D01*
X122670313Y-63657183D01*
X122683278Y-63630950D01*
X126278493Y-63630950D01*
X126287789Y-63642965D01*
X126338994Y-63678819D01*
X126348489Y-63684302D01*
X126545947Y-63776378D01*
X126556239Y-63780124D01*
X126766688Y-63836513D01*
X126777481Y-63838416D01*
X126994525Y-63857405D01*
X127005475Y-63857405D01*
X127222519Y-63838416D01*
X127233312Y-63836513D01*
X127443761Y-63780124D01*
X127454053Y-63776378D01*
X127651511Y-63684302D01*
X127661006Y-63678819D01*
X127713048Y-63642379D01*
X127721424Y-63631900D01*
X127714356Y-63618454D01*
X127012812Y-62916910D01*
X126998868Y-62909296D01*
X126997035Y-62909427D01*
X126990420Y-62913678D01*
X126284923Y-63619175D01*
X126278493Y-63630950D01*
X122683278Y-63630950D01*
X122764670Y-63466267D01*
X122768469Y-63456672D01*
X122830377Y-63252910D01*
X122832555Y-63242837D01*
X122833986Y-63231962D01*
X122831775Y-63217778D01*
X122818617Y-63214000D01*
X120183225Y-63214000D01*
X120169694Y-63217973D01*
X120168257Y-63227966D01*
X120198565Y-63362446D01*
X120201645Y-63372275D01*
X120281770Y-63569603D01*
X120286413Y-63578794D01*
X120397694Y-63760388D01*
X120403777Y-63768699D01*
X120543213Y-63929667D01*
X120550580Y-63936883D01*
X120714434Y-64072916D01*
X120722881Y-64078831D01*
X120791969Y-64119203D01*
X120840693Y-64170842D01*
X120853764Y-64240625D01*
X120827033Y-64306396D01*
X120786584Y-64339752D01*
X120773607Y-64346507D01*
X120769474Y-64349610D01*
X120769471Y-64349612D01*
X120691972Y-64407800D01*
X120594965Y-64480635D01*
X120440629Y-64642138D01*
X120314743Y-64826680D01*
X120220688Y-65029305D01*
X120160989Y-65244570D01*
X120137251Y-65466695D01*
X120137548Y-65471848D01*
X120137548Y-65471851D01*
X120143011Y-65566590D01*
X120150110Y-65689715D01*
X120151247Y-65694761D01*
X120151248Y-65694767D01*
X120160263Y-65734767D01*
X120199222Y-65907639D01*
X120283266Y-66114616D01*
X120285966Y-66119022D01*
X120285968Y-66119026D01*
X120347274Y-66219070D01*
X120365812Y-66287603D01*
X120344355Y-66355280D01*
X120328936Y-66373999D01*
X120328156Y-66374779D01*
X120313123Y-66387619D01*
X120296732Y-66399528D01*
X120280382Y-66419292D01*
X120268541Y-66433605D01*
X120260551Y-66442384D01*
X118762747Y-67940187D01*
X118754461Y-67947727D01*
X118747982Y-67951839D01*
X118742557Y-67957616D01*
X118701357Y-68001490D01*
X118698602Y-68004332D01*
X118678865Y-68024069D01*
X118676385Y-68027266D01*
X118668682Y-68036286D01*
X118638414Y-68068518D01*
X118634595Y-68075464D01*
X118634593Y-68075467D01*
X118628652Y-68086273D01*
X118617801Y-68102792D01*
X118605386Y-68118798D01*
X118602241Y-68126067D01*
X118602238Y-68126071D01*
X118587826Y-68159376D01*
X118582609Y-68170026D01*
X118561305Y-68208779D01*
X118559334Y-68216454D01*
X118559334Y-68216455D01*
X118556267Y-68228401D01*
X118549863Y-68247105D01*
X118541819Y-68265694D01*
X118540580Y-68273517D01*
X118540577Y-68273527D01*
X118534901Y-68309363D01*
X118532495Y-68320983D01*
X118523472Y-68356128D01*
X118521500Y-68363809D01*
X118521500Y-68384063D01*
X118519949Y-68403773D01*
X118516780Y-68423782D01*
X116008500Y-68423782D01*
X116008500Y-61318134D01*
X120141500Y-61318134D01*
X120148255Y-61380316D01*
X120199385Y-61516705D01*
X120286739Y-61633261D01*
X120403295Y-61720615D01*
X120411704Y-61723767D01*
X120411705Y-61723768D01*
X120520960Y-61764726D01*
X120577725Y-61807367D01*
X120602425Y-61873929D01*
X120587218Y-61943278D01*
X120567825Y-61969759D01*
X120444590Y-62098717D01*
X120438104Y-62106727D01*
X120318098Y-62282649D01*
X120313000Y-62291623D01*
X120223338Y-62484783D01*
X120219775Y-62494470D01*
X120164389Y-62694183D01*
X120165912Y-62702607D01*
X120178292Y-62706000D01*
X122818344Y-62706000D01*
X122831875Y-62702027D01*
X122833180Y-62692947D01*
X122797365Y-62550363D01*
X125687483Y-62550363D01*
X125706472Y-62767407D01*
X125708375Y-62778200D01*
X125764764Y-62988649D01*
X125768510Y-62998941D01*
X125860586Y-63196399D01*
X125866069Y-63205894D01*
X125902509Y-63257936D01*
X125912988Y-63266312D01*
X125926434Y-63259244D01*
X126910905Y-62274773D01*
X126973217Y-62240747D01*
X127044032Y-62245812D01*
X127089095Y-62274773D01*
X128074287Y-63259965D01*
X128086062Y-63266395D01*
X128098077Y-63257099D01*
X128133931Y-63205894D01*
X128139414Y-63196399D01*
X128228443Y-63005475D01*
X130687483Y-63005475D01*
X130706472Y-63222519D01*
X130708375Y-63233312D01*
X130764764Y-63443761D01*
X130768510Y-63454053D01*
X130860586Y-63651511D01*
X130866069Y-63661006D01*
X130902509Y-63713048D01*
X130912988Y-63721424D01*
X130926434Y-63714356D01*
X131627978Y-63012812D01*
X131634356Y-63001132D01*
X132364408Y-63001132D01*
X132364539Y-63002965D01*
X132368790Y-63009580D01*
X133074287Y-63715077D01*
X133086062Y-63721507D01*
X133098077Y-63712211D01*
X133133931Y-63661006D01*
X133139414Y-63651511D01*
X133231490Y-63454053D01*
X133235236Y-63443761D01*
X133291625Y-63233312D01*
X133293528Y-63222519D01*
X133312517Y-63005475D01*
X133312517Y-62994525D01*
X133293528Y-62777481D01*
X133291625Y-62766688D01*
X133235236Y-62556239D01*
X133231490Y-62545947D01*
X133139414Y-62348489D01*
X133133931Y-62338994D01*
X133097491Y-62286952D01*
X133087012Y-62278576D01*
X133073566Y-62285644D01*
X132372022Y-62987188D01*
X132364408Y-63001132D01*
X131634356Y-63001132D01*
X131635592Y-62998868D01*
X131635461Y-62997035D01*
X131631210Y-62990420D01*
X130925713Y-62284923D01*
X130913938Y-62278493D01*
X130901923Y-62287789D01*
X130866069Y-62338994D01*
X130860586Y-62348489D01*
X130768510Y-62545947D01*
X130764764Y-62556239D01*
X130708375Y-62766688D01*
X130706472Y-62777481D01*
X130687483Y-62994525D01*
X130687483Y-63005475D01*
X128228443Y-63005475D01*
X128231490Y-62998941D01*
X128235236Y-62988649D01*
X128291625Y-62778200D01*
X128293528Y-62767407D01*
X128312517Y-62550363D01*
X128312517Y-62539413D01*
X128293528Y-62322369D01*
X128291625Y-62311576D01*
X128235236Y-62101127D01*
X128231490Y-62090835D01*
X128139414Y-61893377D01*
X128133929Y-61883877D01*
X128133299Y-61882978D01*
X128133144Y-61882518D01*
X128131182Y-61879120D01*
X128131865Y-61878726D01*
X128110612Y-61815704D01*
X128127898Y-61746844D01*
X128150934Y-61721085D01*
X128149730Y-61719881D01*
X128156081Y-61713530D01*
X128163261Y-61708149D01*
X128168642Y-61700969D01*
X128168645Y-61700966D01*
X128218556Y-61634369D01*
X128250615Y-61591593D01*
X128301745Y-61455204D01*
X128308500Y-61393022D01*
X128308500Y-60500000D01*
X130686502Y-60500000D01*
X130706457Y-60728087D01*
X130765716Y-60949243D01*
X130768039Y-60954224D01*
X130768039Y-60954225D01*
X130860151Y-61151762D01*
X130860154Y-61151767D01*
X130862477Y-61156749D01*
X130865634Y-61161257D01*
X130973088Y-61314717D01*
X130993802Y-61344300D01*
X131155700Y-61506198D01*
X131160208Y-61509355D01*
X131160211Y-61509357D01*
X131180968Y-61523891D01*
X131343251Y-61637523D01*
X131348235Y-61639847D01*
X131350528Y-61641171D01*
X131399521Y-61692553D01*
X131412957Y-61762267D01*
X131386571Y-61828178D01*
X131350528Y-61859409D01*
X131338998Y-61866066D01*
X131286952Y-61902509D01*
X131278576Y-61912988D01*
X131285644Y-61926434D01*
X131987188Y-62627978D01*
X132001132Y-62635592D01*
X132002965Y-62635461D01*
X132009580Y-62631210D01*
X132715077Y-61925713D01*
X132721507Y-61913938D01*
X132712211Y-61901923D01*
X132661002Y-61866066D01*
X132649472Y-61859409D01*
X132600479Y-61808027D01*
X132587042Y-61738313D01*
X132613429Y-61672402D01*
X132649472Y-61641171D01*
X132651765Y-61639847D01*
X132656749Y-61637523D01*
X132819032Y-61523891D01*
X132839789Y-61509357D01*
X132839792Y-61509355D01*
X132844300Y-61506198D01*
X132992364Y-61358134D01*
X178641500Y-61358134D01*
X178648255Y-61420316D01*
X178699385Y-61556705D01*
X178786739Y-61673261D01*
X178903295Y-61760615D01*
X178911704Y-61763767D01*
X178911705Y-61763768D01*
X179020960Y-61804726D01*
X179077725Y-61847367D01*
X179102425Y-61913929D01*
X179087218Y-61983278D01*
X179067825Y-62009759D01*
X178944590Y-62138717D01*
X178938104Y-62146727D01*
X178818098Y-62322649D01*
X178813000Y-62331623D01*
X178723338Y-62524783D01*
X178719775Y-62534470D01*
X178664389Y-62734183D01*
X178665912Y-62742607D01*
X178678292Y-62746000D01*
X181318344Y-62746000D01*
X181331875Y-62742027D01*
X181333180Y-62732947D01*
X181291214Y-62565875D01*
X181287894Y-62556124D01*
X181202972Y-62360814D01*
X181198105Y-62351739D01*
X181082426Y-62172926D01*
X181076136Y-62164757D01*
X180932293Y-62006677D01*
X180901241Y-61942831D01*
X180909635Y-61872333D01*
X180954812Y-61817564D01*
X180981256Y-61803895D01*
X181088297Y-61763767D01*
X181096705Y-61760615D01*
X181213261Y-61673261D01*
X181300615Y-61556705D01*
X181351745Y-61420316D01*
X181358500Y-61358134D01*
X181358500Y-59561866D01*
X181351745Y-59499684D01*
X181300615Y-59363295D01*
X181213261Y-59246739D01*
X181096705Y-59159385D01*
X180960316Y-59108255D01*
X180898134Y-59101500D01*
X179101866Y-59101500D01*
X179039684Y-59108255D01*
X178903295Y-59159385D01*
X178786739Y-59246739D01*
X178699385Y-59363295D01*
X178648255Y-59499684D01*
X178641500Y-59561866D01*
X178641500Y-61358134D01*
X132992364Y-61358134D01*
X133006198Y-61344300D01*
X133026913Y-61314717D01*
X133134366Y-61161257D01*
X133137523Y-61156749D01*
X133139846Y-61151767D01*
X133139849Y-61151762D01*
X133231961Y-60954225D01*
X133231961Y-60954224D01*
X133234284Y-60949243D01*
X133293543Y-60728087D01*
X133313498Y-60500000D01*
X133293543Y-60271913D01*
X133234284Y-60050757D01*
X133231961Y-60045775D01*
X133139849Y-59848238D01*
X133139846Y-59848233D01*
X133137523Y-59843251D01*
X133037337Y-59700171D01*
X133009357Y-59660211D01*
X133009355Y-59660208D01*
X133006198Y-59655700D01*
X132844300Y-59493802D01*
X132839792Y-59490645D01*
X132839789Y-59490643D01*
X132694352Y-59388807D01*
X132656749Y-59362477D01*
X132651767Y-59360154D01*
X132651762Y-59360151D01*
X132454225Y-59268039D01*
X132454224Y-59268039D01*
X132449243Y-59265716D01*
X132443935Y-59264294D01*
X132443933Y-59264293D01*
X132233402Y-59207881D01*
X132233400Y-59207881D01*
X132228087Y-59206457D01*
X132000000Y-59186502D01*
X131771913Y-59206457D01*
X131766600Y-59207881D01*
X131766598Y-59207881D01*
X131556067Y-59264293D01*
X131556065Y-59264294D01*
X131550757Y-59265716D01*
X131545776Y-59268039D01*
X131545775Y-59268039D01*
X131348238Y-59360151D01*
X131348233Y-59360154D01*
X131343251Y-59362477D01*
X131305648Y-59388807D01*
X131160211Y-59490643D01*
X131160208Y-59490645D01*
X131155700Y-59493802D01*
X130993802Y-59655700D01*
X130990645Y-59660208D01*
X130990643Y-59660211D01*
X130962663Y-59700171D01*
X130862477Y-59843251D01*
X130860154Y-59848233D01*
X130860151Y-59848238D01*
X130768039Y-60045775D01*
X130765716Y-60050757D01*
X130706457Y-60271913D01*
X130686502Y-60500000D01*
X128308500Y-60500000D01*
X128308500Y-59696754D01*
X128301745Y-59634572D01*
X128250615Y-59498183D01*
X128163261Y-59381627D01*
X128046705Y-59294273D01*
X127910316Y-59243143D01*
X127848134Y-59236388D01*
X126151866Y-59236388D01*
X126089684Y-59243143D01*
X125953295Y-59294273D01*
X125836739Y-59381627D01*
X125749385Y-59498183D01*
X125698255Y-59634572D01*
X125691500Y-59696754D01*
X125691500Y-61393022D01*
X125698255Y-61455204D01*
X125749385Y-61591593D01*
X125781444Y-61634369D01*
X125831355Y-61700966D01*
X125831358Y-61700969D01*
X125836739Y-61708149D01*
X125843919Y-61713530D01*
X125850270Y-61719881D01*
X125848128Y-61722023D01*
X125881564Y-61766734D01*
X125886594Y-61837552D01*
X125868477Y-61878923D01*
X125868818Y-61879120D01*
X125867048Y-61882186D01*
X125866701Y-61882978D01*
X125866071Y-61883877D01*
X125860586Y-61893377D01*
X125768510Y-62090835D01*
X125764764Y-62101127D01*
X125708375Y-62311576D01*
X125706472Y-62322369D01*
X125687483Y-62539413D01*
X125687483Y-62550363D01*
X122797365Y-62550363D01*
X122791214Y-62525875D01*
X122787894Y-62516124D01*
X122702972Y-62320814D01*
X122698105Y-62311739D01*
X122582426Y-62132926D01*
X122576136Y-62124757D01*
X122432293Y-61966677D01*
X122401241Y-61902831D01*
X122409635Y-61832333D01*
X122454812Y-61777564D01*
X122481256Y-61763895D01*
X122588297Y-61723767D01*
X122596705Y-61720615D01*
X122713261Y-61633261D01*
X122800615Y-61516705D01*
X122851745Y-61380316D01*
X122858500Y-61318134D01*
X122858500Y-59521866D01*
X122851745Y-59459684D01*
X122800615Y-59323295D01*
X122713261Y-59206739D01*
X122596705Y-59119385D01*
X122460316Y-59068255D01*
X122398134Y-59061500D01*
X120601866Y-59061500D01*
X120539684Y-59068255D01*
X120403295Y-59119385D01*
X120286739Y-59206739D01*
X120199385Y-59323295D01*
X120148255Y-59459684D01*
X120141500Y-59521866D01*
X120141500Y-61318134D01*
X116008500Y-61318134D01*
X116008500Y-57899946D01*
X116028502Y-57831825D01*
X116082158Y-57785332D01*
X116152432Y-57775228D01*
X116217012Y-57804722D01*
X116241933Y-57834110D01*
X116275824Y-57889416D01*
X116430031Y-58069969D01*
X116610584Y-58224176D01*
X116614792Y-58226755D01*
X116614798Y-58226759D01*
X116808817Y-58345654D01*
X116813037Y-58348240D01*
X116817607Y-58350133D01*
X116817611Y-58350135D01*
X117027833Y-58437211D01*
X117032406Y-58439105D01*
X117112609Y-58458360D01*
X117258476Y-58493380D01*
X117258482Y-58493381D01*
X117263289Y-58494535D01*
X117500000Y-58513165D01*
X117736711Y-58494535D01*
X117741518Y-58493381D01*
X117741524Y-58493380D01*
X117887391Y-58458360D01*
X117967594Y-58439105D01*
X117972167Y-58437211D01*
X118182389Y-58350135D01*
X118182393Y-58350133D01*
X118186963Y-58348240D01*
X118191183Y-58345654D01*
X118385202Y-58226759D01*
X118385208Y-58226755D01*
X118389416Y-58224176D01*
X118569969Y-58069969D01*
X118724176Y-57889416D01*
X118726755Y-57885208D01*
X118726759Y-57885202D01*
X118845654Y-57691183D01*
X118848240Y-57686963D01*
X118939105Y-57467594D01*
X118963399Y-57366401D01*
X118993380Y-57241524D01*
X118993381Y-57241518D01*
X118994535Y-57236711D01*
X119013165Y-57000000D01*
X118994535Y-56763289D01*
X118986581Y-56730155D01*
X118940260Y-56537218D01*
X118939105Y-56532406D01*
X118848240Y-56313037D01*
X118845654Y-56308817D01*
X118726759Y-56114798D01*
X118726755Y-56114792D01*
X118724176Y-56110584D01*
X118569969Y-55930031D01*
X118389416Y-55775824D01*
X118334111Y-55741933D01*
X118286480Y-55689285D01*
X118274873Y-55619244D01*
X118302976Y-55554046D01*
X118361867Y-55514392D01*
X118399946Y-55508500D01*
X182600054Y-55508500D01*
X182668175Y-55528502D01*
G37*
%TD.AperFunction*%
%TD*%
M02*
