%TF.GenerationSoftware,KiCad,Pcbnew,(6.0.9)*%
%TF.CreationDate,2022-12-23T11:45:05+05:30*%
%TF.ProjectId,IN-12 Panel,494e2d31-3220-4506-916e-656c2e6b6963,1.0*%
%TF.SameCoordinates,Original*%
%TF.FileFunction,Legend,Top*%
%TF.FilePolarity,Positive*%
%FSLAX46Y46*%
G04 Gerber Fmt 4.6, Leading zero omitted, Abs format (unit mm)*
G04 Created by KiCad (PCBNEW (6.0.9)) date 2022-12-23 11:45:05*
%MOMM*%
%LPD*%
G01*
G04 APERTURE LIST*
%ADD10C,0.150000*%
%ADD11C,0.120000*%
G04 APERTURE END LIST*
D10*
%TO.C,R3*%
X121333333Y-88952380D02*
X121000000Y-88476190D01*
X120761904Y-88952380D02*
X120761904Y-87952380D01*
X121142857Y-87952380D01*
X121238095Y-88000000D01*
X121285714Y-88047619D01*
X121333333Y-88142857D01*
X121333333Y-88285714D01*
X121285714Y-88380952D01*
X121238095Y-88428571D01*
X121142857Y-88476190D01*
X120761904Y-88476190D01*
X121666666Y-87952380D02*
X122285714Y-87952380D01*
X121952380Y-88333333D01*
X122095238Y-88333333D01*
X122190476Y-88380952D01*
X122238095Y-88428571D01*
X122285714Y-88523809D01*
X122285714Y-88761904D01*
X122238095Y-88857142D01*
X122190476Y-88904761D01*
X122095238Y-88952380D01*
X121809523Y-88952380D01*
X121714285Y-88904761D01*
X121666666Y-88857142D01*
%TO.C,R1*%
X169833333Y-72952380D02*
X169500000Y-72476190D01*
X169261904Y-72952380D02*
X169261904Y-71952380D01*
X169642857Y-71952380D01*
X169738095Y-72000000D01*
X169785714Y-72047619D01*
X169833333Y-72142857D01*
X169833333Y-72285714D01*
X169785714Y-72380952D01*
X169738095Y-72428571D01*
X169642857Y-72476190D01*
X169261904Y-72476190D01*
X170785714Y-72952380D02*
X170214285Y-72952380D01*
X170500000Y-72952380D02*
X170500000Y-71952380D01*
X170404761Y-72095238D01*
X170309523Y-72190476D01*
X170214285Y-72238095D01*
%TO.C,J4*%
X121166666Y-57542380D02*
X121166666Y-58256666D01*
X121119047Y-58399523D01*
X121023809Y-58494761D01*
X120880952Y-58542380D01*
X120785714Y-58542380D01*
X122071428Y-57875714D02*
X122071428Y-58542380D01*
X121833333Y-57494761D02*
X121595238Y-58209047D01*
X122214285Y-58209047D01*
%TO.C,J1*%
X179666666Y-75847380D02*
X179666666Y-76561666D01*
X179619047Y-76704523D01*
X179523809Y-76799761D01*
X179380952Y-76847380D01*
X179285714Y-76847380D01*
X180666666Y-76847380D02*
X180095238Y-76847380D01*
X180380952Y-76847380D02*
X180380952Y-75847380D01*
X180285714Y-75990238D01*
X180190476Y-76085476D01*
X180095238Y-76133095D01*
%TO.C,J2*%
X121166666Y-75847380D02*
X121166666Y-76561666D01*
X121119047Y-76704523D01*
X121023809Y-76799761D01*
X120880952Y-76847380D01*
X120785714Y-76847380D01*
X121595238Y-75942619D02*
X121642857Y-75895000D01*
X121738095Y-75847380D01*
X121976190Y-75847380D01*
X122071428Y-75895000D01*
X122119047Y-75942619D01*
X122166666Y-76037857D01*
X122166666Y-76133095D01*
X122119047Y-76275952D01*
X121547619Y-76847380D01*
X122166666Y-76847380D01*
%TO.C,C1*%
X137107142Y-74298989D02*
X137154761Y-74346608D01*
X137202380Y-74489465D01*
X137202380Y-74584703D01*
X137154761Y-74727561D01*
X137059523Y-74822799D01*
X136964285Y-74870418D01*
X136773809Y-74918037D01*
X136630952Y-74918037D01*
X136440476Y-74870418D01*
X136345238Y-74822799D01*
X136250000Y-74727561D01*
X136202380Y-74584703D01*
X136202380Y-74489465D01*
X136250000Y-74346608D01*
X136297619Y-74298989D01*
X137202380Y-73346608D02*
X137202380Y-73918037D01*
X137202380Y-73632323D02*
X136202380Y-73632323D01*
X136345238Y-73727561D01*
X136440476Y-73822799D01*
X136488095Y-73918037D01*
%TO.C,C2*%
X131833333Y-58857142D02*
X131785714Y-58904761D01*
X131642857Y-58952380D01*
X131547619Y-58952380D01*
X131404761Y-58904761D01*
X131309523Y-58809523D01*
X131261904Y-58714285D01*
X131214285Y-58523809D01*
X131214285Y-58380952D01*
X131261904Y-58190476D01*
X131309523Y-58095238D01*
X131404761Y-58000000D01*
X131547619Y-57952380D01*
X131642857Y-57952380D01*
X131785714Y-58000000D01*
X131833333Y-58047619D01*
X132214285Y-58047619D02*
X132261904Y-58000000D01*
X132357142Y-57952380D01*
X132595238Y-57952380D01*
X132690476Y-58000000D01*
X132738095Y-58047619D01*
X132785714Y-58142857D01*
X132785714Y-58238095D01*
X132738095Y-58380952D01*
X132166666Y-58952380D01*
X132785714Y-58952380D01*
%TO.C,J3*%
X179666666Y-57582380D02*
X179666666Y-58296666D01*
X179619047Y-58439523D01*
X179523809Y-58534761D01*
X179380952Y-58582380D01*
X179285714Y-58582380D01*
X180047619Y-57582380D02*
X180666666Y-57582380D01*
X180333333Y-57963333D01*
X180476190Y-57963333D01*
X180571428Y-58010952D01*
X180619047Y-58058571D01*
X180666666Y-58153809D01*
X180666666Y-58391904D01*
X180619047Y-58487142D01*
X180571428Y-58534761D01*
X180476190Y-58582380D01*
X180190476Y-58582380D01*
X180095238Y-58534761D01*
X180047619Y-58487142D01*
%TO.C,R4*%
X173333333Y-88762380D02*
X173000000Y-88286190D01*
X172761904Y-88762380D02*
X172761904Y-87762380D01*
X173142857Y-87762380D01*
X173238095Y-87810000D01*
X173285714Y-87857619D01*
X173333333Y-87952857D01*
X173333333Y-88095714D01*
X173285714Y-88190952D01*
X173238095Y-88238571D01*
X173142857Y-88286190D01*
X172761904Y-88286190D01*
X174190476Y-88095714D02*
X174190476Y-88762380D01*
X173952380Y-87714761D02*
X173714285Y-88429047D01*
X174333333Y-88429047D01*
%TO.C,C3*%
X126833333Y-58357142D02*
X126785714Y-58404761D01*
X126642857Y-58452380D01*
X126547619Y-58452380D01*
X126404761Y-58404761D01*
X126309523Y-58309523D01*
X126261904Y-58214285D01*
X126214285Y-58023809D01*
X126214285Y-57880952D01*
X126261904Y-57690476D01*
X126309523Y-57595238D01*
X126404761Y-57500000D01*
X126547619Y-57452380D01*
X126642857Y-57452380D01*
X126785714Y-57500000D01*
X126833333Y-57547619D01*
X127166666Y-57452380D02*
X127785714Y-57452380D01*
X127452380Y-57833333D01*
X127595238Y-57833333D01*
X127690476Y-57880952D01*
X127738095Y-57928571D01*
X127785714Y-58023809D01*
X127785714Y-58261904D01*
X127738095Y-58357142D01*
X127690476Y-58404761D01*
X127595238Y-58452380D01*
X127309523Y-58452380D01*
X127214285Y-58404761D01*
X127166666Y-58357142D01*
%TO.C,R2*%
X166833333Y-72952380D02*
X166500000Y-72476190D01*
X166261904Y-72952380D02*
X166261904Y-71952380D01*
X166642857Y-71952380D01*
X166738095Y-72000000D01*
X166785714Y-72047619D01*
X166833333Y-72142857D01*
X166833333Y-72285714D01*
X166785714Y-72380952D01*
X166738095Y-72428571D01*
X166642857Y-72476190D01*
X166261904Y-72476190D01*
X167214285Y-72047619D02*
X167261904Y-72000000D01*
X167357142Y-71952380D01*
X167595238Y-71952380D01*
X167690476Y-72000000D01*
X167738095Y-72047619D01*
X167785714Y-72142857D01*
X167785714Y-72238095D01*
X167738095Y-72380952D01*
X167166666Y-72952380D01*
X167785714Y-72952380D01*
%TO.C,U1*%
X122738095Y-120382380D02*
X122738095Y-121191904D01*
X122785714Y-121287142D01*
X122833333Y-121334761D01*
X122928571Y-121382380D01*
X123119047Y-121382380D01*
X123214285Y-121334761D01*
X123261904Y-121287142D01*
X123309523Y-121191904D01*
X123309523Y-120382380D01*
X124309523Y-121382380D02*
X123738095Y-121382380D01*
X124023809Y-121382380D02*
X124023809Y-120382380D01*
X123928571Y-120525238D01*
X123833333Y-120620476D01*
X123738095Y-120668095D01*
%TO.C,Q1*%
X174404761Y-84047619D02*
X174309523Y-84000000D01*
X174214285Y-83904761D01*
X174071428Y-83761904D01*
X173976190Y-83714285D01*
X173880952Y-83714285D01*
X173928571Y-83952380D02*
X173833333Y-83904761D01*
X173738095Y-83809523D01*
X173690476Y-83619047D01*
X173690476Y-83285714D01*
X173738095Y-83095238D01*
X173833333Y-83000000D01*
X173928571Y-82952380D01*
X174119047Y-82952380D01*
X174214285Y-83000000D01*
X174309523Y-83095238D01*
X174357142Y-83285714D01*
X174357142Y-83619047D01*
X174309523Y-83809523D01*
X174214285Y-83904761D01*
X174119047Y-83952380D01*
X173928571Y-83952380D01*
X175309523Y-83952380D02*
X174738095Y-83952380D01*
X175023809Y-83952380D02*
X175023809Y-82952380D01*
X174928571Y-83095238D01*
X174833333Y-83190476D01*
X174738095Y-83238095D01*
%TO.C,M2*%
X159184315Y-111182380D02*
X159184315Y-110182380D01*
X159517648Y-110896666D01*
X159850981Y-110182380D01*
X159850981Y-111182380D01*
X160279553Y-110277619D02*
X160327172Y-110230000D01*
X160422410Y-110182380D01*
X160660505Y-110182380D01*
X160755743Y-110230000D01*
X160803362Y-110277619D01*
X160850981Y-110372857D01*
X160850981Y-110468095D01*
X160803362Y-110610952D01*
X160231934Y-111182380D01*
X160850981Y-111182380D01*
%TO.C,M1*%
X133184315Y-111182380D02*
X133184315Y-110182380D01*
X133517648Y-110896666D01*
X133850981Y-110182380D01*
X133850981Y-111182380D01*
X134850981Y-111182380D02*
X134279553Y-111182380D01*
X134565267Y-111182380D02*
X134565267Y-110182380D01*
X134470029Y-110325238D01*
X134374791Y-110420476D01*
X134279553Y-110468095D01*
D11*
%TO.C,R3*%
X122540000Y-97270000D02*
X122870000Y-97270000D01*
X122870000Y-97270000D02*
X122870000Y-90730000D01*
X120130000Y-90730000D02*
X120460000Y-90730000D01*
X120460000Y-97270000D02*
X120130000Y-97270000D01*
X122870000Y-90730000D02*
X122540000Y-90730000D01*
X120130000Y-97270000D02*
X120130000Y-90730000D01*
%TO.C,R1*%
X171040000Y-74730000D02*
X171370000Y-74730000D01*
X168630000Y-74730000D02*
X168630000Y-81270000D01*
X171370000Y-81270000D02*
X171040000Y-81270000D01*
X168630000Y-81270000D02*
X168960000Y-81270000D01*
X168960000Y-74730000D02*
X168630000Y-74730000D01*
X171370000Y-74730000D02*
X171370000Y-81270000D01*
%TO.C,J4*%
X120170000Y-59090000D02*
X121500000Y-59090000D01*
X120170000Y-74450000D02*
X122830000Y-74450000D01*
X120170000Y-61690000D02*
X122830000Y-61690000D01*
X122830000Y-61690000D02*
X122830000Y-74450000D01*
X120170000Y-61690000D02*
X120170000Y-74450000D01*
X120170000Y-60420000D02*
X120170000Y-59090000D01*
%TO.C,J1*%
X178670000Y-82595000D02*
X181330000Y-82595000D01*
X178670000Y-77395000D02*
X180000000Y-77395000D01*
X178670000Y-78725000D02*
X178670000Y-77395000D01*
X181330000Y-79995000D02*
X181330000Y-82595000D01*
X178670000Y-79995000D02*
X181330000Y-79995000D01*
X178670000Y-79995000D02*
X178670000Y-82595000D01*
%TO.C,J2*%
X120170000Y-79995000D02*
X120170000Y-82595000D01*
X120170000Y-79995000D02*
X122830000Y-79995000D01*
X120170000Y-82595000D02*
X122830000Y-82595000D01*
X122830000Y-79995000D02*
X122830000Y-82595000D01*
X120170000Y-78725000D02*
X120170000Y-77395000D01*
X120170000Y-77395000D02*
X121500000Y-77395000D01*
%TO.C,C1*%
X129259000Y-75453323D02*
X125593000Y-75453323D01*
X129259000Y-75653323D02*
X125650000Y-75653323D01*
X134917000Y-76653323D02*
X131741000Y-76653323D01*
X132865000Y-78653323D02*
X128135000Y-78653323D01*
X134425000Y-77373323D02*
X131741000Y-77373323D01*
X129259000Y-75733323D02*
X125676000Y-75733323D01*
X133079000Y-78533323D02*
X127921000Y-78533323D01*
X135324000Y-75733323D02*
X131741000Y-75733323D01*
X131730000Y-79093323D02*
X129270000Y-79093323D01*
X129259000Y-77053323D02*
X126334000Y-77053323D01*
X133500000Y-78253323D02*
X127500000Y-78253323D01*
X135283000Y-75853323D02*
X131741000Y-75853323D01*
X135407000Y-75453323D02*
X131741000Y-75453323D01*
X135545000Y-74732323D02*
X125455000Y-74732323D01*
X134721000Y-76973323D02*
X131741000Y-76973323D01*
X135297000Y-75813323D02*
X131741000Y-75813323D01*
X129259000Y-76573323D02*
X126038000Y-76573323D01*
X129259000Y-77293323D02*
X126511000Y-77293323D01*
X133389000Y-78333323D02*
X127611000Y-78333323D01*
X129259000Y-75973323D02*
X125762000Y-75973323D01*
X129259000Y-77373323D02*
X126575000Y-77373323D01*
X134871000Y-76733323D02*
X131741000Y-76733323D01*
X132789000Y-78693323D02*
X128211000Y-78693323D01*
X129259000Y-76173323D02*
X125843000Y-76173323D01*
X129259000Y-75813323D02*
X125703000Y-75813323D01*
X135447000Y-75293323D02*
X125553000Y-75293323D01*
X129259000Y-77653323D02*
X126821000Y-77653323D01*
X135580000Y-74212323D02*
X125420000Y-74212323D01*
X133706000Y-78093323D02*
X127294000Y-78093323D01*
X135504000Y-75013323D02*
X125496000Y-75013323D01*
X133875000Y-69152677D02*
X132875000Y-69152677D01*
X135385000Y-75533323D02*
X131741000Y-75533323D01*
X129259000Y-76053323D02*
X125793000Y-76053323D01*
X135580000Y-74132323D02*
X125420000Y-74132323D01*
X129259000Y-77533323D02*
X126711000Y-77533323D01*
X134179000Y-77653323D02*
X131741000Y-77653323D01*
X135238000Y-75973323D02*
X131741000Y-75973323D01*
X129259000Y-76253323D02*
X125879000Y-76253323D01*
X129259000Y-75493323D02*
X125603000Y-75493323D01*
X135558000Y-74612323D02*
X125442000Y-74612323D01*
X135428000Y-75373323D02*
X125572000Y-75373323D01*
X129259000Y-77453323D02*
X126642000Y-77453323D01*
X134666000Y-77053323D02*
X131741000Y-77053323D01*
X135418000Y-75413323D02*
X131741000Y-75413323D01*
X135524000Y-74893323D02*
X125476000Y-74893323D01*
X134520000Y-77253323D02*
X131741000Y-77253323D01*
X129259000Y-76413323D02*
X125955000Y-76413323D01*
X135465000Y-75213323D02*
X125535000Y-75213323D01*
X135103000Y-76293323D02*
X131741000Y-76293323D01*
X135350000Y-75653323D02*
X131741000Y-75653323D01*
X132346000Y-78893323D02*
X128654000Y-78893323D01*
X129259000Y-75693323D02*
X125663000Y-75693323D01*
X134550000Y-77213323D02*
X131741000Y-77213323D01*
X135535000Y-74812323D02*
X125465000Y-74812323D01*
X133606000Y-78173323D02*
X127394000Y-78173323D01*
X129259000Y-77493323D02*
X126676000Y-77493323D01*
X135474000Y-75173323D02*
X125526000Y-75173323D01*
X134392000Y-77413323D02*
X131741000Y-77413323D01*
X132130000Y-78973323D02*
X128870000Y-78973323D01*
X129259000Y-77333323D02*
X126543000Y-77333323D01*
X135254000Y-75933323D02*
X131741000Y-75933323D01*
X129259000Y-76893323D02*
X126227000Y-76893323D01*
X135174000Y-76133323D02*
X131741000Y-76133323D01*
X135139000Y-76213323D02*
X131741000Y-76213323D01*
X135456000Y-75253323D02*
X125544000Y-75253323D01*
X135554000Y-74652323D02*
X125446000Y-74652323D01*
X129259000Y-76493323D02*
X125996000Y-76493323D01*
X129259000Y-77773323D02*
X126939000Y-77773323D01*
X129259000Y-77253323D02*
X126480000Y-77253323D01*
X129259000Y-77413323D02*
X126608000Y-77413323D01*
X133145000Y-78493323D02*
X127855000Y-78493323D01*
X129259000Y-77173323D02*
X126420000Y-77173323D01*
X134823000Y-76813323D02*
X131741000Y-76813323D01*
X134358000Y-77453323D02*
X131741000Y-77453323D01*
X129259000Y-75933323D02*
X125746000Y-75933323D01*
X131562000Y-79133323D02*
X129438000Y-79133323D01*
X135573000Y-74412323D02*
X125427000Y-74412323D01*
X132242000Y-78933323D02*
X128758000Y-78933323D01*
X133554000Y-78213323D02*
X127446000Y-78213323D01*
X129259000Y-77613323D02*
X126784000Y-77613323D01*
X133270000Y-78413323D02*
X127730000Y-78413323D01*
X135374000Y-75573323D02*
X131741000Y-75573323D01*
X133978000Y-77853323D02*
X131741000Y-77853323D01*
X129259000Y-75613323D02*
X125638000Y-75613323D01*
X129259000Y-77693323D02*
X126860000Y-77693323D01*
X135337000Y-75693323D02*
X131741000Y-75693323D01*
X129259000Y-76293323D02*
X125897000Y-76293323D01*
X131878000Y-79053323D02*
X129122000Y-79053323D01*
X133892000Y-77933323D02*
X127108000Y-77933323D01*
X129259000Y-75533323D02*
X125615000Y-75533323D01*
X129259000Y-75893323D02*
X125732000Y-75893323D01*
X135550000Y-74692323D02*
X125450000Y-74692323D01*
X134061000Y-77773323D02*
X131741000Y-77773323D01*
X135565000Y-74532323D02*
X125435000Y-74532323D01*
X134940000Y-76613323D02*
X131741000Y-76613323D01*
X132939000Y-78613323D02*
X128061000Y-78613323D01*
X135362000Y-75613323D02*
X131741000Y-75613323D01*
X129259000Y-75853323D02*
X125717000Y-75853323D01*
X129259000Y-76813323D02*
X126177000Y-76813323D01*
X133330000Y-78373323D02*
X127670000Y-78373323D01*
X135568000Y-74492323D02*
X125432000Y-74492323D01*
X134773000Y-76893323D02*
X131741000Y-76893323D01*
X135570000Y-74452323D02*
X125430000Y-74452323D01*
X129259000Y-76453323D02*
X125975000Y-76453323D01*
X129259000Y-75573323D02*
X125626000Y-75573323D01*
X129259000Y-77133323D02*
X126390000Y-77133323D01*
X134694000Y-77013323D02*
X131741000Y-77013323D01*
X134895000Y-76693323D02*
X131741000Y-76693323D01*
X134983000Y-76533323D02*
X131741000Y-76533323D01*
X135268000Y-75893323D02*
X131741000Y-75893323D01*
X134962000Y-76573323D02*
X131741000Y-76573323D01*
X129259000Y-77813323D02*
X126980000Y-77813323D01*
X133936000Y-77893323D02*
X127064000Y-77893323D01*
X129259000Y-76093323D02*
X125810000Y-76093323D01*
X132537000Y-78813323D02*
X128463000Y-78813323D01*
X132444000Y-78853323D02*
X128556000Y-78853323D01*
X129259000Y-77733323D02*
X126899000Y-77733323D01*
X135064000Y-76373323D02*
X131741000Y-76373323D01*
X135223000Y-76013323D02*
X131741000Y-76013323D01*
X135562000Y-74572323D02*
X125438000Y-74572323D01*
X135121000Y-76253323D02*
X131741000Y-76253323D01*
X135438000Y-75333323D02*
X125562000Y-75333323D01*
X135518000Y-74933323D02*
X125482000Y-74933323D01*
X135490000Y-75093323D02*
X125510000Y-75093323D01*
X131362000Y-79173323D02*
X129638000Y-79173323D01*
X134253000Y-77573323D02*
X131741000Y-77573323D01*
X134580000Y-77173323D02*
X131741000Y-77173323D01*
X129259000Y-77093323D02*
X126362000Y-77093323D01*
X134457000Y-77333323D02*
X131741000Y-77333323D01*
X135004000Y-76493323D02*
X131741000Y-76493323D01*
X129259000Y-76133323D02*
X125826000Y-76133323D01*
X135045000Y-76413323D02*
X131741000Y-76413323D01*
X133375000Y-68652677D02*
X133375000Y-69652677D01*
X135207000Y-76053323D02*
X131741000Y-76053323D01*
X134798000Y-76853323D02*
X131741000Y-76853323D01*
X129259000Y-77213323D02*
X126450000Y-77213323D01*
X133754000Y-78053323D02*
X127246000Y-78053323D01*
X129259000Y-76613323D02*
X126060000Y-76613323D01*
X129259000Y-76773323D02*
X126153000Y-76773323D01*
X134140000Y-77693323D02*
X131741000Y-77693323D01*
X129259000Y-76533323D02*
X126017000Y-76533323D01*
X129259000Y-77573323D02*
X126747000Y-77573323D01*
X129259000Y-76853323D02*
X126202000Y-76853323D01*
X129259000Y-76693323D02*
X126105000Y-76693323D01*
X129259000Y-75773323D02*
X125689000Y-75773323D01*
X135579000Y-74252323D02*
X125421000Y-74252323D01*
X129259000Y-76933323D02*
X126253000Y-76933323D01*
X134847000Y-76773323D02*
X131741000Y-76773323D01*
X135580000Y-74172323D02*
X125420000Y-74172323D01*
X135157000Y-76173323D02*
X131741000Y-76173323D01*
X133847000Y-77973323D02*
X127153000Y-77973323D01*
X135497000Y-75053323D02*
X125503000Y-75053323D01*
X135577000Y-74332323D02*
X125423000Y-74332323D01*
X135530000Y-74853323D02*
X125470000Y-74853323D01*
X133010000Y-78573323D02*
X127990000Y-78573323D01*
X132010000Y-79013323D02*
X128990000Y-79013323D01*
X129259000Y-76013323D02*
X125777000Y-76013323D01*
X129259000Y-75413323D02*
X125582000Y-75413323D01*
X131099000Y-79213323D02*
X129901000Y-79213323D01*
X134101000Y-77733323D02*
X131741000Y-77733323D01*
X133445000Y-78293323D02*
X127555000Y-78293323D01*
X134216000Y-77613323D02*
X131741000Y-77613323D01*
X133209000Y-78453323D02*
X127791000Y-78453323D01*
X129259000Y-76733323D02*
X126129000Y-76733323D01*
X135190000Y-76093323D02*
X131741000Y-76093323D01*
X135540000Y-74772323D02*
X125460000Y-74772323D01*
X134020000Y-77813323D02*
X131741000Y-77813323D01*
X133656000Y-78133323D02*
X127344000Y-78133323D01*
X129259000Y-76213323D02*
X125861000Y-76213323D01*
X132709000Y-78733323D02*
X128291000Y-78733323D01*
X134638000Y-77093323D02*
X131741000Y-77093323D01*
X133801000Y-78013323D02*
X127199000Y-78013323D01*
X134489000Y-77293323D02*
X131741000Y-77293323D01*
X132625000Y-78773323D02*
X128375000Y-78773323D01*
X129259000Y-76373323D02*
X125936000Y-76373323D01*
X134610000Y-77133323D02*
X131741000Y-77133323D01*
X129259000Y-77013323D02*
X126306000Y-77013323D01*
X129259000Y-77853323D02*
X127022000Y-77853323D01*
X134747000Y-76933323D02*
X131741000Y-76933323D01*
X135084000Y-76333323D02*
X131741000Y-76333323D01*
X135397000Y-75493323D02*
X131741000Y-75493323D01*
X135511000Y-74973323D02*
X125489000Y-74973323D01*
X135482000Y-75133323D02*
X125518000Y-75133323D01*
X129259000Y-76333323D02*
X125916000Y-76333323D01*
X135311000Y-75773323D02*
X131741000Y-75773323D01*
X135025000Y-76453323D02*
X131741000Y-76453323D01*
X129259000Y-76653323D02*
X126083000Y-76653323D01*
X134324000Y-77493323D02*
X131741000Y-77493323D01*
X129259000Y-76973323D02*
X126279000Y-76973323D01*
X134289000Y-77533323D02*
X131741000Y-77533323D01*
X135578000Y-74292323D02*
X125422000Y-74292323D01*
X135575000Y-74372323D02*
X125425000Y-74372323D01*
X135620000Y-74132323D02*
G75*
G03*
X135620000Y-74132323I-5120000J0D01*
G01*
%TO.C,C2*%
X130880000Y-63370000D02*
X130945000Y-63370000D01*
X133120000Y-63370000D02*
X133120000Y-60130000D01*
X130880000Y-63370000D02*
X130880000Y-60130000D01*
X133055000Y-63370000D02*
X133120000Y-63370000D01*
X133055000Y-60130000D02*
X133120000Y-60130000D01*
X130880000Y-60130000D02*
X130945000Y-60130000D01*
%TO.C,J3*%
X178670000Y-61730000D02*
X178670000Y-74490000D01*
X178670000Y-74490000D02*
X181330000Y-74490000D01*
X178670000Y-59130000D02*
X180000000Y-59130000D01*
X178670000Y-61730000D02*
X181330000Y-61730000D01*
X178670000Y-60460000D02*
X178670000Y-59130000D01*
X181330000Y-61730000D02*
X181330000Y-74490000D01*
%TO.C,R4*%
X174870000Y-90730000D02*
X174540000Y-90730000D01*
X174870000Y-97270000D02*
X174870000Y-90730000D01*
X172130000Y-90730000D02*
X172460000Y-90730000D01*
X172460000Y-97270000D02*
X172130000Y-97270000D01*
X174540000Y-97270000D02*
X174870000Y-97270000D01*
X172130000Y-97270000D02*
X172130000Y-90730000D01*
%TO.C,C3*%
X129480000Y-62265888D02*
X128040000Y-62265888D01*
X125960000Y-62705888D02*
X124690000Y-62705888D01*
X129122000Y-63025888D02*
X128040000Y-63025888D01*
X125960000Y-62545888D02*
X124618000Y-62545888D01*
X125960000Y-62665888D02*
X124671000Y-62665888D01*
X125960000Y-62825888D02*
X124753000Y-62825888D01*
X125960000Y-61904888D02*
X124444000Y-61904888D01*
X128826000Y-63385888D02*
X128040000Y-63385888D01*
X125960000Y-62585888D02*
X124635000Y-62585888D01*
X125960000Y-63305888D02*
X125099000Y-63305888D01*
X128500000Y-63665888D02*
X125500000Y-63665888D01*
X128605000Y-63585888D02*
X125395000Y-63585888D01*
X129065000Y-63105888D02*
X128040000Y-63105888D01*
X125960000Y-63185888D02*
X124996000Y-63185888D01*
X125960000Y-62024888D02*
X124464000Y-62024888D01*
X125960000Y-61864888D02*
X124439000Y-61864888D01*
X128864000Y-63345888D02*
X128040000Y-63345888D01*
X125960000Y-63065888D02*
X124905000Y-63065888D01*
X125960000Y-61664888D02*
X124422000Y-61664888D01*
X128937000Y-63265888D02*
X128040000Y-63265888D01*
X125960000Y-62345888D02*
X124545000Y-62345888D01*
X128725000Y-58990113D02*
X128225000Y-58990113D01*
X125960000Y-62385888D02*
X124558000Y-62385888D01*
X129579000Y-61624888D02*
X128040000Y-61624888D01*
X128699000Y-63505888D02*
X128040000Y-63505888D01*
X129578000Y-61664888D02*
X128040000Y-61664888D01*
X129520000Y-62104888D02*
X128040000Y-62104888D01*
X125960000Y-63225888D02*
X125029000Y-63225888D01*
X129268000Y-62785888D02*
X128040000Y-62785888D01*
X127677000Y-64065888D02*
X126323000Y-64065888D01*
X128443000Y-63705888D02*
X125557000Y-63705888D01*
X129175000Y-62945888D02*
X128040000Y-62945888D01*
X129556000Y-61904888D02*
X128040000Y-61904888D01*
X129348000Y-62625888D02*
X128040000Y-62625888D01*
X129561000Y-61864888D02*
X128040000Y-61864888D01*
X129004000Y-63185888D02*
X128040000Y-63185888D01*
X125960000Y-61704888D02*
X124424000Y-61704888D01*
X125960000Y-61984888D02*
X124457000Y-61984888D01*
X125960000Y-62865888D02*
X124776000Y-62865888D01*
X129455000Y-62345888D02*
X128040000Y-62345888D01*
X127915000Y-63985888D02*
X126085000Y-63985888D01*
X125960000Y-61544888D02*
X124420000Y-61544888D01*
X129329000Y-62665888D02*
X128040000Y-62665888D01*
X125960000Y-62224888D02*
X124509000Y-62224888D01*
X129398000Y-62505888D02*
X128040000Y-62505888D01*
X125960000Y-62785888D02*
X124732000Y-62785888D01*
X129247000Y-62825888D02*
X128040000Y-62825888D01*
X125960000Y-61824888D02*
X124435000Y-61824888D01*
X129511000Y-62144888D02*
X128040000Y-62144888D01*
X125960000Y-62184888D02*
X124499000Y-62184888D01*
X128475000Y-58740113D02*
X128475000Y-59240113D01*
X129536000Y-62024888D02*
X128040000Y-62024888D01*
X125960000Y-62425888D02*
X124572000Y-62425888D01*
X125960000Y-62745888D02*
X124710000Y-62745888D01*
X127805000Y-64025888D02*
X126195000Y-64025888D01*
X128098000Y-63905888D02*
X125902000Y-63905888D01*
X125960000Y-62905888D02*
X124800000Y-62905888D01*
X128785000Y-63425888D02*
X128040000Y-63425888D01*
X125960000Y-63465888D02*
X125257000Y-63465888D01*
X128383000Y-63745888D02*
X125617000Y-63745888D01*
X125960000Y-63265888D02*
X125063000Y-63265888D01*
X129200000Y-62905888D02*
X128040000Y-62905888D01*
X129365000Y-62585888D02*
X128040000Y-62585888D01*
X129382000Y-62545888D02*
X128040000Y-62545888D01*
X125960000Y-62305888D02*
X124532000Y-62305888D01*
X129149000Y-62985888D02*
X128040000Y-62985888D01*
X125960000Y-61784888D02*
X124431000Y-61784888D01*
X125960000Y-62064888D02*
X124472000Y-62064888D01*
X125960000Y-62945888D02*
X124825000Y-62945888D01*
X129491000Y-62224888D02*
X128040000Y-62224888D01*
X125960000Y-63505888D02*
X125301000Y-63505888D01*
X129565000Y-61824888D02*
X128040000Y-61824888D01*
X129414000Y-62465888D02*
X128040000Y-62465888D01*
X129468000Y-62305888D02*
X128040000Y-62305888D01*
X125960000Y-61624888D02*
X124421000Y-61624888D01*
X129224000Y-62865888D02*
X128040000Y-62865888D01*
X129576000Y-61704888D02*
X128040000Y-61704888D01*
X125960000Y-62104888D02*
X124480000Y-62104888D01*
X125960000Y-62625888D02*
X124652000Y-62625888D01*
X125960000Y-63025888D02*
X124878000Y-63025888D01*
X125960000Y-63425888D02*
X125215000Y-63425888D01*
X125960000Y-62465888D02*
X124586000Y-62465888D01*
X125960000Y-62265888D02*
X124520000Y-62265888D01*
X129569000Y-61784888D02*
X128040000Y-61784888D01*
X128251000Y-63825888D02*
X125749000Y-63825888D01*
X125960000Y-63545888D02*
X125347000Y-63545888D01*
X127284000Y-64145888D02*
X126716000Y-64145888D01*
X129290000Y-62745888D02*
X128040000Y-62745888D01*
X125960000Y-63345888D02*
X125136000Y-63345888D01*
X129528000Y-62064888D02*
X128040000Y-62064888D01*
X125960000Y-61744888D02*
X124427000Y-61744888D01*
X125960000Y-62985888D02*
X124851000Y-62985888D01*
X129573000Y-61744888D02*
X128040000Y-61744888D01*
X125960000Y-63105888D02*
X124935000Y-63105888D01*
X125960000Y-63145888D02*
X124965000Y-63145888D01*
X125960000Y-62505888D02*
X124602000Y-62505888D01*
X129095000Y-63065888D02*
X128040000Y-63065888D01*
X125960000Y-61944888D02*
X124450000Y-61944888D01*
X129442000Y-62385888D02*
X128040000Y-62385888D01*
X129550000Y-61944888D02*
X128040000Y-61944888D01*
X129543000Y-61984888D02*
X128040000Y-61984888D01*
X128319000Y-63785888D02*
X125681000Y-63785888D01*
X125960000Y-63385888D02*
X125174000Y-63385888D01*
X128011000Y-63945888D02*
X125989000Y-63945888D01*
X129310000Y-62705888D02*
X128040000Y-62705888D01*
X128554000Y-63625888D02*
X125446000Y-63625888D01*
X128901000Y-63305888D02*
X128040000Y-63305888D01*
X129035000Y-63145888D02*
X128040000Y-63145888D01*
X129501000Y-62184888D02*
X128040000Y-62184888D01*
X125960000Y-61584888D02*
X124420000Y-61584888D01*
X129428000Y-62425888D02*
X128040000Y-62425888D01*
X125960000Y-62144888D02*
X124489000Y-62144888D01*
X129580000Y-61584888D02*
X128040000Y-61584888D01*
X128743000Y-63465888D02*
X128040000Y-63465888D01*
X128178000Y-63865888D02*
X125822000Y-63865888D01*
X129580000Y-61544888D02*
X128040000Y-61544888D01*
X128653000Y-63545888D02*
X128040000Y-63545888D01*
X128971000Y-63225888D02*
X128040000Y-63225888D01*
X127518000Y-64105888D02*
X126482000Y-64105888D01*
X129620000Y-61544888D02*
G75*
G03*
X129620000Y-61544888I-2620000J0D01*
G01*
%TO.C,R2*%
X168040000Y-74730000D02*
X168370000Y-74730000D01*
X168370000Y-74730000D02*
X168370000Y-81270000D01*
X165960000Y-74730000D02*
X165630000Y-74730000D01*
X165630000Y-74730000D02*
X165630000Y-81270000D01*
X168370000Y-81270000D02*
X168040000Y-81270000D01*
X165630000Y-81270000D02*
X165960000Y-81270000D01*
%TO.C,U1*%
X125990000Y-122635000D02*
G75*
G03*
X123990000Y-122635000I-1000000J0D01*
G01*
X127640000Y-122635000D02*
X127640000Y-102195000D01*
X125990000Y-122635000D02*
X127640000Y-122635000D01*
X122340000Y-102195000D02*
X122340000Y-122635000D01*
X127640000Y-102195000D02*
X122340000Y-102195000D01*
X122340000Y-122635000D02*
X123990000Y-122635000D01*
%TO.C,Q1*%
X172290000Y-78200000D02*
X172290000Y-81800000D01*
X176740001Y-80000000D02*
G75*
G03*
X172301522Y-78161522I-2600001J0D01*
G01*
X172301522Y-81838478D02*
G75*
G03*
X176740000Y-80000000I1838478J1838478D01*
G01*
%TO.C,M2*%
X158663839Y-109720000D02*
G75*
G03*
X158663839Y-107720000I0J1000000D01*
G01*
X179103839Y-106070000D02*
X158663839Y-106070000D01*
X158663839Y-106070000D02*
X158663839Y-107720000D01*
X158663839Y-111370000D02*
X179103839Y-111370000D01*
X179103839Y-111370000D02*
X179103839Y-106070000D01*
X158663839Y-109720000D02*
X158663839Y-111370000D01*
%TO.C,M1*%
X132788839Y-109720000D02*
G75*
G03*
X132788839Y-107720000I0J1000000D01*
G01*
X132788839Y-111370000D02*
X153228839Y-111370000D01*
X153228839Y-111370000D02*
X153228839Y-106070000D01*
X132788839Y-109720000D02*
X132788839Y-111370000D01*
X153228839Y-106070000D02*
X132788839Y-106070000D01*
X132788839Y-106070000D02*
X132788839Y-107720000D01*
%TD*%
M02*
