M48
; DRILL file {KiCad (6.0.9)} date Fri Dec 23 11:45:06 2022
; FORMAT={-:-/ absolute / inch / decimal}
; #@! TF.CreationDate,2022-12-23T11:45:06+05:30
; #@! TF.GenerationSoftware,Kicad,Pcbnew,(6.0.9)
; #@! TF.FileFunction,Plated,1,2,PTH
FMAT,2
INCH
; #@! TA.AperFunction,Plated,PTH,ViaDrill
T1C0.0157
; #@! TA.AperFunction,Plated,PTH,ComponentDrill
T2C0.0236
; #@! TA.AperFunction,Plated,PTH,ComponentDrill
T3C0.0295
; #@! TA.AperFunction,Plated,PTH,ComponentDrill
T4C0.0315
; #@! TA.AperFunction,Plated,PTH,ComponentDrill
T5C0.0394
; #@! TA.AperFunction,Plated,PTH,ComponentDrill
T6C0.0433
%
G90
G05
T1
X7.2389Y-2.8831
T2
X7.0438Y-3.5433
X7.1688Y-3.5433
T3
X6.8559Y-3.0996
X6.8559Y-3.1496
X6.8559Y-3.1996
T4
X4.7709Y-4.0758
X4.7709Y-4.1758
X4.7709Y-4.2758
X4.7709Y-4.3758
X4.7709Y-4.4758
X4.7709Y-4.5758
X4.7709Y-4.6758
X4.7709Y-4.7758
X4.7835Y-3.5508
X4.7835Y-3.8508
X5.0Y-2.3837
X5.0Y-2.4624
X5.0709Y-4.0758
X5.0709Y-4.1758
X5.0709Y-4.2758
X5.0709Y-4.3758
X5.0709Y-4.4758
X5.0709Y-4.5758
X5.0709Y-4.6758
X5.0709Y-4.7758
X5.1969Y-2.3819
X5.1969Y-2.4803
X5.2803Y-4.1303
X5.2803Y-4.4303
X5.3803Y-4.1303
X5.3803Y-4.4303
X5.4803Y-4.1303
X5.4803Y-4.4303
X5.5803Y-4.1303
X5.5803Y-4.4303
X5.6803Y-4.1303
X5.6803Y-4.4303
X5.7803Y-4.1303
X5.7803Y-4.4303
X5.8803Y-4.1303
X5.8803Y-4.4303
X5.9803Y-4.1303
X5.9803Y-4.4303
X6.299Y-4.1303
X6.299Y-4.4303
X6.399Y-4.1303
X6.399Y-4.4303
X6.499Y-4.1303
X6.499Y-4.4303
X6.5748Y-2.9209
X6.5748Y-3.2209
X6.599Y-4.1303
X6.599Y-4.4303
X6.6929Y-2.9209
X6.6929Y-3.2209
X6.699Y-4.1303
X6.699Y-4.4303
X6.799Y-4.1303
X6.799Y-4.4303
X6.8307Y-3.5508
X6.8307Y-3.8508
X6.899Y-4.1303
X6.899Y-4.4303
X6.999Y-4.1303
X6.999Y-4.4303
T5
X4.7835Y-2.3787
X4.7835Y-2.4787
X4.7835Y-2.5787
X4.7835Y-2.6787
X4.7835Y-2.7787
X4.7835Y-2.8787
X4.7835Y-3.0994
X4.7835Y-3.1994
X5.1378Y-2.8202
X5.1378Y-3.017
X7.0866Y-2.3803
X7.0866Y-2.4803
X7.0866Y-2.5803
X7.0866Y-2.6803
X7.0866Y-2.7803
X7.0866Y-2.8803
X7.0866Y-3.0994
X7.0866Y-3.1994
T6
X4.9753Y-3.5433
X4.9803Y-3.3662
X4.9803Y-3.7204
X5.0466Y-3.2356
X5.0466Y-3.851
X5.204Y-3.1962
X5.204Y-3.8904
X5.3614Y-3.2356
X5.3614Y-3.851
X5.4152Y-3.3662
X5.4152Y-3.7204
X5.4202Y-3.5433
X5.999Y-3.5433
X6.004Y-3.3662
X6.004Y-3.7204
X6.0703Y-3.2356
X6.0703Y-3.851
X6.2277Y-3.1962
X6.2277Y-3.8904
X6.3851Y-3.2356
X6.3851Y-3.851
X6.4389Y-3.3662
X6.4389Y-3.7204
X6.4439Y-3.5433
T0
M30
