%TF.GenerationSoftware,KiCad,Pcbnew,(6.0.9)*%
%TF.CreationDate,2022-12-23T11:45:05+05:30*%
%TF.ProjectId,IN-12 Panel,494e2d31-3220-4506-916e-656c2e6b6963,1.0*%
%TF.SameCoordinates,Original*%
%TF.FileFunction,Legend,Bot*%
%TF.FilePolarity,Positive*%
%FSLAX46Y46*%
G04 Gerber Fmt 4.6, Leading zero omitted, Abs format (unit mm)*
G04 Created by KiCad (PCBNEW (6.0.9)) date 2022-12-23 11:45:05*
%MOMM*%
%LPD*%
G01*
G04 APERTURE LIST*
%ADD10C,0.101600*%
%ADD11C,0.150000*%
%ADD12C,0.254000*%
%ADD13C,0.127000*%
G04 APERTURE END LIST*
D10*
%TO.C,N2*%
X159336458Y-95304523D02*
X159336458Y-94034523D01*
X158610743Y-95304523D01*
X158610743Y-94034523D01*
X158066458Y-94155476D02*
X158005981Y-94095000D01*
X157885029Y-94034523D01*
X157582648Y-94034523D01*
X157461696Y-94095000D01*
X157401219Y-94155476D01*
X157340743Y-94276428D01*
X157340743Y-94397380D01*
X157401219Y-94578809D01*
X158126934Y-95304523D01*
X157340743Y-95304523D01*
D11*
X161664791Y-85804523D02*
X161664791Y-84534523D01*
X161060029Y-85804523D02*
X161060029Y-84534523D01*
X160334315Y-85804523D01*
X160334315Y-84534523D01*
X159729553Y-85320714D02*
X158761934Y-85320714D01*
X157491934Y-85804523D02*
X158217648Y-85804523D01*
X157854791Y-85804523D02*
X157854791Y-84534523D01*
X157975743Y-84715952D01*
X158096696Y-84836904D01*
X158217648Y-84897380D01*
X157008124Y-84655476D02*
X156947648Y-84595000D01*
X156826696Y-84534523D01*
X156524315Y-84534523D01*
X156403362Y-84595000D01*
X156342886Y-84655476D01*
X156282410Y-84776428D01*
X156282410Y-84897380D01*
X156342886Y-85078809D01*
X157068600Y-85804523D01*
X156282410Y-85804523D01*
X155314791Y-85139285D02*
X155133362Y-85199761D01*
X155072886Y-85260238D01*
X155012410Y-85381190D01*
X155012410Y-85562619D01*
X155072886Y-85683571D01*
X155133362Y-85744047D01*
X155254315Y-85804523D01*
X155738124Y-85804523D01*
X155738124Y-84534523D01*
X155314791Y-84534523D01*
X155193839Y-84595000D01*
X155133362Y-84655476D01*
X155072886Y-84776428D01*
X155072886Y-84897380D01*
X155133362Y-85018333D01*
X155193839Y-85078809D01*
X155314791Y-85139285D01*
X155738124Y-85139285D01*
D10*
%TO.C,N1*%
X133467619Y-95304523D02*
X133467619Y-94034523D01*
X132741904Y-95304523D01*
X132741904Y-94034523D01*
X131471904Y-95304523D02*
X132197619Y-95304523D01*
X131834761Y-95304523D02*
X131834761Y-94034523D01*
X131955714Y-94215952D01*
X132076666Y-94336904D01*
X132197619Y-94397380D01*
D11*
X135664791Y-85804523D02*
X135664791Y-84534523D01*
X135060029Y-85804523D02*
X135060029Y-84534523D01*
X134334315Y-85804523D01*
X134334315Y-84534523D01*
X133729553Y-85320714D02*
X132761934Y-85320714D01*
X131491934Y-85804523D02*
X132217648Y-85804523D01*
X131854791Y-85804523D02*
X131854791Y-84534523D01*
X131975743Y-84715952D01*
X132096696Y-84836904D01*
X132217648Y-84897380D01*
X131008124Y-84655476D02*
X130947648Y-84595000D01*
X130826696Y-84534523D01*
X130524315Y-84534523D01*
X130403362Y-84595000D01*
X130342886Y-84655476D01*
X130282410Y-84776428D01*
X130282410Y-84897380D01*
X130342886Y-85078809D01*
X131068600Y-85804523D01*
X130282410Y-85804523D01*
X129314791Y-85139285D02*
X129133362Y-85199761D01*
X129072886Y-85260238D01*
X129012410Y-85381190D01*
X129012410Y-85562619D01*
X129072886Y-85683571D01*
X129133362Y-85744047D01*
X129254315Y-85804523D01*
X129738124Y-85804523D01*
X129738124Y-84534523D01*
X129314791Y-84534523D01*
X129193839Y-84595000D01*
X129133362Y-84655476D01*
X129072886Y-84776428D01*
X129072886Y-84897380D01*
X129133362Y-85018333D01*
X129193839Y-85078809D01*
X129314791Y-85139285D01*
X129738124Y-85139285D01*
D10*
%TO.C,N3*%
X181785119Y-94702023D02*
X181785119Y-93432023D01*
X181059404Y-94702023D01*
X181059404Y-93432023D01*
X180575595Y-93432023D02*
X179789404Y-93432023D01*
X180212738Y-93915833D01*
X180031309Y-93915833D01*
X179910357Y-93976309D01*
X179849880Y-94036785D01*
X179789404Y-94157738D01*
X179789404Y-94460119D01*
X179849880Y-94581071D01*
X179910357Y-94641547D01*
X180031309Y-94702023D01*
X180394166Y-94702023D01*
X180515119Y-94641547D01*
X180575595Y-94581071D01*
D11*
X182557258Y-86074523D02*
X182557258Y-84804523D01*
X181952496Y-86074523D02*
X181952496Y-84804523D01*
X181226782Y-86074523D01*
X181226782Y-84804523D01*
X180622020Y-85590714D02*
X179654401Y-85590714D01*
X179170591Y-84804523D02*
X178384401Y-84804523D01*
X178807734Y-85288333D01*
X178626306Y-85288333D01*
X178505353Y-85348809D01*
X178444877Y-85409285D01*
X178384401Y-85530238D01*
X178384401Y-85832619D01*
X178444877Y-85953571D01*
X178505353Y-86014047D01*
X178626306Y-86074523D01*
X178989163Y-86074523D01*
X179110115Y-86014047D01*
X179170591Y-85953571D01*
D12*
%TO.C,N2*%
X149609999Y-96667501D02*
G75*
G03*
X166429063Y-96681627I8415021J6527801D01*
G01*
X166437501Y-83650000D02*
G75*
G03*
X149619178Y-83640377I-8412481J-5796280D01*
G01*
D13*
X166437500Y-83650000D02*
G75*
G03*
X149612036Y-83650706I-8412480J-6012180D01*
G01*
X149610000Y-96667500D02*
G75*
G03*
X166429982Y-96680281I8415020J6611620D01*
G01*
X161040000Y-90000000D02*
G75*
G03*
X161040000Y-90000000I-2540000J0D01*
G01*
D12*
X149610000Y-83810020D02*
X149610000Y-83650000D01*
X149610000Y-83810020D02*
X149610000Y-96667500D01*
X166437500Y-96667500D02*
X166437500Y-83650000D01*
%TO.C,N1*%
X140437500Y-96667500D02*
X140437500Y-83650000D01*
X123610000Y-83810020D02*
X123610000Y-96667500D01*
X123610000Y-83810020D02*
X123610000Y-83650000D01*
D13*
X135040000Y-90000000D02*
G75*
G03*
X135040000Y-90000000I-2540000J0D01*
G01*
X123610000Y-96667500D02*
G75*
G03*
X140429982Y-96680281I8415020J6611620D01*
G01*
X140437500Y-83650000D02*
G75*
G03*
X123612036Y-83650706I-8412480J-6012180D01*
G01*
D12*
X140437501Y-83650000D02*
G75*
G03*
X123619178Y-83640377I-8412481J-5796280D01*
G01*
X123609999Y-96667501D02*
G75*
G03*
X140429063Y-96681627I8415021J6527801D01*
G01*
%TO.C,N3*%
X184309999Y-90000000D02*
G75*
G03*
X176690045Y-89997865I-3809999J-78740D01*
G01*
X183395600Y-90000000D02*
G75*
G03*
X183395600Y-90000000I-2895600J0D01*
G01*
%TD*%
M02*
